<svg xmlns="http://www.w3.org/2000/svg" width="698.181" height="698.181" viewBox="0 0 523.636 523.636" stroke-linejoin="round" stroke-linecap="butt" xmlns:v="https://vecta.io/nano"><style><![CDATA[.B{clip-path:url(#A)}.C{fill:#fff}.D{stroke-linejoin:round}.E{stroke-linecap:butt}]]></style><path d="M0 523.636h523.636V0H0z" class="C"/><g transform="translate(-33.382 -33.382)"><path d="M33.382 295.2l26.182 13.091-11.221 16.831 2.494 4.987-17.455 17.455h26.182l-3.74 14.961 16.831 11.221 13.091 26.182 13.091 26.182-13.091 26.182h26.182l3.74 14.961 4.987 2.493 2.493 4.987 14.961 3.74v26.182l26.182-13.091 26.182 13.091 26.182 13.091 11.221 16.831 14.961-3.74v26.182l17.455-17.455 4.987 2.494 16.831-11.221 13.091 26.182 13.091-26.182 16.831 11.221 4.987-2.494 17.455 17.455v-26.182l14.961 3.74 11.221-16.831 26.182-13.091 26.182-13.091 26.182 13.091v-26.182l14.961-3.74 2.493-4.987 4.987-2.493 3.74-14.961h26.182l-13.091-26.182 13.091-26.182 13.091-26.182 16.831-11.221-3.74-14.961h26.182l-17.455-17.455 2.494-4.987-11.221-16.831 26.182-13.091-26.182-13.091 11.221-16.831-2.494-4.987 17.455-17.455h-26.182l3.74-14.961-16.831-11.221-13.091-26.182-13.091-26.182 13.091-26.182h-26.182l-3.74-14.961-4.987-2.493-2.493-4.987-14.961-3.74V85.745l-26.182 13.091-26.182-13.091-26.182-13.091-11.221-16.831-14.961 3.74V33.382l-17.455 17.455-4.987-2.494-16.831 11.221L295.2 33.382l-13.091 26.182-16.831-11.221-4.987 2.494-17.455-17.455v26.182l-14.961-3.74-11.221 16.831-26.182 13.091-26.182 13.091-26.182-13.091v26.182l-14.961 3.74-2.493 4.987-4.987 2.493-3.74 14.961H85.745l13.091 26.182-13.091 26.182-13.091 26.182-16.831 11.221 3.74 14.961H33.382l17.455 17.455-2.494 4.987 11.221 16.831z" class="B"/><path d="M68.291 295.2l-8.727 13.091 8.727 4.364-17.455 17.455 8.727 17.455 13.091 26.182 13.091 8.727v17.455l17.455 17.455-4.364 8.727 13.091 26.182 8.727 17.455 17.455 8.727 26.182 13.091 8.727-4.364 17.455 17.455h17.455l8.727 13.091 26.182 13.091 17.455 8.727 17.455-17.455 4.364 8.727 13.091-8.727 13.091 8.727 4.364-8.727 17.455 17.455 17.455-8.727 26.182-13.091 8.727-13.091h17.455l17.455-17.455 8.727 4.364 26.182-13.091 17.455-8.727 8.727-17.455 13.091-26.182-4.364-8.727 17.455-17.455v-17.455l13.091-8.727 13.091-26.182 8.727-17.455-17.455-17.455 8.727-4.364-8.727-13.091 8.727-13.091-8.727-4.364 17.455-17.455-8.727-17.455-13.091-26.182-13.091-8.727v-17.455L487.2 173.018l4.364-8.727-13.091-26.182-8.727-17.455-17.455-8.727-26.182-13.091-8.727 4.364-17.455-17.455h-17.455l-8.727-13.091-26.182-13.091-17.455-8.727-17.455 17.455-4.364-8.727-13.091 8.727-13.091-8.727-4.364 8.727-17.455-17.455-17.455 8.727-26.182 13.091-8.727 13.091h-17.455L173.018 103.2l-8.727-4.364-26.182 13.091-17.455 8.727-8.727 17.455-13.091 26.182 4.364 8.727-17.455 17.455v17.455l-13.091 8.727-13.091 26.182-8.727 17.455 17.455 17.455-8.727 4.364z" class="B C"/><path d="M68.291 295.2l3.174 4.76-3.174 12.694-8.727 34.909h26.182v34.909l4.76 3.174-4.76 14.281 14.281 4.76 3.174 12.694 8.727 34.909h26.182v26.182l34.909 8.727 12.694 3.174 4.76 14.281 14.281-4.76 3.174 4.76h34.909v26.182l34.909-8.727 12.694-3.174 4.76 3.174 4.76-3.174 12.694 3.174 34.909 8.727v-26.182h34.909l3.174-4.76 14.281 4.76 4.76-14.281 12.694-3.174 34.909-8.727v-26.182h26.182l8.727-34.909 3.174-12.694 14.281-4.76-4.76-14.281 4.76-3.174v-34.909h26.182l-8.727-34.909-3.174-12.694 3.174-4.76-3.174-4.76 3.174-12.694 8.727-34.909h-26.182v-34.909l-4.76-3.174 4.76-14.281-14.281-4.76-3.174-12.694-8.727-34.909h-26.182v-26.182l-34.909-8.727-12.694-3.174-4.76-14.281-14.281 4.76-3.174-4.76h-34.909V59.564l-34.909 8.727-12.694 3.174-4.76-3.174-4.76 3.174-12.694-3.174-34.909-8.727v26.182h-34.909l-3.174 4.76-14.281-4.76-4.76 14.281-12.694 3.174-34.909 8.727v26.182h-26.182l-8.727 34.909-3.174 12.694-14.281 4.76 4.76 14.281-4.76 3.174v34.909H59.564l8.727 34.909 3.174 12.694z" class="B"/><path d="M72.655 295.2l-1.19 4.76 3.808 5.712-6.982 6.982 9.974 4.987 7.481 29.922 7.481 29.922-2.72 8.161 5.712 3.808-10.473 10.473h13.091l1.19 4.76 8.161 2.72-4.987 9.974 34.909 34.909 34.909 34.909 9.974-4.987 2.72 8.161 4.76 1.19v13.091l10.473-10.473 3.808 5.712 8.161-2.72 29.922 7.481 29.922 7.481 4.987 9.974 6.982-6.982 5.712 3.808 4.76-1.19 4.76 1.19 5.712-3.808 6.982 6.982 4.987-9.974 29.922-7.481 29.922-7.481 8.161 2.72 3.808-5.712 10.473 10.473v-13.091l4.76-1.19 2.72-8.161 9.974 4.987 34.909-34.909 34.909-34.909-4.987-9.974 8.161-2.72 1.19-4.76h13.091l-10.473-10.473 5.712-3.808-2.72-8.161 7.481-29.922 7.481-29.922 9.974-4.987-6.982-6.982 3.808-5.712-1.19-4.76 1.19-4.76-3.808-5.712 6.982-6.982-9.974-4.987-7.481-29.922-7.481-29.922 2.72-8.161-5.712-3.808 10.473-10.473h-13.091l-1.19-4.76-8.161-2.72 4.987-9.974-34.909-34.909-34.909-34.909-9.974 4.987-2.72-8.161-4.76-1.19V85.745l-10.473 10.473-3.808-5.712-8.161 2.72-29.922-7.481-29.922-7.481-4.987-9.974-6.982 6.982-5.712-3.808-4.76 1.19-4.76-1.19-5.712 3.808-6.982-6.982-4.987 9.974-29.922 7.481-29.922 7.481-8.161-2.72-3.808 5.712-10.473-10.473v13.091l-4.76 1.19-2.72 8.161-9.974-4.987-34.909 34.909-34.909 34.909 4.987 9.974-8.161 2.72-1.19 4.76H85.745l10.473 10.473-5.712 3.808 2.72 8.161-7.481 29.922-7.481 29.922-9.974 4.987 6.982 6.982-3.808 5.712z" class="B C"/><path d="M72.655 295.2l2.618 10.473 2.992 11.969 7.481 3.74v26.182H103.2l-9.974 29.922 2.992 11.969 2.618 10.473h13.091l-3.74 7.481 29.922 9.974v34.909h34.909l9.974 29.922 7.481-3.74v13.091l10.473 2.618 11.969 2.992 29.922-9.974v17.455h26.182l3.74 7.481 11.969 2.992 10.473 2.618 10.473-2.618 11.969-2.992 3.74-7.481h26.182V487.2l29.922 9.974 11.969-2.992 10.473-2.618v-13.091l7.481 3.74 9.974-29.922h34.909v-34.909l29.922-9.974-3.74-7.481h13.091l2.618-10.473 2.992-11.969-9.974-29.922h17.455v-26.182l7.481-3.74 2.992-11.969 2.618-10.473-2.618-10.473-2.992-11.969-7.481-3.74v-26.182H487.2l9.974-29.922-2.992-11.969-2.618-10.473h-13.091l3.74-7.481-29.922-9.974v-34.909h-34.909l-9.974-29.922-7.481 3.74V98.836l-10.473-2.618-11.969-2.992-29.922 9.974V85.745h-26.182l-3.74-7.481-11.969-2.992-10.473-2.618-10.473 2.618-11.969 2.992-3.74 7.481h-26.182V103.2l-29.922-9.974-11.969 2.992-10.473 2.618v13.091l-7.481-3.74-9.974 29.922h-34.909v34.909l-29.922 9.974 3.74 7.481H98.836l-2.618 10.473-2.992 11.969 9.974 29.922H85.745v26.182l-7.481 3.74-2.992 11.969z" class="B"/><path d="M85.745 295.2l-10.473 10.473 10.473 15.709 17.455 26.182 13.964 20.945-20.945 20.945 15.709 10.473 26.182 17.455 20.945 13.964 13.964 20.945 17.455 26.182 10.473 15.709 20.945-20.945 20.945 13.964 26.182 17.455 15.709 10.473 10.473-10.473 10.473 10.473 15.709-10.473 26.182-17.455 20.945-13.964 20.945 20.945 10.473-15.709 17.455-26.182 13.964-20.945 20.945-13.964 26.182-17.455 15.709-10.473-20.945-20.945 13.964-20.945 17.455-26.182 10.473-15.709-10.473-10.473 10.473-10.473-10.473-15.709-17.455-26.182-13.964-20.945 20.945-20.945-15.709-10.473-26.182-17.455-20.945-13.964-13.964-20.945-17.455-26.182-10.473-15.709-20.945 20.945-20.945-13.964-26.182-17.455-15.709-10.473L295.2 85.745l-10.473-10.473-15.709 10.473-26.182 17.455-20.945 13.964-20.945-20.945-10.473 15.709-17.455 26.182-13.964 20.945-20.945 13.964-26.182 17.455-15.709 10.473 20.945 20.945-13.964 20.945-17.455 26.182-10.473 15.709z" class="B C"/><path d="M85.745 295.2v26.182l22.442 11.221-4.987 14.961h34.909l-20.945 20.945 5.984 8.977-11.221 22.442h26.182v17.455l14.961 4.987 5.984 8.977 8.977 5.984 4.987 14.961h17.455v26.182l22.442-11.221 8.977 5.984 20.945-20.945V487.2l14.961-4.987 11.221 22.442H295.2h26.182l11.221-22.442 14.961 4.987v-34.909l20.945 20.945 8.977-5.984 22.442 11.221v-26.182h17.455l4.987-14.961 8.977-5.984 5.984-8.977 14.961-4.987v-17.455h26.182l-11.221-22.442 5.984-8.977-20.945-20.945H487.2l-4.987-14.961 22.442-11.221V295.2v-26.182l-22.442-11.221 4.987-14.961h-34.909l20.945-20.945-5.984-8.977 11.221-22.442h-26.182v-17.455l-14.961-4.987-5.984-8.977-8.977-5.984-4.987-14.961h-17.455v-26.182l-22.442 11.221-8.977-5.984-20.945 20.945V103.2l-14.961 4.987-11.221-22.442H295.2h-26.182l-11.221 22.442-14.961-4.987v34.909l-20.945-20.945-8.977 5.984-22.442-11.221v26.182h-17.455l-4.987 14.961-8.977 5.984-5.984 8.977-14.961 4.987v17.455h-26.182l11.221 22.442-5.984 8.977 20.945 20.945H103.2l4.987 14.961-22.442 11.221z" class="B"/><path d="M85.745 295.2l26.182 26.182-3.74 11.221 29.922 14.961-14.961 29.922 14.961 22.442 14.961 22.442 11.221 3.74 3.74 11.221 22.442 14.961 22.442 14.961 29.922-14.961 14.961 29.922 11.221-3.74 26.182 26.182 26.182-26.182 11.221 3.74 14.961-29.922 29.922 14.961 22.442-14.961 22.442-14.961 3.74-11.221 11.221-3.74 14.961-22.442 14.961-22.442-14.961-29.922 29.922-14.961-3.74-11.221 26.182-26.182-26.182-26.182 3.74-11.221-29.922-14.961 14.961-29.922-14.961-22.442-14.961-22.442-11.221-3.74-3.74-11.221-22.442-14.961-22.442-14.961-29.922 14.961-14.961-29.922-11.221 3.74L295.2 85.745l-26.182 26.182-11.221-3.74-14.961 29.922-29.922-14.961-22.442 14.961-22.442 14.961-3.74 11.221-11.221 3.74-14.961 22.442-14.961 22.442 14.961 29.922-29.922 14.961 3.74 11.221z" class="B C"/><path d="M120.655 295.2l-8.727 26.182 26.182 26.182v52.364h17.455l8.727 26.182 26.182 8.727v17.455h52.364l26.182 26.182 26.182-8.727 26.182 8.727 26.182-26.182h52.364v-17.455l26.182-8.727 8.727-26.182h17.455v-52.364l26.182-26.182-8.727-26.182 8.727-26.182-26.182-26.182v-52.364h-17.455l-8.727-26.182-26.182-8.727v-17.455h-52.364l-26.182-26.182-26.182 8.727-26.182-8.727-26.182 26.182h-52.364v17.455l-26.182 8.727-8.727 26.182h-17.455v52.364l-26.182 26.182z" class="B"/><path d="M120.655 295.2l17.455 52.364 17.455 52.364h34.909v34.909l52.364 17.455 52.364 17.455 52.364-17.455 52.364-17.455v-34.909h34.909l17.455-52.364 17.455-52.364-17.455-52.364-17.455-52.364h-34.909v-34.909l-52.364-17.455-52.364-17.455-52.364 17.455-52.364 17.455v34.909h-34.909l-17.455 52.364z" class="B C"/><path d="M138.109 347.564l52.364 52.364 52.364 52.364h104.727l52.364-52.364 52.364-52.364V242.836l-52.364-52.364-52.364-52.364H242.836l-52.364 52.364-52.364 52.364z" class="B"/><path d="M164.291 295.2l-26.182 52.364 52.364 26.182v26.182h26.182l26.182 52.364 52.364-26.182 52.364 26.182 26.182-52.364h26.182v-26.182l52.364-26.182-26.182-52.364 26.182-52.364-52.364-26.182v-26.182h-26.182l-26.182-52.364-52.364 26.182-52.364-26.182-26.182 52.364h-26.182v26.182l-52.364 26.182z" class="B C"/><path d="M164.291 295.2l8.727 17.455-34.909 34.909h52.364v26.182l17.455 8.727 8.727 17.455h26.182v52.364l34.909-34.909 17.455 8.727 17.455-8.727 34.909 34.909v-52.364h26.182l8.727-17.455 17.455-8.727v-26.182h52.364l-34.909-34.909 8.727-17.455-8.727-17.455 34.909-34.909h-52.364v-26.182l-17.455-8.727-8.727-17.455h-26.182v-52.364l-34.909 34.909-17.455-8.727-17.455 8.727-34.909-34.909v52.364h-26.182l-8.727 17.455-17.455 8.727v26.182h-52.364l34.909 34.909z" class="B"/><path d="M190.473 295.2l-17.455 17.455 17.455 34.909 17.455 34.909 34.909 17.455 34.909 17.455 17.455-17.455 17.455 17.455 34.909-17.455 34.909-17.455 17.455-34.909 17.455-34.909-17.455-17.455 17.455-17.455-17.455-34.909-17.455-34.909-34.909-17.455-34.909-17.455-17.455 17.455-17.455-17.455-34.909 17.455-34.909 17.455-17.455 34.909-17.455 34.909z" class="B C"/><path d="M190.473 295.2v52.364h52.364v52.364H295.2h52.364v-52.364h52.364V295.2v-52.364h-52.364v-52.364H295.2h-52.364v52.364h-52.364z" class="B"/><path d="M190.473 295.2l52.364 52.364 52.364 52.364 52.364-52.364 52.364-52.364-52.364-52.364-52.364-52.364-52.364 52.364z" class="B C"/><path d="M242.836 347.564h104.727V242.836H242.836z" class="B"/></g><defs><clipPath id="A"><path d="M7.2 7.2h576v576H7.2z" class="D E"/></clipPath></defs></svg>