<svg xmlns="http://www.w3.org/2000/svg" xmlns:xlink="http://www.w3.org/1999/xlink" height="576" viewBox="0 0 576 432" width="768" stroke-linecap="butt" stroke-linejoin="round" xmlns:v="https://vecta.io/nano"><style><![CDATA[.B{stroke-linecap:butt}.C{stroke-linejoin:round}.D{stroke-linecap:square}.E{fill:none}.F{clip-path:url(#k)}.G{stroke-width:.5}.H{stroke:#000}.I{stroke:#b2b2b2}.J{stroke-width:1.5}.K{stroke-linejoin:miter}]]></style><g fill="#fff"><path d="M0 432h576V0H0z"/><path d="M56.293 400.24H559.44V18.36H56.293z"/></g><path d="M108.209 400.24V18.36" class="D E F G I"/><defs><path d="M0 0v4" id="A" class="B C G H"/></defs><use x="108.209" xlink:href="#A" y="400.24" class="G H"/><defs><path d="M37.25 0h-8.781v56q-3.172-3.016-8.328-6.047-5.156-3.031-9.25-4.547v8.5q7.375 3.469 12.891 8.391 5.516 4.938 7.813 9.578h5.656z" id="B" class="B C"/><path d="M5.469 16.547l8.453.781q1.063-5.953 4.094-8.641Q21.047 6 25.781 6q4.047 0 7.094 1.859 3.063 1.859 5.016 4.953 1.953 3.109 3.266 8.375 1.328 5.281 1.328 10.75 0 .578-.047 1.75-2.641-4.187-7.203-6.812-4.562-2.609-9.891-2.609-8.891 0-15.047 6.438-6.141 6.453-6.141 17 0 10.891 6.422 17.531Q17 71.875 26.656 71.875q6.984 0 12.766-3.766 5.797-3.75 8.797-10.719 3-6.953 3-20.141 0-13.719-2.984-21.844-2.969-8.125-8.859-12.375-5.875-4.25-13.781-4.25-8.406 0-13.734 4.656-5.312 4.672-6.391 13.109zm35.984 31.594q0 7.578-4.031 12.016-4.016 4.438-9.687 4.438-5.859 0-10.203-4.781-4.344-4.781-4.344-12.406 0-6.828 4.125-11.109 4.125-4.266 10.172-4.266 6.109 0 10.031 4.266 3.938 4.281 3.938 11.844z" id="C" class="B C"/><path d="M4.156 18.75l9.219.781q1.031-6.734 4.766-10.141Q21.875 6 27.156 6q6.344 0 10.734 4.781 4.391 4.797 4.391 12.703 0 7.516-4.219 11.859Q33.844 39.703 27 39.703q-4.25 0-7.672-1.937-3.406-1.922-5.359-5l-8.25 1.078 6.922 36.766H48.25v-8.406H19.672l-3.844-19.234q6.438 4.5 13.516 4.5 9.375 0 15.813-6.5 6.453-6.5 6.453-16.703 0-9.719-5.656-16.797-6.891-8.687-18.797-8.687-9.766 0-15.953 5.469-6.172 5.469-7.047 14.5z" id="D" class="B C"/></defs><g transform="matrix(.12 0 0 -.12 94.86319 416.829375)"><use xlink:href="#B"/><use x="55.615" xlink:href="#C"/><use x="111.23" xlink:href="#C"/><use x="166.846" xlink:href="#D"/></g><g class="G"><path d="M200.302 400.24V18.36" class="D E F I"/><use x="200.302" xlink:href="#A" y="400.24" class="H"/></g><defs><path d="M50.344 8.453V0H3.031q-.094 3.172 1.016 6.109 1.813 4.828 5.781 9.516 3.984 4.688 11.516 10.844 11.672 9.563 15.766 15.156 4.109 5.594 4.109 10.578 0 5.219-3.75 8.797-3.734 3.594-9.734 3.594-6.344 0-10.156-3.812-3.812-3.797-3.859-10.531l-9.031.922q.922 10.109 6.969 15.406 6.063 5.297 16.281 5.297 10.297 0 16.297-5.719Q50.25 60.453 50.25 52q0-4.297-1.766-8.453-1.75-4.141-5.828-8.734-4.078-4.594-13.547-12.594-7.922-6.641-10.172-9.016-2.234-2.359-3.703-4.75z" id="E" class="B C"/><path d="M4.156 35.297q0 12.703 2.609 20.438 2.609 7.75 7.75 11.938 5.156 4.203 12.969 4.203 5.766 0 10.109-2.328 4.344-2.312 7.172-6.687 2.844-4.359 4.453-10.641 1.609-6.266 1.609-16.922 0-12.594-2.594-20.328Q45.656 7.234 40.5 3q-5.141-4.219-13.016-4.219-10.344 0-16.25 7.422-7.078 8.938-7.078 29.094zm9.031 0q0-17.625 4.125-23.469Q21.438 6 27.484 6q6.063 0 10.188 5.859 4.125 5.859 4.125 23.438 0 17.688-4.125 23.484-4.125 5.813-10.281 5.813-6.047 0-9.672-5.125-4.531-6.531-4.531-24.172z" id="F" class="B C"/></defs><g transform="matrix(.12 0 0 -.12 186.955605 416.829375)"><use xlink:href="#E"/><use x="55.615" xlink:href="#F"/><use x="111.23" xlink:href="#F"/><use x="166.846" xlink:href="#F"/></g><g class="G"><path d="M292.445 400.24V18.36" class="D E F I"/><use x="292.445" xlink:href="#A" y="400.24" class="H"/></g><g transform="matrix(.12 0 0 -.12 279.098455 416.829375)"><use xlink:href="#E"/><use x="55.615" xlink:href="#F"/><use x="111.23" xlink:href="#F"/><use x="166.846" xlink:href="#D"/></g><g class="G"><path d="M384.537 400.24V18.36" class="D E F I"/><use x="384.537" xlink:href="#A" y="400.24" class="H"/></g><g transform="matrix(.12 0 0 -.12 371.19087 416.829375)"><use xlink:href="#E"/><use x="55.615" xlink:href="#F"/><use x="111.23" xlink:href="#B"/><use x="166.846" xlink:href="#F"/></g><g class="G"><path d="M476.63 400.24V18.36" class="D E F I"/><use x="476.63" xlink:href="#A" y="400.24" class="H"/></g><g transform="matrix(.12 0 0 -.12 463.283285 416.829375)"><use xlink:href="#E"/><use x="55.615" xlink:href="#F"/><use x="111.23" xlink:href="#B"/><use x="166.846" xlink:href="#D"/></g><path d="M56.293 382.055H559.44" class="D E F G I"/><defs><path d="M0 0h-4" id="G" class="B C G H"/></defs><use x="56.293" xlink:href="#G" y="382.055" class="G H"/><defs><path d="M9.078 0v10.016h10.016V0z" id="H" class="B C"/></defs><g transform="matrix(.12 0 0 -.12 31.612813 385.157426)"><use xlink:href="#F"/><use x="55.615" xlink:href="#H"/><use x="83.398" xlink:href="#F"/></g><g class="G"><path d="M56.293 309.316H559.44" class="D E F I"/><use x="56.293" xlink:href="#G" y="309.316" class="H"/></g><g transform="matrix(.12 0 0 -.12 31.612813 312.418378)"><use xlink:href="#F"/><use x="55.615" xlink:href="#H"/><use x="83.398" xlink:href="#E"/></g><g class="G"><path d="M56.293 236.577H559.44" class="D E F I"/><use x="56.293" xlink:href="#G" y="236.577" class="H"/></g><defs><path d="M32.328 0v17.141H1.266v8.063l32.672 46.375h7.172V25.203h9.672v-8.062h-9.672V0zm0 25.203v32.266L9.906 25.203z" id="I" class="B C"/></defs><g transform="matrix(.12 0 0 -.12 31.612813 239.67933)"><use xlink:href="#F"/><use x="55.615" xlink:href="#H"/><use x="83.398" xlink:href="#I"/></g><g class="G"><path d="M56.293 163.838H559.44" class="D E F I"/><use x="56.293" xlink:href="#G" y="163.838" class="H"/></g><defs><path d="M49.75 54.047l-8.734-.672q-1.172 5.172-3.312 7.516-3.578 3.766-8.797 3.766-4.203 0-7.375-2.344-4.141-3.031-6.547-8.844-2.391-5.812-2.484-16.547 3.172 4.828 7.766 7.172 4.594 2.344 9.625 2.344 8.781 0 14.953-6.469 6.188-6.469 6.188-16.719 0-6.75-2.906-12.531-2.906-5.781-7.984-8.859-5.078-3.078-11.531-3.078-10.984 0-17.922 8.078Q3.766 14.938 3.766 33.5q0 20.75 7.656 30.172 6.688 8.203 18.016 8.203 8.453 0 13.844-4.734 5.406-4.734 6.469-13.094zM13.875 23.188q0-4.531 1.922-8.687 1.922-4.141 5.391-6.328Q24.656 6 28.469 6q5.563 0 9.563 4.484 4.016 4.5 4.016 12.219 0 7.422-3.969 11.688-3.953 4.281-9.953 4.281-5.953 0-10.109-4.281-4.141-4.266-4.141-11.203z" id="J" class="B C"/></defs><g transform="matrix(.12 0 0 -.12 31.612813 166.940283)"><use xlink:href="#F"/><use x="55.615" xlink:href="#H"/><use x="83.398" xlink:href="#J"/></g><g class="G"><path d="M56.293 91.099H559.44" class="D E F I"/><use x="56.293" xlink:href="#G" y="91.099" class="H"/></g><defs><path d="M17.672 38.813q-5.469 2.016-8.109 5.719-2.625 3.719-2.625 8.891 0 7.813 5.609 13.125 5.625 5.328 14.938 5.328 9.375 0 15.094-5.453 5.719-5.437 5.719-13.25 0-4.984-2.625-8.672-2.609-3.672-7.922-5.687 6.594-2.141 10.031-6.937 3.438-4.781 3.438-11.422 0-9.172-6.5-15.422-6.484-6.25-17.078-6.25-10.594 0-17.094 6.266-6.5 6.281-6.5 15.656 0 6.984 3.547 11.688 3.547 4.719 10.078 6.422zm-1.75 14.906q0-5.078 3.266-8.312 3.281-3.219 8.5-3.219 5.078 0 8.328 3.188 3.25 3.203 3.25 7.844 0 4.844-3.359 8.141-3.344 3.297-8.312 3.297-5.031 0-8.359-3.234-3.312-3.219-3.312-7.703zm-2.828-33.062q0-3.766 1.781-7.281 1.781-3.516 5.297-5.453Q23.688 6 27.734 6q6.297 0 10.391 4.047 4.109 4.063 4.109 10.313 0 6.344-4.219 10.5-4.219 4.156-10.578 4.156-6.203 0-10.281-4.109-4.062-4.094-4.062-10.25z" id="K" class="B C"/></defs><g transform="matrix(.12 0 0 -.12 31.612813 94.201235)"><use xlink:href="#F"/><use x="55.615" xlink:href="#H"/><use x="83.398" xlink:href="#K"/></g><g class="G"><path d="M56.293 18.36H559.44" class="D E F I"/><use x="56.293" xlink:href="#G" y="18.36" class="H"/></g><g transform="matrix(.12 0 0 -.12 31.612813 21.462187)"><use xlink:href="#B"/><use x="55.615" xlink:href="#H"/><use x="83.398" xlink:href="#F"/></g><defs><path d="M8.203 0v71.578H56.5v-8.437H17.672V40.969h33.594v-8.453H17.672V0z" id="L" class="B C"/><path d="M6.5 0v51.859h7.906V44q3.031 5.516 5.594 7.266 2.563 1.766 5.641 1.766 4.438 0 9.031-2.828l-3.031-8.156q-3.219 1.906-6.437 1.906-2.891 0-5.187-1.734-2.297-1.734-3.266-4.812-1.469-4.687-1.469-10.25V0z" id="M" class="B C"/><path d="M40.438 6.391Q35.547 2.25 31.031.531q-4.516-1.703-9.687-1.703-8.547 0-13.141 4.172-4.594 4.172-4.594 10.672 0 3.813 1.734 6.953 1.734 3.156 4.547 5.063 2.813 1.906 6.328 2.875 2.578.688 7.813 1.328 10.641 1.266 15.672 3.016.047 1.813.047 2.297 0 5.375-2.5 7.578-3.359 2.969-10 2.969-6.203 0-9.156-2.172-2.953-2.172-4.375-7.687l-8.594 1.172q1.172 5.516 3.859 8.906 2.688 3.391 7.766 5.219 5.078 1.844 11.766 1.844 6.641 0 10.781-1.562 4.156-1.562 6.109-3.937 1.953-2.359 2.734-5.984.438-2.234.438-8.094V21.734q0-12.266.563-15.516.563-3.234 2.234-6.219h-9.187q-1.359 2.734-1.75 6.391zm-.734 19.641q-4.797-1.953-14.359-3.328-5.422-.781-7.672-1.766-2.234-.969-3.469-2.844-1.219-1.875-1.219-4.172 0-3.516 2.656-5.859 2.672-2.344 7.797-2.344 5.078 0 9.031 2.219 3.953 2.219 5.813 6.078 1.422 2.984 1.422 8.781z" id="N" class="B C"/><path d="M40.438 19l8.641-1.125q-1.422-8.937-7.266-14-5.828-5.047-14.328-5.047-10.641 0-17.109 6.953-6.469 6.969-6.469 19.953 0 8.391 2.781 14.688 2.781 6.313 8.469 9.453 5.688 3.156 12.391 3.156 8.438 0 13.813-4.281 5.375-4.266 6.891-12.125l-8.547-1.328q-1.219 5.234-4.328 7.859-3.094 2.641-7.5 2.641-6.641 0-10.797-4.766-4.141-4.75-4.141-15.047 0-10.453 4-15.187 4.016-4.734 10.453-4.734 5.172 0 8.641 3.172Q39.5 12.406 40.438 19z" id="O" class="B C"/><path d="M25.781 7.859L27.047.094q-3.703-.781-6.641-.781-4.781 0-7.422 1.516-2.625 1.516-3.703 3.984-1.078 2.469-1.078 10.375v29.828H1.766v6.844h6.438v12.844l8.734 5.266V51.859h8.844v-6.844h-8.844V14.703q0-3.766.469-4.844.469-1.062 1.516-1.703 1.047-.641 3-.641 1.469 0 3.859.344z" id="P" class="B C"/><path d="M6.641 61.469v10.109h8.797V61.469zM6.641 0v51.859h8.797V0z" id="Q" class="B C"/><path d="M3.328 25.922q0 14.406 8 21.344 6.688 5.766 16.313 5.766 10.688 0 17.469-7.016 6.797-7 6.797-19.359 0-10-3-15.75-3-5.734-8.75-8.906-5.734-3.172-12.516-3.172-10.891 0-17.609 6.984-6.703 6.984-6.703 20.109zm9.031 0q0-9.953 4.344-14.906 4.344-4.953 10.938-4.953 6.547 0 10.891 4.969 4.344 4.984 4.344 15.188 0 9.625-4.375 14.578-4.375 4.953-10.859 4.953-6.594 0-10.937-4.937-4.344-4.922-4.344-14.891z" id="R" class="B C"/><path d="M6.594 0v51.859H14.5v-7.375q5.719 8.547 16.5 8.547 4.688 0 8.625-1.687 3.938-1.687 5.891-4.422 1.953-2.734 2.734-6.484.484-2.453.484-8.547V0h-8.797v31.547q0 5.375-1.031 8.031-1.016 2.656-3.625 4.234-2.609 1.594-6.125 1.594-5.625 0-9.703-3.562-4.078-3.562-4.078-13.516V0z" id="S" class="B C"/><path d="M8.688 0v45.016H.922v6.844h7.766v5.516q0 5.219.938 7.766 1.266 3.422 4.453 5.531 3.203 2.125 8.969 2.125 3.719 0 8.203-.875l-1.312-7.656q-2.734.484-5.187.484-4 0-5.656-1.719-1.656-1.703-1.656-6.391v-4.781h10.109v-6.844H17.438V0z" id="T" class="B C"/><path d="M6.594-19.875v71.734h8v-6.734q2.844 3.953 6.406 5.922 3.563 1.984 8.641 1.984 6.641 0 11.719-3.422 5.078-3.422 7.656-9.656 2.594-6.219 2.594-13.641 0-7.953-2.859-14.328-2.844-6.375-8.297-9.766Q35.016-1.172 29-1.172q-4.391 0-7.891 1.859-3.484 1.859-5.734 4.688v-25.25zm7.953 45.516q0-10.016 4.047-14.797 4.063-4.781 9.828-4.781 5.859 0 10.031 4.953 4.172 4.953 4.172 15.359 0 9.906-4.078 14.828-4.078 4.938-9.734 4.938-5.625 0-9.953-5.25-4.312-5.25-4.312-15.25z" id="U" class="B C"/><path d="M42.094 16.703l9.078-1.125q-2.141-7.953-7.953-12.359-5.812-4.391-14.844-4.391-11.375 0-18.047 7-6.672 7.016-6.672 19.656 0 13.094 6.734 20.313 6.75 7.234 17.484 7.234 10.406 0 17-7.078 6.594-7.078 6.594-19.922 0-.781-.047-2.344H12.75q.484-8.547 4.828-13.094 4.344-4.531 10.844-4.531 4.828 0 8.25 2.531 3.422 2.547 5.422 8.109zM13.234 30.906h28.953q-.578 6.547-3.312 9.813-4.203 5.078-10.891 5.078-6.062 0-10.187-4.047-4.125-4.047-4.562-10.844z" id="V" class="B C"/><path d="M3.078 15.484l8.688 1.359q.734-5.219 4.078-8 3.344-2.781 9.359-2.781 6.047 0 8.969 2.453 2.938 2.469 2.938 5.797 0 2.969-2.594 4.688-1.797 1.172-8.984 2.969-9.656 2.453-13.391 4.234-3.734 1.781-5.672 4.922-1.922 3.156-1.922 6.969 0 3.453 1.578 6.406 1.594 2.969 4.328 4.922 2.047 1.5 5.578 2.547 3.547 1.063 7.609 1.063 6.094 0 10.703-1.766 4.625-1.75 6.813-4.766 2.203-3 3.031-8.016l-8.594-1.172q-.578 4-3.391 6.234-2.812 2.25-7.937 2.25-6.047 0-8.641-2-2.594-2-2.594-4.687 0-1.703 1.078-3.078 1.078-1.406 3.375-2.344 1.313-.484 7.766-2.234 9.328-2.5 13-4.094 3.688-1.578 5.781-4.609 2.109-3.016 2.109-7.516 0-4.391-2.562-8.281-2.562-3.875-7.406-6-4.828-2.125-10.922-2.125-10.109 0-15.406 4.203-5.297 4.203-6.766 12.453z" id="W" class="B C"/></defs><g transform="matrix(0 -.14 -.14 0 23.830312 265.712344)"><use xlink:href="#L"/><use x="61.084" xlink:href="#M"/><use x="94.385" xlink:href="#N"/><use x="150" xlink:href="#O"/><use x="200" xlink:href="#P"/><use x="227.783" xlink:href="#Q"/><use x="250" xlink:href="#R"/><use x="305.615" xlink:href="#S"/><use x="361.23" xlink:href="#AS"/><use x="389.014" xlink:href="#R"/><use x="444.629" xlink:href="#T"/><use x="472.412" xlink:href="#AS"/><use x="500.195" xlink:href="#U"/><use x="555.811" xlink:href="#N"/><use x="611.426" xlink:href="#U"/><use x="667.041" xlink:href="#V"/><use x="722.656" xlink:href="#M"/><use x="755.957" xlink:href="#W"/></g><g class="D E"><g class="J"><path d="M56.742 382.055h30.74l1.538-3.464 1.563 3.464h6.05l1.538-2.694 1.538 2.694h21.51l1.539-1.766 1.539 1.766h3.102l1.513-1.865 1.513.356 1.537-2.963 1.537.125 1.538 1.643 1.538.187 1.563-5.825 1.538 5.045 1.539-38.348 1.539-13.461 1.538 8.478 1.563-13.587 1.488 12.095 1.488 7.964 1.537-1.347 1.537 4.865 1.538 2.04 1.538-10.038 1.563 13.461 1.538-6.591 1.539-15.224 1.539 7.315 1.538 5.745 1.563 2.915 1.488 3.416 1.488-5.494 1.537 3.191 1.537 5.003 1.538-7.687 1.538-2.118 1.563 3.327 1.538-4.985 1.539-4.507 1.539 5.092 1.538-2.181 1.563 6.801 1.488-6.158 1.488-1.28 1.537 10.734 1.537-6.81 1.538 3.486 1.538-10.345 1.563-1.896 1.538 2.767 1.539 4.671 1.539 1.904 1.538-6.014 1.563 14.822 1.513-7.557 1.513-3.097 1.537 6.947 1.537-1.25 1.538-3.335 1.538 3.342 1.563.556 1.538-14.388 1.539 9.644 1.539-4.236 1.538-.018 1.563 5.505 1.488-.2 1.488 5.618 1.537-5.071 1.537-6.34 1.538-3.743 1.538 11.412 1.563 1.65 1.538-7.699 1.539 6.886 1.539-3.535 1.538-6.259 1.563 4.825 1.488-2.568 1.488 5.034 1.537-5.326 1.537 5.784 1.538-2.097 1.538 4.315 1.563-9.093 1.538.53 1.539 3.732 1.539 2.906 1.538-4.852 1.563 8.73 1.488-10.014 1.488-.831 1.537.086 1.537 8.98 1.538-8.096 1.538-3.761 1.563 2.439 1.538 6.972 1.539-10.035 1.539.679 1.538 5.568 1.563-3.693 1.513-5.63 1.513-.56 1.537 4.431 1.537-3.634 1.538.607 1.538-2.008 1.563 4.81 1.538 3.936 1.539-2.782 1.539-10.674 1.538 13.049 1.563-.618 1.488-3.022 1.488 1.005 1.537 1.66 1.537-4.087 1.538 6.098 1.538-4.28 1.563-1.612 1.538 2.338 1.539-3.732 1.539 2.797 1.538-5.847 1.563 7.69 1.488-7.592 1.488 5.981 1.537-4.622 1.537 5.645 1.538-6.288 1.538 1.078 1.563.805 1.538-2.303 1.539.185 1.539-6.72 1.538 6.292 1.563-.805 1.488 2.677 1.487-6.389 1.537 7.059 1.538-7.444 1.538 5.054 1.538-10.175 1.563 12.029 1.538 2.642 1.538-3.651 1.539-1.22 1.539-9.346 1.563 5.43 1.513-1.908 1.512 7.679 1.537 4.769 1.538-2.504 1.538-.691 1.538-2.284 1.563 8.447 1.538-6.714 1.538.091 1.539 6.357 1.539-8.062 1.563-.025 1.488 3.333 1.487-3.601 1.537-14.253 1.538.824 1.538-6.011 1.538 10.404 1.563-10.33 1.538 7.768 1.538-4.66 1.539 6.957 1.539-4.52 1.563 1.983 2.975-14.128 1.537 8.523 1.538 3.14 1.538-1.98 1.538-.155 1.563-1.762 1.538-2.754 1.538-4.514 1.539 8.358 1.539.255 1.563 1.62 1.488-1.015 1.487-7.596 1.537 2.646 1.538 4.16 1.538-5.722 1.538 5.721 1.563-.379 1.538-2.87 1.538 2.239 1.539-9.478 1.539 5.872 1.563-.507 1.513-2.219 1.512 6.74 1.537-10.028 1.538 7.447 1.538-.481 1.538 1.786 1.563-2.824 1.538.131 1.538-3.535 1.539-2.503 1.539 6.402 1.563-5.349 1.488-4.481 1.487-1.294 1.537 3.072 1.538-2.257 1.538 4.436 1.538 1.149 1.563 2.243 1.538 1.008 1.538-3.268 1.539-3.966 1.539-6.161 1.563 8.476 1.488 4.916 1.487-5.361 1.537.655 1.538-3.515 1.538 5.388 1.538-8.633 1.563-1.023 1.538 11.355 1.538-7.044 1.539 5.54 1.539-2.587 1.563 3.896 1.488-9.986 1.487 1.827 1.537-2.712 1.538 5.107 1.538-1.85 1.538 2.013 1.563 4.536 1.538-6.638 1.538 4.473 1.539-12.962 1.539 4.035 1.563-6.752 1.513 11.762 1.512 1.364 1.537-.349 1.538-3.151 1.538-.54 1.538 4.721 1.563.956 1.538-7.41 1.538-1.253 1.539 9.8 1.539-4.825 1.563-3.81 1.488-1.385 1.487 7.458 1.537.148 1.538 6.912 1.538-4.573 1.538-.187 1.563-2.679 1.538 1.435 1.538 3.707 1.539-6.777 1.539 4.768 1.563-8.406 1.488 3.544 1.487 7.077 1.537.302 1.538-4.341 1.538-.417 1.538-2.281 1.563 7.012 1.538-9.186 1.538 5.347 1.539-.18 1.539-11.525 1.563 9.245 1.488 4.91 1.487-8.444 1.537 4.298 1.538-3.264 1.538 5.523" stroke="#0072bd" class="F"/><path d="M56.742 382.055h23.021l1.538-4.279 1.563 4.279h4.617l1.538-6.928 1.563 6.928 1.488-8.659 1.488 8.659h9.253l1.539-2.617 1.539-25.829 1.538 6.477 1.563 7.08 1.488-9.212 1.488-.697 1.537 19.98 1.537-27.778 1.538 7.97 1.538 4.317 1.563-9.843 1.538 4.658 1.539 6.072 1.539-.453 1.538 1.438 1.563 8.659 1.513-3.279 1.513-5.054 1.537-2.758 1.537 10.725 1.538-4.729 1.538-11.555 1.563 8.076 1.538 1.87 1.539-9.893 1.539-3.015 1.538 4.91 1.563 12.437 1.488-10.338 1.488.582 1.537 2.14 1.537-2.681 1.538 7.151 1.538-14.568 1.563 10.129 1.538-5.001 1.539-.259 1.539.36 1.538-.644 1.563.229 1.488 4.785 1.488-4.972 1.537-8.429 1.537 4.593 1.538 2.529 1.538-.479 1.563-14.772 1.538 18.693 1.539 2.999 1.539-10.106 1.538-1.811 1.563 1.189 1.488 12.162 1.488-13.869 1.537 3.242 1.537-5.089 1.538 7.553 1.538-2.722 1.563-4.398 1.538-.445 1.539 4.375 1.539 7.152 1.538-5.098 1.563-8.047 1.513 8.561 1.513-.444 1.537-9.249 1.537 5.453 1.538-2.907 1.538-1.73 1.563-9.172 1.538 15.575 1.539-6.045 1.539 4.261 1.538 2.155 1.563-7.564 1.488 8.117 1.488-13.084 1.537 4.913 1.537-.628 1.538.46 1.538 4.696 1.563-2.845 1.538 3.087 1.539-6.318 1.539-9.021 1.538 12.929 1.563-6.907 1.488-1.638 1.488-2.943 1.537 8.787 1.537-6.699 1.538 5.444 1.538-7.884 1.563-9.47 1.538 11.36 1.539-1.398 1.539-1.036 1.538 3.449 1.563-.74 1.488-.976 1.488 3.096 1.537-3.747 1.537 3.015 1.538.649 1.538-8.504 1.563 4.317 1.538 10.712 1.539-10.636 1.539-2.426 1.538 11.757 1.563-8.717 1.513-.72 1.513-4.565 1.537-3.474 1.537-1.401 1.538 6.253 1.538-9.778 1.563 2.46 1.538-2.944 1.539 3.81 1.539-1.846 1.538 9.62 1.563-3.712 1.488 3.822 3.025-17.077 1.537 7.581 1.538-.065 1.538 6.019 1.563-8.753 1.538 6.015 1.539-4.96 1.539-.683 1.538 10.874 1.563-9.813 1.488-3.914 1.488 5.445 1.537 5.13 1.537-3.73 1.538-1.746 1.538 4.692 1.563-12.821 1.538 6.075 1.539 2.899 1.539-5.349 1.538 5.485 1.563-3.018 1.488-5.085 1.487-2.408 1.537 2.497 1.538 7.829 1.538 1.674 1.538-11.7 1.563-10.036 1.538 13.946 1.538-2.862 1.539 8.157 1.539-4.709 3.076-2.962 1.512 4.005 1.537-4.712 1.538 4.058 1.538 1.074 1.538-2.791 1.563-1.627 1.538 3.814 1.538-8.623 1.539 8.047 1.539-1.072 1.563-6.897 1.488 7.338 1.487 3.2 1.537-1.821 1.538 4.373 1.538-1.579 1.538 2.028 1.563-3.989 1.538 5.091 1.538-9.058 1.539 7.209 1.539 3.952 1.563-14.649 1.488 6.156 1.487 6.759 1.537-.592 1.538.286 1.538 2.728 1.538-11.498 1.563-.533 1.538 2.408 1.538-.086 1.539-1.627 1.539 2.964 3.051-3.174 1.487 7.358 1.537-7.118 1.538 3.234 1.538-4.38 1.538 2.631 1.563-12.816 1.538 15.483 1.538.497 1.539-1.412 1.539 3.637 1.563-12.679 1.513 9.556 1.512-1.426 1.537-2.008 1.538 3.744 1.538-4.223 1.538 3.213 1.563-5.671 1.538-9.636 1.538 1.344 1.539 9.582 1.539 6.437 1.563-20.063 1.488 9.86 1.487-1.319 1.537 2.979 1.538 7.142 1.538-3.437 1.538-4.252 1.563-2.864 1.538-4.455 1.538 6.456 1.539-10.391 1.539 13.9 1.563-7.165 1.488.363 1.487-.032 1.537 4.099 1.538-1.272 1.538-.736 1.538 3.254 1.563-2.601 1.538-6.171 1.538 7.875 1.539 1.779 1.539-1.524 1.563-6.371 1.488-4.495 1.487-5.719 1.537 8.044 1.538 4.864 1.538-4.109 1.538 3.295 1.563-6.582 1.538 1.131 1.538 4.317 1.539 1.046 1.539 4.723 1.563-8.393 1.513 5.741 1.512-4.909 1.537-10.118 1.538 12.278 1.538 5.689 1.538 1.579 1.563-5.777 1.538 5.723 1.538-12.474 1.539 4.299 1.539 5.175 1.563-10.92 1.488.748 1.487-1.618 1.537-.883 1.538 3.973 1.538-1.066 1.538 8.955 1.563-6.982 1.538 4.794 1.538-6.495 1.539 5.815 1.539-4.964 1.563-3.702 1.488 8.571 1.487-6.177 1.537-7.518 1.538 7.035 3.076 4.842 1.563.896 1.538-3.329 1.538-4.811 1.539 2.788 1.539 6.491 1.563-5.855 1.488-3.374 1.487 3.698 1.537-3.863 1.538 11.677 1.538-9.499" stroke="#d95319" class="F"/><path d="M56.742 382.055h13.869l1.563-7.422 1.488 7.422h4.562l1.538-4.982 1.538 4.982h6.18l1.538-6.928 1.563 6.928h1.488l1.488-3.109 1.537 3.109h1.537l1.538-2.694 1.538 2.694 1.563-6.381 1.538 6.381h1.539l1.539-2.032 1.538-.409 1.563.314 1.488 2.127h1.488l1.537-2.409 1.537 2.409h1.538l1.538-1.846 1.563 1.846 1.538-3.399 3.079 3.399 1.538-1.676 1.563-2.235 1.513.18 1.513 3.73 1.537-4.472 1.537.125 1.538 1.643 1.538-2.33 1.563 3.366 1.538-6.023 1.539-90.867 1.539 15.288 1.538 5.169 1.563-.178 1.488 14.492 1.488-6.199 1.537-3.19 1.537-1.886 1.538-9.322 1.538 13.298 1.563-15.508 1.538 6.138 1.539 12.213 1.539-15.491 1.538-5.67 1.563.895 1.488 5.356 1.488-4.105 1.537-6.396 1.537-.326 1.538 12.525 1.538 9.242 1.563-1.1 1.538-14.433 1.539 4.009 1.539 11.244 1.538-.968 1.563-15.854 1.488 15.752 1.488-1.723 1.537-8.193 1.537 1.562 1.538-4.067 1.538 16.759 1.563-3.298 1.538-6.736 1.539-1.561 1.539-8.247 1.538 11.061 1.563-11.179 1.513 1.134 1.513 6.636 1.537-.89 1.537-6.41 1.538 12.123 1.538-5.641 1.563 2.795 1.538-9.487 1.539 4.065 1.539 5.602 1.538-2.706 1.563-1.716 1.488 7.954 1.488-1.954 1.537 3.112 1.537-2.891 1.538.736 1.538 2.174 1.563-2.04 1.538-8.131 1.539 1.974 1.539 5.286 1.538-7.596 1.563 6.597 1.488 4.978 1.488-2.075 1.537 1.572 1.537-3.396 1.538 9.826 1.538-11.645 1.563 18.584 1.538-12.426 1.539-6.277 1.539 7.594 1.538-8.485 1.563-.338 1.488 3.025 1.488-8.555 1.537 14.507 1.537-1.732 1.538 2.613 1.538-9.794 1.563 19.664 1.538-13.381 1.539-.794 1.539 1.083 1.538-12.956 1.563 2.822 1.513 9.615 1.513-1.458 1.537 5.402 1.537.314 1.538-3.194 1.538 11.048 1.563-5.03 1.538-6.11 1.539-1.697 1.539 4.92 1.538-5.064 1.563-2.587 1.488 3.379 1.488 1.329 1.537 4.082 1.537-.345 1.538 2.586 1.538-7.325 1.563 10.634 1.538-16.655 1.539 12.299 1.539-.945 1.538-4.876 1.563 4.955 1.488 3.193 1.488-3.546 1.537 1.135 1.537-2.809 1.538 6.458 1.538-1.757 1.563.984 1.538 1.983 1.539 4.535 1.539-7.775 1.538-6.936 1.563 1.52 1.488 7.36 1.487-5.47 1.537 7.548 1.538-.664 1.538.391 1.538 5.24 1.563 2.419 1.538-7.764 3.078-11.173 1.539 12.171 1.563-.602 1.513-4.045 1.512 4.131 1.537 3.164 1.538-4.736 1.538 11.897 1.538-6.917 1.563 3.192 1.538-8.537 1.538-.436 1.539 6.673 1.539-.062 1.563 5.196 1.488-2.743 1.487-3.8 1.537 13.151 1.538-8.061 1.538 1.75 1.538-8.852 1.563 9.705 1.538-.185 1.538-3.473 1.539-4.681 1.539 6.081 1.563 1.759 1.488 4.448 1.487-11.512 1.537 6.399 1.538-1.292 1.538 1.136 1.538.844 1.563 2.269 1.538-6.773 1.538.05 1.539 2.228 1.539-8.029 1.563 7.312 1.488 3.62 1.487-.362 1.537-12.207 1.538 4.409 1.538 6.675 1.538 1.243 1.563 1.455 1.538-6.037 1.538 4.469 1.539-3.368 1.539-6.025 1.563 8.517 1.513-4.508 1.512 2.421 1.537 4.452 1.538-5.231 1.538-.211 1.538.533 1.563 6.865 1.538-3.816 1.538 5.013 1.539-7.649 1.539-4.821 1.563 10.98 1.488.098 1.487.638 1.537-.697 1.538-7.499 1.538 1.488 1.538.741 1.563 8.995 1.538-6.188 1.538 5.272 1.539 2.08 1.539-7.559 1.563-2.033 1.488 1.598 1.487 3.36 1.537-4.98 1.538 1.826 1.538 1.295 1.538-.531 1.563 4.44 1.538-5.036 1.538 6.019 1.539-4.39 1.539-6.163 1.563 1.857 1.488 5.687 1.487.398 1.537 7.852 1.538-5.339 3.076-4.886 1.563 8.902 1.538-4.364 1.538-5.261 1.539 5.812 1.539-2.491 1.563 2.081 1.513-6.343 1.512 5.556 1.537 3.379 1.538-3.746 1.538 1.458 1.538-1.505 1.563 1.535 1.538-4.849 1.538 9.518 1.539-12.141 1.539 3.895 1.563 1.189 1.488 2.729 1.487-2.363 1.537-1.939 1.538-1.465 1.538 3.488 1.538-4.8 1.563 4.336 1.538-2.75 1.538 5.979 1.539-6.72 1.539 3.623 1.563 6.186 1.488-7.97 1.487.148 1.537 3.106 1.538-1.21 1.538-2.139 1.538 2.738 1.563-4.782 1.538 4.141 1.538 2.05 1.539 1.039 1.539-1.839 1.563 2.707 1.488-4.33 1.487 2.319 1.537-2.106 1.538-4.362 1.538-1.99" stroke="#edb120" class="F"/><path d="M56.742 382.055h30.74l1.538-3.464 1.563 3.464h12.228l1.539-2.617 1.539 2.617h6.077l1.537-2.409 1.537 2.409h1.538l1.538-1.846 1.563 1.846 1.538-1.7 1.539 1.7h1.539l1.538-1.676 1.563 1.676 1.513-1.865 1.513 1.865 1.537-2.981 1.537 2.981h1.538l1.538-1.258 1.563 1.258 1.538-4.395 1.539-37.249 1.539-6.113 1.538-.035 1.563-16.034 1.488-1.078 1.488 16.719 1.537-8.606 1.537-1.291 1.538-3.516 1.538 9.526 1.563 15.128 1.538-18.059 1.539 15.666 1.539-13.945 1.538 1.205 1.563 5.412 1.488-8.767 1.488-.409 1.537 6.677 1.537-9.408 1.538-3.587 1.538 7.019 1.563-12.419 1.538 16.731 1.539-10.408 1.539 4.106 1.538-3.08 1.563 5.91 1.488-5.51 1.488-1.574 1.537-3.995 1.537 11.933 1.538-1.743 1.538-6.284 1.563 2.383 1.538-3.302 1.539.993 1.539 2.519 1.538-8.992 1.563 11.121 1.513 7.533 1.513-13.669 1.537 1.161 1.537 5.063 1.538-4.202 1.538-1.786 1.563 2.13 1.538 5.679 1.539-9.305 3.078 9.18 1.563 3.475 1.488-11.278 1.488 12.948 1.537-5.12 3.075-1.845 1.538-10.757 1.563 11.562 1.538-3.458 1.539 3.099 1.539 9.125 1.538-8.994 1.563.73 1.488 1.072 1.488 1.563 1.537-5.34 1.537 4.411 1.538-6.977 1.538 5.873 1.563 1.375 1.538 2.796 1.539-4.115 1.539-10.014 1.538 12.549 1.563-1.542 1.488-5.131 1.488 13.989 1.537-21.116 1.537 10.411 1.538-1.007 1.538 9.543 1.563-11.225 1.538 5.005 1.539-2.714 1.539-2.189 1.538-1.926 1.563 1.744 1.513 4.832 1.513-4.906 1.537 2.598 1.537 1.947 1.538-6.478 1.538 6.509 1.563-6.312 1.538.903 1.539 12.631 1.539-1.38 1.538-9.071 1.563-4.415 1.488-2.957 1.488 6.826 1.537-.886 1.537.794 1.538 4.268 1.538-3.566 1.563-.894 1.538-5.538 1.539 8.302 1.539-4.362 1.538-.296 1.563 3.695 1.488-3.699 1.488 1.968 1.537-.698 1.537-1.17 1.538-1.815 1.538 4.662 1.563-5.117 1.538 6.954 1.539-10.399 1.539 11.058 1.538-1.842 1.563-4.362 1.488 2.131 1.487 6.708 1.537-7.501 1.538-.01 1.538-1.12 1.538 1.112 1.563-4.721 1.538 13.713 1.538-7.756 1.539 1.315 1.539-1.593 1.563-3.939 1.513 11.693 1.512-11.886 1.537-6.584 1.538 8.836 1.538-4.628 1.538 3.216 1.563-4 1.538-.233 1.538 9.727 1.539-14.975 1.539 9.968 1.563 1.785 1.488-6.268 1.487 11.818 1.537-6.144 1.538.456 1.538-6.022 1.538 8.447 1.563-.771 1.538-2.852 1.538 7.181 1.539-.354 1.539-1.745 1.563.955 1.488-3.906 1.487 2.021 1.537-2.039 1.538.009 1.538-3.824 1.538 4.521 1.563-.293 1.538 7.544 1.538 3.845 1.539-2.68 1.539-5.86 1.563-2.948 1.488 6.86 1.487-5.01 1.537 4.222 1.538-10.473 1.538 6.076 1.538.907 1.563 2.32 1.538-3.828 1.538-6.301 1.539 6.626 1.539.696 1.563 2.555 1.513 3.622 1.512-3.157 1.537-3.83 1.538-2.256 1.538 4.826 1.538-5.114 1.563 1.716 1.538 7.997 1.538-5.774 1.539 2.761 1.539-1.871 1.563 4.795 1.488-2.415 1.487-3.364 1.537 2.67 1.538 1.619 1.538-2.485 1.538 1.235 1.563-6.855 1.538 5.741 1.538-4.778 1.539 4.093 1.539 1.12 1.563 7.494 1.488-6.299 1.487-7.321 1.537 6.151 1.538-.727 1.538-9.928 1.538 8.493 1.563-2.732 1.538-.238 1.538 3.684 1.539-4.195 1.539 5.919 1.563-4.191 1.488 6.307 1.487 1.495 1.537-2.986 1.538-.967 1.538-.072 1.538-1.979 1.563-2.857 1.538 7.588 1.538.292 1.539 3.177 1.539-7.612 1.563 4.283 1.513-3.214 1.512-2.565 1.537 5.408 1.538.096 1.538-5.26 1.538-.762 1.563-5.683 1.538 12.04 1.538-4.4 1.539 3.506 1.539-2.776 1.563 5.849 1.488-3.628 1.487 3.953 1.537-2.316 1.538-8.004 1.538 5.797 1.538-.547 1.563-1.094 1.538 1.89 1.538-2.851 1.539 1.697 1.539 2.799 1.563.413 1.488-5.654 1.487 2.615 1.537-1.082 1.538-2.92 1.538-1.836 1.538 3.246 1.563-4.535 1.538 5.738 1.538 1.559 1.539-5.912 1.539 4.044 1.563-2.377 1.488 1.216 1.487.086 1.537 1.801 1.538-6.299 1.538 6.851" stroke="#7e2f8e" class="F"/><path d="M56.742 382.055h23.021l1.538-4.279 1.563-3.628 1.538 7.906h3.079l1.538-3.464 1.563 3.464 1.488-5.773 1.488 5.773h9.253l1.539-2.617 1.539-13.638 1.538 4.05 1.563 5.824 1.488-13.338 1.488 3.187 1.537 4.489 1.537-3.397 1.538 2.18 1.538-14.433 1.563 3.195 1.538 10.902 1.539 4.769 1.539-3.097 1.538.192 1.563 3.911 1.513-3.369 1.513 5.154 1.537-8.869 1.537 4.763 1.538 2.031 1.538-9.506 1.563-7.406 1.538 16.235 1.539-35.631 1.539 7.684 1.538-6.394 1.563 11.819 1.488-15.689 1.488-9.217 1.537 12.531 1.537-1.886 1.538 7.601 1.538 5.736 1.563-2.401 1.538-5.59 1.539-6.338 1.539 2.584 1.538 4.053 1.563-4.327 1.488 8.977 1.488-.324 1.537 6.725 1.537-9.745 1.538-2.82 1.538 2.053 1.563-.143 1.538 5.039 1.539-1.126 1.539-14.757 1.538-.806 1.563 13.312 1.488-8.193 1.488-3.163 1.537 7.778 1.537-3.868 1.538-2.905 1.538-5.506 1.563 1.618 1.538 13.323 1.539-7.397 1.539 2.144 1.538-13.2 1.563 4.538 1.513 6.761 1.513-3.3 1.537 3.457 1.537 7.695 1.538-7.057 1.538 3.538 1.563-7.03 1.538 14.025 1.539-8.829 1.539-7.225 1.538 5.511 1.563 10.288 1.488-29.402 1.488 4.242 1.537-9.31 1.537 15.902 1.538 3.038 1.538-6.03 1.563-1.799 1.538 10.951 1.539-4.737 1.539.648 1.538 8.836 1.563-12.09 1.488 9.971 1.488-6.246 1.537-1.894 1.537 8.68 1.538 1.62 1.538-6.839 1.563-3.765 1.538 9.569 1.539 4.046 1.539-7.253 1.538 4.659 1.563 1.797 1.488-10.446 1.488 4.579 1.537-4.616 1.537.713 1.538 2.575 1.538 6.047 1.563-5.113 3.078 9.367 1.539-5.461 1.538-4.232 1.563 7.127 1.513-.13 1.513 4.489 1.537-15.26 1.537 4.412 1.538 4.971 1.538-2.468 1.563-3.428 1.538 3.856 1.539-2.785 1.539 3.74 1.538 2.653 1.563.9 1.488 2.633 1.488-1.073 1.537-1.955 1.537 3.97 1.538-2.865 1.538-.989 1.563-2.653 1.538 5.005 1.539-2.998 1.539 4.645 1.538.503 1.563-5.447 1.488.305 1.488 4.709 1.537-4.578 1.537.777 1.538-4.704 1.538-.364 1.563 4.052 1.538 4.396 1.539-8.459 1.539 9.945 1.538-5.026 1.563 5.285 1.488-2.354 1.487 6.11 1.537-5.283 1.538-.286 1.538.624 1.538 4.198 1.563-2.004 1.538.27 1.538 1.808 1.539 1.271 1.539-3.384 1.563 1.846 1.513-3.361 1.512-8.771 1.537-3.087 1.538.573 1.538-13.949 1.538 9.626 1.563-.086 1.538 10.589 1.538-7.421 1.539-2.204 1.539 1.088 1.563-.24 1.488-2.539 1.487 4.093 1.537 2.029 1.538 8.336 1.538-.5 1.538 1.004 1.563-3.816 1.538.996 1.538.694 1.539 3.436 1.539-8.075 1.563 6.151 1.488-3.52 1.487 1.835 1.537-1.12 1.538 1.155 1.538-1.992 1.538-.623 1.563-1.485 3.076 9.837 1.539-2.512 1.539-1.685 1.563-3.025 1.488.491 1.487-.345 1.537 9.564 1.538-5.824 1.538-3.077 1.538 2.041 1.563.714 1.538-3.351 1.538-.388 1.539 2.879 1.539.419 1.563 7.134 1.513-8.016 1.512 3.953 1.537.794 1.538-6.084 1.538.108 1.538 2.412 1.563-7.176 1.538 11.86 1.538-2.355 1.539 1.723 1.539 1.423 1.563.16 1.488-2.986 1.487-2.436 1.537 1.146 1.538-.329 1.538 5.89 1.538-1.863 1.563-7.816 1.538 10.071 1.538-2.738 1.539-3.894 1.539 4.817 1.563-.728 1.488-2.059 1.487 2.93 1.537-.128 1.538-.382 1.538-1.559 1.538 2.579 1.563-2.714 1.538 4.893 1.538-3.673 1.539 2.636 1.539-2.255 1.563 1.404 1.488-.061 1.487 3.654 1.537-.695 1.538-5.678 1.538 4.921 1.538.158 1.563-2.328 1.538 1.442 1.538 1.226 1.539-.384 1.539-1.531 1.563-.287 1.513.082 1.512-.072 1.537 2.305 1.538-.962 1.538-4.029 1.538-1.175 1.563 7.371 1.538-1.481 1.538 4.315 1.539-2.662 1.539.393 1.563.082 1.488 1.262 1.487-6.749 1.537 2.347 1.538 3.19 1.538-.735 1.538.884 1.563-1.822 1.538-1.116 1.538-.243 1.539 1.957 1.539-3.495 1.563 4.348 1.488-2.933 1.487 2.77 1.537-.266 1.538-1.099 1.538 4.153 1.538-4.618 1.563-2.399 1.538 5.449 1.538-1.221 1.539.219 1.539.565 1.563-4.179 1.488 2.662 1.487-.592 1.537 1.077 1.538.343 1.538-.668" stroke="#77ac30" class="F"/><path d="M56.742 382.055h67.556l1.538-1.676 1.563 1.676h3.026l1.537-1.491 1.537.042 1.538-1.255 1.538 1.446 1.563 1.258 1.538-1.099 1.539-18.335 1.539 8.413 1.538-4.133 1.563-6.523 1.488 8.248 1.488 3.103 1.537-9.333 1.537-4.468 1.538.5 1.538 4.616 1.563-26.018 1.538 21.22 1.539 5.343 1.539-4.371 1.538 2.873 1.563-2.566 1.488 1.531 1.488-3.434 1.537-.542 1.537-.13 1.538.811 1.538 1.973 1.563 2.195 1.538.155 1.539-6.901 1.539-.775 1.538 4.162 1.563-.096 1.488-1.859 1.488 2.273 1.537-2.521 1.537 1.285 1.538-1.743 1.538 7.03 1.563-3.448 1.538-1.608 1.539 1.08 1.539-.66 1.538-.056 1.563 2.379 1.513-4.277 1.513.841 1.537-6.516 1.537-3.457 1.538 5.416 1.538-2.397 1.563 6.418 1.538-1.758 1.539-3.656 1.539 6.734 1.538-5.861 1.563-14.583 1.488 16.623 1.488-6.626 1.537 4.436 1.537 2.751 1.538-5.006 1.538 4.337 1.563-7.824 1.538 4.003 1.539-1.27 1.539-2.939 1.538 6.219 1.563-3.559 1.488 2.683 1.488-2.19 1.537.049 1.537-4.307 1.538-.246 1.538 6.821 1.563-5.801 1.538-.719 1.539 2.364 1.539-2.949 1.538 1.107 1.563.402 1.488 6.475 1.488-7.145 1.537 5.797 1.537-9.842 1.538 1.608 1.538 2.229 1.563-4.592 1.538 5.083 1.539 2.373 1.539-3.363 1.538 3.3 1.563 2.534 3.026-6.88 1.537.531 1.537 4.319 1.538 3.509 1.538-.156 1.563 6.635 1.538-2.814 1.539.095 1.539-2.396 3.102-3.399 1.488 2.386 1.488-.719 1.537 5.61 1.537-2.791 1.538-12.461 1.538 11.025 1.563-1.094 1.538 2.236 1.539-5.593 1.539 1.471 1.538.268 1.563-3.121 1.488 7.752 3.025-9.758 1.537 4.078 1.538 8.507 1.538-3.556 1.563.021 1.538-5.257 1.539 7.57 1.539-4.073 1.538 5.327 1.563-3.199 1.488-2.154 1.487-.717 1.537.002 1.538-4.673 1.538 1.861 1.538 6.594 1.563.968 1.538-13.119 1.538 4.672 1.539 6.717 1.539 3.793 1.563-2.177 1.513-1.162 1.512 2.746 1.537.706 1.538-5.376 1.538 5.071 1.538-2.451 1.563-1.201 1.538.648 1.538 5.688 1.539-4.117 1.539-1.947 1.563 5.573 1.488-1.457 1.487-6.137 1.537 7.592 1.538-2.239 1.538 3.093 1.538-5.603 1.563 3.581 1.538.081 3.078-5.766 1.539 4.333 1.563-.733 1.488-.137 1.487 3.59 1.537-8.882 1.538 2.52 1.538-.044 1.538 4.726 1.563-3.198 1.538 1.279 1.538-4.668 1.539-.613 3.103 7.421 1.488-5.047 1.487 1.272 1.537.857 1.538 2.497 1.538-1.599 1.538-3.277 1.563 7.027 1.538-2.832 1.538 1.812 1.539.516 1.539.849 1.563-8.042 1.513 1.749 1.512-3.363 1.537 4.81 1.538 2.145 1.538 1.877 1.538-2.298 1.563.49 1.538-6.413 1.538 4.519 1.539-.715 1.539.255 1.563-2.131 1.488-2.669 1.487 4.854 1.537-5.721 1.538-.097 1.538-.5 1.538.387 1.563 2.908 1.538-2.995 1.538-4.868 1.539 8.627 1.539-2.665 1.563-5.302 1.488 3.645 1.487 2.435 1.537 1.611 1.538.491 1.538-.337 1.538-1.47 1.563 2.828 3.076-6.287 1.539 2.828 1.539.333 1.563 2.015 1.488-1.677 1.487-3.359 1.537-4.303 1.538 7.808 1.538-.245 1.538-4.594 1.563.71 1.538 1.691 1.538-3.383 1.539 1.47 1.539 6.58 1.563-1.878 1.513-7.026 1.512 1.877 1.537 2.387 1.538-2.682 1.538 5.711 1.538-3.114 1.563-2.168 1.538.187 1.538 3.655 1.539-2.648 1.539-2.936 1.563 3.416 1.488 2.409 1.487-.916 1.537 8.061 1.538-3.112 1.538-6.762 1.538 2.737 1.563-.718 1.538-7.393 1.538 5.592 1.539-1.699 1.539 1.128 1.563.182 1.488.041 1.487-2.73 1.537 6.821 1.538-.734 1.538-1.313 1.538.817 1.563-3.033 3.076-.013 1.539-1.476 1.539 3.121 1.563-2.778 1.488-.205 1.487 4.805 1.537-.34 1.538-1.063 1.538-2.123" stroke="#4dbeee" class="F"/></g><g class="H K"><path d="M56.293 400.24V18.36M559.44 400.24V18.36"/><path d="M56.293 400.24H559.44M56.293 18.36H559.44"/></g></g><path d="M277.9 152.953h274.34V25.56H277.9z" fill="#fff" class="H K"/><path d="M283.66 36.587h28.8" stroke="#0072bd" class="D E J"/><defs><path d="M7.422 0v71.578h14.266l16.938-50.672q2.344-7.094 3.422-10.609 1.219 3.906 3.797 11.484l17.141 49.797h12.75V0h-9.125v59.906L45.797 0H37.25L16.547 60.938V0z" id="X" class="B C"/><path d="M6.391 0v71.578h8.797V0z" id="Y" class="B C"/><path d="M40.234 0v6.547q-4.937-7.719-14.5-7.719-6.203 0-11.406 3.422-5.203 3.422-8.062 9.547-2.844 6.125-2.844 14.078 0 7.766 2.578 14.094 2.594 6.328 7.766 9.688 5.188 3.375 11.578 3.375 4.688 0 8.344-1.984 3.672-1.969 5.969-5.141v25.672h8.734V0zM12.453 25.875q0-9.953 4.188-14.891 4.203-4.922 9.922-4.922 5.766 0 9.781 4.703 4.031 4.719 4.031 14.375 0 10.656-4.109 15.625-4.094 4.984-10.094 4.984-5.859 0-9.797-4.781-3.922-4.781-3.922-15.094z" id="Z" class="B C"/><path d="M7.625 0v71.578h9.703l37.609-56.203v56.203h9.078V0h-9.719L16.703 56.25V0z" id="a" class="B C"/><path d="M7.719 0v71.578h27q7.125 0 10.891-.672 5.266-.891 8.828-3.359 3.578-2.453 5.75-6.906 2.172-4.437 2.172-9.766 0-9.125-5.812-15.453-5.812-6.312-21-6.312H17.188V0zm9.469 37.547h18.5q9.188 0 13.047 3.422 3.859 3.422 3.859 9.625 0 4.484-2.281 7.672-2.266 3.203-5.969 4.234-2.406.641-8.844.641H17.188z" id="b" class="B C"/><path d="M6.594 0v71.578h8.781V45.906q6.156 7.125 15.531 7.125 5.766 0 10.016-2.281 4.25-2.266 6.078-6.266 1.828-4 1.828-11.625V0h-8.781v32.859q0 6.594-2.859 9.594-2.859 3-8.078 3-3.906 0-7.359-2.031-3.437-2.016-4.906-5.484-1.469-3.469-1.469-9.562V0z" id="c" class="B C"/><path d="M6.203-19.969l-.984 8.25q2.891-.781 5.031-.781 2.938 0 4.688.984 1.766.969 2.891 2.719.828 1.328 2.688 6.547.234.734.781 2.156L1.609 51.859h9.469l10.797-30.031q2.094-5.719 3.766-12.016 1.516 6.063 3.609 11.813l11.078 30.234h8.797L29.391-.875q-3.172-8.547-4.922-11.766-2.344-4.359-5.375-6.375-3.031-2.031-7.234-2.031-2.531 0-5.656 1.078z" id="d" class="B C"/></defs><g transform="matrix(.144 0 0 -.144 323.97975 41.62725)"><use xlink:href="#X"/><use x="83.301" xlink:href="#V"/><use x="138.916" xlink:href="#W"/><use x="188.916" xlink:href="#R"/><use x="244.531" xlink:href="#W"/><use x="294.531" xlink:href="#O"/><use x="344.531" xlink:href="#N"/><use x="400.146" xlink:href="#Y"/><use x="422.363" xlink:href="#V"/><use x="477.979" xlink:href="#AS"/><use x="505.762" xlink:href="#N"/><use x="561.377" xlink:href="#S"/><use x="616.992" xlink:href="#Z"/><use x="672.607" xlink:href="#AS"/><use x="700.391" xlink:href="#a"/><use x="772.607" xlink:href="#N"/><use x="828.223" xlink:href="#S"/><use x="883.838" xlink:href="#R"/><use x="939.453" xlink:href="#W"/><use x="989.453" xlink:href="#O"/><use x="1039.453" xlink:href="#N"/><use x="1095.068" xlink:href="#Y"/><use x="1117.285" xlink:href="#V"/><use x="1172.9" xlink:href="#AS"/><use x="1200.684" xlink:href="#b"/><use x="1267.383" xlink:href="#c"/><use x="1322.998" xlink:href="#d"/><use x="1372.998" xlink:href="#W"/><use x="1422.998" xlink:href="#Q"/><use x="1445.215" xlink:href="#O"/><use x="1495.215" xlink:href="#W"/></g><path d="M283.66 57.125h28.8" stroke="#d95319" class="D E J"/><defs><path d="M4.5 23l8.922.781q.641-5.375 2.953-8.812 2.328-3.437 7.203-5.562 4.891-2.125 11-2.125 5.406 0 9.563 1.609 4.156 1.609 6.172 4.406 2.031 2.813 2.031 6.141 0 3.359-1.953 5.875-1.953 2.516-6.437 4.234-2.891 1.125-12.75 3.484-9.859 2.375-13.812 4.469-5.141 2.688-7.656 6.656-2.5 3.984-2.5 8.922 0 5.422 3.063 10.125 3.078 4.719 8.984 7.156 5.922 2.438 13.141 2.438 7.953 0 14.031-2.562 6.094-2.562 9.359-7.547 3.266-4.969 3.516-11.266l-9.078-.687q-.734 6.781-4.969 10.25-4.219 3.469-12.469 3.469-8.594 0-12.531-3.156-3.922-3.141-3.922-7.578 0-3.859 2.781-6.359 2.734-2.484 14.281-5.094 11.547-2.609 15.844-4.562 6.25-2.891 9.219-7.312 2.984-4.406 2.984-10.172 0-5.719-3.266-10.781-3.266-5.047-9.406-7.859-6.125-2.797-13.781-2.797-9.719 0-16.297 2.828-6.562 2.828-10.297 8.516Q4.688 15.828 4.5 23z" id="e" class="B C"/></defs><g transform="matrix(.144 0 0 -.144 323.97975 62.16525)"><use xlink:href="#X"/><use x="83.301" xlink:href="#N"/><use x="138.916" xlink:href="#P"/><use x="166.699" xlink:href="#V"/><use x="222.314" xlink:href="#M"/><use x="255.615" xlink:href="#Q"/><use x="277.832" xlink:href="#N"/><use x="333.447" xlink:href="#Y"/><use x="355.664" xlink:href="#W"/><use x="405.664" xlink:href="#AS"/><use x="433.447" xlink:href="#e"/><use x="500.146" xlink:href="#O"/><use x="550.146" xlink:href="#Q"/><use x="572.363" xlink:href="#V"/><use x="627.979" xlink:href="#S"/><use x="683.594" xlink:href="#O"/><use x="733.594" xlink:href="#V"/></g><path d="M283.66 77.495h28.8" stroke="#edb120" class="D E J"/><g transform="matrix(.144 0 0 -.144 323.97975 82.5345)"><use xlink:href="#e"/><use x="66.699" xlink:href="#P"/><use x="94.482" xlink:href="#N"/><use x="150.098" xlink:href="#P"/><use x="177.881" xlink:href="#Q"/><use x="200.098" xlink:href="#W"/><use x="250.098" xlink:href="#P"/><use x="277.881" xlink:href="#Q"/><use x="300.098" xlink:href="#O"/><use x="350.098" xlink:href="#N"/><use x="405.713" xlink:href="#Y"/><use x="427.93" xlink:href="#AS"/><use x="455.713" xlink:href="#X"/><use x="539.014" xlink:href="#V"/><use x="594.629" xlink:href="#O"/><use x="644.629" xlink:href="#c"/><use x="700.244" xlink:href="#N"/><use x="755.859" xlink:href="#S"/><use x="811.475" xlink:href="#Q"/><use x="833.691" xlink:href="#O"/><use x="883.691" xlink:href="#W"/></g><path d="M283.66 98.039h28.8" stroke="#7e2f8e" class="D E J"/><defs><path d="M4.984-4.297l8.547-1.266q.531-3.953 2.969-5.766 3.281-2.437 8.938-2.437 6.109 0 9.422 2.438 3.328 2.438 4.5 6.828.688 2.688.625 11.281Q34.234 0 25.641 0 14.938 0 9.078 7.719q-5.859 7.719-5.859 18.5 0 7.422 2.688 13.688 2.688 6.281 7.781 9.703 5.109 3.422 12 3.422 9.172 0 15.141-7.422v6.25h8.094V7.031q0-12.109-2.469-17.156-2.453-5.062-7.812-7.984-5.344-2.937-13.156-2.937-9.266 0-14.984 4.172-5.719 4.172-5.516 12.578zm7.266 31.156q0-10.203 4.047-14.891 4.063-4.687 10.172-4.687 6.047 0 10.141 4.656 4.109 4.672 4.109 14.625 0 9.516-4.219 14.344-4.219 4.844-10.187 4.844-5.859 0-9.969-4.766-4.094-4.75-4.094-14.125z" id="f" class="B C"/><path d="M58.797 25.094l9.469-2.391Q65.281 11.031 57.547 4.906q-7.734-6.125-18.922-6.125-11.578 0-18.828 4.703-7.25 4.719-11.031 13.656-3.781 8.938-3.781 19.188 0 11.188 4.266 19.5 4.281 8.328 12.156 12.641 7.891 4.328 17.359 4.328 10.75 0 18.063-5.469 7.328-5.469 10.219-15.375l-9.328-2.203q-2.5 7.813-7.234 11.375-4.734 3.578-11.906 3.578-8.25 0-13.797-3.969-5.547-3.953-7.797-10.625-2.234-6.656-2.234-13.734 0-9.125 2.656-15.937 2.656-6.812 8.266-10.187 5.625-3.359 12.172-3.359 7.953 0 13.469 4.578 5.531 4.594 7.484 13.625z" id="g" class="B C"/><path d="M7.906 0v71.578h51.766v-8.437H17.391V41.219h39.594v-8.406H17.391V8.453h43.938V0z" id="h" class="B C"/></defs><g transform="matrix(.144 0 0 -.144 323.97975 103.07925)"><use xlink:href="#e"/><use x="66.699" xlink:href="#P"/><use x="94.482" xlink:href="#M"/><use x="127.783" xlink:href="#R"/><use x="183.398" xlink:href="#S"/><use x="239.014" xlink:href="#f"/><use x="294.629" xlink:href="#Y"/><use x="316.846" xlink:href="#d"/><use x="366.846" xlink:href="#AS"/><use x="394.629" xlink:href="#g"/><use x="466.846" xlink:href="#R"/><use x="522.461" xlink:href="#M"/><use x="555.762" xlink:href="#M"/><use x="589.063" xlink:href="#V"/><use x="644.678" xlink:href="#Y"/><use x="666.895" xlink:href="#N"/><use x="722.51" xlink:href="#P"/><use x="750.293" xlink:href="#V"/><use x="805.908" xlink:href="#Z"/><use x="861.523" xlink:href="#AS"/><use x="889.307" xlink:href="#h"/><use x="956.006" xlink:href="#Y"/><use x="978.223" xlink:href="#V"/><use x="1033.838" xlink:href="#O"/><use x="1083.838" xlink:href="#P"/><use x="1111.621" xlink:href="#M"/><use x="1144.922" xlink:href="#R"/><use x="1200.537" xlink:href="#S"/><use x="1256.152" xlink:href="#W"/></g><path d="M283.66 118.753h28.8" stroke="#77ac30" class="D E J"/><defs><path d="M40.578 0v7.625q-6.062-8.797-16.453-8.797-4.594 0-8.578 1.75Q11.578 2.344 9.641 5q-1.922 2.672-2.703 6.531-.547 2.578-.547 8.203v32.125h8.797V23.094q0-6.875.531-9.281.828-3.453 3.516-5.437 2.688-1.984 6.641-1.984 3.953 0 7.422 2.031 3.469 2.031 4.906 5.516 1.453 3.5 1.453 10.141v27.781h8.781V0z" id="i" class="B C"/><path d="M21 0L1.266 51.859h9.281l11.141-31.062Q23.484 15.766 25 10.359q1.172 4.094 3.266 9.859l11.531 31.641h9.031L29.203 0z" id="j" class="B C"/></defs><g transform="matrix(.144 0 0 -.144 323.97975 123.79275)"><use xlink:href="#e"/><use x="66.699" xlink:href="#i"/><use x="122.314" xlink:href="#U"/><use x="177.93" xlink:href="#V"/><use x="233.545" xlink:href="#M"/><use x="266.846" xlink:href="#O"/><use x="316.846" xlink:href="#R"/><use x="372.461" xlink:href="#S"/><use x="428.076" xlink:href="#Z"/><use x="483.691" xlink:href="#i"/><use x="539.307" xlink:href="#O"/><use x="589.307" xlink:href="#P"/><use x="617.09" xlink:href="#Q"/><use x="639.307" xlink:href="#j"/><use x="689.307" xlink:href="#Q"/><use x="711.523" xlink:href="#P"/><use x="739.307" xlink:href="#d"/></g><path d="M283.66 139.291h28.8" stroke="#4dbeee" class="D E J"/><g transform="matrix(.144 0 0 -.144 323.97975 144.33075)"><use xlink:href="#e"/><use x="66.699" xlink:href="#R"/><use x="122.314" xlink:href="#T"/><use x="150.098" xlink:href="#P"/><use x="177.881" xlink:href="#AS"/><use x="205.664" xlink:href="#g"/><use x="277.881" xlink:href="#R"/><use x="333.496" xlink:href="#S"/><use x="389.111" xlink:href="#Z"/><use x="444.727" xlink:href="#V"/><use x="500.342" xlink:href="#S"/><use x="555.957" xlink:href="#W"/><use x="605.957" xlink:href="#V"/><use x="661.572" xlink:href="#Z"/><use x="717.188" xlink:href="#AS"/><use x="744.971" xlink:href="#X"/><use x="828.271" xlink:href="#N"/><use x="883.887" xlink:href="#P"/><use x="911.67" xlink:href="#P"/><use x="939.453" xlink:href="#V"/><use x="995.068" xlink:href="#M"/></g><defs><clipPath id="k"><path d="M56.293 18.36H559.44v381.88H56.293z" class="B C"/></clipPath></defs></svg>