<svg xmlns="http://www.w3.org/2000/svg" xmlns:xlink="http://www.w3.org/1999/xlink" height="576" viewBox="0 0 1152 432" width="1536" stroke-linecap="butt" stroke-linejoin="round" xmlns:v="https://vecta.io/nano"><style><![CDATA[.B{stroke-linecap:butt}.C{stroke-linejoin:round}.D{stroke-linecap:square}.E{fill:none}.F{clip-path:url(#k)}.G{stroke-width:.5}.H{stroke:#000}.I{stroke:#b2b2b2}.J{stroke-width:1.5}.K{stroke-linejoin:miter}]]></style><g transform="translate(288)"><g fill="#fff"><path d="M0 432h576V0H0z"/><path d="M56.293 400.24H559.44V18.36H56.293z"/></g><path d="M108.209 400.24V18.36" class="D E F G I"/><defs><path d="M0 0v4" id="A" class="B C G H"/></defs><use x="108.209" xlink:href="#A" y="400.24" class="G H"/><defs><path d="M37.25 0h-8.781v56q-3.172-3.016-8.328-6.047-5.156-3.031-9.25-4.547v8.5q7.375 3.469 12.891 8.391 5.516 4.938 7.813 9.578h5.656z" id="B" class="B C"/><path d="M5.469 16.547l8.453.781q1.063-5.953 4.094-8.641Q21.047 6 25.781 6q4.047 0 7.094 1.859 3.063 1.859 5.016 4.953 1.953 3.109 3.266 8.375 1.328 5.281 1.328 10.75 0 .578-.047 1.75-2.641-4.187-7.203-6.812-4.562-2.609-9.891-2.609-8.891 0-15.047 6.438-6.141 6.453-6.141 17 0 10.891 6.422 17.531Q17 71.875 26.656 71.875q6.984 0 12.766-3.766 5.797-3.75 8.797-10.719 3-6.953 3-20.141 0-13.719-2.984-21.844-2.969-8.125-8.859-12.375-5.875-4.25-13.781-4.25-8.406 0-13.734 4.656-5.312 4.672-6.391 13.109zm35.984 31.594q0 7.578-4.031 12.016-4.016 4.438-9.687 4.438-5.859 0-10.203-4.781-4.344-4.781-4.344-12.406 0-6.828 4.125-11.109 4.125-4.266 10.172-4.266 6.109 0 10.031 4.266 3.938 4.281 3.938 11.844z" id="C" class="B C"/><path d="M4.156 18.75l9.219.781q1.031-6.734 4.766-10.141Q21.875 6 27.156 6q6.344 0 10.734 4.781 4.391 4.797 4.391 12.703 0 7.516-4.219 11.859Q33.844 39.703 27 39.703q-4.25 0-7.672-1.937-3.406-1.922-5.359-5l-8.25 1.078 6.922 36.766H48.25v-8.406H19.672l-3.844-19.234q6.438 4.5 13.516 4.5 9.375 0 15.813-6.5 6.453-6.5 6.453-16.703 0-9.719-5.656-16.797-6.891-8.687-18.797-8.687-9.766 0-15.953 5.469-6.172 5.469-7.047 14.5z" id="D" class="B C"/></defs><g transform="matrix(.12 0 0 -.12 94.86319 416.82938)"><use xlink:href="#B"/><use x="55.615" xlink:href="#C"/><use x="111.23" xlink:href="#C"/><use x="166.846" xlink:href="#D"/></g><g class="G"><path d="M200.302 400.24V18.36" class="D E F I"/><use x="200.302" xlink:href="#A" y="400.24" class="H"/></g><defs><path d="M50.344 8.453V0H3.031q-.094 3.172 1.016 6.109 1.813 4.828 5.781 9.516 3.984 4.688 11.516 10.844 11.672 9.563 15.766 15.156 4.109 5.594 4.109 10.578 0 5.219-3.75 8.797-3.734 3.594-9.734 3.594-6.344 0-10.156-3.812-3.812-3.797-3.859-10.531l-9.031.922q.922 10.109 6.969 15.406 6.063 5.297 16.281 5.297 10.297 0 16.297-5.719Q50.25 60.453 50.25 52q0-4.297-1.766-8.453-1.75-4.141-5.828-8.734-4.078-4.594-13.547-12.594-7.922-6.641-10.172-9.016-2.234-2.359-3.703-4.75z" id="E" class="B C"/><path d="M4.156 35.297q0 12.703 2.609 20.438 2.609 7.75 7.75 11.938 5.156 4.203 12.969 4.203 5.766 0 10.109-2.328 4.344-2.312 7.172-6.687 2.844-4.359 4.453-10.641 1.609-6.266 1.609-16.922 0-12.594-2.594-20.328Q45.656 7.234 40.5 3q-5.141-4.219-13.016-4.219-10.344 0-16.25 7.422-7.078 8.938-7.078 29.094zm9.031 0q0-17.625 4.125-23.469Q21.438 6 27.484 6q6.063 0 10.188 5.859 4.125 5.859 4.125 23.438 0 17.688-4.125 23.484-4.125 5.813-10.281 5.813-6.047 0-9.672-5.125-4.531-6.531-4.531-24.172z" id="F" class="B C"/></defs><g transform="matrix(.12 0 0 -.12 186.9556 416.82938)"><use xlink:href="#E"/><use x="55.615" xlink:href="#F"/><use x="111.23" xlink:href="#F"/><use x="166.846" xlink:href="#F"/></g><g class="G"><path d="M292.445 400.24V18.36" class="D E F I"/><use x="292.445" xlink:href="#A" y="400.24" class="H"/></g><g transform="matrix(.12 0 0 -.12 279.09845 416.82938)"><use xlink:href="#E"/><use x="55.615" xlink:href="#F"/><use x="111.23" xlink:href="#F"/><use x="166.846" xlink:href="#D"/></g><g class="G"><path d="M384.537 400.24V18.36" class="D E F I"/><use x="384.537" xlink:href="#A" y="400.24" class="H"/></g><g transform="matrix(.12 0 0 -.12 371.19087 416.82938)"><use xlink:href="#E"/><use x="55.615" xlink:href="#F"/><use x="111.23" xlink:href="#B"/><use x="166.846" xlink:href="#F"/></g><g class="G"><path d="M476.63 400.24V18.36" class="D E F I"/><use x="476.63" xlink:href="#A" y="400.24" class="H"/></g><g transform="matrix(.12 0 0 -.12 463.28328 416.82938)"><use xlink:href="#E"/><use x="55.615" xlink:href="#F"/><use x="111.23" xlink:href="#B"/><use x="166.846" xlink:href="#D"/></g><path d="M56.293 382.055H559.44" class="D E F G I"/><defs><path d="M0 0h-4" id="G" class="B C G H"/></defs><use x="56.293" xlink:href="#G" y="382.055" class="G H"/><defs><path d="M9.078 0v10.016h10.016V0z" id="H" class="B C"/></defs><g transform="matrix(.12 0 0 -.12 31.612813 385.15743)"><use xlink:href="#F"/><use x="55.615" xlink:href="#H"/><use x="83.398" xlink:href="#F"/></g><g class="G"><path d="M56.293 309.316H559.44" class="D E F I"/><use x="56.293" xlink:href="#G" y="309.316" class="H"/></g><g transform="matrix(.12 0 0 -.12 31.612813 312.41838)"><use xlink:href="#F"/><use x="55.615" xlink:href="#H"/><use x="83.398" xlink:href="#E"/></g><g class="G"><path d="M56.293 236.577H559.44" class="D E F I"/><use x="56.293" xlink:href="#G" y="236.577" class="H"/></g><defs><path d="M32.328 0v17.141H1.266v8.063l32.672 46.375h7.172V25.203h9.672v-8.062h-9.672V0zm0 25.203v32.266L9.906 25.203z" id="I" class="B C"/></defs><g transform="matrix(.12 0 0 -.12 31.612813 239.67933)"><use xlink:href="#F"/><use x="55.615" xlink:href="#H"/><use x="83.398" xlink:href="#I"/></g><g class="G"><path d="M56.293 163.838H559.44" class="D E F I"/><use x="56.293" xlink:href="#G" y="163.838" class="H"/></g><defs><path d="M49.75 54.047l-8.734-.672q-1.172 5.172-3.312 7.516-3.578 3.766-8.797 3.766-4.203 0-7.375-2.344-4.141-3.031-6.547-8.844-2.391-5.812-2.484-16.547 3.172 4.828 7.766 7.172 4.594 2.344 9.625 2.344 8.781 0 14.953-6.469 6.188-6.469 6.188-16.719 0-6.75-2.906-12.531-2.906-5.781-7.984-8.859-5.078-3.078-11.531-3.078-10.984 0-17.922 8.078Q3.766 14.938 3.766 33.5q0 20.75 7.656 30.172 6.688 8.203 18.016 8.203 8.453 0 13.844-4.734 5.406-4.734 6.469-13.094zM13.875 23.188q0-4.531 1.922-8.687 1.922-4.141 5.391-6.328Q24.656 6 28.469 6q5.563 0 9.563 4.484 4.016 4.5 4.016 12.219 0 7.422-3.969 11.688-3.953 4.281-9.953 4.281-5.953 0-10.109-4.281-4.141-4.266-4.141-11.203z" id="J" class="B C"/></defs><g transform="matrix(.12 0 0 -.12 31.612813 166.94028)"><use xlink:href="#F"/><use x="55.615" xlink:href="#H"/><use x="83.398" xlink:href="#J"/></g><g class="G"><path d="M56.293 91.099H559.44" class="D E F I"/><use x="56.293" xlink:href="#G" y="91.099" class="H"/></g><defs><path d="M17.672 38.813q-5.469 2.016-8.109 5.719-2.625 3.719-2.625 8.891 0 7.813 5.609 13.125 5.625 5.328 14.938 5.328 9.375 0 15.094-5.453 5.719-5.437 5.719-13.25 0-4.984-2.625-8.672-2.609-3.672-7.922-5.687 6.594-2.141 10.031-6.937 3.438-4.781 3.438-11.422 0-9.172-6.5-15.422-6.484-6.25-17.078-6.25-10.594 0-17.094 6.266-6.5 6.281-6.5 15.656 0 6.984 3.547 11.688 3.547 4.719 10.078 6.422zm-1.75 14.906q0-5.078 3.266-8.312 3.281-3.219 8.5-3.219 5.078 0 8.328 3.188 3.25 3.203 3.25 7.844 0 4.844-3.359 8.141-3.344 3.297-8.312 3.297-5.031 0-8.359-3.234-3.312-3.219-3.312-7.703zm-2.828-33.062q0-3.766 1.781-7.281 1.781-3.516 5.297-5.453Q23.688 6 27.734 6q6.297 0 10.391 4.047 4.109 4.063 4.109 10.313 0 6.344-4.219 10.5-4.219 4.156-10.578 4.156-6.203 0-10.281-4.109-4.062-4.094-4.062-10.25z" id="K" class="B C"/></defs><g transform="matrix(.12 0 0 -.12 31.612813 94.201235)"><use xlink:href="#F"/><use x="55.615" xlink:href="#H"/><use x="83.398" xlink:href="#K"/></g><g class="G"><path d="M56.293 18.36H559.44" class="D E F I"/><use x="56.293" xlink:href="#G" y="18.36" class="H"/></g><g transform="matrix(.12 0 0 -.12 31.612813 21.462187)"><use xlink:href="#B"/><use x="55.615" xlink:href="#H"/><use x="83.398" xlink:href="#F"/></g><defs><path d="M8.203 0v71.578H56.5v-8.437H17.672V40.969h33.594v-8.453H17.672V0z" id="L" class="B C"/><path d="M6.5 0v51.859h7.906V44q3.031 5.516 5.594 7.266 2.563 1.766 5.641 1.766 4.438 0 9.031-2.828l-3.031-8.156q-3.219 1.906-6.437 1.906-2.891 0-5.187-1.734-2.297-1.734-3.266-4.812-1.469-4.687-1.469-10.25V0z" id="M" class="B C"/><path d="M40.438 6.391Q35.547 2.25 31.031.531q-4.516-1.703-9.687-1.703-8.547 0-13.141 4.172-4.594 4.172-4.594 10.672 0 3.813 1.734 6.953 1.734 3.156 4.547 5.063 2.813 1.906 6.328 2.875 2.578.688 7.813 1.328 10.641 1.266 15.672 3.016.047 1.813.047 2.297 0 5.375-2.5 7.578-3.359 2.969-10 2.969-6.203 0-9.156-2.172-2.953-2.172-4.375-7.687l-8.594 1.172q1.172 5.516 3.859 8.906 2.688 3.391 7.766 5.219 5.078 1.844 11.766 1.844 6.641 0 10.781-1.562 4.156-1.562 6.109-3.937 1.953-2.359 2.734-5.984.438-2.234.438-8.094V21.734q0-12.266.563-15.516.563-3.234 2.234-6.219h-9.187q-1.359 2.734-1.75 6.391zm-.734 19.641q-4.797-1.953-14.359-3.328-5.422-.781-7.672-1.766-2.234-.969-3.469-2.844-1.219-1.875-1.219-4.172 0-3.516 2.656-5.859 2.672-2.344 7.797-2.344 5.078 0 9.031 2.219 3.953 2.219 5.813 6.078 1.422 2.984 1.422 8.781z" id="N" class="B C"/><path d="M40.438 19l8.641-1.125q-1.422-8.937-7.266-14-5.828-5.047-14.328-5.047-10.641 0-17.109 6.953-6.469 6.969-6.469 19.953 0 8.391 2.781 14.688 2.781 6.313 8.469 9.453 5.688 3.156 12.391 3.156 8.438 0 13.813-4.281 5.375-4.266 6.891-12.125l-8.547-1.328q-1.219 5.234-4.328 7.859-3.094 2.641-7.5 2.641-6.641 0-10.797-4.766-4.141-4.75-4.141-15.047 0-10.453 4-15.187 4.016-4.734 10.453-4.734 5.172 0 8.641 3.172Q39.5 12.406 40.438 19z" id="O" class="B C"/><path d="M25.781 7.859L27.047.094q-3.703-.781-6.641-.781-4.781 0-7.422 1.516-2.625 1.516-3.703 3.984-1.078 2.469-1.078 10.375v29.828H1.766v6.844h6.438v12.844l8.734 5.266V51.859h8.844v-6.844h-8.844V14.703q0-3.766.469-4.844.469-1.062 1.516-1.703 1.047-.641 3-.641 1.469 0 3.859.344z" id="P" class="B C"/><path d="M6.641 61.469v10.109h8.797V61.469zM6.641 0v51.859h8.797V0z" id="Q" class="B C"/><path d="M3.328 25.922q0 14.406 8 21.344 6.688 5.766 16.313 5.766 10.688 0 17.469-7.016 6.797-7 6.797-19.359 0-10-3-15.75-3-5.734-8.75-8.906-5.734-3.172-12.516-3.172-10.891 0-17.609 6.984-6.703 6.984-6.703 20.109zm9.031 0q0-9.953 4.344-14.906 4.344-4.953 10.938-4.953 6.547 0 10.891 4.969 4.344 4.984 4.344 15.188 0 9.625-4.375 14.578-4.375 4.953-10.859 4.953-6.594 0-10.937-4.937-4.344-4.922-4.344-14.891z" id="R" class="B C"/><path d="M6.594 0v51.859H14.5v-7.375q5.719 8.547 16.5 8.547 4.688 0 8.625-1.687 3.938-1.687 5.891-4.422 1.953-2.734 2.734-6.484.484-2.453.484-8.547V0h-8.797v31.547q0 5.375-1.031 8.031-1.016 2.656-3.625 4.234-2.609 1.594-6.125 1.594-5.625 0-9.703-3.562-4.078-3.562-4.078-13.516V0z" id="S" class="B C"/><path d="M8.688 0v45.016H.922v6.844h7.766v5.516q0 5.219.938 7.766 1.266 3.422 4.453 5.531 3.203 2.125 8.969 2.125 3.719 0 8.203-.875l-1.312-7.656q-2.734.484-5.187.484-4 0-5.656-1.719-1.656-1.703-1.656-6.391v-4.781h10.109v-6.844H17.438V0z" id="T" class="B C"/><path d="M6.594-19.875v71.734h8v-6.734q2.844 3.953 6.406 5.922 3.563 1.984 8.641 1.984 6.641 0 11.719-3.422 5.078-3.422 7.656-9.656 2.594-6.219 2.594-13.641 0-7.953-2.859-14.328-2.844-6.375-8.297-9.766Q35.016-1.172 29-1.172q-4.391 0-7.891 1.859-3.484 1.859-5.734 4.688v-25.25zm7.953 45.516q0-10.016 4.047-14.797 4.063-4.781 9.828-4.781 5.859 0 10.031 4.953 4.172 4.953 4.172 15.359 0 9.906-4.078 14.828-4.078 4.938-9.734 4.938-5.625 0-9.953-5.25-4.312-5.25-4.312-15.25z" id="U" class="B C"/><path d="M42.094 16.703l9.078-1.125q-2.141-7.953-7.953-12.359-5.812-4.391-14.844-4.391-11.375 0-18.047 7-6.672 7.016-6.672 19.656 0 13.094 6.734 20.313 6.75 7.234 17.484 7.234 10.406 0 17-7.078 6.594-7.078 6.594-19.922 0-.781-.047-2.344H12.75q.484-8.547 4.828-13.094 4.344-4.531 10.844-4.531 4.828 0 8.25 2.531 3.422 2.547 5.422 8.109zM13.234 30.906h28.953q-.578 6.547-3.312 9.813-4.203 5.078-10.891 5.078-6.062 0-10.187-4.047-4.125-4.047-4.562-10.844z" id="V" class="B C"/><path d="M3.078 15.484l8.688 1.359q.734-5.219 4.078-8 3.344-2.781 9.359-2.781 6.047 0 8.969 2.453 2.938 2.469 2.938 5.797 0 2.969-2.594 4.688-1.797 1.172-8.984 2.969-9.656 2.453-13.391 4.234-3.734 1.781-5.672 4.922-1.922 3.156-1.922 6.969 0 3.453 1.578 6.406 1.594 2.969 4.328 4.922 2.047 1.5 5.578 2.547 3.547 1.063 7.609 1.063 6.094 0 10.703-1.766 4.625-1.75 6.813-4.766 2.203-3 3.031-8.016l-8.594-1.172q-.578 4-3.391 6.234-2.812 2.25-7.937 2.25-6.047 0-8.641-2-2.594-2-2.594-4.687 0-1.703 1.078-3.078 1.078-1.406 3.375-2.344 1.313-.484 7.766-2.234 9.328-2.5 13-4.094 3.688-1.578 5.781-4.609 2.109-3.016 2.109-7.516 0-4.391-2.562-8.281-2.562-3.875-7.406-6-4.828-2.125-10.922-2.125-10.109 0-15.406 4.203-5.297 4.203-6.766 12.453z" id="W" class="B C"/></defs><g transform="matrix(0 -.14 -.14 0 23.830312 265.71234)"><use xlink:href="#L"/><use x="61.084" xlink:href="#M"/><use x="94.385" xlink:href="#N"/><use x="150" xlink:href="#O"/><use x="200" xlink:href="#P"/><use x="227.783" xlink:href="#Q"/><use x="250" xlink:href="#R"/><use x="305.615" xlink:href="#S"/><use x="361.23" xlink:href="#CK"/><use x="389.014" xlink:href="#R"/><use x="444.629" xlink:href="#T"/><use x="472.412" xlink:href="#CK"/><use x="500.195" xlink:href="#U"/><use x="555.811" xlink:href="#N"/><use x="611.426" xlink:href="#U"/><use x="667.041" xlink:href="#V"/><use x="722.656" xlink:href="#M"/><use x="755.957" xlink:href="#W"/></g><g class="D E"><g class="J"><path d="M12.258 18.36h1.539l1.538 121.232L16.899 18.36h1.488l1.488 121.232L21.412 18.36h6.177l1.538 51.956m3.079-51.956h10.69l1.538 72.739 1.563 265.874 1.538 13.158 1.539-33.537 1.539 5.605 1.538-68.613 1.563 35.731 1.513-37.717 1.513 12.538 1.537 59.466 1.537 5.389 1.538-9.941 1.538 25.339 1.563.971 1.538-34.172 1.539 25.936 1.539-10.473 1.538 1.702 1.563.285 1.488-5.865 1.488 6.318 1.537 12.265 1.537-3.721 1.538-10.069 1.538 6.582 1.563-.907 1.538-5.956 1.539 7.569 1.539 1.192 1.538-3.665 1.563-1.527 1.488 2.923 1.488-9.676 1.537 7.167 1.537 6.317 1.538-7.507 1.538 5.365 1.563 1.858 1.538-4.142 1.539-1.125 1.539-4.592 1.538-2.33 1.563 2.122 1.488-1.069 1.488 1.678 1.537 8.369 1.537-5.635 1.538.983 1.538 2.601 1.563-.06 1.538 5.007 1.539-.683 1.539-6.879 1.538-.701 1.563-1.351 1.513-.689 1.513 2.922 1.537-4.701 1.537 4.201 1.538 2.819 1.538 1.988 1.563.904 1.538-.466 1.539-2.644 1.539-.558 1.538-3.816 1.563-4.342 1.488 1.762 1.488-.35 1.537 8.762 1.537 2.632 1.538.505 1.538-1.228 1.563 1.487 1.538-3.588 1.539 2.735 1.539-1.213 1.538-18.279 1.563 10.742 1.488-.505 1.488-1.753 1.537-2.058 1.537 3.355 1.538-2.625 1.538-1.99 1.563 5.043 1.538-3.751 1.539-.868 1.539 1.314 1.538-2.555 1.563 4.293 1.488-5.815 1.488 3.134 1.537-2.677 1.537.665 1.538-.407 1.538-.195 1.563 3.858 1.538 2.175 1.539-1.577 1.539-8.394 1.538 1.123 1.563 8.331 1.513-12.382 1.513 8.127 1.537-1.957 1.537-6.565 1.538 5.629 1.538 6.769 4.641-16 1.539 6.275 1.538-.558 3.051 3.783 1.488 4.166 1.537-9.495 1.537 5.781 1.538 1.554 1.538 2.391 1.563-2.509 1.538-1.406 1.539-2.199 1.539-.901 1.538-5.994 1.563-3.055 1.488 3.954 1.488-.13 1.537-.994 1.537 4.732 1.538-4.362 1.538 10.719 1.563-1.715 1.538-12.699 1.539-3.797 1.539-2.054 1.538 8.821 1.563-4.704 1.488 5.214 1.488-3.617 1.537-10.497 1.537 10.548 1.538 1.674 1.538 2.012 1.563 4.043 1.538-6.893 1.539-1.346 1.539-8.827 1.538 5.526 1.563-.834 1.513 1.04 1.513-3.475 1.537-4.776 1.537-.407 1.538 1.359 1.538 4.86 1.563 5.507 1.538-9.558 1.539 3.276 1.539-2.907 1.538 6.656 1.563-6.288 1.488-6.691 1.488-1.451 1.537 9.587 1.537-9.16 1.538 6.851 1.538 1.775 1.563-5.49 1.538.436 1.539 5.692 1.539-5.708 1.538 1.74 1.563-10.609 2.976 6.78 1.537-3.105 1.537 1.894 1.538-5.41 1.538.717 1.563-.793 1.538-1.616 1.539 4.804 1.539-.832 1.538-4.442 1.563 1.841 1.488-5.987 1.487 2.913 1.537 1.464 1.538 4.401 1.538-4.971 1.538 1.097 1.563-1.966 1.538-3.459 1.538 4.013 1.539-3.861 1.539.102 1.563 3.28 1.513-2.037 1.512-4.621 1.537-.225 1.538 5.594 1.538 3.592 1.538 1.987 1.563.342 1.538-4.447 1.538-2.233 1.539-1.108 1.539 2.755 1.563 5.496 1.488-7.414 1.487-3.732 1.537 6.504 1.538-2.34 1.538 1.11 1.538 6.441 1.563-1.871 1.538-3.006 1.538-2.311 1.539 2.331 1.539 4.701 1.563-9.086 1.488 2.651 1.487-2.214 1.537 3.787 1.538-1.966 1.538 4.556 1.538.371 1.563-.581 1.538-5.968 1.538-.871 1.539 5.327 1.539-.21 1.563-.854 1.488-2.193 1.487-3.936 1.537 2.891 1.538-.258 1.538 5.281 1.538-1.501 1.563-.745 1.538-.051 1.538-4.928 1.539 4.153 1.539-4.268 1.563-.54 1.513 3.753 1.512-5.2 1.537 6.008 1.538-2.276 1.538 8.065 1.538-2.825 1.563-1.03 1.538-4.631 1.538-.104 1.539-1.955 1.539 1.401 1.563 1.162 2.975-.377 3.075-2.917 1.538 4.513 1.538 1.074 1.563-2.428 1.538-3.173 1.538-1.456 1.539 2.199 1.539-2.778 1.563 5.179 1.488-.969 1.487-4.472 1.537 3.371 1.538-1.561 1.538 3.436 1.538-.048 1.563-2.767 1.538-2.444 1.538 1.413 1.539-3.539 1.539 7.568 1.563-6.347 1.488 5.134 1.487-4.53 1.537 1.934 1.538-.078 1.538-.526 1.538.042 1.563-1.436 1.538 1.508 1.538-2.342 1.539 8.059 1.539-2.292 1.563-6.195 1.513 4.152 1.512-1.139 1.537 4.465 1.538-2.856 1.538 3.474 1.538.554 1.563-1.397 1.538-2.238 1.538-1.531 1.539 4.651 1.539-.136 1.563-6.026 1.488 5.389 1.487-1.663 1.537 4.429 1.538-2.436 1.538-.563 1.538 1.157 1.563-1.019 1.538 1.961 1.538.395 1.539 2.944 1.539-2.799 1.563 1.1 1.488 1.44 1.487-1.485 1.537 3.062 1.538 5.279 1.538-.091 1.538 1.347 1.563-6.975 3.076 2.776 1.539 5.564 1.539-5.304 1.563-.982 1.488.627 1.487.333 1.537 6.631 1.538 2.005 1.538 3.726" stroke="#0072bd" class="F"/><path d="M12.258 382.055h16.869m3.079 0h23.023l1.513-2.331 1.537-26.508 1.537-.091 1.538 10.5 1.538-18.978 1.563-1.942 1.538 5.44 1.539 1.648 1.539 14.239 1.538-15.678 1.563-4.378 1.488 4.893 1.488-.326 1.537-1.97 1.537 5.867 1.538-8.531 1.538-.739 1.563 13.878 1.538-11.969 1.539-3.824 1.539 5.144 1.538-6.447 1.563-.273 1.488-12.439 1.488 11.702 1.537-3.683 1.537 6.907 3.076-7.193 1.563 3.668 1.538-2.421 1.539 2.367 1.539-1.429 1.538 4.122 1.563-14.359 1.488 5.485 1.488-4.893 1.537 6.953 1.537-7.563 1.538 7.16 1.538-4.845 1.563-2.783 1.538-1.482 1.539 10.74 1.539 2.05 1.538-11.661 1.563 4.647 1.513 1.063 1.513-10.144 3.074 6.295 1.538-3.846 1.538-1.257 1.563 14.698 1.538-23.228 1.539 17.435 1.539-8.651 1.538-1.947 1.563-1.075 1.488-6.897 1.488 4.148 1.537 1.059 1.537-9.64 1.538 2.579 1.538 1.938 1.563 6.4 1.538-5.469 1.539 4.427 1.539-5.363 1.538 6.705 1.563-8.214 1.488 1.272 1.488-2.953 1.537 1.346 1.537-6.056 1.538 10.706 1.538-5.2 1.563-2.209 1.538 7.15 1.539.987 3.078-9.044 1.563 2.894 1.488-.449 1.488.872 1.537-3.757 1.537 1.312 1.538 4.722 1.538-8.307 1.563-5.652 1.538 13.247 1.539-5.09 1.539 1.825 1.538.583 1.563 2.841 1.513-2.942 1.513-2.218 1.537-9.485 1.537 8.723 1.538-.475 1.538-2.247 1.563 9.777 1.538-1.654 1.539 5.075 1.539-1.133 1.538-3.124 1.563-1.174 1.488-6.982 1.488-10.595 1.537 4.742 1.537 6.191 1.538-7.643 1.538 1.178 1.563-.35 3.078 11.344 1.539 1.716 1.538.27 1.563-7.105 1.488.81 1.488-9.68 1.537 7.233 1.537 1.379 1.538-1.21 1.538-4.834 1.563 1.097 1.538 7.413 1.539 2.601 1.539-1.76 1.538 1.41 1.563-4.856 1.488.711 1.488-1.028 1.537-4.943 1.537 3.339 1.538 1.677 1.538-1.742 1.563-1.202 1.538 11.112 1.539-5.08 1.539 4.999 1.538-2.683 1.563-7.803 1.513 1.784 1.513-1.665 1.537-3.539 1.537 7.467 1.538-2.594 1.538-1.961 1.563-.609 1.538 8.131 1.539 3.357 1.539-.155 1.538-4.24 1.563-7.082 1.488 4.466 1.488 1.797 1.537-5.725 1.537 5.3 1.538 1 1.538 1.496 1.563-4.465 1.538 6.814 1.539-3.68 1.539 6.791 1.538-1.336 1.563-3.849 1.488-.028 1.488-4.385 1.537 5.982 1.537 2.866 1.538-5.931 1.538 1.608 1.563 6.383 1.538-3.858 1.539 5.148 1.539.56 1.538 4.779 1.563-4.873 1.488.632 1.487-4.998 1.537.992 1.538 3.765 1.538-2.197 1.538-3.949 1.563 3.695 1.538 1.864 1.538 7.152 1.539-2.443 1.539 1.639 1.563-3.794 1.513 1.442 1.512-10.367 1.537 1.941 1.538 5.46 1.538-5.855 1.538-4.556 1.563.191 1.538 12.422 1.538-2.105 1.539-2.482 1.539 4.634 1.563 3.923 1.488-2.589 1.487-.527 1.537-1.184 1.538.474 1.538 3.655 1.538-5.16 1.563-.097 1.538 3.475 1.538 1.677 1.539 1.036 1.539-3.227 1.563 5.27 1.488-5.896 1.487 1.746 1.537 3.008 1.538.763 1.538.281 1.538-4.541 1.563.607 1.538 4.027 1.538 2.047 1.539 2.869 1.539-.841 1.563-2.56 1.488-.265 1.487-2.469 3.075 1.087 1.538-.655 1.538 3.212 1.563-1.229 1.538 3.669 1.538 1.176 1.539-3.669 1.539.922 1.563-.385 1.513.842 1.512-.938 1.537-2.386 1.538 4.303 1.538-1.074 1.538-1.992 1.563-1.043 1.538 4.172 1.538 2.377 1.539-2.323 1.539 1.47 1.563.203 1.488-3.361 1.487 1.902 1.537.211 1.538-.767 1.538 1.139 1.538-1.242 1.563-.153 1.538.252 3.078 3.979 3.103 2.417 1.488-5.751 1.487-.685 1.537 5 1.538-.333 1.538-4.96 1.538-1.138 1.563 1.938 1.538 2.65 1.538-1.68 1.539 3.78 1.539-2.296 1.563.81 1.488-1.986 1.487-.716 1.537 2.266 1.538-1.919 1.538.572 1.538-.862 1.563.004 1.538 3.636 1.538-.238 1.539 2.369 1.539-1.532 1.563-2.911 1.513 2.33 1.512-1.811 1.537 1.349 1.538 1.714 1.538-.188 1.538-1.747 1.563-.61 1.538 1.583 1.538.985 1.539 2.083 1.539-1.715 1.563.781 1.488-.213 1.487-.503 1.537 1.524 1.538.421 1.538-3.901 1.538 5.806 1.563-1.577 1.538 2.534 1.538-2.081 1.539 3.427 1.539-3.158 1.563.911 1.488 3.281 1.487-5.546 1.537 3.632 1.538 2.24 1.538-1.559 1.538.189 1.563-1.404 1.538 2.309 1.538.348 1.539 5.408 1.539-4.39 1.563-1.772 1.488.6 1.487.877 1.537 1.561 1.538 1.785 1.538-.929" stroke="#d95319" class="F"/><path d="M12.258 382.055h16.869m3.079 0h12.228l1.563-338.613 1.538-13.158 1.539 37.67 1.539-4.756 1.538 73.202 1.563-45.302 1.513 37.717 1.513-7.875 1.537-22.472 1.537-4.339 1.538 2.867 1.538 8.65 1.563 23.61 1.538 12.03 3.079-12.209 1.538-3.294 1.563 30.905 1.488 14.058 1.488 3.64 1.537 2.462 1.537-14.569 1.538 16.504 1.538-7.168 1.563-11.365 1.538 20.917 1.539-14.96 1.539 5.685 1.538-2.36 1.563 9.487 1.488 21.623 1.488-12.779 1.537 13.576 1.537-13.802 1.538 9.017 1.538 5.6 1.563-7.95 1.538-2.899 3.079 12.313 1.538-9.395 1.563 24.584 1.488 13.003 1.488-20.919 1.537-2.275 1.537 19.067 1.538-13.703 1.538 2.756 1.563 13.919 1.538-16.539 1.539 2.195 1.539-2.644 1.538 9.655 1.563 12.658 1.513-9.195 1.513-1.738 1.537 13.734 1.537-4.719 1.538.088 1.538-8.328 1.563-14.994 1.538 15.374 1.539-2.284 1.539 14.107 1.538 2.005 1.563 16.725 1.488-2.39 1.488-9.638 1.537 8.73 1.537-5.343 1.538 4.513 1.538-7.8 1.563 7.775 1.538-10.364 1.539 4.435 1.539 6.957 1.538 7.835 1.563 3.978 1.488 4.423 1.488-4.259 1.537 4.921 1.537 1.464 1.538-3.618 1.538-.924 1.563 4.252 1.538-5.943 1.539 7.863 1.539 4.707 1.538-.707 1.563 7.939 1.488-.336 1.488-9.2 1.537 11.378 1.537-12.913 1.538 7.678 1.538 1.096 1.563-6.215 1.538-8.311 1.539 11.918 1.539 6.742 1.538-7.891 1.563 5.927 1.513 2.476 1.513 3.746 1.537-1.217 1.537 3.835 1.538-8.993 1.538-6.308 1.563 9.833 1.538-2.294 1.539-.557 1.539-9.909 1.538 9.286 1.563 8.263 1.488-2.719 1.488 3.353 1.537.363 1.537-6.75 1.538 3.127 1.538 2.258 1.563 1.103 1.538 4.916 1.539-20.563 1.539 7.249 1.538 4.394 1.563 9.079 1.488 2.548 1.488.618 1.537-8.127 1.537-3.017 3.076 8.12 1.563-1.037 1.538-7.3 1.539 4.31 1.539-1.302 1.538-1.824 1.563 15.559 1.488 1.65 1.488-.584 1.537 2.735 1.537-8.961 1.538 5.385 1.538-7.025 1.563-.077 1.538-1.476 1.539 7.28 1.539-3.437 1.538-.515 1.563 13.472 1.513 1.027 1.513-2.996 1.537 1.99 1.537-3.971 1.538-.236 1.538-1.739 1.563-11.016 1.538 2.531 3.079 10.87 1.538-7.146 1.563 10.928 1.488 3.88 1.488.201 1.537 2.429 1.537-3.848 1.538-2.315 1.538-6.91 1.563 10.568 1.538-8.999 1.539.733 1.539 4.629 1.538-7.939 1.563 19.323 1.488-8.151 1.488 7.191 1.537-6.736 1.537-4.426 1.538 5.609 1.538-3.341 1.563 4.387 1.538 2.495 1.539-10.978 1.539 5.898 1.538-3.654 1.563 14.27 1.488-.839 1.487-1.792 1.537 1.141 1.538-7.14 1.538.879 1.538.146 1.563 3.689 1.538-1.283 1.538-13.65 1.539 12.925 1.539-1.379 1.563 9.715 1.513 2.78 1.512-2.082 1.537-2.918 1.538-5.092 1.538 2.129 1.538-2.36 1.563-1.044 1.538-.243 1.538-5.782 1.539 11.168 1.539-8.522 1.563 7.477 1.488 7.733 1.487-1.059 1.537.087 1.538-3.929 1.538 3.721 1.538-6.058 1.563 8.805 1.538-6.096 1.538-3.241 1.539 1.629 1.539 1.343 1.563 9.18 1.488-1.21 1.487-2.888 1.537-.082 1.538-3.488 1.538.364 1.538-2.249 1.563 1.94 1.538 4.392 1.538-6.19 1.539-4.659 1.539-3.419 1.563 10.805 1.488 3.269 1.487.908 1.537-1.823 1.538-1.086 1.538-2.305 1.538-.631 1.563 2.483 1.538.203 1.538-3.445 1.539-.227 1.539.039 1.563 7.197 1.513 3.171 1.512-1.106 1.537.723 1.538-5.644 1.538 4.061 1.538-1.294 1.563.575 1.538.012 1.538 4.153 3.079-6.806 1.563 7.324 1.488 1.306 1.487-.324 1.537-2.112 1.538-1.465 1.538 1.616 1.538-2.586 1.563.285 1.538 2.527 1.538-3.775 1.539-5.154 1.539 5.443 1.563 7.026 1.488-.126 1.487-3.218 1.537-2.371 1.538.75 1.538 4.298 1.538-1.967 1.563-.449 1.538 1.076 1.538-2.874 1.539-3.531 1.539.641 1.563 9.275 1.488.795 1.487-3.491 1.537.115 1.538-.783 1.538 1.594 1.538-3.134 1.563 1.889 1.538-.564 1.538-2.708 1.539 2.159 1.539-9.649 1.563 13.508 1.513 1.803 3.049-1.74 1.538.314 1.538-.289 1.538-3.331 1.563 6.242 1.538-.48 1.538-1.728 1.539-3.25 1.539-1.95 1.563 9.983 1.488-1.287 1.487-.497 1.537-2.006 1.538 2.43 1.538-.251 1.538.707 1.563.428 1.538-.759 1.538-3.392 1.539.364 1.539-3.177 1.563 8.124 1.488 3.906 3.024-1.805 1.538-1.722 1.538 2.164 1.538-3.564 1.563 1.625 1.538 2.52 1.538-1.511 3.079-6.277 1.563 7.825 1.488 1.672 1.487-1.574 1.537 1.791 1.538-.058 1.538.642" stroke="#edb120" class="F"/><path d="M12.258 382.055h16.869m3.079 0h24.536l1.537-9.613 1.537-.03 1.538-3.872 1.538 2.085 1.563-10.034 1.538 8.747 1.539.985 1.539-5.004 1.538 9.013 1.563-5.488 1.488-7.107 1.488 1.09 1.537-5.018 1.537-3.291 1.538 5.067 1.538-.862 1.563-9.287 1.538-5.462 1.539 12.196 1.539-8.094 1.538 2.701 1.563 5.665 1.488-12.236 1.488 6.896 1.537-5.581 1.537 3.349 1.538 2.5 1.538-8.551 1.563-7.226 1.538 9.594 1.539-.659 3.078 7.424 1.563-14.392 1.488 8.005 1.488.541 1.537-3.447 1.537-5.091 1.538 2.243 1.538 4.962 1.563-12.287 1.538 4.474 1.539 1.884 1.539 1.563 1.538-9.166 1.563-6.582 1.513 6.876 1.513 6.155 1.537-5.24 1.537.452 1.538 3.046 1.538 5.538 1.563-5.173 1.538.102 1.539-10.238 1.539 3.668 1.538 2.626 1.563-7.472 1.488 2.589 1.488 10.36 1.537-19.184 1.537 13.035 1.538-2.918 1.538-7.492 1.563-2.127 1.538 10.554 3.079-10.962 1.538 6.885 1.563-1.394 1.488-7.342 1.488 9.919 1.537-2.626 1.537-.887 1.538.69 1.538 6.167 1.563-6.092 1.538 6.73 1.539-12.21 1.539.905 1.538-1.151 1.563-2.057 1.488 7.791 1.488-3.286 1.537 4.406 1.537 3.727 1.538-7.568 1.538 6.547 1.563 3.612 1.538-11.698 1.539-2.387 1.539 4.089 1.538-3.044 1.563-3.922 1.513 4.413 1.513 7.51 1.537-1.261 1.537-5.206 1.538 9.174 1.538-4.07 1.563-.468 1.538-1.042 1.539-5.831 1.539 5.049 1.538 1.79 1.563-7.74 1.488 5.171 1.488 3.791 1.537 2.885 1.537-3.794 1.538-.865 1.538-5.566 1.563 4.149 1.538-3.975 1.539 3.936 1.539 4.466 1.538-5.291 1.563 3.449 1.488.615 3.025 3.007 1.537.075 1.538-.769 1.538-5.272 1.563-1.973 1.538 5.812 1.539-1.665 1.539 2.253 1.538 3.239 1.563-11.35 1.488 1.148 1.488-.508 1.537 8.753 1.537.07 1.538 2.151 1.538 2.465 3.102-16.411 1.539-2.265 1.539 13.504 1.538 1.233 1.563-7.452 3.026 2.693 1.537 4.806 3.075.054 1.538 1.385 1.563-.135 1.538-5.204 1.539 2.335 1.539-1.282 1.538 5.524 1.563-5.415 1.488 2.468 1.488-.172 1.537.936 1.537 3.201 1.538-5.417 1.538.446 1.563 2.136 1.538-9.168 1.539 4.388 1.539.088 1.538 9.954 1.563-6.059 1.488 1.524 1.488-5.802 1.537 6.037 1.537-.819 1.538-.603 1.538 5.456 1.563-4.311 1.538-3.849 1.539.642 1.539-1.576 1.538 2.12 1.563-3.983 1.488 5.887 1.487 1.52 1.537-5.744 1.538 6.375 1.538-2.301 1.538 3.509 1.563-.849 1.538-6.301 1.538 7.034 1.539-3.135 1.539.455 1.563-6.61 1.513 4.573 1.512 9.682 1.537-.937 1.538-1.746 1.538-1 1.538-.498 1.563 1.616 1.538-7.95 1.538 1.943 1.539 4.055 1.539 3.644 1.563-14.614 1.488-5.412 1.487 4.216 1.537 4.723 1.538-.642 1.538-4.799 1.538 2.989 1.563-4.543 1.538-1.77 1.538 5.359 1.539 3.026 1.539-6.448 1.563 5.574 1.488 1.13 1.487 5.208 1.537 1.725 1.538-4.462 1.538 4.84 1.538-.565 1.563-3.134 1.538-4.771 1.538 7.326 1.539-3.546 1.539 6.782 1.563-8.762 1.488 6.745 1.487.212 1.537 1.513 1.538 1.14 1.538-1.545 1.538-1.164 1.563 1.211 1.538-4.819 1.538 4.339 1.539-2.416 1.539 5.526 1.563-4.254 1.513 3.843 1.512-.943 1.537 1.031 1.538-1.389 1.538 2.475 1.538 1.476 1.563-2.669 1.538-3.709 1.538-1.928 1.539 2.488 1.539 9.256 1.563-4.798 1.488.533 1.487-1.421 1.537.5 1.538 1.469 1.538-2.087 1.538-2.881 1.563 2.352 1.538 1.376 1.538-2.751 1.539 6.032 1.539 2.615 1.563-10.148 1.488 5.124 1.487-.658 1.537 1.113 1.538-.771 1.538-3.479 1.538.165 1.563 3.08 1.538-3.231 1.538 3.126 1.539 4.301 1.539.426 1.563-6.578 1.488 5.036 1.487-.936 1.537-1.751 1.538.599 1.538 5.329 1.538-2.765 1.563-1.931 1.538-2.272 1.538-.092 1.539 2.358 1.539 4.448 1.563-5.182 1.513 3.063 1.512-2.988 1.537 2.153 1.538.506 1.538 1.76 1.538-3.695 1.563 1.181 1.538-.786 1.538 2.285 1.539 1.659 1.539-.052 1.563-5.128 1.488 6.122 1.487 2.335 1.537.757 1.538-2.836 1.538-.3 1.538.788 1.563.323 1.538-1.33 1.538-.812 1.539 2.217 1.539 1.486 1.563-5.647 1.488 7.883 1.487.57 1.537-3.094 1.538 2.061 1.538 1.066 1.538-3.243 1.563.692 1.538 2.104 1.538-.893 1.539.198 1.539 3.692 1.563-2.654 1.488.958 1.487-8.383 1.537 8.767 1.538 3.706 1.538.343" stroke="#7e2f8e" class="F"/><path d="M12.258 382.055h1.539l1.538-121.232 1.563 121.232h1.488l1.488-121.232 1.537 121.232h7.715m3.079 0h10.69l1.538-72.739 1.563 72.739h1.538l1.539-4.133 1.539-.849 1.538 4.982h7.664l1.538-1.229 1.538 1.229h16.87l1.538-.915 1.563.371 1.538-.008 1.539-.326 1.539.458 1.538-.382 1.563-.595 1.488.962 1.488.435 1.537-4.515 1.537-7.887 1.538-.517 1.538 1.661 1.563 2.881 1.538 2.068 1.539-4.947 1.539 1.476 1.538 6.772 1.563 1.398 1.488-10.651 1.488 6.065 1.537-6.724 1.537.694 1.538 5.728 1.538 1.939 1.563.525 1.538 1.633 1.539.601 1.539-1.589 1.538 1.842 1.563-2.04 1.513 1.525 1.513-.444 1.537-5.252 1.537-.65 1.538 1.298 1.538-1.086 1.563 3.091 1.538 2.649 1.539.92 1.539-.449 3.102 1.164 1.488-3.206 1.488 1.576 1.537-.8 1.537-.172 1.538-1.829 1.538 2.125 1.563.156 1.538.52 1.539.911 1.539-1.02 1.538.633 1.563.838 1.488-.187 1.488.861 1.537-.798 1.537-.959 1.538-.421 1.538.537 1.563-2.586 1.538-13.658 1.539 13.142 1.539-.252 1.538 1.351 1.563-.57 1.488-3.114 1.488 3.674 1.537-.73 1.537-.01 1.538-1.118 1.538-.418 1.563 1.827 1.538 1.085 1.539-.76 1.539 1.82 3.102-2.149 1.513 1.048 1.513-8.498 1.537 8.175 1.537-3.5 3.076-.986 1.563 2.919 1.538-.867 3.079-.942 1.538 3.173 1.563-2.93 1.488 1.332 1.488.49 1.537 1.23 1.537-1.455 1.538-5.056 1.538 4.356 1.563 2.328 1.538-10.713 1.539 6.512 1.539.435 1.538 3.222 1.563-.269 1.488-2.531 1.488 1.48 1.537-2.828 1.537-3.661 1.538 6.164 1.538-7.373 1.563 6.623 1.538 1.717 1.539.479 1.539-1.77 1.538-1.98 1.563 3.014 1.488-1.019 1.488 1.209 1.537-1.174 1.537-4.102 1.538-3.575 1.538 4.541 1.563 1.582 1.538.142 1.539.403 1.539-.491 1.538.329 1.563 3.033 1.513-3.853 1.513 1.629 1.537-.944 1.537-4.356 1.538 3.969 1.538.066 1.563-1.502 1.538 2.745 1.539-2.825 1.539.401 1.538-3.559 1.563 2.308 1.488-2.356 1.488 3.118 1.537-3.449 1.537 3.504 1.538-.76 1.538 1.583 1.563-7.209 1.538 6.844 1.539.64 1.539-1.957 1.538.644 1.563-3.367 1.488.977 3.025-.335 1.537-2.808 1.538 3.23 1.538-1.791 1.563 1.212 1.538-2.905 1.539 2.49 1.539-.816 1.538.406 1.563-3.046 1.488.766 1.487 2.008 1.537-3.642 1.538-2.973 1.538 6.913 1.538-4.395 1.563 2.143 1.538 2.586 1.538-9.619 1.539 4.711 1.539-2.091 1.563-.906 1.513-8.67 1.512 7.133 1.537-.615 1.538-2.484 1.538 5.766 1.538 3.717 1.563-4.118 1.538-2.143 1.538 4.209 1.539-1.635 1.539.22 1.563-3.528 1.488.688 3.024-2.621 1.538 2.564 1.538-5.353 1.538 2.082 1.563.17 1.538-1.846 1.538 3.096 1.539-4.58 1.539.802 1.563-9.179 1.488 4.774 1.487 2.903 1.537-8.747 1.538 8.133 1.538-7.378 1.538 8.673 1.563-.667 1.538-1.146 1.538 2.635 1.539-.827 1.539-2.629 1.563 3.792 1.488-11.505 1.487 8.729 1.537-3.528 1.538 2.758 1.538-6.166 1.538 4.448 1.563-1.608 1.538-1.325 1.538 2.543 1.539-.812 1.539 2.527 1.563-3.074 1.513-11.763 1.512 6.873 1.537-4.106 1.538 6.589 1.538-11.816 1.538.862 1.563 8.512 1.538 1.257 1.538-4.225 1.539 4.577 1.539-3.335 1.563-8.134 1.488-2.207 1.487-4.223 1.537 7.512 1.538 6.813 1.538-2.857 1.538-.696 1.563 2.997 1.538-2.906 1.538 3.569 1.539-3.224 1.539-4.519 1.563-9.114 1.488 6.171 1.487 7.911 1.537-9.911 1.538 5.869 1.538-1.77 1.538 2.841 1.563.333 1.538.955 1.538.246 1.539-2.398 1.539-5.204 1.563 4.152 1.488-6.546 1.487 4.883 1.537-5.491 1.538 1.574 1.538-1.051 1.538 1.247 1.563 3.595 1.538-.535 1.538 4.628 1.539-17.984 1.539 16.204 1.563-3.716 1.513-9.239 1.512 2.477 1.537-8.581 1.538 3.966 1.538-8.078 1.538 8.816 1.563-.352 1.538-.06 1.538 2.14 1.539-10.002 1.539 7.02 1.563-2.921 1.488-7.53 1.487-.486 1.537-4.335 1.538 3.284 1.538 1.808 1.538-6.294 1.563 1.409 1.538-2.468 1.538 12.583 1.539-12.252 1.539 11.56 1.563-4.588 1.488-17.254 1.487 7.634 1.537-7.537 1.538-4.137 1.538 5.91 1.538-1.179 1.563 4.009 1.538-7.611 1.538 4.836 1.539-10.411 1.539 10.92 1.563-2.713 1.488-3.888 1.487 5.66 1.537-19.399 1.538.601 1.538-.028" stroke="#77ac30" class="F"/><path d="M12.258 382.055h16.869m3.079 0h44.482l1.537-.52 1.538.52h12.308l1.488-3.685 1.537 2.043 1.537.636 1.538-.609 1.538.933 1.563-.841 1.538.527 1.539-.254 1.539-3.766 1.538 4.196 1.563-.469 1.488-4.991 1.488 3.058 1.537-.874 1.537.195 3.076-.657 1.563 1.101 1.538-1.078 1.539-2.666 1.539 4.054 1.538-4.332 1.563 2.237 1.513.603 1.513-2.128 1.537-2.636 1.537 1.643 1.538 2.375 1.538-.351 1.563.632 1.538-1.649 1.539-.543 1.539-.843 1.538.916 1.563-.371 1.488-.036 3.025-.784 1.537-.954 1.538 1.982 1.538.036 1.563-4.933 1.538 3.549 1.539-.931 1.539 1.183 1.538-1.598 1.563 2.922 1.488-6.078 1.488.936 1.537 2.141 1.537-1.246 1.538-.525 1.538-.923 1.563.956 1.538 3.076 1.539-5.76 1.539 1.288 1.538 2.218 1.563-3.94 1.488-.203 1.488 4.815 1.537-4.118 3.075 2.443 1.538 2.666 1.563-5.978 1.538 3.154 1.539 2.018 1.539-4.917 1.538 3.683 1.563-6.089 1.513 4.073 1.513-4.694 1.537 2.491 1.537.11 1.538-1.223 1.538-.523 1.563-15.299 1.538 15.639 1.539 3.21 1.539.764 1.538-.695 1.563-5.147 1.488 2.242 1.488.027 1.537-.155 1.537.535 1.538 1.948 1.538-.665 1.563-1.474 1.538 2.654 1.539.565 1.539-12.882 1.538 9.882 1.563 2.964 1.488-1.695 1.488-1.364 1.537 1.347 1.537.694 1.538-1.269 1.538-2.588 1.563.407 1.538.682 1.539-.239 1.539 2.11 1.538-3.029 1.563 3.807 1.488-4.112 1.488.953 1.537.393 1.537-2.757 1.538-3.157 1.538 4.319 1.563-.034 1.538 3.204 1.539-2.945 1.539.412 1.538-.089 1.563-4.081 1.513 3.073 1.513 2.601 1.537-1.995 1.537-.733 1.538 1.084 1.538-.649 1.563.159 1.538-.652 1.539-6.666 1.539-.194 1.538 6.81 1.563-1.807 1.488 1.959 1.488-6.232 1.537 2.309 1.537-.848 1.538.86 1.538 1.338 1.563-2.625 1.538.57 1.539-.79 1.539 1.85 1.538-2.645 3.051 2.76 1.488-2.935 1.537-.709 1.537 1.852 1.538-.869 1.538-1.429 1.563-2.685 1.538 5.233 1.539.338 1.539-2.539 1.538 1.094 1.563-5.228 1.488 5.002 1.487-.643 1.537-1.271 1.538.383 1.538.641 1.538-.027 1.563 1 1.538-2.998 1.538 5.479 1.539-.65 1.539-2.614 1.563-4.183 1.513 5.87 1.512-3.426 1.537 4.652 1.538-1.241 1.538-3.326 1.538-1.541 1.563 4.976 1.538-.467 1.538-2.008 1.539-.249 1.539.331 1.563-4.834 1.488 5.43 1.487 2.367 1.537-6.721 1.538 3.617 1.538-.61 1.538 3.462 1.563-4.124 1.538 3.124 1.538-3.2 1.539-1.465 1.539 3.115 1.563-2.247 1.488-1.84 1.487 1.108 1.537 2.024 1.538-.186 1.538-2.481 1.538-.169 1.563-.033 1.538 1.48 1.538-3.334 1.539 4.126 3.103-.661 1.488-1.275 3.024.384 1.538-1.103 1.538 1.506 1.538-1.802 1.563.102 1.538-1.44 1.538-1.782 1.539 4.501 1.539-1.465 1.563-3.34 1.513.327 1.512 3.325 1.537-.43 1.538 1.317 1.538-.803 1.538-.128 1.563-4.751 1.538 2.878 1.538 1.694 1.539-3.177 1.539.941 1.563.259 1.488 3.201 1.487-1.626 1.537.384 1.538-4.62 1.538.799 1.538 1.468 1.563-1.294 1.538 2.533 1.538-1.428 1.539 2.018 1.539 1.667 1.563-2.599 2.975.471 1.537 1.306 1.538-1.621 1.538.786 1.538-.731 1.563.34 1.538-1.292 1.538-.451 1.539 4.122 1.539-2.935 1.563-1.135 1.488.42 1.487.177 1.537 1.21 1.538 2.426 1.538-2.272 3.102.501 1.538-.061 1.538-.228 1.539.393 1.539-.371 1.563-1.818 1.513.425 1.512 2.665 1.537-2.742 1.538.304 1.538 1.622 1.538-1.139 1.563-2.477 1.538 2.023 1.538-.784 1.539 1.44 1.539.422 1.563.179 1.488-.626 3.024 1.625 1.538-2.439 1.538-.688 1.538 1.745 1.563-1.971 1.538 1.232 1.538-1.13 1.539 3.223 1.539-3.736 1.563-3.274 1.488 3.432 1.487 1.381 1.537 1.637 1.538.639 1.538-4.348 1.538 3.781 1.563-2.014 1.538 1.277 1.538-.675 1.539 2.424 1.539-1.824 1.563-.545 2.975 1.781 1.537 1.532 3.076-1.078" stroke="#4dbeee" class="F"/></g><g class="H K"><path d="M56.293 400.24V18.36M559.44 400.24V18.36"/><path d="M56.293 400.24H559.44M56.293 18.36H559.44"/></g></g><path d="M367.549 152.777H552.24V25.56H367.549z" fill="#fff" class="H K"/><path d="M373.309 36.587h28.8" stroke="#0072bd" class="D E J"/><defs><path d="M7.422 0v71.578h14.266l16.938-50.672q2.344-7.094 3.422-10.609 1.219 3.906 3.797 11.484l17.141 49.797h12.75V0h-9.125v59.906L45.797 0H37.25L16.547 60.938V0z" id="X" class="B C"/><path d="M6.594 0v71.578h8.781V45.906q6.156 7.125 15.531 7.125 5.766 0 10.016-2.281 4.25-2.266 6.078-6.266 1.828-4 1.828-11.625V0h-8.781v32.859q0 6.594-2.859 9.594-2.859 3-8.078 3-3.906 0-7.359-2.031-3.437-2.016-4.906-5.484-1.469-3.469-1.469-9.562V0z" id="Y" class="B C"/><path d="M6.594 0v51.859h7.859v-7.281q2.438 3.813 6.484 6.125 4.063 2.328 9.234 2.328 5.766 0 9.453-2.391 3.688-2.391 5.203-6.687 6.156 9.078 16.016 9.078 7.719 0 11.859-4.281 4.156-4.266 4.156-13.156V0h-8.75v32.672q0 5.266-.859 7.578-.844 2.328-3.094 3.734-2.234 1.422-5.266 1.422-5.469 0-9.094-3.641-3.609-3.625-3.609-11.641V0h-8.781v33.688q0 5.859-2.156 8.781-2.141 2.938-7.031 2.938-3.703 0-6.859-1.953-3.141-1.953-4.562-5.719-1.422-3.75-1.422-10.828V0z" id="Z" class="B C"/></defs><g transform="matrix(.144 0 0 -.144 413.62875 41.62725)"><use xlink:href="#X"/><use x="83.301" xlink:href="#N"/><use x="138.916" xlink:href="#P"/><use x="166.699" xlink:href="#Y"/><use x="222.314" xlink:href="#V"/><use x="277.93" xlink:href="#Z"/><use x="361.23" xlink:href="#N"/><use x="416.846" xlink:href="#P"/><use x="444.629" xlink:href="#Q"/><use x="466.846" xlink:href="#O"/><use x="516.846" xlink:href="#W"/></g><path d="M373.309 56.957h28.8" stroke="#d95319" class="D E J"/><defs><path d="M58.797 25.094l9.469-2.391Q65.281 11.031 57.547 4.906q-7.734-6.125-18.922-6.125-11.578 0-18.828 4.703-7.25 4.719-11.031 13.656-3.781 8.938-3.781 19.188 0 11.188 4.266 19.5 4.281 8.328 12.156 12.641 7.891 4.328 17.359 4.328 10.75 0 18.063-5.469 7.328-5.469 10.219-15.375l-9.328-2.203q-2.5 7.813-7.234 11.375-4.734 3.578-11.906 3.578-8.25 0-13.797-3.969-5.547-3.953-7.797-10.625-2.234-6.656-2.234-13.734 0-9.125 2.656-15.937 2.656-6.812 8.266-10.187 5.625-3.359 12.172-3.359 7.953 0 13.469 4.578 5.531 4.594 7.484 13.625z" id="a" class="B C"/><path d="M40.234 0v6.547q-4.937-7.719-14.5-7.719-6.203 0-11.406 3.422-5.203 3.422-8.062 9.547-2.844 6.125-2.844 14.078 0 7.766 2.578 14.094 2.594 6.328 7.766 9.688 5.188 3.375 11.578 3.375 4.688 0 8.344-1.984 3.672-1.969 5.969-5.141v25.672h8.734V0zM12.453 25.875q0-9.953 4.188-14.891 4.203-4.922 9.922-4.922 5.766 0 9.781 4.703 4.031 4.719 4.031 14.375 0 10.656-4.109 15.625-4.094 4.984-10.094 4.984-5.859 0-9.797-4.781-3.922-4.781-3.922-15.094z" id="b" class="B C"/></defs><g transform="matrix(.144 0 0 -.144 413.62875 61.9965)"><use xlink:href="#a"/><use x="72.217" xlink:href="#R"/><use x="127.832" xlink:href="#S"/><use x="183.447" xlink:href="#b"/><use x="239.063" xlink:href="#V"/><use x="294.678" xlink:href="#S"/><use x="350.293" xlink:href="#W"/><use x="400.293" xlink:href="#V"/><use x="455.908" xlink:href="#b"/><use x="511.523" xlink:href="#CK"/><use x="539.307" xlink:href="#X"/><use x="622.607" xlink:href="#N"/><use x="678.223" xlink:href="#P"/><use x="706.006" xlink:href="#P"/><use x="733.789" xlink:href="#V"/><use x="789.404" xlink:href="#M"/></g><path d="M373.309 77.326h28.8" stroke="#edb120" class="D E J"/><defs><path d="M8.016 0v71.578h9.469V42.188h37.203v29.391h9.469V0h-9.469v33.734H17.484V0z" id="c" class="B C"/><path d="M4.984-4.297l8.547-1.266q.531-3.953 2.969-5.766 3.281-2.437 8.938-2.437 6.109 0 9.422 2.438 3.328 2.438 4.5 6.828.688 2.688.625 11.281Q34.234 0 25.641 0 14.938 0 9.078 7.719q-5.859 7.719-5.859 18.5 0 7.422 2.688 13.688 2.688 6.281 7.781 9.703 5.109 3.422 12 3.422 9.172 0 15.141-7.422v6.25h8.094V7.031q0-12.109-2.469-17.156-2.453-5.062-7.812-7.984-5.344-2.937-13.156-2.937-9.266 0-14.984 4.172-5.719 4.172-5.516 12.578zm7.266 31.156q0-10.203 4.047-14.891 4.063-4.687 10.172-4.687 6.047 0 10.141 4.656 4.109 4.672 4.109 14.625 0 9.516-4.219 14.344-4.219 4.844-10.187 4.844-5.859 0-9.969-4.766-4.094-4.75-4.094-14.125z" id="d" class="B C"/><path d="M7.906 0v71.578h51.766v-8.437H17.391V41.219h39.594v-8.406H17.391V8.453h43.938V0z" id="e" class="B C"/><path d="M6.203-19.969l-.984 8.25q2.891-.781 5.031-.781 2.938 0 4.688.984 1.766.969 2.891 2.719.828 1.328 2.688 6.547.234.734.781 2.156L1.609 51.859h9.469l10.797-30.031q2.094-5.719 3.766-12.016 1.516 6.063 3.609 11.813l11.078 30.234h8.797L29.391-.875q-3.172-8.547-4.922-11.766-2.344-4.359-5.375-6.375-3.031-2.031-7.234-2.031-2.531 0-5.656 1.078z" id="f" class="B C"/><path d="M7.719 0v71.578h27q7.125 0 10.891-.672 5.266-.891 8.828-3.359 3.578-2.453 5.75-6.906 2.172-4.437 2.172-9.766 0-9.125-5.812-15.453-5.812-6.312-21-6.312H17.188V0zm9.469 37.547h18.5q9.188 0 13.047 3.422 3.859 3.422 3.859 9.625 0 4.484-2.281 7.672-2.266 3.203-5.969 4.234-2.406.641-8.844.641H17.188z" id="g" class="B C"/></defs><g transform="matrix(.144 0 0 -.144 413.62875 82.36575)"><use xlink:href="#c"/><use x="72.217" xlink:href="#Q"/><use x="94.434" xlink:href="#d"/><use x="150.049" xlink:href="#Y"/><use x="205.664" xlink:href="#CK"/><use x="233.447" xlink:href="#e"/><use x="300.146" xlink:href="#S"/><use x="355.762" xlink:href="#V"/><use x="411.377" xlink:href="#M"/><use x="444.678" xlink:href="#d"/><use x="500.293" xlink:href="#f"/><use x="550.293" xlink:href="#CK"/><use x="578.076" xlink:href="#g"/><use x="644.775" xlink:href="#Y"/><use x="700.391" xlink:href="#f"/><use x="750.391" xlink:href="#W"/><use x="800.391" xlink:href="#Q"/><use x="822.607" xlink:href="#O"/><use x="872.607" xlink:href="#W"/></g><path d="M373.309 97.864h28.8" stroke="#7e2f8e" class="D E J"/><defs><path d="M-.141 0l27.484 71.578h10.203L66.844 0H56.063l-8.359 21.688H17.781L9.906 0zm20.656 29.391h24.266l-7.469 19.828q-3.422 9.031-5.078 14.844-1.375-6.891-3.859-13.672z" id="h" class="B C"/></defs><g transform="matrix(.144 0 0 -.144 413.62875 102.90375)"><use xlink:href="#h"/><use x="66.699" xlink:href="#W"/><use x="116.699" xlink:href="#P"/><use x="144.482" xlink:href="#M"/><use x="177.783" xlink:href="#R"/><use x="233.398" xlink:href="#U"/><use x="289.014" xlink:href="#Y"/><use x="344.629" xlink:href="#f"/><use x="394.629" xlink:href="#W"/><use x="444.629" xlink:href="#Q"/><use x="466.846" xlink:href="#O"/><use x="516.846" xlink:href="#W"/></g><path d="M373.309 118.577h28.8" stroke="#77ac30" class="D E J"/><defs><path d="M40.578 0v7.625q-6.062-8.797-16.453-8.797-4.594 0-8.578 1.75Q11.578 2.344 9.641 5q-1.922 2.672-2.703 6.531-.547 2.578-.547 8.203v32.125h8.797V23.094q0-6.875.531-9.281.828-3.453 3.516-5.437 2.688-1.984 6.641-1.984 3.953 0 7.422 2.031 3.469 2.031 4.906 5.516 1.453 3.5 1.453 10.141v27.781h8.781V0z" id="i" class="B C"/><path d="M4.5 23l8.922.781q.641-5.375 2.953-8.812 2.328-3.437 7.203-5.562 4.891-2.125 11-2.125 5.406 0 9.563 1.609 4.156 1.609 6.172 4.406 2.031 2.813 2.031 6.141 0 3.359-1.953 5.875-1.953 2.516-6.437 4.234-2.891 1.125-12.75 3.484-9.859 2.375-13.812 4.469-5.141 2.688-7.656 6.656-2.5 3.984-2.5 8.922 0 5.422 3.063 10.125 3.078 4.719 8.984 7.156 5.922 2.438 13.141 2.438 7.953 0 14.031-2.562 6.094-2.562 9.359-7.547 3.266-4.969 3.516-11.266l-9.078-.687q-.734 6.781-4.969 10.25-4.219 3.469-12.469 3.469-8.594 0-12.531-3.156-3.922-3.141-3.922-7.578 0-3.859 2.781-6.359 2.734-2.484 14.281-5.094 11.547-2.609 15.844-4.562 6.25-2.891 9.219-7.312 2.984-4.406 2.984-10.172 0-5.719-3.266-10.781-3.266-5.047-9.406-7.859-6.125-2.797-13.781-2.797-9.719 0-16.297 2.828-6.562 2.828-10.297 8.516Q4.688 15.828 4.5 23z" id="j" class="B C"/></defs><g transform="matrix(.144 0 0 -.144 413.62875 123.61725)"><use xlink:href="#a"/><use x="72.217" xlink:href="#R"/><use x="127.832" xlink:href="#Z"/><use x="211.133" xlink:href="#U"/><use x="266.748" xlink:href="#i"/><use x="322.363" xlink:href="#P"/><use x="350.146" xlink:href="#V"/><use x="405.762" xlink:href="#M"/><use x="439.063" xlink:href="#CK"/><use x="466.846" xlink:href="#j"/><use x="533.545" xlink:href="#O"/><use x="583.545" xlink:href="#Q"/><use x="605.762" xlink:href="#V"/><use x="661.377" xlink:href="#S"/><use x="716.992" xlink:href="#O"/><use x="766.992" xlink:href="#V"/></g><path d="M373.309 138.947h28.8" stroke="#4dbeee" class="D E J"/><g transform="matrix(.144 0 0 -.144 413.62875 143.9865)"><use xlink:href="#g"/><use x="66.699" xlink:href="#Y"/><use x="122.314" xlink:href="#f"/><use x="172.314" xlink:href="#W"/><use x="222.314" xlink:href="#Q"/><use x="244.531" xlink:href="#O"/><use x="294.531" xlink:href="#W"/></g></g><defs><clipPath id="k"><path d="M56.293 18.36H559.44v381.88H56.293z" class="B C"/></clipPath></defs></svg>