<svg xmlns="http://www.w3.org/2000/svg" xmlns:xlink="http://www.w3.org/1999/xlink" height="576" viewBox="0 0 576 432" width="768" stroke-linecap="butt" stroke-linejoin="round" xmlns:v="https://vecta.io/nano"><style><![CDATA[.B{stroke-linecap:butt}.C{stroke-linejoin:round}.D{stroke-linecap:square}.E{fill:none}.F{clip-path:url(#j)}.G{stroke-width:.5}.H{stroke:#000}.I{stroke:#b2b2b2}.J{stroke-width:1.5}.K{stroke-linejoin:miter}]]></style><g fill="#fff"><path d="M0 432h576V0H0z"/><path d="M56.293 400.24H559.44V18.36H56.293z"/></g><path d="M108.209 400.24V18.36" class="D E F G I"/><defs><path d="M0 0v4" id="A" class="B C G H"/></defs><use x="108.209" xlink:href="#A" y="400.24" class="G H"/><defs><path d="M37.25 0h-8.781v56q-3.172-3.016-8.328-6.047-5.156-3.031-9.25-4.547v8.5q7.375 3.469 12.891 8.391 5.516 4.938 7.813 9.578h5.656z" id="B" class="B C"/><path d="M5.469 16.547l8.453.781q1.063-5.953 4.094-8.641Q21.047 6 25.781 6q4.047 0 7.094 1.859 3.063 1.859 5.016 4.953 1.953 3.109 3.266 8.375 1.328 5.281 1.328 10.75 0 .578-.047 1.75-2.641-4.187-7.203-6.812-4.562-2.609-9.891-2.609-8.891 0-15.047 6.438-6.141 6.453-6.141 17 0 10.891 6.422 17.531Q17 71.875 26.656 71.875q6.984 0 12.766-3.766 5.797-3.75 8.797-10.719 3-6.953 3-20.141 0-13.719-2.984-21.844-2.969-8.125-8.859-12.375-5.875-4.25-13.781-4.25-8.406 0-13.734 4.656-5.312 4.672-6.391 13.109zm35.984 31.594q0 7.578-4.031 12.016-4.016 4.438-9.687 4.438-5.859 0-10.203-4.781-4.344-4.781-4.344-12.406 0-6.828 4.125-11.109 4.125-4.266 10.172-4.266 6.109 0 10.031 4.266 3.938 4.281 3.938 11.844z" id="C" class="B C"/><path d="M4.156 18.75l9.219.781q1.031-6.734 4.766-10.141Q21.875 6 27.156 6q6.344 0 10.734 4.781 4.391 4.797 4.391 12.703 0 7.516-4.219 11.859Q33.844 39.703 27 39.703q-4.25 0-7.672-1.937-3.406-1.922-5.359-5l-8.25 1.078 6.922 36.766H48.25v-8.406H19.672l-3.844-19.234q6.438 4.5 13.516 4.5 9.375 0 15.813-6.5 6.453-6.5 6.453-16.703 0-9.719-5.656-16.797-6.891-8.687-18.797-8.687-9.766 0-15.953 5.469-6.172 5.469-7.047 14.5z" id="D" class="B C"/></defs><g transform="matrix(.12 0 0 -.12 94.86319 416.829375)"><use xlink:href="#B"/><use x="55.615" xlink:href="#C"/><use x="111.23" xlink:href="#C"/><use x="166.846" xlink:href="#D"/></g><g class="G"><path d="M200.302 400.24V18.36" class="D E F I"/><use x="200.302" xlink:href="#A" y="400.24" class="H"/></g><defs><path d="M50.344 8.453V0H3.031q-.094 3.172 1.016 6.109 1.813 4.828 5.781 9.516 3.984 4.688 11.516 10.844 11.672 9.563 15.766 15.156 4.109 5.594 4.109 10.578 0 5.219-3.75 8.797-3.734 3.594-9.734 3.594-6.344 0-10.156-3.812-3.812-3.797-3.859-10.531l-9.031.922q.922 10.109 6.969 15.406 6.063 5.297 16.281 5.297 10.297 0 16.297-5.719Q50.25 60.453 50.25 52q0-4.297-1.766-8.453-1.75-4.141-5.828-8.734-4.078-4.594-13.547-12.594-7.922-6.641-10.172-9.016-2.234-2.359-3.703-4.75z" id="E" class="B C"/><path d="M4.156 35.297q0 12.703 2.609 20.438 2.609 7.75 7.75 11.938 5.156 4.203 12.969 4.203 5.766 0 10.109-2.328 4.344-2.312 7.172-6.687 2.844-4.359 4.453-10.641 1.609-6.266 1.609-16.922 0-12.594-2.594-20.328Q45.656 7.234 40.5 3q-5.141-4.219-13.016-4.219-10.344 0-16.25 7.422-7.078 8.938-7.078 29.094zm9.031 0q0-17.625 4.125-23.469Q21.438 6 27.484 6q6.063 0 10.188 5.859 4.125 5.859 4.125 23.438 0 17.688-4.125 23.484-4.125 5.813-10.281 5.813-6.047 0-9.672-5.125-4.531-6.531-4.531-24.172z" id="F" class="B C"/></defs><g transform="matrix(.12 0 0 -.12 186.955605 416.829375)"><use xlink:href="#E"/><use x="55.615" xlink:href="#F"/><use x="111.23" xlink:href="#F"/><use x="166.846" xlink:href="#F"/></g><g class="G"><path d="M292.445 400.24V18.36" class="D E F I"/><use x="292.445" xlink:href="#A" y="400.24" class="H"/></g><g transform="matrix(.12 0 0 -.12 279.098455 416.829375)"><use xlink:href="#E"/><use x="55.615" xlink:href="#F"/><use x="111.23" xlink:href="#F"/><use x="166.846" xlink:href="#D"/></g><g class="G"><path d="M384.537 400.24V18.36" class="D E F I"/><use x="384.537" xlink:href="#A" y="400.24" class="H"/></g><g transform="matrix(.12 0 0 -.12 371.19087 416.829375)"><use xlink:href="#E"/><use x="55.615" xlink:href="#F"/><use x="111.23" xlink:href="#B"/><use x="166.846" xlink:href="#F"/></g><g class="G"><path d="M476.63 400.24V18.36" class="D E F I"/><use x="476.63" xlink:href="#A" y="400.24" class="H"/></g><g transform="matrix(.12 0 0 -.12 463.283285 416.829375)"><use xlink:href="#E"/><use x="55.615" xlink:href="#F"/><use x="111.23" xlink:href="#B"/><use x="166.846" xlink:href="#D"/></g><path d="M56.293 382.055H559.44" class="D E F G I"/><defs><path d="M0 0h-4" id="G" class="B C G H"/></defs><use x="56.293" xlink:href="#G" y="382.055" class="G H"/><defs><path d="M9.078 0v10.016h10.016V0z" id="H" class="B C"/></defs><g transform="matrix(.12 0 0 -.12 31.612813 385.157426)"><use xlink:href="#F"/><use x="55.615" xlink:href="#H"/><use x="83.398" xlink:href="#F"/></g><g class="G"><path d="M56.293 309.316H559.44" class="D E F I"/><use x="56.293" xlink:href="#G" y="309.316" class="H"/></g><g transform="matrix(.12 0 0 -.12 31.612813 312.418378)"><use xlink:href="#F"/><use x="55.615" xlink:href="#H"/><use x="83.398" xlink:href="#E"/></g><g class="G"><path d="M56.293 236.577H559.44" class="D E F I"/><use x="56.293" xlink:href="#G" y="236.577" class="H"/></g><defs><path d="M32.328 0v17.141H1.266v8.063l32.672 46.375h7.172V25.203h9.672v-8.062h-9.672V0zm0 25.203v32.266L9.906 25.203z" id="I" class="B C"/></defs><g transform="matrix(.12 0 0 -.12 31.612813 239.67933)"><use xlink:href="#F"/><use x="55.615" xlink:href="#H"/><use x="83.398" xlink:href="#I"/></g><g class="G"><path d="M56.293 163.838H559.44" class="D E F I"/><use x="56.293" xlink:href="#G" y="163.838" class="H"/></g><defs><path d="M49.75 54.047l-8.734-.672q-1.172 5.172-3.312 7.516-3.578 3.766-8.797 3.766-4.203 0-7.375-2.344-4.141-3.031-6.547-8.844-2.391-5.812-2.484-16.547 3.172 4.828 7.766 7.172 4.594 2.344 9.625 2.344 8.781 0 14.953-6.469 6.188-6.469 6.188-16.719 0-6.75-2.906-12.531-2.906-5.781-7.984-8.859-5.078-3.078-11.531-3.078-10.984 0-17.922 8.078Q3.766 14.938 3.766 33.5q0 20.75 7.656 30.172 6.688 8.203 18.016 8.203 8.453 0 13.844-4.734 5.406-4.734 6.469-13.094zM13.875 23.188q0-4.531 1.922-8.687 1.922-4.141 5.391-6.328Q24.656 6 28.469 6q5.563 0 9.563 4.484 4.016 4.5 4.016 12.219 0 7.422-3.969 11.688-3.953 4.281-9.953 4.281-5.953 0-10.109-4.281-4.141-4.266-4.141-11.203z" id="J" class="B C"/></defs><g transform="matrix(.12 0 0 -.12 31.612813 166.940283)"><use xlink:href="#F"/><use x="55.615" xlink:href="#H"/><use x="83.398" xlink:href="#J"/></g><g class="G"><path d="M56.293 91.099H559.44" class="D E F I"/><use x="56.293" xlink:href="#G" y="91.099" class="H"/></g><defs><path d="M17.672 38.813q-5.469 2.016-8.109 5.719-2.625 3.719-2.625 8.891 0 7.813 5.609 13.125 5.625 5.328 14.938 5.328 9.375 0 15.094-5.453 5.719-5.437 5.719-13.25 0-4.984-2.625-8.672-2.609-3.672-7.922-5.687 6.594-2.141 10.031-6.937 3.438-4.781 3.438-11.422 0-9.172-6.5-15.422-6.484-6.25-17.078-6.25-10.594 0-17.094 6.266-6.5 6.281-6.5 15.656 0 6.984 3.547 11.688 3.547 4.719 10.078 6.422zm-1.75 14.906q0-5.078 3.266-8.312 3.281-3.219 8.5-3.219 5.078 0 8.328 3.188 3.25 3.203 3.25 7.844 0 4.844-3.359 8.141-3.344 3.297-8.312 3.297-5.031 0-8.359-3.234-3.312-3.219-3.312-7.703zm-2.828-33.062q0-3.766 1.781-7.281 1.781-3.516 5.297-5.453Q23.688 6 27.734 6q6.297 0 10.391 4.047 4.109 4.063 4.109 10.313 0 6.344-4.219 10.5-4.219 4.156-10.578 4.156-6.203 0-10.281-4.109-4.062-4.094-4.062-10.25z" id="K" class="B C"/></defs><g transform="matrix(.12 0 0 -.12 31.612813 94.201235)"><use xlink:href="#F"/><use x="55.615" xlink:href="#H"/><use x="83.398" xlink:href="#K"/></g><g class="G"><path d="M56.293 18.36H559.44" class="D E F I"/><use x="56.293" xlink:href="#G" y="18.36" class="H"/></g><g transform="matrix(.12 0 0 -.12 31.612813 21.462187)"><use xlink:href="#B"/><use x="55.615" xlink:href="#H"/><use x="83.398" xlink:href="#F"/></g><defs><path d="M8.203 0v71.578H56.5v-8.437H17.672V40.969h33.594v-8.453H17.672V0z" id="L" class="B C"/><path d="M6.5 0v51.859h7.906V44q3.031 5.516 5.594 7.266 2.563 1.766 5.641 1.766 4.438 0 9.031-2.828l-3.031-8.156q-3.219 1.906-6.437 1.906-2.891 0-5.187-1.734-2.297-1.734-3.266-4.812-1.469-4.687-1.469-10.25V0z" id="M" class="B C"/><path d="M40.438 6.391Q35.547 2.25 31.031.531q-4.516-1.703-9.687-1.703-8.547 0-13.141 4.172-4.594 4.172-4.594 10.672 0 3.813 1.734 6.953 1.734 3.156 4.547 5.063 2.813 1.906 6.328 2.875 2.578.688 7.813 1.328 10.641 1.266 15.672 3.016.047 1.813.047 2.297 0 5.375-2.5 7.578-3.359 2.969-10 2.969-6.203 0-9.156-2.172-2.953-2.172-4.375-7.687l-8.594 1.172q1.172 5.516 3.859 8.906 2.688 3.391 7.766 5.219 5.078 1.844 11.766 1.844 6.641 0 10.781-1.562 4.156-1.562 6.109-3.937 1.953-2.359 2.734-5.984.438-2.234.438-8.094V21.734q0-12.266.563-15.516.563-3.234 2.234-6.219h-9.187q-1.359 2.734-1.75 6.391zm-.734 19.641q-4.797-1.953-14.359-3.328-5.422-.781-7.672-1.766-2.234-.969-3.469-2.844-1.219-1.875-1.219-4.172 0-3.516 2.656-5.859 2.672-2.344 7.797-2.344 5.078 0 9.031 2.219 3.953 2.219 5.813 6.078 1.422 2.984 1.422 8.781z" id="N" class="B C"/><path d="M40.438 19l8.641-1.125q-1.422-8.937-7.266-14-5.828-5.047-14.328-5.047-10.641 0-17.109 6.953-6.469 6.969-6.469 19.953 0 8.391 2.781 14.688 2.781 6.313 8.469 9.453 5.688 3.156 12.391 3.156 8.438 0 13.813-4.281 5.375-4.266 6.891-12.125l-8.547-1.328q-1.219 5.234-4.328 7.859-3.094 2.641-7.5 2.641-6.641 0-10.797-4.766-4.141-4.75-4.141-15.047 0-10.453 4-15.187 4.016-4.734 10.453-4.734 5.172 0 8.641 3.172Q39.5 12.406 40.438 19z" id="O" class="B C"/><path d="M25.781 7.859L27.047.094q-3.703-.781-6.641-.781-4.781 0-7.422 1.516-2.625 1.516-3.703 3.984-1.078 2.469-1.078 10.375v29.828H1.766v6.844h6.438v12.844l8.734 5.266V51.859h8.844v-6.844h-8.844V14.703q0-3.766.469-4.844.469-1.062 1.516-1.703 1.047-.641 3-.641 1.469 0 3.859.344z" id="P" class="B C"/><path d="M6.641 61.469v10.109h8.797V61.469zM6.641 0v51.859h8.797V0z" id="Q" class="B C"/><path d="M3.328 25.922q0 14.406 8 21.344 6.688 5.766 16.313 5.766 10.688 0 17.469-7.016 6.797-7 6.797-19.359 0-10-3-15.75-3-5.734-8.75-8.906-5.734-3.172-12.516-3.172-10.891 0-17.609 6.984-6.703 6.984-6.703 20.109zm9.031 0q0-9.953 4.344-14.906 4.344-4.953 10.938-4.953 6.547 0 10.891 4.969 4.344 4.984 4.344 15.188 0 9.625-4.375 14.578-4.375 4.953-10.859 4.953-6.594 0-10.937-4.937-4.344-4.922-4.344-14.891z" id="R" class="B C"/><path d="M6.594 0v51.859H14.5v-7.375q5.719 8.547 16.5 8.547 4.688 0 8.625-1.687 3.938-1.687 5.891-4.422 1.953-2.734 2.734-6.484.484-2.453.484-8.547V0h-8.797v31.547q0 5.375-1.031 8.031-1.016 2.656-3.625 4.234-2.609 1.594-6.125 1.594-5.625 0-9.703-3.562-4.078-3.562-4.078-13.516V0z" id="S" class="B C"/><path d="M8.688 0v45.016H.922v6.844h7.766v5.516q0 5.219.938 7.766 1.266 3.422 4.453 5.531 3.203 2.125 8.969 2.125 3.719 0 8.203-.875l-1.312-7.656q-2.734.484-5.187.484-4 0-5.656-1.719-1.656-1.703-1.656-6.391v-4.781h10.109v-6.844H17.438V0z" id="T" class="B C"/><path d="M6.594-19.875v71.734h8v-6.734q2.844 3.953 6.406 5.922 3.563 1.984 8.641 1.984 6.641 0 11.719-3.422 5.078-3.422 7.656-9.656 2.594-6.219 2.594-13.641 0-7.953-2.859-14.328-2.844-6.375-8.297-9.766Q35.016-1.172 29-1.172q-4.391 0-7.891 1.859-3.484 1.859-5.734 4.688v-25.25zm7.953 45.516q0-10.016 4.047-14.797 4.063-4.781 9.828-4.781 5.859 0 10.031 4.953 4.172 4.953 4.172 15.359 0 9.906-4.078 14.828-4.078 4.938-9.734 4.938-5.625 0-9.953-5.25-4.312-5.25-4.312-15.25z" id="U" class="B C"/><path d="M42.094 16.703l9.078-1.125q-2.141-7.953-7.953-12.359-5.812-4.391-14.844-4.391-11.375 0-18.047 7-6.672 7.016-6.672 19.656 0 13.094 6.734 20.313 6.75 7.234 17.484 7.234 10.406 0 17-7.078 6.594-7.078 6.594-19.922 0-.781-.047-2.344H12.75q.484-8.547 4.828-13.094 4.344-4.531 10.844-4.531 4.828 0 8.25 2.531 3.422 2.547 5.422 8.109zM13.234 30.906h28.953q-.578 6.547-3.312 9.813-4.203 5.078-10.891 5.078-6.062 0-10.187-4.047-4.125-4.047-4.562-10.844z" id="V" class="B C"/><path d="M3.078 15.484l8.688 1.359q.734-5.219 4.078-8 3.344-2.781 9.359-2.781 6.047 0 8.969 2.453 2.938 2.469 2.938 5.797 0 2.969-2.594 4.688-1.797 1.172-8.984 2.969-9.656 2.453-13.391 4.234-3.734 1.781-5.672 4.922-1.922 3.156-1.922 6.969 0 3.453 1.578 6.406 1.594 2.969 4.328 4.922 2.047 1.5 5.578 2.547 3.547 1.063 7.609 1.063 6.094 0 10.703-1.766 4.625-1.75 6.813-4.766 2.203-3 3.031-8.016l-8.594-1.172q-.578 4-3.391 6.234-2.812 2.25-7.937 2.25-6.047 0-8.641-2-2.594-2-2.594-4.687 0-1.703 1.078-3.078 1.078-1.406 3.375-2.344 1.313-.484 7.766-2.234 9.328-2.5 13-4.094 3.688-1.578 5.781-4.609 2.109-3.016 2.109-7.516 0-4.391-2.562-8.281-2.562-3.875-7.406-6-4.828-2.125-10.922-2.125-10.109 0-15.406 4.203-5.297 4.203-6.766 12.453z" id="W" class="B C"/></defs><g transform="matrix(0 -.14 -.14 0 23.830312 265.712344)"><use xlink:href="#L"/><use x="61.084" xlink:href="#M"/><use x="94.385" xlink:href="#N"/><use x="150" xlink:href="#O"/><use x="200" xlink:href="#P"/><use x="227.783" xlink:href="#Q"/><use x="250" xlink:href="#R"/><use x="305.615" xlink:href="#S"/><use x="361.23" xlink:href="#AS"/><use x="389.014" xlink:href="#R"/><use x="444.629" xlink:href="#T"/><use x="472.412" xlink:href="#AS"/><use x="500.195" xlink:href="#U"/><use x="555.811" xlink:href="#N"/><use x="611.426" xlink:href="#U"/><use x="667.041" xlink:href="#V"/><use x="722.656" xlink:href="#M"/><use x="755.957" xlink:href="#W"/></g><g class="D E"><g class="J"><path d="M45.997 382.055h7.718l1.513-3.869 1.513-80.56 1.537.183 1.537-6.243 1.538-28.653 1.538-2.546 1.563-3.547 1.538-11.791 1.539 32.342 1.539-41.535 1.538 11.701 1.563 1.581 1.488-26.763 1.488 24.035 1.537-11.072 1.537 4.869 1.538-6.79 1.538-15.006 1.563-6.596 1.538 10.393 3.079 15.404 1.538 17.512 1.563-30.707 1.488-11.544 1.488 5.642 1.537 12.295 1.537-20.55 1.538 1.372 1.538 6.883 1.563-12.018 1.538-9.439 1.539 30.291 1.539 4.847 1.538 24.227 1.563-51.166 1.488-2.133 1.488 5.536 1.537-4.466 1.537 7.379 1.538-4.852 1.538-8.856 1.563 17.256 1.538 10.836 1.539-4.976 1.539-8.98 1.538 6.263 1.563 3.62 1.513-15.615 1.513 3.254 1.537-3.622 1.537 5.99 1.538-15.375 1.538 25.667 1.563-.689 1.538-13.858 1.539-8.071 1.539 16.465 1.538-3.045 1.563 3.937 1.488-5.82 1.488 3.738 1.537-5.953 1.537 10.186 1.538-24.384 1.538 19.431 1.563-20.855 1.538 40.46 1.539-12.791 1.539-15.719 1.538.604 1.563 12.617 1.488-3.982 1.488 7.802 1.537-3.473 1.537-10.025 1.538 1.848 1.538-9.767 1.563 5.609 1.538 8.962 1.539-2.005 1.539-.174 1.538-5.284 1.563-14.337 1.488 12.236 1.488 10.877 1.537-11.419 1.537-.709 1.538-.967 1.538-2.998 1.563 9.547 1.538 11.941 1.539-7.605 1.539 2.454 1.538 3.228 1.563-9.784 1.513 9.975 1.513-1.873 1.537-6.728 1.537 3.779 1.538-15.337 1.538 15.555 1.563-.138 1.538-10.745 1.539 20.527 1.539 2.561 1.538-21.454 1.563-3.326 1.488 2.504 1.488 1.773 1.537 8.068 1.537 15.77 1.538-13.645 1.538-1.799 1.563 7.211 1.538-6.573 1.539 18.313 1.539-27.148 1.538 4.917 1.563 8.555 1.488-2.454 1.488 6.836 1.537-16.114 1.537 19.674 1.538-5.437 1.538-6.677 1.563 3.311 1.538 7.837 1.539-13.633 1.539-10.128 1.538 15.386 1.563 1.636 1.488-.96 1.488 8.857 1.537-10.921 1.537 3.68 1.538 6.53 1.538-11.729 1.563-1.502 1.538 24.412 1.539-18.664 1.539-6.585 1.538 6.916 1.563 14.421 1.513-16.704 1.513 4.604 1.537-3.409 1.537 8.621 1.538-7.695 1.538-10.857 1.563 15.397 1.538 10.25 1.539-15.554 1.539-4.631 1.538-.082 3.051 14.053 1.488-7.901 1.537 2.93 1.537 15.551 1.538-9.945 1.538-2.838 1.563-8.628 1.538 9.504 1.539-10.411 1.539 3.732 1.538-.399 1.563.845 1.488 8.951 1.488-4.97 1.537-3.41 1.537 8.89 1.538-8.691 1.538-1.492 1.563-14.499 1.538 21.114 1.539-1.491 1.539-5.869 1.538-.634 1.563 8.039 1.488-13.444 1.487 7.182 1.537 11.511 1.538-1.092 1.538 1.708 1.538-12.224 1.563 8.707 1.538-16.064 1.538 17.315 1.539-8.517 1.539 5.727 1.563-2.023 1.513-14.503 1.512 10.145 1.537 3.453 1.538.78 1.538 3.459 1.538-4.537 1.563 11.018 1.538-12.387 1.538 12.371 1.539-20.825 1.539 2.095 1.563 9.304 1.488-2.544 1.487-2.003 1.537 4.345 1.538 9.831 1.538-2.757 1.538-9.366 1.563-1.549 1.538-8.395 1.538 18.874 1.539-6.563 1.539 1.865 1.563-16.358 1.488 25.962 1.487-7.687 1.537-1.314 1.538-.11 1.538 6.466 1.538-8.553 1.563-2.444 1.538 3.069 1.538 2.263 1.539-.297 1.539 9.649 1.563-11.567 1.488-6.543 1.487 7.811 1.537 4.058 1.538-7.273 1.538 8.606 1.538-3.244 1.563.628 1.538 4.361 1.538-4.195 1.539-2.018 1.539-6.056 1.563 16.409 1.513-6.155 1.512-4.426 1.537 6.502 1.538.143 1.538-14.539 1.538 8.316 1.563 4.061 1.538-6.991 1.538 7.497 1.539 1.194 1.539-.092 1.563 1.339 1.488-8.895 1.487-3.154 1.537.225 1.538.918 1.538.416 1.538-4.639 1.563 6.529 1.538-2.702 1.538 8.098 1.539 7.46 1.539-13.475 1.563-1.516 1.488-2.503 1.487 4.928 1.537-1.632 1.538 1.06 1.538 14.621 1.538-16.335 1.563 8.29 1.538-8.234 1.538 9.119 1.539-2.989 1.539 9.874 1.563-8.373 1.488 3.149 1.487-4.111 1.537-1.344 1.538 1.897 3.076-7.327 1.563 10.683 1.538-6.376 1.538-4.875 1.539 16.618 1.539-10.625 1.563-6.408 1.513 9.371 1.512 5.253 1.537-7.691 1.538 3.606 3.076-9.93 1.563.833 1.538 1.921 1.538 8.49 1.539-5.648 1.539 2.263 1.563-.994 1.488 7.674 1.487-7.229 1.537-9.953 1.538 13.78 1.538 4.232 1.538-1.214 1.563 1.753 1.538-8.428 1.538 12.258 1.539-14.42 1.539-1.989 1.563 2.11 1.488 10.215 1.487-4.804 1.537 1.511 1.538-6.592 1.538 13.779 1.538-16.523 1.563 4.537 1.538-1.587 1.538 5.106 1.539-4.857 1.539 3.086 1.563-10.003 1.488 4.112 1.487 8.959 1.537-2.669 3.076 6.615" stroke="#0072bd" class="F"/><path d="M45.997 18.36h7.718l1.513 3.869 1.513 83.807 1.537 66.432 1.537-6.194 1.538 26.095 1.538 6.471 1.563 8.229 1.538-13.265 1.539-17.879 1.539 56.21 1.538-27.444 1.563-20.787 1.488 17.469L75.15 187.7l1.537 4.647 1.537-2.887 1.538 8.41 1.538 7.081 1.563 8.627 1.538-10.374 1.539 2.916 1.539 14.05 1.538-8.298 1.563 1.681 1.488 2.789 1.488-5.438 1.537-15.656 1.537 25.652 1.538-1.685 1.538-4.171 1.563 9.138 1.538 5.17 1.539-27.913 1.539 24.088 1.538-1.463 1.563 11.362 1.488-3.342 1.488-6.577 1.537-.834 1.537 2.212 1.538 2.546 1.538 10.332 1.563-10.116 1.538 15.369 1.539-24.551 3.078-2.223 1.563-3.255 1.513 13.613 1.513-3.994 1.537-.812 1.537 8.751 1.538 2.651 1.538.806 1.563 26.7 1.538-22.59 1.539-.355 1.539-18.231 1.538 1.942 1.563-8.357 1.488 3.219 1.488 6.771 1.537 4.871 1.537-7.005 1.538 18.777 1.538-7.326 1.563 22.318 1.538-.302 1.539-16.697 1.539 7.63 1.538-11.598 1.563-1.817 1.488 4.278 1.488-13.836 1.537 1.295 1.537 11.784 1.538 3.42 1.538 7.275 1.563 2.285 1.538 23.941 1.539-27.126 1.539-8.463 1.538-5.146 1.563 22.398 1.488-12.943 1.488 3.088 1.537-9.072 1.537 16.281 1.538-8.193 1.538 9.018 1.563 5.033 1.538 9.711 1.539-23.602 1.539-5.227 1.538.346 1.563 12.704 1.513-10.578 1.513-14.889 1.537 11.86 1.537-6.524 1.538 12.796 1.538-.847 1.563 1.043 1.538 7.101 1.539 1.188 1.539-1.12 1.538-10.63 1.563 5.302 1.488-2.974 1.488-.193 1.537-11.392 1.537-1.704 1.538 13.242 1.538-1.195 1.563-9.932 1.538 2.556 1.539 32.139 1.539-9.049 3.102-31.766 1.488 11.077 1.488-12.346 1.537 13.812 1.537-5.13 1.538.984 1.538 8.091 1.563 3.871 1.538 18.366 1.539-23.34 1.539 11.663 1.538-21.822 1.563-1.124 1.488-.785 1.488-11.649 1.537 4.227 1.537 22.625 1.538-19.043 1.538 18.306 1.563 6.277 1.538 10.677 1.539-19.437 1.539-.228 1.538-8.052 1.563-17.107 1.513 14.471 1.513-1.027 1.537-3.477 1.537 5.131 1.538 6.782 1.538 3.256 1.563 23.043 1.538-13.737 1.539-8.78 1.539 7.835 1.538-8.733 1.563.61 1.488-20.505 1.488 7.645 1.537 3.71 1.537-7.81 1.538 11.967 1.538 1.389 1.563-.099 1.538 28.443 1.539-6.736 1.539-26.809 1.538-4.901 1.563-.651 1.488-13.692 1.488 11.371 1.537 2.456 1.537 6.394 1.538-7.198 1.538 25.117 1.563.344 1.538-6.826 1.539 6.031 1.539-25.841 1.538 5.769 1.563-13.553 1.488 19.78 1.487-11.06 1.537-6.809 1.538-.032 1.538 5.918 1.538 16.738 1.563-18.268 1.538 22.249 1.538 11.685 1.539-20.044 1.539-11.09 1.563-5.015 1.513 11.77 1.512-7.149 1.537-3.377 1.538 7.014 1.538-2.609 1.538 8.756 1.563-.964 1.538 5.983 1.538 32.751 1.539-39.873 1.539 6.657 1.563-3.661 1.488-8.474 1.487-1.179 1.537-9.015 1.538 9.536 1.538-1.487 1.538 16.322 1.563-14.257 1.538 18.99 1.538 12.921 1.539-20.391 1.539-10.96 1.563 9.399 1.488-15.524 1.487-3.788 1.537 8.991 1.538 7.148 1.538-1.339 1.538-.856 1.563 6.243 1.538 2.983 1.538 3.464 1.539 8.097 1.539-14.24 1.563 13.001 1.488-2.603 1.487-7.434 1.537-.284 1.538-1.769 1.538-.869 1.538 4.087 1.563-.203 1.538 16.801 1.538 4.152 1.539 3.388 1.539-10.018 1.563-7.167 1.513 7.649 1.512-13.79 1.537-10.988 1.538 8.329 1.538 12.538 1.538-8.81 1.563 12.503 1.538-3.38 1.538-4.858 1.539 6.583 1.539-1.741 1.563-2.489 1.488-4.903 3.024-2.255 1.538.819 1.538-8.503 1.538 20.71 1.563-11.518 1.538 2.971 1.538 14.927 1.539-6.367 1.539-13.927 1.563-1.776 1.488 3.183 1.487-3.279 1.537-8.805 1.538 4.238 1.538-16.733 1.538 22.703 1.563-.438 1.538 6.76 3.078 16.083 1.539-37.263 1.563 14.782 1.488-11.946 1.487 15.154 1.537-7.028 1.538-.063 1.538-1.194 1.538 9.772 1.563-10.296 1.538 17.948 1.538 5.326 1.539-15.15 1.539 2.302 1.563-1.287 1.513-3.319 1.512-7.223 1.537.223 1.538 3.749 1.538 4.538 1.538-.556 1.563-3.97 1.538 9.745 1.538-10.566 1.539 20.877 1.539-21.426 1.563 11.093 1.488-9.884 1.487 1.631 1.537 4.239 3.076-22.253 1.538 5.196 1.563 11.912 1.538 5.968 1.538 15.446 1.539-18.032 1.539-5.374 1.563 4.054 1.488-17.02 1.487 12.526 1.537-14.207 1.538 21.039 1.538-15.678 1.538 15.554 1.563-4.576 1.538-2.385 1.538 1.436 1.539 10.824 1.539-7.257 1.563 18.096 1.488-14.95 1.487-12.64 1.537-1.171 1.538-2.071 1.538-4.515" stroke="#d95319" class="F"/><path d="M45.997 382.055h46.074l1.488-6.211 1.537 2.078 1.537-3.392 1.538-1.346 1.538 6.11 1.563-1.666 1.538-.643 1.539-1.712 1.539 4.735 1.538-10.148 3.051 5.673 1.488-3.494 1.537 1.418 1.537-3.057 1.538 2.452 1.538-3.198 1.563-3.535 1.538 7.26 1.539.767 1.539-2.56 1.538.413 1.563 1.116 1.513-1.333 1.513 1.556 1.537-.84 1.537-1.578 1.538-1.06 1.538.262 1.563 1.516 1.538-8.701 1.539 6.301 1.539-1.231 1.538 2.04 1.563-4.092 1.488 4.015 1.488-6.86 1.537 2.165 1.537.135 1.538-2.742 1.538-6.742 1.563-.608 1.538 7.193 1.539.716 1.539 1.139 1.538-5.576 1.563-1.988 1.488 3.004 1.488-1.079 1.537 6.006 1.537-5.132 1.538-3.291 1.538 3.699 1.563-1.407 1.538 6.541 1.539-9.07 1.539-2.506 1.538 6.183 1.563-9.991 1.488 9.818 1.488-17.504 1.537 10.441 1.537-3.813 1.538 6.545 1.538-10.288 1.563 2.8 1.538 8.44 1.539-8.121 1.539.117 1.538 1.768 1.563-7.396 1.513-2.09 1.513 17.063 1.537-.959 1.537-3.607 1.538 3.669 3.102-16.493 1.538 5.69 1.539-.564 1.539-8.762 1.538 15.057 3.051-7.068 1.488 8.126 1.537-4.128 1.537-11.402 1.538-2.514 1.538 2.249 1.563 11.458 1.538 5.142 1.539-5.571 1.539-7.2 1.538 8.396 1.563 2.111 1.488-5.619 1.488 6.727 1.537 1.251 1.537-19.591 1.538 6.286 1.538-4.381 1.563 18.49 1.538-7.707 1.539 1.054 1.539-3.683 1.538 3.801 1.563 4.453 1.488-2.261 1.488 4.663 1.537 1.053 1.537-25.811 1.538 18.571 1.538-10.959 1.563-.812 1.538 9.703 1.539.214 1.539 2.347 1.538-1.022 1.563 2.247 1.513 1.347 1.513-4.279 1.537 2.624 1.537-12.682 1.538 4.924 1.538 8.691 1.563-37.08 1.538 36.712 1.539-9.549 1.539-5.767 1.538 8.179 1.563-6.407 1.488 7.214 1.488 6.536 1.537-11.506 1.537-5.866 1.538.381 1.538-.073 1.563 10.491 1.538 9.381 1.539-9.004 1.539 10.342 1.538-3.931 1.563.584 1.488 2.116 1.488-4.46 1.537-2.244 1.537-16.375 1.538 14.154 1.538-15.389 3.102 19.116 1.539-3.07 1.539 9.623 1.538-8.551 1.563 3.064 1.488-1.178 1.487 1.016 1.537-3.279 1.538-1.194 1.538-4.624 1.538-6.113 1.563 11.36 1.538 3.326 1.538-2.301 1.539-.532 1.539-1.365 1.563 5.135 1.513.095 1.512 4.876 1.537-5.863 1.538-10.932 1.538 6.852 1.538-8.156 1.563-6.88 1.538 10.488 1.538-33.834 1.539 48.163 1.539-7.243 1.563-12.662 1.488 10.945 1.487 1.25 1.537 2.108 1.538-15.872 1.538 4.482 1.538-4.157 1.563 11.487 1.538-6.593 1.538-10.79 1.539 21.599 1.539-1.114 1.563-2.321 1.488-2.438 1.487 5.109 1.537-2.596 1.538-11.239 1.538-6.887 1.538 9.702 1.563-.786 1.538-2.85 3.078 4.417 1.539-7.716 1.563-6.92 1.488 9.686 1.487-3.205 1.537-2.164 1.538 4.842 1.538-10.507 1.538-4.372 1.563 7.063 1.538-21.88 1.538 5.781 1.539 16.04 1.539.158 1.563-14.94 1.513-.225 1.512 15.367 1.537 6.82 1.538-9.198 1.538-.347 1.538-2.5 1.563-5.728 1.538 2.477 1.538 5.909 1.539 2.31 1.539-3.27 1.563-1.823 1.488 7.327 1.487.606 1.537 3.353 1.538-6.545 1.538 8.331 1.538-14.611 1.563 2.602 1.538 6.726 1.538-14.663 1.539 20.435 1.539 2.188 1.563 1.786 1.488-7.224 1.487.053 1.537 4.049 1.538-5.828 1.538 6.922 1.538-9.805 1.563-6.556 1.538-.294 1.538 2.006 1.539-1.109 1.539 15.229 1.563-6.132 1.488 4.461 1.487-9.933 1.537 1.752 3.076 4.489 1.538-5.311 1.563 4.879 1.538-13.482 1.538 3.825 1.539 10.205 1.539-6.728 1.563 2.346 1.513-2.787 1.512-.199 1.537 5.47 1.538-6.689 1.538 2.455 1.538 3.579 1.563 2.387 1.538-5.661 1.538 7.761 1.539-8.688 1.539 11.374 1.563-7.269 1.488-2.655 1.487-1.655 1.537 7.347 1.538-4.035 1.538 10.78 1.538-8.201 1.563-12.924 1.538 4.422 1.538-1.235 1.539 13.662 1.539-1.836 1.563-8.061 1.488 8.695 1.487-8.813 1.537 11.2 1.538-14.167 1.538-.299 1.538 8.199 1.563-2.312 1.538 3.846 1.538-1.017 1.539 3.063 1.539-3.044 1.563-12.998 1.488 6.545 1.487 8.109 1.537 4.512 1.538-7.599 1.538.127" stroke="#edb120" class="F"/><path d="M45.997 382.055h9.232l1.513-3.247 1.537-66.615 1.537 12.437 1.538 2.558 1.538-3.925 1.563-4.682 1.538 25.057 3.079-29.138 1.538 15.743 1.563 19.207 1.488 9.293 1.488-10.362 1.537 6.425 1.537-1.982 1.538-1.62 1.538 7.925 1.563-2.031 1.538-.02 1.539-10.503 1.539-21.867 1.538-9.214 1.563 29.026 1.488 8.756 1.488 6.008 1.537 1.283 1.537-1.71 1.538 1.658 1.538-8.823 1.563 4.545 1.538 4.911 1.539-.666 1.539-33.67 1.538-12.617 1.563 36.955 1.488 2.652 1.488 4.536 1.537 3.881 1.537-6.535 1.538-.147 1.538 1.722 1.563-3.605 1.538-33.466 1.539 28.761 1.539 12.699 1.538-5.612 1.563-1.48 1.513 3.335 1.513-.816 1.537 5.275 1.537-13.163 1.538 13.784 3.102-54.261 1.538 45.15 1.539 2.124 1.539 2.997 1.538-.937 1.563 8.511 1.488-1.414 1.488-3.65 1.537-1.082 1.537-3.316 1.538 8.349 1.538-5.364 1.563-.856 1.538-47.351 1.539 28.772 1.539 6.95 1.538 16.571 1.563-8.813 1.488-3.3 1.488 7.113 1.537-3.828 1.537 3.372 1.538-1.977 1.538-1.206 1.563-6.487 1.538-39.443 1.539 38.202 1.539 11.143 1.538 4.247 1.563 1.93 1.488-9.111 1.488 3.539 1.537 10.051 1.537-11.758 1.538 2.614 1.538 4.268 1.563-17.38 1.538-30.092 1.539 39.328 1.539 2.656 1.538-5.342 1.563 4.476 1.513 2.694 1.513-.301 1.537-4.174 1.537 6.352 1.538-1.129 1.538-6.417 1.563 7.295 1.538-2.046 1.539-21.151 1.539 7.321 1.538 17.027 1.563 1.611 1.488 3.951 1.488-9.706 1.537 7.451 1.537-2.664 1.538 2.917 1.538.746 1.563-8.737 1.538-1.126 1.539-44.881 1.539 43.397 1.538 2.389 1.563 5.398 1.488-3.004 1.488-1.217 1.537 1.051 1.537 5.047 1.538-1.833 1.538 2.966 1.563-25.672 1.538-18.495 1.539 35.918 1.539 2.148 1.538 2.635 1.563-4.964 1.488 4.005 1.488-1.871 1.537 5.641 1.537-.494 1.538-6.058 1.538 4.383 1.563-3.962 1.538-44.792 1.539 37.887 1.539 4.466 1.538 2.159 1.563.44 1.513.885 1.513.701 1.537 4.262 1.537-1.07 1.538-4.012 1.538-1.09 1.563-1.36 1.538-33.225 1.539 33.883 1.539 2.563 1.538.636 1.563-1.424 1.488 6.459 1.488-6.281 1.537 4.867 1.537-1.875 1.538-2.402 1.538 1.522 1.563-1.764 1.538-47.328 1.539 26.151 1.539 12.735 1.538 9.231 1.563-.778 1.488 2.626 1.488-1.941 1.537 3.198 1.537 1.091 1.538 1.735 1.538-8.236 1.563 4.628 1.538-23.877 1.539-1.47 1.539 22.088 1.538 3.416 1.563 2.45 1.488-5.158 1.487 2.861 1.537-1.422 1.538 2.318 1.538-3.001 1.538 1.599 1.563-1.8 1.538-9.512 1.538-26.699 1.539 29.094 1.539 6.728 1.563 1.903 1.513 2.638 1.512-7.872 1.537 5.787 1.538 3.137 1.538-7.701 1.538 3.937 1.563-3.173 1.538-4.083 1.538-11.288 1.539 12.535 1.539-1.509 1.563 7.019 1.488.073 1.487 1.932 1.537 2.562 1.538-3.495 1.538-.238 1.538-2.8 1.563 4.32 1.538-4.002 1.538-21.005 1.539 5.356 1.539 10.21 1.563 9.28 1.488-8 1.487 6.366 1.537-5.081 1.538 4.201 1.538 1.76 1.538-.293 3.102-6.215 1.538-7.864 1.539-10.079 1.539 12.308 1.563 5.487 1.488-.54 1.487 2.828 1.537-1.611 1.538 4.199 1.538 2.77 1.538 3.529 1.563-7.488 1.538.717 1.538-5.738 1.539-17.411 1.539 15.916 1.563 5.698 1.513-1.269 1.512 2.849 1.537-2.334 1.538.726 1.538 2.348 1.538 2.994 1.563-10.836 1.538 7.894 1.538-8.548 1.539-10.087 1.539 5.103 1.563 2.973 1.488 6.472 1.487 3.681 1.537-2.456 1.538 4.808 1.538-.244 1.538-1.46 1.563 2.387 1.538-6.994 1.538-8.362 1.539-21.527 1.539 25.214 1.563 1.807 1.488 6.244 1.487-1.702 1.537 6.387 1.538.53 1.538-4.81 1.538 3.438 1.563-1.296 1.538 1.768 1.538-19.356 1.539-3.754 1.539 12.16 1.563-.276 1.488 4.336 1.487-1.11 1.537 6.621 1.538-4.01 1.538 2.48 1.538-.732 1.563-5.267 1.538 1.909 1.538-4.275 1.539-11.673 1.539 15.051 1.563 5.349 1.513-3.264 1.512 2.169 1.537 1.999 1.538-.665 1.538-2.178 1.538 2.091 1.563.751 4.616-18.231 1.539 7.79 1.563-2.829 1.488 4.864 1.487 7.252 1.537-1.633 1.538 1.748 1.538-4.251 1.538 4.219 1.563-.741 1.538-1.961 1.538-26.469 1.539 18.79 1.539 9.2 1.563 1.897 1.488-1.89 1.487 1.091 1.537 1.496 1.538-.28 1.538 2.199 1.538-7.231 1.563 2.351 1.538.126 1.538-5.525 1.539-9.031 1.539 7.215 1.563 4.905 1.488 4.293 1.487-4.429 1.537-.672 1.538 6.237 1.538 1.206" stroke="#7e2f8e" class="F"/><path d="M45.997 382.055h411.442l1.563-.301 1.488.301h98.193" stroke="#77ac30" class="F"/></g><g class="H K"><path d="M56.293 400.24V18.36M559.44 400.24V18.36"/><path d="M56.293 400.24H559.44M56.293 18.36H559.44"/></g></g><path d="M308.36 132.233h243.88V25.56H308.36z" fill="#fff" class="H K"/><path d="M314.12 36.587h28.8" stroke="#0072bd" class="D E J"/><defs><path d="M7.719 0v71.578h27q7.125 0 10.891-.672 5.266-.891 8.828-3.359 3.578-2.453 5.75-6.906 2.172-4.437 2.172-9.766 0-9.125-5.812-15.453-5.812-6.312-21-6.312H17.188V0zm9.469 37.547h18.5q9.188 0 13.047 3.422 3.859 3.422 3.859 9.625 0 4.484-2.281 7.672-2.266 3.203-5.969 4.234-2.406.641-8.844.641H17.188z" id="X" class="B C"/><path d="M6.594 0v71.578h8.781V45.906q6.156 7.125 15.531 7.125 5.766 0 10.016-2.281 4.25-2.266 6.078-6.266 1.828-4 1.828-11.625V0h-8.781v32.859q0 6.594-2.859 9.594-2.859 3-8.078 3-3.906 0-7.359-2.031-3.437-2.016-4.906-5.484-1.469-3.469-1.469-9.562V0z" id="Y" class="B C"/><path d="M6.594 0v51.859h7.859v-7.281q2.438 3.813 6.484 6.125 4.063 2.328 9.234 2.328 5.766 0 9.453-2.391 3.688-2.391 5.203-6.687 6.156 9.078 16.016 9.078 7.719 0 11.859-4.281 4.156-4.266 4.156-13.156V0h-8.75v32.672q0 5.266-.859 7.578-.844 2.328-3.094 3.734-2.234 1.422-5.266 1.422-5.469 0-9.094-3.641-3.609-3.625-3.609-11.641V0h-8.781v33.688q0 5.859-2.156 8.781-2.141 2.938-7.031 2.938-3.703 0-6.859-1.953-3.141-1.953-4.562-5.719-1.422-3.75-1.422-10.828V0z" id="Z" class="B C"/><path d="M6.391 0v71.578h8.797V0z" id="a" class="B C"/><path d="M4.984-4.297l8.547-1.266q.531-3.953 2.969-5.766 3.281-2.437 8.938-2.437 6.109 0 9.422 2.438 3.328 2.438 4.5 6.828.688 2.688.625 11.281Q34.234 0 25.641 0 14.938 0 9.078 7.719q-5.859 7.719-5.859 18.5 0 7.422 2.688 13.688 2.688 6.281 7.781 9.703 5.109 3.422 12 3.422 9.172 0 15.141-7.422v6.25h8.094V7.031q0-12.109-2.469-17.156-2.453-5.062-7.812-7.984-5.344-2.937-13.156-2.937-9.266 0-14.984 4.172-5.719 4.172-5.516 12.578zm7.266 31.156q0-10.203 4.047-14.891 4.063-4.687 10.172-4.687 6.047 0 10.141 4.656 4.109 4.672 4.109 14.625 0 9.516-4.219 14.344-4.219 4.844-10.187 4.844-5.859 0-9.969-4.766-4.094-4.75-4.094-14.125z" id="b" class="B C"/><path d="M6.203-19.969l-.984 8.25q2.891-.781 5.031-.781 2.938 0 4.688.984 1.766.969 2.891 2.719.828 1.328 2.688 6.547.234.734.781 2.156L1.609 51.859h9.469l10.797-30.031q2.094-5.719 3.766-12.016 1.516 6.063 3.609 11.813l11.078 30.234h8.797L29.391-.875q-3.172-8.547-4.922-11.766-2.344-4.359-5.375-6.375-3.031-2.031-7.234-2.031-2.531 0-5.656 1.078z" id="c" class="B C"/></defs><g transform="matrix(.144 0 0 -.144 354.44025 41.62725)"><use xlink:href="#X"/><use x="66.699" xlink:href="#Y"/><use x="122.314" xlink:href="#V"/><use x="177.93" xlink:href="#S"/><use x="233.545" xlink:href="#R"/><use x="289.16" xlink:href="#Z"/><use x="372.461" xlink:href="#V"/><use x="428.076" xlink:href="#S"/><use x="483.691" xlink:href="#R"/><use x="539.307" xlink:href="#a"/><use x="561.523" xlink:href="#R"/><use x="617.139" xlink:href="#b"/><use x="672.754" xlink:href="#c"/></g><path d="M314.12 57.125h28.8" stroke="#d95319" class="D E J"/><defs><path d="M25.922 0v63.141H2.344v8.438h56.734v-8.437H35.406V0z" id="d" class="B C"/></defs><g transform="matrix(.144 0 0 -.144 354.44025 62.16525)"><use xlink:href="#d"/><use x="61.084" xlink:href="#Y"/><use x="116.699" xlink:href="#V"/><use x="172.314" xlink:href="#R"/><use x="227.93" xlink:href="#M"/><use x="261.23" xlink:href="#c"/></g><path d="M314.12 77.663h28.8" stroke="#edb120" class="D E J"/><defs><path d="M7.906 0v71.578h51.766v-8.437H17.391V41.219h39.594v-8.406H17.391V8.453h43.938V0z" id="e" class="B C"/><path d="M.734 0l18.938 26.953L2.156 51.859h10.984l7.953-12.156q2.25-3.469 3.609-5.812 2.156 3.219 3.953 5.703l8.75 12.266h10.5L29.984 27.438 49.266 0H38.484L27.828 16.109 25 20.453 11.375 0z" id="f" class="B C"/></defs><g transform="matrix(.144 0 0 -.144 354.44025 82.70325)"><use xlink:href="#e"/><use x="66.699" xlink:href="#f"/><use x="116.699" xlink:href="#U"/><use x="172.314" xlink:href="#V"/><use x="227.93" xlink:href="#M"/><use x="261.23" xlink:href="#Q"/><use x="283.447" xlink:href="#Z"/><use x="366.748" xlink:href="#V"/><use x="422.363" xlink:href="#S"/><use x="477.979" xlink:href="#P"/></g><path d="M314.12 98.033h28.8" stroke="#7e2f8e" class="D E J"/><defs><path d="M7.328 0v71.578h9.469V8.453h35.25V0z" id="g" class="B C"/></defs><g transform="matrix(.144 0 0 -.144 354.44025 103.0725)"><use xlink:href="#g"/><use x="55.615" xlink:href="#N"/><use x="111.23" xlink:href="#P"/><use x="139.014" xlink:href="#P"/><use x="166.797" xlink:href="#Q"/><use x="189.014" xlink:href="#O"/><use x="239.014" xlink:href="#V"/></g><path d="M314.12 118.402h28.8" stroke="#77ac30" class="D E J"/><defs><path d="M8.891 0v10.016h10V0q0-5.516-1.953-8.906-1.953-3.406-6.187-5.25l-2.453 3.75q2.781 1.219 4.094 3.594Q13.719-4.437 13.875 0z" id="h" class="B C"/><path d="M7.422 0v71.578h14.266l16.938-50.672q2.344-7.094 3.422-10.609 1.219 3.906 3.797 11.484l17.141 49.797h12.75V0h-9.125v59.906L45.797 0H37.25L16.547 60.938V0z" id="i" class="B C"/></defs><g transform="matrix(.144 0 0 -.144 354.44025 123.44175)"><use xlink:href="#d"/><use x="61.084" xlink:href="#Y"/><use x="116.699" xlink:href="#V"/><use x="172.314" xlink:href="#R"/><use x="227.93" xlink:href="#M"/><use x="261.23" xlink:href="#c"/><use x="311.121" xlink:href="#h"/><use x="338.904" xlink:href="#AS"/><use x="366.688" xlink:href="#i"/><use x="449.988" xlink:href="#N"/><use x="505.604" xlink:href="#P"/><use x="533.387" xlink:href="#Y"/><use x="589.002" xlink:href="#V"/><use x="644.617" xlink:href="#Z"/><use x="727.918" xlink:href="#N"/><use x="783.533" xlink:href="#P"/><use x="811.316" xlink:href="#Q"/><use x="833.533" xlink:href="#O"/><use x="883.533" xlink:href="#N"/><use x="939.148" xlink:href="#a"/><use x="961.365" xlink:href="#AS"/><use x="989.148" xlink:href="#X"/><use x="1055.848" xlink:href="#Y"/><use x="1111.463" xlink:href="#c"/><use x="1161.463" xlink:href="#W"/><use x="1211.463" xlink:href="#Q"/><use x="1233.68" xlink:href="#O"/><use x="1283.68" xlink:href="#W"/></g><defs><clipPath id="j"><path d="M56.293 18.36H559.44v381.88H56.293z" class="B C"/></clipPath></defs></svg>