<svg xmlns="http://www.w3.org/2000/svg" xmlns:xlink="http://www.w3.org/1999/xlink" height="576" viewBox="0 0 576 432" width="768" stroke-linecap="butt" stroke-linejoin="round" xmlns:v="https://vecta.io/nano"><style><![CDATA[.B{stroke-linecap:butt}.C{stroke-linejoin:round}.D{stroke-linecap:square}.E{fill:none}.F{clip-path:url(#k)}.G{stroke-width:.5}.H{stroke:#000}.I{stroke:#b2b2b2}.J{stroke-width:1.5}.K{stroke-linejoin:miter}]]></style><g fill="#fff"><path d="M0 432h576V0H0z"/><path d="M56.293 400.24H559.44V18.36H56.293z"/></g><path d="M108.209 400.24V18.36" class="D E F G I"/><defs><path d="M0 0v4" id="A" class="B C G H"/></defs><use x="108.209" xlink:href="#A" y="400.24" class="G H"/><defs><path d="M37.25 0h-8.781v56q-3.172-3.016-8.328-6.047-5.156-3.031-9.25-4.547v8.5q7.375 3.469 12.891 8.391 5.516 4.938 7.813 9.578h5.656z" id="B" class="B C"/><path d="M5.469 16.547l8.453.781q1.063-5.953 4.094-8.641Q21.047 6 25.781 6q4.047 0 7.094 1.859 3.063 1.859 5.016 4.953 1.953 3.109 3.266 8.375 1.328 5.281 1.328 10.75 0 .578-.047 1.75-2.641-4.187-7.203-6.812-4.562-2.609-9.891-2.609-8.891 0-15.047 6.438-6.141 6.453-6.141 17 0 10.891 6.422 17.531Q17 71.875 26.656 71.875q6.984 0 12.766-3.766 5.797-3.75 8.797-10.719 3-6.953 3-20.141 0-13.719-2.984-21.844-2.969-8.125-8.859-12.375-5.875-4.25-13.781-4.25-8.406 0-13.734 4.656-5.312 4.672-6.391 13.109zm35.984 31.594q0 7.578-4.031 12.016-4.016 4.438-9.687 4.438-5.859 0-10.203-4.781-4.344-4.781-4.344-12.406 0-6.828 4.125-11.109 4.125-4.266 10.172-4.266 6.109 0 10.031 4.266 3.938 4.281 3.938 11.844z" id="C" class="B C"/><path d="M4.156 18.75l9.219.781q1.031-6.734 4.766-10.141Q21.875 6 27.156 6q6.344 0 10.734 4.781 4.391 4.797 4.391 12.703 0 7.516-4.219 11.859Q33.844 39.703 27 39.703q-4.25 0-7.672-1.937-3.406-1.922-5.359-5l-8.25 1.078 6.922 36.766H48.25v-8.406H19.672l-3.844-19.234q6.438 4.5 13.516 4.5 9.375 0 15.813-6.5 6.453-6.5 6.453-16.703 0-9.719-5.656-16.797-6.891-8.687-18.797-8.687-9.766 0-15.953 5.469-6.172 5.469-7.047 14.5z" id="D" class="B C"/></defs><g transform="matrix(.12 0 0 -.12 94.86319 416.829375)"><use xlink:href="#B"/><use x="55.615" xlink:href="#C"/><use x="111.23" xlink:href="#C"/><use x="166.846" xlink:href="#D"/></g><g class="G"><path d="M200.302 400.24V18.36" class="D E F I"/><use x="200.302" xlink:href="#A" y="400.24" class="H"/></g><defs><path d="M50.344 8.453V0H3.031q-.094 3.172 1.016 6.109 1.813 4.828 5.781 9.516 3.984 4.688 11.516 10.844 11.672 9.563 15.766 15.156 4.109 5.594 4.109 10.578 0 5.219-3.75 8.797-3.734 3.594-9.734 3.594-6.344 0-10.156-3.812-3.812-3.797-3.859-10.531l-9.031.922q.922 10.109 6.969 15.406 6.063 5.297 16.281 5.297 10.297 0 16.297-5.719Q50.25 60.453 50.25 52q0-4.297-1.766-8.453-1.75-4.141-5.828-8.734-4.078-4.594-13.547-12.594-7.922-6.641-10.172-9.016-2.234-2.359-3.703-4.75z" id="E" class="B C"/><path d="M4.156 35.297q0 12.703 2.609 20.438 2.609 7.75 7.75 11.938 5.156 4.203 12.969 4.203 5.766 0 10.109-2.328 4.344-2.312 7.172-6.687 2.844-4.359 4.453-10.641 1.609-6.266 1.609-16.922 0-12.594-2.594-20.328Q45.656 7.234 40.5 3q-5.141-4.219-13.016-4.219-10.344 0-16.25 7.422-7.078 8.938-7.078 29.094zm9.031 0q0-17.625 4.125-23.469Q21.438 6 27.484 6q6.063 0 10.188 5.859 4.125 5.859 4.125 23.438 0 17.688-4.125 23.484-4.125 5.813-10.281 5.813-6.047 0-9.672-5.125-4.531-6.531-4.531-24.172z" id="F" class="B C"/></defs><g transform="matrix(.12 0 0 -.12 186.955605 416.829375)"><use xlink:href="#E"/><use x="55.615" xlink:href="#F"/><use x="111.23" xlink:href="#F"/><use x="166.846" xlink:href="#F"/></g><g class="G"><path d="M292.445 400.24V18.36" class="D E F I"/><use x="292.445" xlink:href="#A" y="400.24" class="H"/></g><g transform="matrix(.12 0 0 -.12 279.098455 416.829375)"><use xlink:href="#E"/><use x="55.615" xlink:href="#F"/><use x="111.23" xlink:href="#F"/><use x="166.846" xlink:href="#D"/></g><g class="G"><path d="M384.537 400.24V18.36" class="D E F I"/><use x="384.537" xlink:href="#A" y="400.24" class="H"/></g><g transform="matrix(.12 0 0 -.12 371.19087 416.829375)"><use xlink:href="#E"/><use x="55.615" xlink:href="#F"/><use x="111.23" xlink:href="#B"/><use x="166.846" xlink:href="#F"/></g><g class="G"><path d="M476.63 400.24V18.36" class="D E F I"/><use x="476.63" xlink:href="#A" y="400.24" class="H"/></g><g transform="matrix(.12 0 0 -.12 463.283285 416.829375)"><use xlink:href="#E"/><use x="55.615" xlink:href="#F"/><use x="111.23" xlink:href="#B"/><use x="166.846" xlink:href="#D"/></g><path d="M56.293 382.055H559.44" class="D E F G I"/><defs><path d="M0 0h-4" id="G" class="B C G H"/></defs><use x="56.293" xlink:href="#G" y="382.055" class="G H"/><defs><path d="M9.078 0v10.016h10.016V0z" id="H" class="B C"/></defs><g transform="matrix(.12 0 0 -.12 31.612813 385.157426)"><use xlink:href="#F"/><use x="55.615" xlink:href="#H"/><use x="83.398" xlink:href="#F"/></g><g class="G"><path d="M56.293 309.316H559.44" class="D E F I"/><use x="56.293" xlink:href="#G" y="309.316" class="H"/></g><g transform="matrix(.12 0 0 -.12 31.612813 312.418378)"><use xlink:href="#F"/><use x="55.615" xlink:href="#H"/><use x="83.398" xlink:href="#E"/></g><g class="G"><path d="M56.293 236.577H559.44" class="D E F I"/><use x="56.293" xlink:href="#G" y="236.577" class="H"/></g><defs><path d="M32.328 0v17.141H1.266v8.063l32.672 46.375h7.172V25.203h9.672v-8.062h-9.672V0zm0 25.203v32.266L9.906 25.203z" id="I" class="B C"/></defs><g transform="matrix(.12 0 0 -.12 31.612813 239.67933)"><use xlink:href="#F"/><use x="55.615" xlink:href="#H"/><use x="83.398" xlink:href="#I"/></g><g class="G"><path d="M56.293 163.838H559.44" class="D E F I"/><use x="56.293" xlink:href="#G" y="163.838" class="H"/></g><defs><path d="M49.75 54.047l-8.734-.672q-1.172 5.172-3.312 7.516-3.578 3.766-8.797 3.766-4.203 0-7.375-2.344-4.141-3.031-6.547-8.844-2.391-5.812-2.484-16.547 3.172 4.828 7.766 7.172 4.594 2.344 9.625 2.344 8.781 0 14.953-6.469 6.188-6.469 6.188-16.719 0-6.75-2.906-12.531-2.906-5.781-7.984-8.859-5.078-3.078-11.531-3.078-10.984 0-17.922 8.078Q3.766 14.938 3.766 33.5q0 20.75 7.656 30.172 6.688 8.203 18.016 8.203 8.453 0 13.844-4.734 5.406-4.734 6.469-13.094zM13.875 23.188q0-4.531 1.922-8.687 1.922-4.141 5.391-6.328Q24.656 6 28.469 6q5.563 0 9.563 4.484 4.016 4.5 4.016 12.219 0 7.422-3.969 11.688-3.953 4.281-9.953 4.281-5.953 0-10.109-4.281-4.141-4.266-4.141-11.203z" id="J" class="B C"/></defs><g transform="matrix(.12 0 0 -.12 31.612813 166.940283)"><use xlink:href="#F"/><use x="55.615" xlink:href="#H"/><use x="83.398" xlink:href="#J"/></g><g class="G"><path d="M56.293 91.099H559.44" class="D E F I"/><use x="56.293" xlink:href="#G" y="91.099" class="H"/></g><defs><path d="M17.672 38.813q-5.469 2.016-8.109 5.719-2.625 3.719-2.625 8.891 0 7.813 5.609 13.125 5.625 5.328 14.938 5.328 9.375 0 15.094-5.453 5.719-5.437 5.719-13.25 0-4.984-2.625-8.672-2.609-3.672-7.922-5.687 6.594-2.141 10.031-6.937 3.438-4.781 3.438-11.422 0-9.172-6.5-15.422-6.484-6.25-17.078-6.25-10.594 0-17.094 6.266-6.5 6.281-6.5 15.656 0 6.984 3.547 11.688 3.547 4.719 10.078 6.422zm-1.75 14.906q0-5.078 3.266-8.312 3.281-3.219 8.5-3.219 5.078 0 8.328 3.188 3.25 3.203 3.25 7.844 0 4.844-3.359 8.141-3.344 3.297-8.312 3.297-5.031 0-8.359-3.234-3.312-3.219-3.312-7.703zm-2.828-33.062q0-3.766 1.781-7.281 1.781-3.516 5.297-5.453Q23.688 6 27.734 6q6.297 0 10.391 4.047 4.109 4.063 4.109 10.313 0 6.344-4.219 10.5-4.219 4.156-10.578 4.156-6.203 0-10.281-4.109-4.062-4.094-4.062-10.25z" id="K" class="B C"/></defs><g transform="matrix(.12 0 0 -.12 31.612813 94.201235)"><use xlink:href="#F"/><use x="55.615" xlink:href="#H"/><use x="83.398" xlink:href="#K"/></g><g class="G"><path d="M56.293 18.36H559.44" class="D E F I"/><use x="56.293" xlink:href="#G" y="18.36" class="H"/></g><g transform="matrix(.12 0 0 -.12 31.612813 21.462187)"><use xlink:href="#B"/><use x="55.615" xlink:href="#H"/><use x="83.398" xlink:href="#F"/></g><defs><path d="M8.203 0v71.578H56.5v-8.437H17.672V40.969h33.594v-8.453H17.672V0z" id="L" class="B C"/><path d="M6.5 0v51.859h7.906V44q3.031 5.516 5.594 7.266 2.563 1.766 5.641 1.766 4.438 0 9.031-2.828l-3.031-8.156q-3.219 1.906-6.437 1.906-2.891 0-5.187-1.734-2.297-1.734-3.266-4.812-1.469-4.687-1.469-10.25V0z" id="M" class="B C"/><path d="M40.438 6.391Q35.547 2.25 31.031.531q-4.516-1.703-9.687-1.703-8.547 0-13.141 4.172-4.594 4.172-4.594 10.672 0 3.813 1.734 6.953 1.734 3.156 4.547 5.063 2.813 1.906 6.328 2.875 2.578.688 7.813 1.328 10.641 1.266 15.672 3.016.047 1.813.047 2.297 0 5.375-2.5 7.578-3.359 2.969-10 2.969-6.203 0-9.156-2.172-2.953-2.172-4.375-7.687l-8.594 1.172q1.172 5.516 3.859 8.906 2.688 3.391 7.766 5.219 5.078 1.844 11.766 1.844 6.641 0 10.781-1.562 4.156-1.562 6.109-3.937 1.953-2.359 2.734-5.984.438-2.234.438-8.094V21.734q0-12.266.563-15.516.563-3.234 2.234-6.219h-9.187q-1.359 2.734-1.75 6.391zm-.734 19.641q-4.797-1.953-14.359-3.328-5.422-.781-7.672-1.766-2.234-.969-3.469-2.844-1.219-1.875-1.219-4.172 0-3.516 2.656-5.859 2.672-2.344 7.797-2.344 5.078 0 9.031 2.219 3.953 2.219 5.813 6.078 1.422 2.984 1.422 8.781z" id="N" class="B C"/><path d="M40.438 19l8.641-1.125q-1.422-8.937-7.266-14-5.828-5.047-14.328-5.047-10.641 0-17.109 6.953-6.469 6.969-6.469 19.953 0 8.391 2.781 14.688 2.781 6.313 8.469 9.453 5.688 3.156 12.391 3.156 8.438 0 13.813-4.281 5.375-4.266 6.891-12.125l-8.547-1.328q-1.219 5.234-4.328 7.859-3.094 2.641-7.5 2.641-6.641 0-10.797-4.766-4.141-4.75-4.141-15.047 0-10.453 4-15.187 4.016-4.734 10.453-4.734 5.172 0 8.641 3.172Q39.5 12.406 40.438 19z" id="O" class="B C"/><path d="M25.781 7.859L27.047.094q-3.703-.781-6.641-.781-4.781 0-7.422 1.516-2.625 1.516-3.703 3.984-1.078 2.469-1.078 10.375v29.828H1.766v6.844h6.438v12.844l8.734 5.266V51.859h8.844v-6.844h-8.844V14.703q0-3.766.469-4.844.469-1.062 1.516-1.703 1.047-.641 3-.641 1.469 0 3.859.344z" id="P" class="B C"/><path d="M6.641 61.469v10.109h8.797V61.469zM6.641 0v51.859h8.797V0z" id="Q" class="B C"/><path d="M3.328 25.922q0 14.406 8 21.344 6.688 5.766 16.313 5.766 10.688 0 17.469-7.016 6.797-7 6.797-19.359 0-10-3-15.75-3-5.734-8.75-8.906-5.734-3.172-12.516-3.172-10.891 0-17.609 6.984-6.703 6.984-6.703 20.109zm9.031 0q0-9.953 4.344-14.906 4.344-4.953 10.938-4.953 6.547 0 10.891 4.969 4.344 4.984 4.344 15.188 0 9.625-4.375 14.578-4.375 4.953-10.859 4.953-6.594 0-10.937-4.937-4.344-4.922-4.344-14.891z" id="R" class="B C"/><path d="M6.594 0v51.859H14.5v-7.375q5.719 8.547 16.5 8.547 4.688 0 8.625-1.687 3.938-1.687 5.891-4.422 1.953-2.734 2.734-6.484.484-2.453.484-8.547V0h-8.797v31.547q0 5.375-1.031 8.031-1.016 2.656-3.625 4.234-2.609 1.594-6.125 1.594-5.625 0-9.703-3.562-4.078-3.562-4.078-13.516V0z" id="S" class="B C"/><path d="M8.688 0v45.016H.922v6.844h7.766v5.516q0 5.219.938 7.766 1.266 3.422 4.453 5.531 3.203 2.125 8.969 2.125 3.719 0 8.203-.875l-1.312-7.656q-2.734.484-5.187.484-4 0-5.656-1.719-1.656-1.703-1.656-6.391v-4.781h10.109v-6.844H17.438V0z" id="T" class="B C"/><path d="M6.594-19.875v71.734h8v-6.734q2.844 3.953 6.406 5.922 3.563 1.984 8.641 1.984 6.641 0 11.719-3.422 5.078-3.422 7.656-9.656 2.594-6.219 2.594-13.641 0-7.953-2.859-14.328-2.844-6.375-8.297-9.766Q35.016-1.172 29-1.172q-4.391 0-7.891 1.859-3.484 1.859-5.734 4.688v-25.25zm7.953 45.516q0-10.016 4.047-14.797 4.063-4.781 9.828-4.781 5.859 0 10.031 4.953 4.172 4.953 4.172 15.359 0 9.906-4.078 14.828-4.078 4.938-9.734 4.938-5.625 0-9.953-5.25-4.312-5.25-4.312-15.25z" id="U" class="B C"/><path d="M42.094 16.703l9.078-1.125q-2.141-7.953-7.953-12.359-5.812-4.391-14.844-4.391-11.375 0-18.047 7-6.672 7.016-6.672 19.656 0 13.094 6.734 20.313 6.75 7.234 17.484 7.234 10.406 0 17-7.078 6.594-7.078 6.594-19.922 0-.781-.047-2.344H12.75q.484-8.547 4.828-13.094 4.344-4.531 10.844-4.531 4.828 0 8.25 2.531 3.422 2.547 5.422 8.109zM13.234 30.906h28.953q-.578 6.547-3.312 9.813-4.203 5.078-10.891 5.078-6.062 0-10.187-4.047-4.125-4.047-4.562-10.844z" id="V" class="B C"/><path d="M3.078 15.484l8.688 1.359q.734-5.219 4.078-8 3.344-2.781 9.359-2.781 6.047 0 8.969 2.453 2.938 2.469 2.938 5.797 0 2.969-2.594 4.688-1.797 1.172-8.984 2.969-9.656 2.453-13.391 4.234-3.734 1.781-5.672 4.922-1.922 3.156-1.922 6.969 0 3.453 1.578 6.406 1.594 2.969 4.328 4.922 2.047 1.5 5.578 2.547 3.547 1.063 7.609 1.063 6.094 0 10.703-1.766 4.625-1.75 6.813-4.766 2.203-3 3.031-8.016l-8.594-1.172q-.578 4-3.391 6.234-2.812 2.25-7.937 2.25-6.047 0-8.641-2-2.594-2-2.594-4.687 0-1.703 1.078-3.078 1.078-1.406 3.375-2.344 1.313-.484 7.766-2.234 9.328-2.5 13-4.094 3.688-1.578 5.781-4.609 2.109-3.016 2.109-7.516 0-4.391-2.562-8.281-2.562-3.875-7.406-6-4.828-2.125-10.922-2.125-10.109 0-15.406 4.203-5.297 4.203-6.766 12.453z" id="W" class="B C"/></defs><g transform="matrix(0 -.14 -.14 0 23.830312 265.712344)"><use xlink:href="#L"/><use x="61.084" xlink:href="#M"/><use x="94.385" xlink:href="#N"/><use x="150" xlink:href="#O"/><use x="200" xlink:href="#P"/><use x="227.783" xlink:href="#Q"/><use x="250" xlink:href="#R"/><use x="305.615" xlink:href="#S"/><use x="361.23" xlink:href="#AS"/><use x="389.014" xlink:href="#R"/><use x="444.629" xlink:href="#T"/><use x="472.412" xlink:href="#AS"/><use x="500.195" xlink:href="#U"/><use x="555.811" xlink:href="#N"/><use x="611.426" xlink:href="#U"/><use x="667.041" xlink:href="#V"/><use x="722.656" xlink:href="#M"/><use x="755.957" xlink:href="#W"/></g><g class="D E"><g class="J"><path d="M93.558 382.055h26.123l1.538-21.394 1.539 10.028 1.539 11.365h6.128l1.537-9.092 1.537 9.092h6.178l1.539-28.713 1.539 28.713h1.538l1.563-19.659 1.488-.546 1.488-7.771 1.537 3.179 1.537 3.815 1.538 4.818 1.538-22.527 1.563 3.495 1.538 22.435 1.539-3.052 1.539-39.085 1.538 12.11 1.563 19.068 1.488-2.572 1.488-18.66 1.537-3.903 1.537 22.876 1.538-5.647 1.538-1.107 1.563-2.75 1.538 8.205 1.539-14.688 1.539 22.654 1.538-.894 1.563 20.205 1.488-29.226 1.488-10.307 1.537 21.498 1.537-17.369 1.538 5.647 1.538 17.07 1.563 9.801 1.538-9.875 1.539 1.276 1.539-19.417 1.538-4.191 1.563 14.507 1.513-32.208 1.513 26.816 1.537 14.957 1.537-24.899 1.538 15.334 1.538-10.272 1.563 13.917 1.538-15.922 1.539 4.339 1.539 5.635 1.538-6.799 1.563 9.706 1.488-.866 1.488-10.325 1.537.866 1.537-12.942 1.538 25.4 1.538-14.376 1.563-8.947 1.538 25.245 1.539-1.391 1.539-4.009 1.538 2.186 1.563 1.339 1.488-25.266 1.488 5.661 1.537-4.471 1.537 14.391 1.538 1.51 1.538 1.839 1.563 2.63 1.538-20.392 3.079 18.724 1.538 4.201 1.563-16.725 1.488-.497 1.488 8.487 1.537-.676 1.537-11.238 1.538 18.776 1.538-33.777 1.563-.105 1.538.423 1.539 17.938 1.539-13.639 1.538 12.484 1.563 5.718 1.513-8.766 1.513 7.792 1.537-1.644 1.537-9.701 1.538.372 1.538 1.122 1.563 2.392 1.538 5.364 1.539 5.814 1.539-5.332 1.538-4.018 1.563 5.803 1.488 3.038 1.488.66 1.537-9.943 1.537-5.973 1.538 4.859 1.538 6.903 1.563 1.978 1.538-15.636 1.539 8.438 1.539 3.24 1.538-3.381 1.563-2.767 1.488 10.409 1.488-15.112 1.537 3.968 1.537-1.499 1.538-.927 1.538-6.183 1.563 16.297 1.538-14.015 1.539-3.702 1.539-4.78 1.538 21.621 1.563 6.88 1.488-11.693 1.487-6.899 1.537-4.654 1.538 13.733 1.538-8.779 1.538-1.366 1.563 6.752 1.538.21 1.538 2.539 1.539-7.457 1.539 4.2 1.563 7.195 1.513-7.933 1.512 4.741 1.537-10.63 1.538 5.31 1.538.829 1.538-6.313 1.563 1.58 1.538-4.574 1.538 3.719 1.539 1.153 1.539 2.692 1.563 3.282 1.488-3.202 1.487-6.064 1.537 5.973 1.538-.459 1.538-3.364 1.538-6.284 1.563 5.641 1.538 1.192 1.538 2.666 1.539 12.219 1.539-15.497 1.563-1.643 1.488 1.541 1.487-5.769 1.537.168 1.538 6.641 1.538-.938 1.538-3.824 1.563-.783 1.538 3.113 1.538 10.279 1.539-15.152 1.539 3.314 1.563 1.013 1.488-8.9 1.487 14.835 1.537-6.706 1.538 1.364 1.538 2.399 1.538-11.667 1.563 5.037 1.538 9.476 1.538-2.261 1.539-9.209 1.539 9.698 1.563-7.199 1.513 5.007 1.512-2.607 1.537-5.666 1.538-.569 1.538 5.708 3.102-7.876 1.538 1.05 1.538-4.043 1.539.079 1.539 15.184 1.563-16.699 1.488 6.633 1.487-8.874 1.537 3.544 1.538 3.243 1.538 7.78 1.538 1.249 1.563-6.8 1.538.835 1.538.382 1.539-8.867 1.539 3.82 1.563-9.387 2.975 10.903 1.537-5.832 1.538-12.29 1.538 15.078 1.538-2.39 1.563 6.653 1.538.5 1.538-4.311 1.539-7.104 1.539 3.238 1.563 6.148 1.488-10.523 1.487 10.081 1.537-4.71 1.538-6.792 1.538-.219 1.538 5.731 1.563-1.093 1.538-.622 1.538-.846 1.539 7.802 1.539-2.172 1.563-3.151 1.513 1.205 1.512-4.278 1.537 4.907 1.538-7.825 1.538 6.635 1.538-1.466 1.563 11.757 1.538-11.168 1.538 5.781 1.539 3.136 1.539-4.782 1.563 1.585 1.488 11.948 1.487-8.851 1.537 7.312 1.538-6.263 1.538 1.912 1.538-11.197 1.563 14.695 1.538-4.623 1.538-5.251 1.539 1.671 1.539 3.698 1.563 8.02 1.488-4.149 1.487 7.714 1.537-3.657 1.538-12.755 1.538 13.384 1.538-5.558 1.563.993 1.538 1.816 1.538-7.551 1.539-1.742 1.539-1.132 1.563 9.852 2.975-6.489 1.537-4.953 1.538-1.056 1.538 9.966" stroke="#0072bd" class="F"/><path d="M93.558 382.055h26.123l1.538-149.757 1.539 58.833 1.539-48.959 1.538 14.471 1.563-27.723 1.513 72.314 1.513-80.821 1.537 43.441 1.537-53.544 1.538-61.02 1.538 89.885 1.563 41.046 1.538 46.729 1.539 35.963 1.539-113.917 1.538 83.911 1.563-9.83 1.488-1.638 1.488 4.663 1.537-18.439 1.537 11.445 1.538 14.455 1.538-67.58 1.563 75.011 1.538-16.363 1.539 9.987 1.539-.597 1.538-10.798 1.563-4.418 1.488 19.433 3.025-10.464 1.537-19.322 1.538 41.979 3.102-17.163 1.538-37.589 1.539 38.817 1.539 2.501 1.538-27.679 1.563 62.542 1.488-64.49 1.488 31.202 1.537 1.405 1.537 3.458 1.538-30.81 1.538 48.288 1.563-33.698 1.538.608 1.539-3.19 1.539 24.146 1.538-24.146 1.563 27.689 1.513-31.857 1.513 15.632 1.537-6.389 1.537 2.959 1.538 5.93 1.538-.624 1.563 20.365 1.538-26.672 1.539 7.604 1.539 2.095 1.538-11.263 1.563 11.99 1.488-8.681 1.488-1.231 1.537 21.735 1.537-22.971 1.538 13.183 1.538-21.917 1.563 7.239 1.538 10.135 1.539 14.332 1.539-4.41 1.538-24.873 1.563-1.071 1.488-6.107 1.488 10.569 1.537 3.338 1.537 6.292 1.538 1.108 1.538 11.112 1.563-8.877 1.538-7.542 1.539 14.701 1.539 7.161 1.538-14.371 1.563 16.57 1.488-15.101 1.488 6.739 1.537-20.318 1.537 30.581 3.076-14.733 1.563 2.066 1.538-15.706 1.539 6.564 1.539 3.536 1.538-3.825 1.563 6.02 1.513-11.994 1.513 7.009 1.537-2.691 1.537-11.099 1.538 5.539h1.538l1.563 3.98 1.538 5.629 1.539 13.288 1.539-4.472 1.538-19.282 1.563 12.682 1.488 6.128 1.488 5.095 1.537-7.784 1.537 11.224 1.538-7.504 1.538-.091 1.563.942 1.538-11.852 1.539 4.819 1.539 8.846 1.538-14.372 1.563 17.554 1.488-11.637 1.488 7.59 1.537-9.778 1.537 10.192 1.538-5.609 1.538 9.859 1.563-1.641 1.538-2.23 1.539-8.191 1.539 4.386 1.538 3.252 1.563 2.7 1.488-5.617 1.487 4.975 1.537-.185 1.538-8.686 1.538 1.302 1.538 2.023 1.563-.958 1.538 6.528 1.538.931 1.539-13.265 1.539 12.181 1.563.932 1.513-9.227 1.512 11.019 1.537-6.707 1.538 1.531 1.538-1.604 1.538 9.136 1.563-5.585 1.538-4.071 1.538-2.062 1.539 2.768 1.539-1.033 1.563 1.886 1.488-1.16 1.487-2.72 1.537 10.252 1.538-6.662 1.538.309 1.538 4.029 1.563-3.822 1.538 3.249 1.538-6.234 1.539 7.04 1.539-5.984 3.051-.167 1.487 2.558 1.537-1.289 1.538 5.256 1.538 2.783 1.538-13.749 1.563 1.563 1.538 3.923 1.538 14.944 1.539-19.546 1.539 8.801 1.563 1.748 1.488-7.667 1.487-1.495 1.537-1.163 1.538 7.098 1.538-2.256 1.538-.676 1.563 5.702 1.538-4.425 1.538 2.579 1.539 2.054 1.539-4.915 1.563 2.649 1.513-.06 1.512-4.476 1.537 3.712 1.538-4.376 1.538 4.041 1.538-.292 1.563-5.123 1.538 7.391 1.538 4.252 1.539-10.199 1.539 6.806 1.563-4.579 1.488-3.199 1.487 6.466 1.537 1.892 1.538-7.579 1.538 4.105 1.538 5.731 1.563-8.718 1.538 3.616 1.538-1.024 1.539-2.807 1.539.84 1.563 5.198 1.488-6.704 1.487 7.261 1.537-6.009 1.538 7.462 1.538-5.363 1.538 2.314 1.563 2.837 1.538-6.305 1.538 7.246 1.539 2.075 1.539-7.66 1.563-5.976 1.488 11.892 1.487-3.699 1.537 1.019 1.538-4.11 1.538.923 1.538 2.966 1.563.398 1.538-1.561 1.538.753 1.539-.042 1.539-.24 1.563-5.734 1.513 9.083 1.512-7.276 1.537 7.364 1.538-3.231 1.538-.225 1.538-2.493 1.563 3.429 1.538-1.361 1.538 5.633 1.539-2.734 1.539 5.619 1.563-4.884 1.488-1.839 1.487 1.101 1.537 5.751 1.538-3.083 1.538-2.774 1.538 3.38 1.563 1.234 1.538-2.489 1.538 1.271 1.539 2.79 1.539-2.753 1.563-.502 1.488.784 1.487-2.729 1.537 4.932 1.538-1.832 1.538 3.23 1.538-6.329 1.563 4.08 1.538-4.573 1.538 3.696 1.539 2.712 1.539-6.318 1.563 5.58 1.488-3.658 1.487 1.467 1.537 1.114 1.538.614 1.538.265" stroke="#d95319" class="F"/><path d="M93.558 382.055h9.253l1.539-90.924 1.539 90.924h6.077l1.537-27.977 1.537 27.977h6.178l1.539-11.365 1.539 11.365h3.102l1.513-20.205 1.513 20.205 1.537-9.092 1.537 9.092h4.64l1.538-11.021 1.539-17.692 1.539 19.842 1.538-.959h1.563l1.488-20.478 1.488 30.308 1.537-8.266 1.537-12.717 1.538-3.264 1.538 8.77 1.563-43.184 1.538 45.899 1.539-8.323 1.539 14.222 1.538-35.926 1.563 26.975 1.488-1.715 1.488 1.182 1.537 16.346 1.537-12.989 1.538-14.683 1.538 9.488 1.563 13.749 1.538-4.657 1.539-13.289 1.539 9.507 1.538.751 1.563 1.926 1.488-2.792 1.488-18.637 1.537 1.568 1.537 1.091 1.538 5.823 1.538 10.457 1.563-16.178 3.078 13.551 1.539-1.326 1.538-18.454 1.563 16.794 1.513-5.165 1.513 5.479 1.537 6.964 1.537-24.899 1.538 6.184 1.538 14.307 1.563 7.523 1.538-16.194 1.539-4.425 1.539 13.265 1.538-16.904 3.051 4.365 1.488 7.016 1.537-18.185 1.537 17.342 1.538-7.381 1.538 10.591 1.563 2.403 1.538-5.226 1.539-24.224 1.539 29.747 1.538 5.081 1.563-17.342 1.488 6.442 1.488.752 1.537-10.076 1.537 13.943 1.538 3.927 1.538-11.15 1.563 2.63 1.538-.279 1.539-2.869 1.539 13.96 1.538-9.86 1.563-6.218 1.488-9.422 1.488 5.023 1.537-2.534 1.537 6.82 1.538 9.514 1.538.124 1.563-3.936 1.538 8.021 1.539-8.387 1.539 7.914 1.538-19.556 1.563 12.451 1.513-2.441 1.513 12.257 1.537-13.021 1.537 7.902 1.538-4.464 1.538-2.139 1.563.981 1.538-6.98 1.539 12.796 1.539-15.102 1.538 14.148 1.563-12.04 1.488 6.668 1.488-5.8 1.537 10.709 1.537-10.239 1.538 6.524 3.102 2.331 1.538-6.084 1.539 5.593 1.539-4.536 1.538 2.232 1.563-8.694 1.488 10.759 1.488-5.73 1.537 8.536 1.537-13.28 1.538 5.018 1.538 5.783 1.563-5.293 1.538 2.901 1.539 3.34 1.539-12.444 1.538 15.501 1.563-7.808 2.975-11.483 1.537 12.751 1.538-5.271 1.538 2.045 1.538-2.874 1.563 3.004 1.538-.143 1.538-1.001 1.539 12.617 1.539-11.333 1.563-4.807 1.513-1.169 1.512 11.341 1.537-8.983 1.538 4.376 1.538-10.574 1.538 12.227 1.563 4.773 1.538-6.934 1.538-5.309 1.539-8.068 1.539 17.724 1.563-6.93 1.488 1.657 1.487 5.938 1.537-11.501 1.538.369 1.538 1.318 1.538 8.276 1.563-1.704 1.538-10.37 1.538-15.701 1.539 21.86 1.539-3.62 1.563 11.015 1.488-7.561 1.487-1.113 1.537 2.875 1.538-3.284 1.538 1.052 1.538-1.627 1.563-5.257 1.538-4.227 1.538-23.992 1.539 31.789 1.539 6.653 1.563-10.346 1.488 7.384 1.487 3.094 1.537-.443 1.538 8.215 1.538-12.759 1.538 3.452 1.563 1.019 1.538-3.676 1.538-14.329 1.539 17.179 1.539 1.776 1.563-1.91 1.513-3.395 1.512-1.791 1.537-1.235 1.538 6.9 1.538-1.366 1.538 2.488 1.563-8.449 1.538 5.739 1.538-16.359 1.539 18.659 1.539-8.972 1.563 7.424 1.488-1.295 1.487.706 1.537-1.901 1.538 5.372 1.538-2.848 1.538-3.712 1.563 6.419 1.538-15.175 1.538-7.661 1.539 16.428 1.539 4.038 1.563-6.647 1.488-2.846 1.487-1.265 1.537 7.413 1.538-1.659 1.538 1.917 1.538-4.342 1.563 3.934 1.538 1.287 1.538-6.326 1.539.953 1.539 2.874 1.563-1.783 1.488 2.041 1.487-.033 1.537 4.976 1.538-2.931 1.538-2.222 1.538 1.789 1.563-2.661 1.538-1.362 1.538 1.028 1.539-6.792 1.539 6.007 1.563-5.31 1.513 4.764 1.512 1.741 1.537-4.54 1.538-1.701 1.538 10.112 1.538-1.59 1.563-2.988 1.538-1.737 1.538-2.07 1.539 3.622 1.539.506 1.563-4.233 1.488-1.324 1.487 3.49 1.537-4.877 1.538 9.254 1.538-2.087 1.538.134 1.563-5.71 1.538 9.5 1.538-2.48 1.539-5.629 1.539-3.028 1.563 2.19 1.488 6.237 1.487-1.81 1.537-5.207 1.538 4.264 1.538 1.477 1.538 1.136 1.563-6.518 1.538-1.138 1.538 5.447 3.079-2.54 1.563 2.065 1.488-7.068 1.487 7.89 1.537 3.977 1.538-1.991 1.538-4.924" stroke="#edb120" class="F"/><path d="M93.558 382.055h64.528l1.539-5.271 1.539 5.271 1.538-5.348 1.563-2.558 1.488 7.906h1.488l1.537-10.857 1.537 10.857 1.538-7.906 1.538 4.269 1.563 3.637h3.078l1.539-3.219 1.538-.823 1.563.642 1.488 3.399 1.488-3.953 1.537.947 1.537 3.006 1.538-3.306 1.538 3.306 1.563-8.659 1.538 8.659h4.617l1.563-9.15 1.513 6.217 1.513 2.933 1.537-2.755 1.537.51 1.538-.042 1.538-2.121 1.563 3.279 1.538-5.443 1.539 6.573 1.539-2.543 1.538.069 1.563-3.521 1.488-.955 1.488 6.95 1.537-2.165 1.537 2.165 1.538-2.231 1.538 2.231h1.563l1.538-2.655 1.539.49 1.539 1.042 1.538-9.512 3.051 5.849 1.488.629 1.537 4.157 3.075-4.33 1.538-.498 1.563-2.994 1.538 7.821 1.539-10.788 1.539 1.873 1.538-3.736 1.563-2.969 1.488 5.277 1.488 3.415 1.537-7.265 1.537 8.532 1.538 3.344 1.538-3.434 1.563-3.077 1.538-4.338 1.539 5.083 1.539 6.567 1.538-8.587 1.563 4.571 1.513 2.634 1.513-6.468 1.537-1.111 1.537 5.128 1.538-2.855 1.538 4.207 1.563-8.384 1.538 9.89 1.539-.151 1.539.062 1.538-5.823 1.563-5.393 1.488-9.86 1.488-27.635 1.537-13.463 1.537 17.89 1.538 4.898 1.538-2.119 1.563-5.652 3.078 14.933 1.539.707 1.538 3.714 1.563-4.782 1.488-5.88 1.488-2.253 1.537 11.12 3.075-7.741 1.538-5.648 1.563-6.174 1.538 5.272 1.539 22.851 1.539-4.024 1.538-11.655 1.563-1.712 1.488 13.232 1.487.46 1.537-10.05 1.538 12.684 1.538-2.46 1.538-3.541 1.563-15.397 1.538.449 1.538.953 1.539 9.706 1.539 1.502 1.563-6.729 1.513-2.191 1.512-1.652 1.537 8.637 1.538-3.728 1.538 9.31 1.538-7.864 1.563 6.437 1.538-5.193 1.538 2.005 1.539 3.615 1.539 5.556 1.563 2.964 1.488-4.909 1.487-6.034 1.537 15.003 1.538-14.706 1.538 9.672 1.538-14.459 1.563-.025 1.538 9.211 1.538 5.019 1.539-39.524 1.539 31.575 1.563 3.544 1.488-1.117 1.487-5.608 1.537 4.709 1.538 6.793 1.538-6.995 1.538 10.494 1.563-.49 1.538-2.846 1.538-10.828 1.539 5.846 1.539-2.986 1.563-2.418 1.488-4.505 1.487 7.468 1.537-3.471 1.538-2.609 1.538 6.736 1.538 4.328 1.563-3.612 1.538-1.263 1.538 2.144 1.539 4.07 1.539-9.539 1.563 4.948 1.513 2.046 1.512-3.167 1.537-3.928 1.538-4.776 1.538.377 1.538-.189 1.563 12.269 1.538-10.671 1.538 4.976 1.539 3.794 1.539-6.218 1.563 4.987 1.488-8.267 1.487-4.593 3.075 9.18 1.538-4.362 1.538 5.418 1.563-9.022 1.538 3.319 1.538 5.898 1.539.508 1.539.884 1.563-8.573 1.488 6.703 1.487-7.51 1.537 8.797 1.538-8.7 1.538 1.915 1.538-2.788 1.563 7.605 1.538-2.205 1.538 3.933 1.539-7.728 1.539 5.496 1.563-.801 1.488-2.388 1.487 1.559 1.537 1.437 1.538-8.222 1.538 6.72 1.538-4.548 1.563 5.973 1.538-1.585 1.538 10.268 1.539-9.748 1.539 6.002 1.563 3.434 1.513-10.185 1.512 4.547 1.537.551 1.538.303 1.538-7.085 1.538 5.63 1.563-3.395 1.538 1.552 1.538 1.164 1.539 4.192 1.539.532 1.563-1.705 1.488 3.877 1.487-5.113 1.537 3.279 1.538 7.85 1.538-13.044 1.538 3.776 1.563 5.024 1.538-4.857 1.538 5.046 1.539.182 1.539-2.483 1.563 1.171 1.488-5.623 1.487 3.898 1.537 3.64 1.538-2.478 1.538 5.656 1.538-5.274 1.563 2.224 1.538-4.281 1.538 5.769 1.539 1.337 3.103-3.181 1.488 3.762 1.487-3.298 1.537-.767 1.538 4.347 1.538-1.196" stroke="#7e2f8e" class="F"/><path d="M93.558 382.055h46.12l1.539-9.571 1.539 9.571h3.102l1.488-10.103 1.488.777 1.537-7.206 1.537 16.532 1.538-8.082 1.538.344 1.563-15.726 1.538-8.439 1.539 21.361 1.539 3.68 1.538-25.229 1.563-15.348 1.488 34.293 1.488 4.973 1.537 2.745 1.537-7.561 1.538 1.129 1.538 8.223 1.563-.798 1.538-9.203 1.539 5.246 1.539-4.481 1.538-19.454 1.563 25.53 1.488-9.438 1.488 12.283 1.537-14.081 1.537 5.16 1.538 6.262 1.538-18.761 1.563 10.942 1.538-1.519 1.539-10.847 1.539 17.29 1.538 6.318 1.563-8.247 1.513 11.437 1.513-1.998 1.537-14.533 1.537 9.797 1.538 2.16 1.538-4.242 1.563-4.737 1.538 2.599 1.539 6.2 1.539-5.419 1.538-2.197 1.563.381 1.488 7.357 1.488-7.836 1.537 10.305 1.537-19.46 1.538 10.469 1.538 1.949 1.563.058 1.538 1.185 1.539 1.47 1.539-45.141 1.538 34.621 1.563 9.385 1.488-6.726 1.488 1.887 1.537-5.164 1.537 2.832 1.538-2.517 1.538 7.663 1.563-11.853 1.538 3.073 3.079-6.523 1.538 10.728 1.563 5.307 1.488-1.417 1.488-1.781 1.537-.296 1.537-7.393 1.538-9.144 1.538 8.831 1.563 4.236 1.538 2.724 1.539-8.387 1.539.337 1.538-1.876 1.563 6.497 1.513-2.242 1.513-1.455 1.537 6.822 1.537 4.11 1.538-12.517 1.538 13.883 1.563-18.317 1.538 3.89 1.539 5.688 1.539-3.044 1.538-6.632 1.563 12.612 1.488-8.381 1.488-3.002 1.537 1.436 1.537 11.518 3.076-13.123 1.563 5.661 1.538 6.862 1.539-9.797 1.539 1.785 1.538-3.29 1.563 9.057 1.488 1.389 1.488.692 1.537-6.512 1.537-4.021 1.538 4.894 1.538 8.687 1.563-11.363 1.538 6.113 1.539-3.702 1.539-5.838 1.538 7.174 1.563-.593 1.488-1.813 1.487-4.23 1.537 14.23 3.076-10.198 1.538 2.95 1.563 4.869 1.538-15.84 1.538 12.825 1.539-3.293 1.539 3.776 1.563 8.494 1.513-2.097 1.512 3.505 1.537-4.683 1.538-16.432 1.538 9.232 1.538-8.268 1.563 6.896 1.538-3.208 1.538-8.771 1.539 4.18 1.539.761 1.563-3.327 1.488-.609 1.487 16.569 1.537-1.618 1.538-2.223 1.538-.401 1.538-3.944 1.563-.379 1.538-3.006 1.538-3.417 1.539-4.661 1.539 14.296 1.563-8.873 1.488 12.335 1.487-2.092 1.537-3.171 1.538-.211 1.538-5.978 1.538 1.404 1.563 5.432 1.538-1.507 1.538 2.742 1.539-.143 1.539-1.36 1.563 5.459 1.488-4.993 1.487 1.127 1.537 2.065 1.538-7.59 1.538.583 1.538 3.259 1.563 2.24 1.538-9.723 1.538 3.685 1.539-1.945 1.539 6.078 1.563-4.741 1.513-2.024 1.512-1.236 1.537 8.553 1.538 1.885 1.538-5.937 1.538.664 1.563 5.545 1.538-5.792 1.538-2.72 1.539.468 1.539 9.273 1.563-5.486 1.488-3.613 1.487-1.655 1.537-3.654 1.538-1.041 1.538 3.001 1.538-11.638 1.563 11.175 1.538-6.441 1.538 2.672 1.539-.228 1.539 5.731 1.563-1.402 1.488 2.268 1.487-4.879 3.075 4.948 1.538-17.203 1.538 16.56 1.563-8.801 1.538 4.379 1.538-5.64 1.539 3.918 1.539 1.604 1.563-1.836 1.488 6.166 1.487.139 1.537-6.015 1.538 2.366 1.538-6.6 1.538 7.903 1.563-4.357 1.538-5.705 1.538.425 1.539-1.839 1.539 1.762 1.563 3.291 1.513 4.359 1.512-2.239 1.537-3.089 1.538 2.28 1.538 1.364 1.538-.869 1.563 1.623 1.538 2.486 1.538-4.054 1.539-9.776 1.539 3.729 1.563 7.034 1.488-3.766 1.487.876 1.537 4.957 1.538.909 1.538 2.646 1.538-5.691 1.563 6.172 1.538-3.02 1.538-12.455 1.539 13.066 1.539 4.252 1.563-.429 1.488 3.002 1.487-5.384 1.537-1.214 1.538 4.337 1.538-22.609 1.538 14.767 1.563 3.021 1.538 4.745 1.538-.544 1.539-1.74 1.539-1.989 1.563.893 1.488 5.423 1.487-6.148 1.537 4.001 1.538 4.661 1.538.086" stroke="#77ac30" class="F"/><path d="M93.558 18.36h9.253l1.539 90.924 1.539-18.185 1.538-72.739h1.563l1.488 121.232 1.488 102.581 1.537-55.953 1.537-46.628 1.538 71.313 1.538-106.969 1.563-24.959 1.538 131.929 1.539 23.4 1.539 35.845 1.538-51.13 1.563 48.185 1.513-26.586 1.513 6.735 1.537 7.409 1.537 36.37 1.538 3.637 1.538-3.637 1.563-98.198 1.538 1.763 1.539 149.074 1.539-32.681 1.538 11.987 1.563-19.659 1.488 18.021 1.488 4.663 1.537-1.907 1.537 43.872 1.538-42.587 1.538 2.407 1.563 13.105 1.538-3.602 1.539-8.045 1.539 4.674 1.538 21.293 1.563-20.696 1.488-.762 1.488 7.336 1.537 2.867 1.537-9.629 1.538-3.765 1.538 33.207 1.563-21.733 1.538 12.641 1.539-25.878 1.539 8.096 1.538 24.854 1.563-40.977 1.488 31.957 1.488 9.459 1.537-4.28 1.537-1.702 1.538 5.91 1.538-9.765 1.563 9.398 1.538-18.078 1.539 3.828 1.539-15.464 1.538 37.158 3.076-1.904 1.513-17.308 1.537 9.931 1.537-4.898 1.538-7.37 1.538 16.677 1.563 2.95 1.538-5.035 1.539-8.807 1.539-17.255 1.538 16.09 1.563 3.711 1.488 9.763 1.488-8.723 1.537 5.455 1.537-13.937 1.538 8.877 1.538-.777 1.563-8.99 1.538-16.129 1.539 22.296 1.539 19.163 1.538-12.289 1.563-4.165 1.488-3.28 1.488 5.852 1.537-5.794 1.537 3.281 1.538 8.055 1.538-13.257 1.563 5.157 1.538-1.397 1.539 5.241 1.539-5.167 1.538-6.465 1.563-.262 1.488.719 1.488 10.235 1.537-2.323 1.537 2.195 1.538-2.839 1.538 8.231 1.563-.405 1.538-2.093 1.539-4.498 1.539-7.577 1.538 13.061 1.563-3.364 1.513-1.058 1.513-8.035 1.537 1.285 1.537 3.191 1.538-8.807 1.538.912 1.563 16.066 1.538 1.134 1.539-1.936 1.539-4.701 1.538-7.134 1.563 4.872 1.488-9.146 1.488 20.562 1.537-8.822 1.537 2.349 1.538 3.409 1.538 4.76 1.563-7.498 1.538-4.928 1.539 9.119 1.539-13.776 1.538 17.798 1.563-11.602 1.488 9.291 1.488-1.631 1.537-8.899 1.537 9.971 1.538.3 1.538-2.318 1.563 1.419 1.538-.107 1.539-2.021 1.539-7.353 1.538 11.245 1.563-1.249 1.488-5.37 1.487 1.321 1.537-1.247 1.538 5.514 1.538-10.346 1.538 3.14 1.563.234 1.538 6.783 1.538-6.207 1.539 4.543 1.539-2.985 1.563 2.216 1.513-11.806 1.512 10.493 1.537-6.569 1.538 10.403 1.538-3.455 1.538-4.528 1.563 3.365 1.538-.043 1.538 5.507 1.539-6.048 1.539 3.261 1.563 5.85 1.488-7.146 1.487-10.672 1.537-7.798 1.538 15.511 1.538 4.667 1.538 5.164 1.563-11.475 1.538.223 1.538-4.147 1.539 11.474 1.539 2.708 1.563-12.32 1.488 6.957 1.487-1.649 1.537-5.731 1.538 1.461 1.538 10.758 1.538-8.172 1.563-.035 1.538 2.42 1.538-3.043 1.539 2.429 1.539-5.101 1.563.543 1.488 6.417 1.487-1.124 1.537-8.564 1.538 1.796 1.538 3.567 1.538-3.113 1.563.598 1.538 2.29 1.538.641 1.539.489 1.539-1.657 1.563-.462 1.513-2.747 1.512-2.013 1.537-.397 3.076 6.748 1.538-1.474 1.563-2.29 1.538-.774 1.538 6.14 1.539-4.469 1.539-4.961 1.563 5.923 1.488 2.228 1.487-5.725 1.537 6.533 1.538-1.097 1.538-5.104 1.538-3.294 1.563 2.859 1.538 4.29 1.538 1.697 1.539 1.295 1.539-5.538 1.563 3.075 1.488-6.7 1.487 7.154 1.537-6.877 1.538 2.935 1.538 4.784 3.102-5.382 1.538-2.925 1.538 6.572 1.539 3.169 1.539-7.829 1.563-2.207 1.488 1.716 1.487 2.886 1.537-5.265 3.076 5.538 1.538-1.383 3.102 1.68 1.538 2.504 1.539.417 1.539-8.747 1.563 6.305 1.513.994 1.512-6.656 1.537 4.212 1.538-1.857 1.538-.19 1.538 2.998 1.563-3.993 1.538.009 1.538 1.155 1.539-3.075 1.539 6.606 1.563-2.264 1.488-5.666 1.487 5.4 1.537 1.685 1.538-1.592 1.538-4.455 1.538 7.313 1.563-5.939 1.538-.646 1.538 5.928 1.539-.129 1.539 3.744 1.563-5.416 1.488 2.494 1.487-4.655 1.537 4.639 1.538-6.703 1.538 7.423 1.538.385 1.563-2.838 1.538.561 1.538-.606 1.539 1.731 1.539-.631 1.563.321 1.488-.614 1.487 5.72 1.537-8.266 1.538-.791 1.538 6.285" stroke="#4dbeee" class="F"/></g><g class="H K"><path d="M56.293 400.24V18.36M559.44 400.24V18.36"/><path d="M56.293 400.24H559.44M56.293 18.36H559.44"/></g></g><path d="M307.512 153.306H552.24V25.56H307.512z" fill="#fff" class="H K"/><path d="M313.272 36.772h28.8" stroke="#0072bd" class="D E J"/><defs><path d="M4.828 34.859q0 17.828 9.563 27.906 9.578 10.094 24.719 10.094 9.922 0 17.875-4.75 7.953-4.734 12.125-13.203 4.188-8.469 4.188-19.219 0-10.875-4.406-19.469Q64.5 7.625 56.438 3.203q-8.047-4.422-17.375-4.422-10.109 0-18.078 4.875-7.953 4.891-12.062 13.328-4.094 8.453-4.094 17.875zm9.766-.141q0-12.937 6.953-20.391 6.969-7.437 17.469-7.437 10.688 0 17.594 7.516 6.922 7.516 6.922 21.344 0 8.734-2.953 15.25-2.953 6.516-8.656 10.109-5.687 3.594-12.766 3.594-10.047 0-17.312-6.922-7.25-6.906-7.25-23.062z" id="X" class="B C"/></defs><g transform="matrix(.144 0 0 -.144 353.592 41.81175)"><use xlink:href="#X"/><use x="77.783" xlink:href="#U"/><use x="133.398" xlink:href="#P"/><use x="161.182" xlink:href="#Q"/><use x="183.398" xlink:href="#O"/><use x="233.398" xlink:href="#W"/></g><path d="M313.272 57.141h28.8" stroke="#d95319" class="D E J"/><defs><path d="M-.141 0l27.484 71.578h10.203L66.844 0H56.063l-8.359 21.688H17.781L9.906 0zm20.656 29.391h24.266l-7.469 19.828q-3.422 9.031-5.078 14.844-1.375-6.891-3.859-13.672z" id="Y" class="B C"/><path d="M6.594 0v51.859h7.859v-7.281q2.438 3.813 6.484 6.125 4.063 2.328 9.234 2.328 5.766 0 9.453-2.391 3.688-2.391 5.203-6.687 6.156 9.078 16.016 9.078 7.719 0 11.859-4.281 4.156-4.266 4.156-13.156V0h-8.75v32.672q0 5.266-.859 7.578-.844 2.328-3.094 3.734-2.234 1.422-5.266 1.422-5.469 0-9.094-3.641-3.609-3.625-3.609-11.641V0h-8.781v33.688q0 5.859-2.156 8.781-2.141 2.938-7.031 2.938-3.703 0-6.859-1.953-3.141-1.953-4.562-5.719-1.422-3.75-1.422-10.828V0z" id="Z" class="B C"/><path d="M7.719 0v71.578h27q7.125 0 10.891-.672 5.266-.891 8.828-3.359 3.578-2.453 5.75-6.906 2.172-4.437 2.172-9.766 0-9.125-5.812-15.453-5.812-6.312-21-6.312H17.188V0zm9.469 37.547h18.5q9.188 0 13.047 3.422 3.859 3.422 3.859 9.625 0 4.484-2.281 7.672-2.266 3.203-5.969 4.234-2.406.641-8.844.641H17.188z" id="a" class="B C"/><path d="M6.594 0v71.578h8.781V45.906q6.156 7.125 15.531 7.125 5.766 0 10.016-2.281 4.25-2.266 6.078-6.266 1.828-4 1.828-11.625V0h-8.781v32.859q0 6.594-2.859 9.594-2.859 3-8.078 3-3.906 0-7.359-2.031-3.437-2.016-4.906-5.484-1.469-3.469-1.469-9.562V0z" id="b" class="B C"/><path d="M6.203-19.969l-.984 8.25q2.891-.781 5.031-.781 2.938 0 4.688.984 1.766.969 2.891 2.719.828 1.328 2.688 6.547.234.734.781 2.156L1.609 51.859h9.469l10.797-30.031q2.094-5.719 3.766-12.016 1.516 6.063 3.609 11.813l11.078 30.234h8.797L29.391-.875q-3.172-8.547-4.922-11.766-2.344-4.359-5.375-6.375-3.031-2.031-7.234-2.031-2.531 0-5.656 1.078z" id="c" class="B C"/></defs><g transform="matrix(.144 0 0 -.144 353.592 62.181)"><use xlink:href="#Y"/><use x="66.699" xlink:href="#P"/><use x="94.482" xlink:href="#R"/><use x="150.098" xlink:href="#Z"/><use x="233.398" xlink:href="#Q"/><use x="255.615" xlink:href="#O"/><use x="305.615" xlink:href="#AS"/><use x="333.398" xlink:href="#a"/><use x="400.098" xlink:href="#b"/><use x="455.713" xlink:href="#c"/><use x="505.713" xlink:href="#W"/><use x="555.713" xlink:href="#Q"/><use x="577.93" xlink:href="#O"/><use x="627.93" xlink:href="#W"/></g><path d="M313.272 77.679h28.8" stroke="#edb120" class="D E J"/><defs><path d="M6.391 0v71.578h8.797V0z" id="d" class="B C"/><path d="M40.578 0v7.625q-6.062-8.797-16.453-8.797-4.594 0-8.578 1.75Q11.578 2.344 9.641 5q-1.922 2.672-2.703 6.531-.547 2.578-.547 8.203v32.125h8.797V23.094q0-6.875.531-9.281.828-3.453 3.516-5.437 2.688-1.984 6.641-1.984 3.953 0 7.422 2.031 3.469 2.031 4.906 5.516 1.453 3.5 1.453 10.141v27.781h8.781V0z" id="e" class="B C"/><path d="M40.234 0v6.547q-4.937-7.719-14.5-7.719-6.203 0-11.406 3.422-5.203 3.422-8.062 9.547-2.844 6.125-2.844 14.078 0 7.766 2.578 14.094 2.594 6.328 7.766 9.688 5.188 3.375 11.578 3.375 4.688 0 8.344-1.984 3.672-1.969 5.969-5.141v25.672h8.734V0zM12.453 25.875q0-9.953 4.188-14.891 4.203-4.922 9.922-4.922 5.766 0 9.781 4.703 4.031 4.719 4.031 14.375 0 10.656-4.109 15.625-4.094 4.984-10.094 4.984-5.859 0-9.797-4.781-3.922-4.781-3.922-15.094z" id="f" class="B C"/><path d="M7.719 0v71.578h24.656q8.344 0 12.75-1.016 6.141-1.422 10.484-5.125 5.672-4.797 8.469-12.25 2.813-7.437 2.813-17 0-8.156-1.906-14.453-1.891-6.297-4.875-10.437-2.984-4.125-6.531-6.5-3.531-2.359-8.531-3.578Q40.047 0 33.547 0zm9.469 8.453h15.281q7.078 0 11.109 1.313 4.031 1.313 6.422 3.719 3.375 3.359 5.25 9.047 1.875 5.688 1.875 13.797 0 11.234-3.687 17.266-3.687 6.031-8.953 8.078-3.812 1.469-12.25 1.469H17.188z" id="g" class="B C"/></defs><g transform="matrix(.144 0 0 -.144 353.592 82.719)"><use xlink:href="#L"/><use x="61.084" xlink:href="#d"/><use x="83.301" xlink:href="#e"/><use x="138.916" xlink:href="#Q"/><use x="161.133" xlink:href="#f"/><use x="216.748" xlink:href="#AS"/><use x="244.531" xlink:href="#g"/><use x="316.748" xlink:href="#c"/><use x="366.748" xlink:href="#S"/><use x="422.363" xlink:href="#N"/><use x="477.979" xlink:href="#Z"/><use x="561.279" xlink:href="#Q"/><use x="583.496" xlink:href="#O"/><use x="633.496" xlink:href="#W"/></g><path d="M313.272 98.393h28.8" stroke="#7e2f8e" class="D E J"/><defs><path d="M4.5 23l8.922.781q.641-5.375 2.953-8.812 2.328-3.437 7.203-5.562 4.891-2.125 11-2.125 5.406 0 9.563 1.609 4.156 1.609 6.172 4.406 2.031 2.813 2.031 6.141 0 3.359-1.953 5.875-1.953 2.516-6.437 4.234-2.891 1.125-12.75 3.484-9.859 2.375-13.812 4.469-5.141 2.688-7.656 6.656-2.5 3.984-2.5 8.922 0 5.422 3.063 10.125 3.078 4.719 8.984 7.156 5.922 2.438 13.141 2.438 7.953 0 14.031-2.562 6.094-2.562 9.359-7.547 3.266-4.969 3.516-11.266l-9.078-.687q-.734 6.781-4.969 10.25-4.219 3.469-12.469 3.469-8.594 0-12.531-3.156-3.922-3.141-3.922-7.578 0-3.859 2.781-6.359 2.734-2.484 14.281-5.094 11.547-2.609 15.844-4.562 6.25-2.891 9.219-7.312 2.984-4.406 2.984-10.172 0-5.719-3.266-10.781-3.266-5.047-9.406-7.859-6.125-2.797-13.781-2.797-9.719 0-16.297 2.828-6.562 2.828-10.297 8.516Q4.688 15.828 4.5 23z" id="h" class="B C"/></defs><g transform="matrix(.144 0 0 -.144 353.592 103.4325)"><use xlink:href="#a"/><use x="66.699" xlink:href="#b"/><use x="122.314" xlink:href="#c"/><use x="172.314" xlink:href="#W"/><use x="222.314" xlink:href="#Q"/><use x="244.531" xlink:href="#O"/><use x="294.531" xlink:href="#W"/><use x="344.531" xlink:href="#AS"/><use x="372.314" xlink:href="#N"/><use x="427.93" xlink:href="#S"/><use x="483.545" xlink:href="#f"/><use x="539.16" xlink:href="#AS"/><use x="566.943" xlink:href="#h"/><use x="633.643" xlink:href="#R"/><use x="689.258" xlink:href="#O"/><use x="739.258" xlink:href="#Q"/><use x="761.475" xlink:href="#V"/><use x="817.09" xlink:href="#P"/><use x="844.873" xlink:href="#c"/></g><path d="M313.272 118.931h28.8" stroke="#77ac30" class="D E J"/><defs><path d="M9.328 0v71.578h9.469V0z" id="i" class="B C"/></defs><g transform="matrix(.144 0 0 -.144 353.592 123.9705)"><use xlink:href="#i"/><use x="27.783" xlink:href="#S"/><use x="83.398" xlink:href="#W"/><use x="133.398" xlink:href="#P"/><use x="161.182" xlink:href="#M"/><use x="194.482" xlink:href="#e"/><use x="250.098" xlink:href="#Z"/><use x="333.398" xlink:href="#V"/><use x="389.014" xlink:href="#S"/><use x="444.629" xlink:href="#P"/><use x="472.412" xlink:href="#N"/><use x="528.027" xlink:href="#P"/><use x="555.811" xlink:href="#Q"/><use x="578.027" xlink:href="#R"/><use x="633.643" xlink:href="#S"/><use x="689.258" xlink:href="#AS"/><use x="717.041" xlink:href="#N"/><use x="772.656" xlink:href="#S"/><use x="828.271" xlink:href="#f"/><use x="883.887" xlink:href="#AS"/><use x="911.67" xlink:href="#g"/><use x="983.887" xlink:href="#V"/><use x="1039.502" xlink:href="#P"/><use x="1067.285" xlink:href="#V"/><use x="1122.9" xlink:href="#O"/><use x="1172.9" xlink:href="#P"/><use x="1200.684" xlink:href="#R"/><use x="1256.299" xlink:href="#M"/><use x="1289.6" xlink:href="#W"/></g><path d="M313.272 139.475h28.8" stroke="#4dbeee" class="D E J"/><defs><path d="M58.797 25.094l9.469-2.391Q65.281 11.031 57.547 4.906q-7.734-6.125-18.922-6.125-11.578 0-18.828 4.703-7.25 4.719-11.031 13.656-3.781 8.938-3.781 19.188 0 11.188 4.266 19.5 4.281 8.328 12.156 12.641 7.891 4.328 17.359 4.328 10.75 0 18.063-5.469 7.328-5.469 10.219-15.375l-9.328-2.203q-2.5 7.813-7.234 11.375-4.734 3.578-11.906 3.578-8.25 0-13.797-3.969-5.547-3.953-7.797-10.625-2.234-6.656-2.234-13.734 0-9.125 2.656-15.937 2.656-6.812 8.266-10.187 5.625-3.359 12.172-3.359 7.953 0 13.469 4.578 5.531 4.594 7.484 13.625z" id="j" class="B C"/></defs><g transform="matrix(.144 0 0 -.144 353.592 144.51525)"><use xlink:href="#j"/><use x="72.217" xlink:href="#b"/><use x="127.832" xlink:href="#V"/><use x="183.447" xlink:href="#Z"/><use x="266.748" xlink:href="#Q"/><use x="288.965" xlink:href="#O"/><use x="338.965" xlink:href="#N"/><use x="394.58" xlink:href="#d"/><use x="416.797" xlink:href="#AS"/><use x="444.58" xlink:href="#a"/><use x="511.279" xlink:href="#b"/><use x="566.895" xlink:href="#c"/><use x="616.895" xlink:href="#W"/><use x="666.895" xlink:href="#Q"/><use x="689.111" xlink:href="#O"/><use x="739.111" xlink:href="#W"/></g><defs><clipPath id="k"><path d="M56.293 18.36H559.44v381.88H56.293z" class="B C"/></clipPath></defs></svg>