<svg xmlns="http://www.w3.org/2000/svg" xmlns:xlink="http://www.w3.org/1999/xlink" height="576" viewBox="0 0 576 432" width="768" stroke-linecap="butt" stroke-linejoin="round" xmlns:v="https://vecta.io/nano"><style><![CDATA[.B{stroke-linecap:butt}.C{stroke-linejoin:round}.D{stroke-linecap:square}.E{fill:none}.F{clip-path:url(#m)}.G{stroke-width:.5}.H{stroke:#000}.I{stroke:#b2b2b2}.J{stroke-width:1.5}.K{stroke-linejoin:miter}]]></style><g fill="#fff"><path d="M0 432h576V0H0z"/><path d="M56.293 400.24H559.44V18.36H56.293z"/></g><path d="M108.209 400.24V18.36" class="D E F G I"/><defs><path d="M0 0v4" id="A" class="B C G H"/></defs><use x="108.209" xlink:href="#A" y="400.24" class="G H"/><defs><path d="M37.25 0h-8.781v56q-3.172-3.016-8.328-6.047-5.156-3.031-9.25-4.547v8.5q7.375 3.469 12.891 8.391 5.516 4.938 7.813 9.578h5.656z" id="B" class="B C"/><path d="M5.469 16.547l8.453.781q1.063-5.953 4.094-8.641Q21.047 6 25.781 6q4.047 0 7.094 1.859 3.063 1.859 5.016 4.953 1.953 3.109 3.266 8.375 1.328 5.281 1.328 10.75 0 .578-.047 1.75-2.641-4.187-7.203-6.812-4.562-2.609-9.891-2.609-8.891 0-15.047 6.438-6.141 6.453-6.141 17 0 10.891 6.422 17.531Q17 71.875 26.656 71.875q6.984 0 12.766-3.766 5.797-3.75 8.797-10.719 3-6.953 3-20.141 0-13.719-2.984-21.844-2.969-8.125-8.859-12.375-5.875-4.25-13.781-4.25-8.406 0-13.734 4.656-5.312 4.672-6.391 13.109zm35.984 31.594q0 7.578-4.031 12.016-4.016 4.438-9.687 4.438-5.859 0-10.203-4.781-4.344-4.781-4.344-12.406 0-6.828 4.125-11.109 4.125-4.266 10.172-4.266 6.109 0 10.031 4.266 3.938 4.281 3.938 11.844z" id="C" class="B C"/><path d="M4.156 18.75l9.219.781q1.031-6.734 4.766-10.141Q21.875 6 27.156 6q6.344 0 10.734 4.781 4.391 4.797 4.391 12.703 0 7.516-4.219 11.859Q33.844 39.703 27 39.703q-4.25 0-7.672-1.937-3.406-1.922-5.359-5l-8.25 1.078 6.922 36.766H48.25v-8.406H19.672l-3.844-19.234q6.438 4.5 13.516 4.5 9.375 0 15.813-6.5 6.453-6.5 6.453-16.703 0-9.719-5.656-16.797-6.891-8.687-18.797-8.687-9.766 0-15.953 5.469-6.172 5.469-7.047 14.5z" id="D" class="B C"/></defs><g transform="matrix(.12 0 0 -.12 94.86319 416.829375)"><use xlink:href="#B"/><use x="55.615" xlink:href="#C"/><use x="111.23" xlink:href="#C"/><use x="166.846" xlink:href="#D"/></g><g class="G"><path d="M200.302 400.24V18.36" class="D E F I"/><use x="200.302" xlink:href="#A" y="400.24" class="H"/></g><defs><path d="M50.344 8.453V0H3.031q-.094 3.172 1.016 6.109 1.813 4.828 5.781 9.516 3.984 4.688 11.516 10.844 11.672 9.563 15.766 15.156 4.109 5.594 4.109 10.578 0 5.219-3.75 8.797-3.734 3.594-9.734 3.594-6.344 0-10.156-3.812-3.812-3.797-3.859-10.531l-9.031.922q.922 10.109 6.969 15.406 6.063 5.297 16.281 5.297 10.297 0 16.297-5.719Q50.25 60.453 50.25 52q0-4.297-1.766-8.453-1.75-4.141-5.828-8.734-4.078-4.594-13.547-12.594-7.922-6.641-10.172-9.016-2.234-2.359-3.703-4.75z" id="E" class="B C"/><path d="M4.156 35.297q0 12.703 2.609 20.438 2.609 7.75 7.75 11.938 5.156 4.203 12.969 4.203 5.766 0 10.109-2.328 4.344-2.312 7.172-6.687 2.844-4.359 4.453-10.641 1.609-6.266 1.609-16.922 0-12.594-2.594-20.328Q45.656 7.234 40.5 3q-5.141-4.219-13.016-4.219-10.344 0-16.25 7.422-7.078 8.938-7.078 29.094zm9.031 0q0-17.625 4.125-23.469Q21.438 6 27.484 6q6.063 0 10.188 5.859 4.125 5.859 4.125 23.438 0 17.688-4.125 23.484-4.125 5.813-10.281 5.813-6.047 0-9.672-5.125-4.531-6.531-4.531-24.172z" id="F" class="B C"/></defs><g transform="matrix(.12 0 0 -.12 186.955605 416.829375)"><use xlink:href="#E"/><use x="55.615" xlink:href="#F"/><use x="111.23" xlink:href="#F"/><use x="166.846" xlink:href="#F"/></g><g class="G"><path d="M292.445 400.24V18.36" class="D E F I"/><use x="292.445" xlink:href="#A" y="400.24" class="H"/></g><g transform="matrix(.12 0 0 -.12 279.098455 416.829375)"><use xlink:href="#E"/><use x="55.615" xlink:href="#F"/><use x="111.23" xlink:href="#F"/><use x="166.846" xlink:href="#D"/></g><g class="G"><path d="M384.537 400.24V18.36" class="D E F I"/><use x="384.537" xlink:href="#A" y="400.24" class="H"/></g><g transform="matrix(.12 0 0 -.12 371.19087 416.829375)"><use xlink:href="#E"/><use x="55.615" xlink:href="#F"/><use x="111.23" xlink:href="#B"/><use x="166.846" xlink:href="#F"/></g><g class="G"><path d="M476.63 400.24V18.36" class="D E F I"/><use x="476.63" xlink:href="#A" y="400.24" class="H"/></g><g transform="matrix(.12 0 0 -.12 463.283285 416.829375)"><use xlink:href="#E"/><use x="55.615" xlink:href="#F"/><use x="111.23" xlink:href="#B"/><use x="166.846" xlink:href="#D"/></g><path d="M56.293 382.055H559.44" class="D E F G I"/><defs><path d="M0 0h-4" id="G" class="B C G H"/></defs><use x="56.293" xlink:href="#G" y="382.055" class="G H"/><defs><path d="M9.078 0v10.016h10.016V0z" id="H" class="B C"/></defs><g transform="matrix(.12 0 0 -.12 31.612813 385.157426)"><use xlink:href="#F"/><use x="55.615" xlink:href="#H"/><use x="83.398" xlink:href="#F"/></g><g class="G"><path d="M56.293 309.316H559.44" class="D E F I"/><use x="56.293" xlink:href="#G" y="309.316" class="H"/></g><g transform="matrix(.12 0 0 -.12 31.612813 312.418378)"><use xlink:href="#F"/><use x="55.615" xlink:href="#H"/><use x="83.398" xlink:href="#E"/></g><g class="G"><path d="M56.293 236.577H559.44" class="D E F I"/><use x="56.293" xlink:href="#G" y="236.577" class="H"/></g><defs><path d="M32.328 0v17.141H1.266v8.063l32.672 46.375h7.172V25.203h9.672v-8.062h-9.672V0zm0 25.203v32.266L9.906 25.203z" id="I" class="B C"/></defs><g transform="matrix(.12 0 0 -.12 31.612813 239.67933)"><use xlink:href="#F"/><use x="55.615" xlink:href="#H"/><use x="83.398" xlink:href="#I"/></g><g class="G"><path d="M56.293 163.838H559.44" class="D E F I"/><use x="56.293" xlink:href="#G" y="163.838" class="H"/></g><defs><path d="M49.75 54.047l-8.734-.672q-1.172 5.172-3.312 7.516-3.578 3.766-8.797 3.766-4.203 0-7.375-2.344-4.141-3.031-6.547-8.844-2.391-5.812-2.484-16.547 3.172 4.828 7.766 7.172 4.594 2.344 9.625 2.344 8.781 0 14.953-6.469 6.188-6.469 6.188-16.719 0-6.75-2.906-12.531-2.906-5.781-7.984-8.859-5.078-3.078-11.531-3.078-10.984 0-17.922 8.078Q3.766 14.938 3.766 33.5q0 20.75 7.656 30.172 6.688 8.203 18.016 8.203 8.453 0 13.844-4.734 5.406-4.734 6.469-13.094zM13.875 23.188q0-4.531 1.922-8.687 1.922-4.141 5.391-6.328Q24.656 6 28.469 6q5.563 0 9.563 4.484 4.016 4.5 4.016 12.219 0 7.422-3.969 11.688-3.953 4.281-9.953 4.281-5.953 0-10.109-4.281-4.141-4.266-4.141-11.203z" id="J" class="B C"/></defs><g transform="matrix(.12 0 0 -.12 31.612813 166.940283)"><use xlink:href="#F"/><use x="55.615" xlink:href="#H"/><use x="83.398" xlink:href="#J"/></g><g class="G"><path d="M56.293 91.099H559.44" class="D E F I"/><use x="56.293" xlink:href="#G" y="91.099" class="H"/></g><defs><path d="M17.672 38.813q-5.469 2.016-8.109 5.719-2.625 3.719-2.625 8.891 0 7.813 5.609 13.125 5.625 5.328 14.938 5.328 9.375 0 15.094-5.453 5.719-5.437 5.719-13.25 0-4.984-2.625-8.672-2.609-3.672-7.922-5.687 6.594-2.141 10.031-6.937 3.438-4.781 3.438-11.422 0-9.172-6.5-15.422-6.484-6.25-17.078-6.25-10.594 0-17.094 6.266-6.5 6.281-6.5 15.656 0 6.984 3.547 11.688 3.547 4.719 10.078 6.422zm-1.75 14.906q0-5.078 3.266-8.312 3.281-3.219 8.5-3.219 5.078 0 8.328 3.188 3.25 3.203 3.25 7.844 0 4.844-3.359 8.141-3.344 3.297-8.312 3.297-5.031 0-8.359-3.234-3.312-3.219-3.312-7.703zm-2.828-33.062q0-3.766 1.781-7.281 1.781-3.516 5.297-5.453Q23.688 6 27.734 6q6.297 0 10.391 4.047 4.109 4.063 4.109 10.313 0 6.344-4.219 10.5-4.219 4.156-10.578 4.156-6.203 0-10.281-4.109-4.062-4.094-4.062-10.25z" id="K" class="B C"/></defs><g transform="matrix(.12 0 0 -.12 31.612813 94.201235)"><use xlink:href="#F"/><use x="55.615" xlink:href="#H"/><use x="83.398" xlink:href="#K"/></g><g class="G"><path d="M56.293 18.36H559.44" class="D E F I"/><use x="56.293" xlink:href="#G" y="18.36" class="H"/></g><g transform="matrix(.12 0 0 -.12 31.612813 21.462187)"><use xlink:href="#B"/><use x="55.615" xlink:href="#H"/><use x="83.398" xlink:href="#F"/></g><defs><path d="M8.203 0v71.578H56.5v-8.437H17.672V40.969h33.594v-8.453H17.672V0z" id="L" class="B C"/><path d="M6.5 0v51.859h7.906V44q3.031 5.516 5.594 7.266 2.563 1.766 5.641 1.766 4.438 0 9.031-2.828l-3.031-8.156q-3.219 1.906-6.437 1.906-2.891 0-5.187-1.734-2.297-1.734-3.266-4.812-1.469-4.687-1.469-10.25V0z" id="M" class="B C"/><path d="M40.438 6.391Q35.547 2.25 31.031.531q-4.516-1.703-9.687-1.703-8.547 0-13.141 4.172-4.594 4.172-4.594 10.672 0 3.813 1.734 6.953 1.734 3.156 4.547 5.063 2.813 1.906 6.328 2.875 2.578.688 7.813 1.328 10.641 1.266 15.672 3.016.047 1.813.047 2.297 0 5.375-2.5 7.578-3.359 2.969-10 2.969-6.203 0-9.156-2.172-2.953-2.172-4.375-7.687l-8.594 1.172q1.172 5.516 3.859 8.906 2.688 3.391 7.766 5.219 5.078 1.844 11.766 1.844 6.641 0 10.781-1.562 4.156-1.562 6.109-3.937 1.953-2.359 2.734-5.984.438-2.234.438-8.094V21.734q0-12.266.563-15.516.563-3.234 2.234-6.219h-9.187q-1.359 2.734-1.75 6.391zm-.734 19.641q-4.797-1.953-14.359-3.328-5.422-.781-7.672-1.766-2.234-.969-3.469-2.844-1.219-1.875-1.219-4.172 0-3.516 2.656-5.859 2.672-2.344 7.797-2.344 5.078 0 9.031 2.219 3.953 2.219 5.813 6.078 1.422 2.984 1.422 8.781z" id="N" class="B C"/><path d="M40.438 19l8.641-1.125q-1.422-8.937-7.266-14-5.828-5.047-14.328-5.047-10.641 0-17.109 6.953-6.469 6.969-6.469 19.953 0 8.391 2.781 14.688 2.781 6.313 8.469 9.453 5.688 3.156 12.391 3.156 8.438 0 13.813-4.281 5.375-4.266 6.891-12.125l-8.547-1.328q-1.219 5.234-4.328 7.859-3.094 2.641-7.5 2.641-6.641 0-10.797-4.766-4.141-4.75-4.141-15.047 0-10.453 4-15.187 4.016-4.734 10.453-4.734 5.172 0 8.641 3.172Q39.5 12.406 40.438 19z" id="O" class="B C"/><path d="M25.781 7.859L27.047.094q-3.703-.781-6.641-.781-4.781 0-7.422 1.516-2.625 1.516-3.703 3.984-1.078 2.469-1.078 10.375v29.828H1.766v6.844h6.438v12.844l8.734 5.266V51.859h8.844v-6.844h-8.844V14.703q0-3.766.469-4.844.469-1.062 1.516-1.703 1.047-.641 3-.641 1.469 0 3.859.344z" id="P" class="B C"/><path d="M6.641 61.469v10.109h8.797V61.469zM6.641 0v51.859h8.797V0z" id="Q" class="B C"/><path d="M3.328 25.922q0 14.406 8 21.344 6.688 5.766 16.313 5.766 10.688 0 17.469-7.016 6.797-7 6.797-19.359 0-10-3-15.75-3-5.734-8.75-8.906-5.734-3.172-12.516-3.172-10.891 0-17.609 6.984-6.703 6.984-6.703 20.109zm9.031 0q0-9.953 4.344-14.906 4.344-4.953 10.938-4.953 6.547 0 10.891 4.969 4.344 4.984 4.344 15.188 0 9.625-4.375 14.578-4.375 4.953-10.859 4.953-6.594 0-10.937-4.937-4.344-4.922-4.344-14.891z" id="R" class="B C"/><path d="M6.594 0v51.859H14.5v-7.375q5.719 8.547 16.5 8.547 4.688 0 8.625-1.687 3.938-1.687 5.891-4.422 1.953-2.734 2.734-6.484.484-2.453.484-8.547V0h-8.797v31.547q0 5.375-1.031 8.031-1.016 2.656-3.625 4.234-2.609 1.594-6.125 1.594-5.625 0-9.703-3.562-4.078-3.562-4.078-13.516V0z" id="S" class="B C"/><path d="M8.688 0v45.016H.922v6.844h7.766v5.516q0 5.219.938 7.766 1.266 3.422 4.453 5.531 3.203 2.125 8.969 2.125 3.719 0 8.203-.875l-1.312-7.656q-2.734.484-5.187.484-4 0-5.656-1.719-1.656-1.703-1.656-6.391v-4.781h10.109v-6.844H17.438V0z" id="T" class="B C"/><path d="M6.594-19.875v71.734h8v-6.734q2.844 3.953 6.406 5.922 3.563 1.984 8.641 1.984 6.641 0 11.719-3.422 5.078-3.422 7.656-9.656 2.594-6.219 2.594-13.641 0-7.953-2.859-14.328-2.844-6.375-8.297-9.766Q35.016-1.172 29-1.172q-4.391 0-7.891 1.859-3.484 1.859-5.734 4.688v-25.25zm7.953 45.516q0-10.016 4.047-14.797 4.063-4.781 9.828-4.781 5.859 0 10.031 4.953 4.172 4.953 4.172 15.359 0 9.906-4.078 14.828-4.078 4.938-9.734 4.938-5.625 0-9.953-5.25-4.312-5.25-4.312-15.25z" id="U" class="B C"/><path d="M42.094 16.703l9.078-1.125q-2.141-7.953-7.953-12.359-5.812-4.391-14.844-4.391-11.375 0-18.047 7-6.672 7.016-6.672 19.656 0 13.094 6.734 20.313 6.75 7.234 17.484 7.234 10.406 0 17-7.078 6.594-7.078 6.594-19.922 0-.781-.047-2.344H12.75q.484-8.547 4.828-13.094 4.344-4.531 10.844-4.531 4.828 0 8.25 2.531 3.422 2.547 5.422 8.109zM13.234 30.906h28.953q-.578 6.547-3.312 9.813-4.203 5.078-10.891 5.078-6.062 0-10.187-4.047-4.125-4.047-4.562-10.844z" id="V" class="B C"/><path d="M3.078 15.484l8.688 1.359q.734-5.219 4.078-8 3.344-2.781 9.359-2.781 6.047 0 8.969 2.453 2.938 2.469 2.938 5.797 0 2.969-2.594 4.688-1.797 1.172-8.984 2.969-9.656 2.453-13.391 4.234-3.734 1.781-5.672 4.922-1.922 3.156-1.922 6.969 0 3.453 1.578 6.406 1.594 2.969 4.328 4.922 2.047 1.5 5.578 2.547 3.547 1.063 7.609 1.063 6.094 0 10.703-1.766 4.625-1.75 6.813-4.766 2.203-3 3.031-8.016l-8.594-1.172q-.578 4-3.391 6.234-2.812 2.25-7.937 2.25-6.047 0-8.641-2-2.594-2-2.594-4.687 0-1.703 1.078-3.078 1.078-1.406 3.375-2.344 1.313-.484 7.766-2.234 9.328-2.5 13-4.094 3.688-1.578 5.781-4.609 2.109-3.016 2.109-7.516 0-4.391-2.562-8.281-2.562-3.875-7.406-6-4.828-2.125-10.922-2.125-10.109 0-15.406 4.203-5.297 4.203-6.766 12.453z" id="W" class="B C"/></defs><g transform="matrix(0 -.14 -.14 0 23.830312 265.712344)"><use xlink:href="#L"/><use x="61.084" xlink:href="#M"/><use x="94.385" xlink:href="#N"/><use x="150" xlink:href="#O"/><use x="200" xlink:href="#P"/><use x="227.783" xlink:href="#Q"/><use x="250" xlink:href="#R"/><use x="305.615" xlink:href="#S"/><use x="361.23" xlink:href="#AS"/><use x="389.014" xlink:href="#R"/><use x="444.629" xlink:href="#T"/><use x="472.412" xlink:href="#AS"/><use x="500.195" xlink:href="#U"/><use x="555.811" xlink:href="#N"/><use x="611.426" xlink:href="#U"/><use x="667.041" xlink:href="#V"/><use x="722.656" xlink:href="#M"/><use x="755.957" xlink:href="#W"/></g><g class="D E"><g class="J"><path d="M12.258 382.055h1.539l1.538-181.848 1.563 181.848h12.228m3.079 0h7.614l1.537-72.739 1.538 72.739h12.333l1.513-8.659 1.537 8.659h1.537l1.538-31.174 1.538 31.174h1.563l1.538-6.062 1.539 6.062h1.539l1.538-22.731 1.563 14.273 1.488 8.458 1.488-6.062 1.537-4.33 1.537 10.391 1.538-16.532 1.538-1.355 1.563 17.887 1.538-23.092 1.539 23.092h1.539l1.538-4.915 1.563-5.942 1.488 10.857h3.025l1.537-4.982 1.538-9.713 1.538 5.369 1.563 9.326 1.538-66.886 1.539 44.156 1.539-.988 1.538 12.943 1.563 4.041 1.488-53.881 1.488 50.074 1.537-7.199 1.537 11.73 1.538-2.932 1.538-1.548 1.563-4.507 1.538 10.769 1.539 4.229 1.539-2.886 1.538-3.125 1.563 6.011h1.513l1.513-3.006 1.537 3.006h1.537l1.538-11.191 1.538 8.327 1.563 2.864 1.538-2.91 1.539 2.91 1.539-2.508 1.538-8.381 1.563 8.869 1.488-11.125 1.488 6.875 1.537-9.316 1.537 4.73 1.538.754 1.538-8.196 1.563 18.299 1.538-4.133 1.539 4.133 1.539-13.724 1.538-24.494 1.563 5.623 1.488 11.813 1.488 6.52 1.537-3.479 1.537-4.08 1.538-.103 1.538-2.321 1.563 5.353 1.538-4.779 1.539 6.557 1.539-8.448 1.538 7.378 1.563 5.092 1.488-.198 1.488-10.665 1.537 7.768 1.537 1.168 1.538-5.848 1.538 2.141 1.563 1.698 1.538-6.838 1.539-2.266 1.539 16.392 1.538-16.478 1.563-.252 1.513 3.897 1.513 9.585 1.537-12.238 1.537 7.629 1.538 2.063 1.538-.702 1.563-13.768 1.538 12.803 1.539-3.854 1.539-7.599 1.538 6.342 1.563 9.385 1.488-11.933 1.488 9.286 1.537-2.88 1.537 4.584 1.538-11.709 1.538 2.618 1.563 10.743 1.538-12.5 1.539-3.461 1.539 10.389 1.538-8.822 1.563 9.024 1.488-3.297 1.488-1.59 1.537 8.188 1.537-8.648 1.538 6.92 1.538-15.642 1.563 6.517 1.538-2.308 1.539 7.218 1.539-5.908 1.538 1.93 1.563 4.674 1.488-4.417 1.488-.705 1.537-3.066 1.537 3.789 1.538-.516 1.538-5.991 1.563 12.578 1.538-10.002 1.539-1.796 1.539 4.177 1.538-.332 1.563-6.675 1.513 5.997 1.513-2.263 1.537 3.471 1.537 1.169 1.538-6.926 1.538-.729 1.563 4.202 1.538.893 1.539 2.204 1.539-3.803 1.538 5.443 1.563-3.175 1.488 4.089 1.488-5.649 1.537 4.559 1.537-3.486 1.538-.153 1.538-7.991 1.563 3.336 1.538 4.097 1.539 2.565 1.539-4.789 1.538-1.686 1.563 5.227 1.488-5.953 1.488 4.747 1.537 3.083 1.537-7.887 1.538 4.171 1.538-4.001 1.563 2.644 1.538-5.091 1.539 7.167 1.539 4.65 1.538-3.312 1.563 1.513 1.488-.573 1.487-3.009 1.537 3.804 1.538.204 1.538-7.532 1.538 7.017 1.563.018 1.538-4.526 1.538-.081 1.539-1.306 1.539-.048 1.563 2.589 1.513 2.827 1.512-3.611 1.537-2.267 1.538 3.573 1.538-7.369 1.538 7.75 1.563 3.435 1.538-2.796 1.538-.889 1.539 3.513 1.539-5.848 1.563 2 1.488.224 1.487-.246 1.537.806 1.538-7.768 1.538 3.242 1.538 1.657 1.563-2.053 1.538-4.076 1.538 8.47 1.539-5.081 1.539 3.304 1.563 2.785 1.488-8.786 1.487 10.251 1.537-2.644 1.538-1.811 1.538-.685 1.538-1.898 1.563-1.582 1.538 1.763 1.538 1.102 1.539.885 1.539 1.563 1.563-7.125 1.488 1.554 1.487 5.89 1.537-3.401 1.538 1.547 1.538-5.576 1.538 5.754 1.563-3.712 3.076 2.562 1.539-2.567 1.539 4.735 1.563-7.094 1.513.121 1.512 1.569 1.537 1.268 1.538 2.11 1.538-1.42 1.538-1.676 1.563 5.572 1.538-4.605 1.538-1.549 1.539 2.909 1.539-3.908 1.563 2.455 1.488.802 1.487-2.777 1.537.979 1.538.213 1.538-.027 1.538 1.592 1.563-2.527 1.538-4.396 1.538 4.924 1.539.993 1.539.663 1.563-3.904 1.488-1.804 1.487 5.282 1.537-.896 1.538.589 1.538-2.802 1.538 3.082 1.563-1.487 1.538-.899 1.538 2.69 1.539 4.986 1.539-5.371 1.563 1.067 1.488-.48 1.487-.726 1.537-1.303 1.538 3.617 1.538 1.253 1.538-3.804 1.563-4.392 1.538 7.242 1.538.149 1.539-2.158 1.539-1.901 1.563-.567 1.513 1.098 1.512 2.108 1.537 4.128 1.538-6.386 1.538-1.952 1.538 5.001 1.563-7.343 1.538 3.717 1.538 4.09 1.539-5.412 1.539 4.949 1.563-6.181 1.488 4.24 1.487 1.24 1.537-1.201 1.538-2.51 1.538 3.544 3.102-4.597 1.538 1.161 1.538 2.765 1.539-.127 1.539.095 1.563.889 1.488-.775 1.487-.517 3.075-2.872 1.538 1.768 1.538-5.848 1.563 2.18 1.538 2.744 1.538 4.065 1.539.16 1.539-3.671 1.563 4.444 1.488-2.683 1.487 1.07 1.537-1.85 1.538 2.497 1.538-6.82" stroke="#0072bd" class="F"/><path d="M12.258 382.055h16.869m3.079 0h16.869l1.539-45.462 1.538 34.765 1.563 10.697 1.513-257.248 1.513 187.973 1.537 54.121 1.537-90.924 1.538 12.556 1.538 72.128 1.563-82.519 1.538 61.482 1.539-53.841 1.539 89.66 1.538-31.272 1.563-21.321 1.488 2.771 1.488 1.881 1.537-59.75 1.537 13.708 1.538 6.917 1.538 28.095 1.563 10.687 1.538-14.378 1.539 10.615 1.539-58.661 1.538 38.684 1.563-2.787 1.488-30.482 1.488 30.693 1.537-1.224 1.537-17.205 1.538 59.232 1.538-29.531 1.563-8.393 1.538 36.53 1.539-87.005 1.539 62.922 1.538-9.546 1.563 24.92 1.488-52.534 1.488 26.618 1.537-3.407 1.537-49.412 1.538 45.776 1.538-.459 1.563 31.438 1.538 14.431 1.539-38.142 1.539 4.041 1.538.024 1.563-17.245 1.513 16.08 1.513-22.881 1.537 30.279 1.537 22.668 1.538-21.11 1.538-33.021 1.563-26.821 1.538 36.902 1.539 18.012 1.539-36.071 1.538 53.079 1.563-6.328 1.488 3.822 1.488-28.835 1.537 13.467 1.537-22.14 1.538 49.345 1.538-5.099 1.563-35.183 1.538-7.705 1.539 11.037 1.539-16.184 1.538 40.592 1.563-6.281 1.488-14.443 1.488 2.038 1.537 22.42 1.537-15.175 1.538 16.622 1.538 7.867 1.563-1.653 1.538-4.337 1.539 3.494 1.539-15.495 1.538 13.824 1.563-20.321 1.488 16.172 1.488-.43 1.537-11.416 1.537 11.098 1.538 7.774 1.538-2.601 1.563 1.319 1.538-3.866 1.539-7.752 1.539 14.409 1.538-20.375 1.563 8.496 1.513 2.257 1.513-16.82 1.537 18.202 1.537-14.072 1.538 5.129 1.538 7.441 1.563 12.859 1.538-10.051 1.539 5.76 1.539-17.595 1.538-7.442 1.563 24.472 1.488-6.687 1.488-14.403 1.537 12.758 1.537-1.652 1.538 18.767 1.538-12.587 1.563-.171 1.538 7.322 1.539-14.439 1.539 1.677 1.538 11.745 1.563-4.231 1.488 3.363 1.488-1.779 1.537-12.233 1.537.802 1.538 2.982 1.538 2.656 1.563 9.001 1.538-13.307 1.539 6.551 1.539 2.751 1.538 1.717 1.563-4.912 1.488.989 1.488 4.124 1.537-1.019 1.537-.056 1.538-1.618 1.538 5.789 1.563-5.675 1.538 2.49 1.539-6.5 1.539 12.593 1.538-4.975 1.563 10.678 1.513-12.874 1.513 3.296 1.537 2.25 1.537.652 1.538 8.61 1.538-16.057 1.563 9.515 1.538-3.399 1.539 1.048 1.539-.83 1.538 6.206 1.563 2.404 1.488-11.592 1.488 10.661 1.537-5.583 1.537-6.218 1.538 6.625 1.538-4.836 1.563 9.891 1.538-2.655 1.539 4.831 1.539-7.607 1.538.113 1.563-.893 1.488-4.216 1.488 5.763 1.537.674 1.537-4.365 1.538 9.647 1.538 1.004 1.563.881 1.538-4.011 1.539-2.216 1.539-1.672 1.538 10.996 1.563-4.394 1.488.225 1.487-.226 1.537-9.027 1.538 2.825 1.538-.478 1.538 2.274 1.563 5.494 1.538-2.35 1.538-7.324 1.539 10.898 1.539-4.123 1.563 1.806 1.513-4.68 1.512-.367 1.537 1.368 1.538-.837 1.538 3.617 1.538-.214 1.563-1.712 1.538-6.912 1.538 8.597 1.539-1.283 1.539 2.493 1.563.255 1.488-3.123 1.487 4.365 1.537-3.565 1.538-.787 1.538 1.16 1.538.355 1.563 4.103 1.538-4.761 1.538 3.808 1.539-1.893 1.539-.206 1.563-.677 1.488 2.278 1.487-2.442 1.537 3.852 1.538-4.537 1.538 1.3 1.538 2.999 1.563 5.132 1.538-7.146 1.538 2.819 1.539-6.74 1.539 2.114 1.563 4.647 1.488.028 1.487-3.596 1.537 3.887 1.538.68 1.538-3.054 1.538 1.107 1.563 2.838 1.538-1.468 1.538-2.813 1.539-.998 1.539 5.372 1.563-2.18 3.025-.911 1.537 3.657 1.538-.844 1.538.352 1.538.97 1.563 1.571 1.538-5.508 1.538 3.463 1.539-1.81 1.539.481 1.563-.205 1.488.729 1.487-5.071 1.537 5.932 1.538-.034 1.538 1.912 1.538-1.969 1.563-.477 1.538 2.209 1.538-3.439 1.539 1.839 1.539 2.434 1.563-2.221 1.488 2.235 1.487-.492 1.537-1.465 1.538.349 1.538 2.51 1.538-2.207 1.563-.004 1.538-3.027 1.538 2.04 1.539-.959 1.539 1.695 1.563 1.176 1.488-.813 1.487-.463 1.537.875 1.538-1.101 1.538 2.913 1.538-3.264 1.563 2.909 1.538-1.02 1.538-3.041 1.539.898 1.539 1.161 1.563.099 1.513 1.082 1.512-1.33 1.537-2.595 1.538 5.319 1.538-5.223 1.538 1.961 1.563 1.112 1.538-1.877 1.538 4.241 1.539-3.403 1.539-1.044 1.563.8 1.488 4.271 1.487-7.243 1.537 4.697 1.538-.289 1.538-1.639 1.538 2.764 1.563-3.691 1.538 3.491 1.538.366 1.539-2.161 1.539.648 1.563-.085 1.488-.252 1.487.891 1.537-.004 1.538.322 1.538.73 1.538-1.778 1.563.683 1.538-1.622 1.538 1.576 1.539 2.017 1.539-1.512 1.563 2.01 1.488-1.071 3.024-1.016 1.538 1.144 1.538-1.707" stroke="#d95319" class="F"/><path d="M12.258 382.055h16.869m3.079 0h18.408l1.538-32.091 1.563 32.091h1.513l1.513-8.659 1.537 8.659h1.537l1.538-10.391 1.538 10.391h1.563l1.538-12.123 1.539 12.123h1.539l1.538-22.731 1.563 22.731h19.896l1.488-3.531 1.537 3.531 1.537-4.982 1.538 4.982h10.82l1.488-3.031 1.488-2.24 1.537 5.271h10.794l1.538-9.017 1.563 9.017 1.513-2.819 1.513 2.819h13.869l1.563-2.021 1.488 2.021 1.488-2.09 1.537 2.09h1.537l1.538-2.526 1.538.238 1.563 2.287 3.078-4.205 1.539 4.205 1.538-4.931 1.563 1.5 1.488-.033 1.488-6.52 1.537-1.844 1.537 3.099 1.538-8.037 1.538 3.431 1.563 8.612 1.538-2.809 1.539 1.114 1.539-7.525 1.538-3.105 1.563 3.955 1.488 10.676 1.488-12.828 1.537 7.69 1.537 5.409 1.538-14.747 1.538 7.037 1.563 3.774 1.538-5.284 1.539-2.79 1.539-.457 1.538 3.617 1.563-5.118 1.513 6.08 1.513 3.538 1.537-5.068 1.537 2.763 1.538-8.563 1.538 8.703 1.563-.433 1.538.901 1.539-3.294 1.539-.271 1.538-1.632 1.563-2.987 1.488 9.93 1.488-4.548 1.537-2.847 1.537-.8 1.538 2.65 1.538.05 1.563-1.217 1.538-2.733 1.539 4.094 1.539 1.912 1.538-3.082 1.563 1.03 1.488-2.469 1.488.101 1.537 2.612 1.537 3.171 1.538-5.495 1.538 1.498 3.102 1.431 1.539-4.088 1.539 6.16 1.538-6.187 1.563-2.036 1.488-9.237 1.488 6.86 1.537.348 1.537 7.819 1.538-2.816 1.538-3.361 1.563 6.192 1.538-6.344 1.539 2.261 1.539 3.853 1.538-3.737 1.563-.322 1.513 1.752 1.513 3.82 1.537-1.229 1.537-.68 1.538-3.271 1.538.698 1.563-.213 1.538-.935 1.539-.786 1.539 2.781 1.538-5.379 1.563 4.901 1.488.056 1.488-2.732 1.537-5.262 1.537 8.438 1.538 2.24 1.538 1.901 1.563-6.775 1.538-1.74 1.539-.951 1.539.534 1.538 6.107 1.563-8.075 1.488 6.016 1.488-3.345 1.537 1.607 1.537-1.27 1.538 2.469 1.538-14.922 1.563 12.045 1.538-8.752 1.539 6.353 1.539-6.977 1.538 7.572 1.563-4.432 1.488-1.111 1.487 4.463 1.537-4.006 1.538 3.48 1.538-2.637 1.538 5.592 1.563.995 1.538-3.092 1.538-.239 1.539-2.337 1.539-2.895 1.563 4.206 1.513-.992 1.512-.577 1.537 1.569 1.538-3.005 1.538-1.033 1.538-.452 1.563 8.924 1.538-3.362 1.538-6.281 1.539-.994 1.539 2.459 1.563-1.8 1.488-.628 1.487 6.364 1.537-11.577 1.538 10.839 1.538-5.138 1.538 1.246 1.563-1.782 1.538 5.549 1.538-10.524 1.539 8.279 1.539.719 1.563 2.409 2.975-5.414 1.537 4.057 1.538-1.955 1.538.863 1.538-5.838 1.563 2.07 1.538-5.815 1.538 3.406 1.539 1.548 1.539.07 1.563 3.936 1.488-1.442 1.487-3.336 1.537 2.584 1.538-7.368 1.538 10.181 1.538-6.58 1.563 9.156 1.538-7.468 1.538 3.307 1.539-1.691 1.539-.654 1.563 1.291 1.513-3.614 1.512 2.298 1.537.435 1.538-4.42 1.538 2.058 1.538 3.347 1.563.325 1.538-3.374 1.538-3.069 1.539 1.893 1.539 2.442 1.563-.124 1.488-4.198 1.487 2.355 1.537 4.37 1.538-4.337 1.538-.335 1.538.155 1.563 4.733 1.538-4.455 1.538-3.64 1.539 1.486 1.539 2.534 1.563.338 1.488-4.168 1.487 1.381 1.537 2.817 1.538-.657 1.538 1.091 1.538-4.102 1.563 4.298 1.538-2.169 1.538.986 1.539-5.8 1.539 5.612 1.563-1.951 1.488-1.261 1.487.869 1.537-.455 1.538.711 1.538-.3 1.538 2.823 1.563-1.049 1.538-4.512 1.538 3.598 1.539.774 1.539-2.35 1.563 3.855 1.513-.405 1.512-1.761 1.537-.659 1.538.519 1.538 1.361 1.538-.801 1.563 3.363 1.538-4.79 1.538.823 1.539 2.79 1.539-3.938 1.563 2.861 1.488-6.74 1.487 2.387 1.537 1.456 1.538-1.767 1.538 2.55 1.538-2.203 1.563 4.317 1.538-7.224 3.078 4.746 1.539-1.102 1.563-3.779 1.488 5.665 1.487-1.812 1.537 2.412 1.538-4.381 1.538.767 1.538-.876 1.563 4.788 1.538-1.571 1.538-4.32 1.539.567 1.539 2.508 1.563-3.006 1.488 1.579 1.487-.69 1.537.821 1.538 1.234 1.538-.759" stroke="#edb120" class="F"/><path d="M12.258 382.055h1.539l1.538-181.848 1.563 181.848 1.488-121.232 1.488 121.232h9.253m3.079 0h23.023l1.513-8.659 1.537 8.659h15.383l1.488-6.062 1.537 6.062h6.177l1.538-17.319 1.539 17.319h10.691l1.538-7.347 1.538 7.347h1.563l1.538-4.18 1.539 4.18h9.154l1.537-6.011 1.538 6.011h1.538l1.563-3.749 1.538 3.749 1.539-3.464 1.539 3.464h1.538l1.563-3.082 1.513 3.082 1.513-3.006 1.537 3.006h3.075l1.538-8.591 1.563 8.591 1.538-2.91 1.539 2.91h3.078l1.563-16.164 1.488 11.782 1.488 2.292 1.537-.508 1.537-.116 1.538 2.714h1.538l1.563-3.082 1.538 3.082h1.539l1.539-2.287 1.538-2.644 1.563-1.931 1.488-3.529 1.488-3.871 1.537-2 1.537 10.444 1.538-8.368 1.538 8.125 1.563-.236 1.538-10.919 1.539 9.728 1.539-1.808 1.538-.933 1.563-1.409 1.488 5.597 1.488-2.67 1.537-4.239 1.537-2.069 1.538 5.083 1.538-.905 1.563 2.327 1.538-5.124 1.539 1.661 1.539 3.86 1.538-.34 1.563-5.353 1.513 2.942 1.513-3.976 1.537.129 1.537 1.517 1.538-.508 1.538-1.447 1.563 3.334 1.538-1.286 1.539 6.087 1.539-7.676 1.538 1.307 1.563.46 1.488-.884 1.488.986 1.537-.246 1.537-2.339 1.538 3.421 1.538-6.378 1.563 4.272 1.538.855 1.539.135 1.539 1.247 1.538-4.517 1.563 5.698 1.488-3.005 1.488.062 1.537-2.615 1.537-2.112 1.538 5.002 1.538-2.114 1.563 8.757 1.538-5.437 1.539-1.193 1.539.264 1.538-7.198 1.563 7.053 1.488-.652 1.488.978 1.537-7.786 1.537-1.178 3.076 9.035 1.563-6.475 1.538 1.996 1.539-.501 1.539 6.998 1.538-6.412 1.563-.607 1.513 1.44 1.513-4.767 1.537-7.091 1.537-.549 1.538 4.257 1.538-2.645 1.563 11.798 1.538-5.29 1.539-19.997 1.539 22.989 1.538-9.238 1.563-.356 1.488 9.001 1.488-33.216 1.537 30.895 1.537-12.789 1.538 12.491 1.538-6.44 1.563.123 1.538-.973 1.539 1.801 1.539-.814 1.538-4.271 1.563 5.572 1.488-5.953 1.488-5.134 1.537 5.902 1.537 5.43 1.538-4.444 1.538 1.297 1.563-.294 1.538 1.855 1.539-9.038 1.539 5.59 1.538.684 1.563 1.541 1.488-4.881 1.487-2.113 1.537 8.591 1.538 2.59 1.538-6.739 1.538-4.474 1.563 8.614 3.076 2.088 1.539-3.594 1.539-8.661 1.563 3.811 1.513 5.124 1.512 4.556 1.537-7.113 1.538 3.807 1.538-2.213 1.538 2.361 1.563.881 1.538-2.713 1.538 3.179 1.539-4.168 1.539.459 1.563-3.095 1.488 4.883 1.487 2.382 1.537-2.05 1.538 2.764 1.538-3.446 1.538-7.917 1.563 1.149 1.538 7.619 1.538-2.94 1.539-5.836 1.539 4.716 1.563 2.755 1.488 2.334 1.487-2.391 1.537-6.004 1.538 2.409 1.538 3.879 1.538-6.507 1.563 5.405 1.538-5.27 1.538 4.995 1.539-1.505 1.539 2.195 1.563-2.988 2.975-1.068 1.537-1.463 1.538 3.864 1.538.88 1.538-4.273 1.563 6.087 1.538-.621 1.538-3.098 1.539 1.119 1.539-1.719 1.563-1.534 1.513 1.02 1.512 2.909 1.537-1.102 1.538 3.686 1.538-3.324 1.538-2.027 1.563 4.438 1.538.137 1.538-2.6 1.539 1.243 1.539-1.62 1.563 2.293 1.488-.142 1.487 2.459 1.537-2.259 1.538-1.474 1.538-3.829 1.538 2.626 1.563 2.348 1.538-4.142 1.538.498 1.539 2.208 1.539-1.888 1.563 5.146 1.488-2.977 1.487.402 1.537-2.867 1.538 1.774 1.538 2.235 1.538-1.915 1.563 2.135 1.538.393 1.538-1.932 1.539 3.114 1.539-4.435 1.563-1.14 1.488 3.902 1.487 2.016 1.537-4.769 1.538 2.174 1.538-2.71 1.538 2.407 1.563-2.623 1.538 2.737 1.538-2.728 1.539 4.368 1.539-.704 1.563-.937 1.513 2.174 1.512-3.383 1.537 1.009 1.538.573 1.538-.479 1.538.671 1.563 1.424 1.538-2.254 1.538.065 1.539 1.979 1.539-.12 1.563-2.63 1.488 2.49 1.487 2.104 1.537-3.58 1.538 6.705 1.538-6.402 1.538-1.184 3.102 2.554 1.538.581 1.539-1.19 1.539 1.884 1.563-2.17 1.488-.313 1.487 2.135 1.537-1.903 1.538 1.817 1.538-2.983 1.538.314 1.563-.455 1.538 1.636 1.538.963 1.539 1.257 1.539-2.783 1.563 3.544 1.488.691 1.487-4.323 1.537 1.374 1.538.18 1.538-.816" stroke="#7e2f8e" class="F"/><path d="M12.258 382.055h16.869m3.079 0l1.538-90.924 1.563 90.924h12.228l1.539-33.063 1.539 33.063 1.538-64.182 1.563 9.627 1.513 45.684 1.513-25.767 1.537 34.638h1.537l1.538-31.174 1.538 31.174 1.563-25.978 1.538 7.793 1.539-13.906 1.539 32.091 1.538-15.154 1.563 15.154h1.488l1.488-24.246 1.537 3.464 1.537 5.306 1.538-1.055 1.538 16.532 1.563-6.862 1.538-4.684 1.539-6.052h1.539l1.538 12.683 1.563-.513 1.488-.167 1.488-8.529 1.537 9.275 1.537-5.115 1.538-30.446 1.538-62.17 1.563 74.604 1.538-5.467 1.539-.653 1.539-13.342 1.538 20.498 1.563-6.735 1.488-5.725 1.488-26.487 1.537 39.275 1.537-6.451 1.538-5.691 1.538.287 1.563-40.27 1.538 53.364 1.539-16.191 1.539-21.937 1.538 21.422 1.563-13.398 1.513 10.369 1.513-21.017 1.537 22.19 1.537 10.873 1.538-17.295 1.538 7.402 1.563 1.56 1.538-10.976 1.539-21.851 1.539 21.55 1.538-8.306 1.563 24.609 1.488-24.977 1.488-1.36 1.537 2.956 1.537 19.038 1.538-12.327 1.538-15.583 1.563 6.978 1.538 1.716 1.539-36.778 1.539 39.52 1.538 17.733 1.563-5.152 1.488 4.771 1.488 1.324 1.537.07 1.537-.84 1.538 5.747 1.538-16.173 1.563.897 1.538 21.907 1.539-10.539 1.539 14.2 1.538-18.813 1.563-3.046 1.488 1.6 1.488-2.236 1.537 15.516 1.537-10.55 1.538 12.945 1.538-.759 1.563-10.341 1.538-3.128 1.539-1.504 1.539 5.401 1.538 11.09 1.563-17.821 1.513 4.755 3.05 4.393 1.537-.924 1.538 4.68 1.538-8.067 1.563 14.591 1.538-14.679 1.539 5.682 1.539-.077 1.538 11.476 1.563-10.555 1.488-.456 1.488 5.668 1.537-13.122 1.537 3.765 1.538 4.185 1.538 5.101 1.563-2.542 1.538-5.18 1.539 1.462 1.539-4.142 1.538-3.433 1.563-1.664 1.488 11.562 1.488-3.008 1.537-.954 1.537 2.294 1.538 3.379 1.538 5.666 1.563-13.517 1.538 11.1 1.539-2.438 1.539-11.576 1.538 18.942 1.563-8.506 1.488-6.793 1.488 5.877 1.537 2.809 1.537-6.768 3.076 5.46 1.563-3.141 1.538 13.404 1.539-16.328 1.539-.641 1.538 16.313 1.563-5.893 1.513-11.81 1.513 7.665 1.537 4.743 1.537-6.545 1.538-4.5 1.538 6.239 1.563.185 1.538 3.322 1.539 4.838 1.539-6.746 1.538-.836 1.563-.451 1.488 2.209 1.488 8.153 1.537-15.261 1.537 4.21 1.538 1.784 1.538 5.666 1.563.758 1.538-.214 1.539-6.527 3.078 8.411 1.563-1.612 1.488-5.964 1.488 3.192 1.537-7.373 1.537-.582 1.538 8.407 1.538 5.684 1.563-6.757 1.538-3.011 1.539 3.473 1.539-.279 1.538-6.708 1.563 7.466 1.488-2.726 1.487-.799 1.537 2.17 1.538 3.656 1.538-2.334 1.538.775 1.563-1.579 1.538-.809 1.538-1.691 1.539 4.013 1.539 1.708 1.563.643 1.513-3.324 1.512 1.796 1.537-5.348 1.538 6.004 1.538-4.543 1.538 2.594 1.563-4.212 1.538 4.344 1.538-2.586 1.539 5.438 1.539-4.069 1.563 6.402 1.488-7.084 1.487 4.397 1.537-2.513 1.538 2.259 1.538-3.507 1.538 1.735 1.563-5.498 1.538 4.801 1.538-.748 1.539 3.962 1.539-7.243 1.563 7.325 1.488 1.493 1.487-8.222 1.537 4.245 1.538 5.353 1.538-.885 1.538-2.406 1.563.595 1.538-.569 1.538-3.341 1.539 2.449 1.539-.433 1.563 3.764 1.488-.015 1.487-1.974 1.537-3.032 1.538 1.072 1.538 4.842 1.538-1.838 1.563-3.049 1.538.003 1.538.73 1.539-.828 1.539 4.032 1.563-3.228 1.513 7.764 1.512-6.432 1.537-1.423 1.538-.308 1.538.255 1.538.078 1.563 4.065 1.538-2.285 1.538.283 1.539-1.691 1.539 1.598 1.563-1.211 1.488-1.48 1.487 5.022 1.537 1.137 1.538-6.541 1.538 4.828 1.538-.604 3.102 1.778 1.538-3.199 1.539-2.075 1.539 3.264 1.563-.631 1.488 1.282 1.487 2.429 3.075-3.417 1.538 2.105 1.538.023 1.563-4.446 1.538 5.349 1.538-3.364 1.539-4.639 1.539 6.04 1.563-.964 1.488.11 1.487-3.298 1.537 3 1.538-1.238 1.538 3.681 1.538-.23 1.563.063 1.538 2.688 1.538-2.515 1.539-1.851 1.539 1.207 1.563.753 1.513 1.325 1.512.273 1.537-4.654 1.538 1.653 1.538 2.907 1.538-3.727 1.563 4.239 1.538-.428 1.538-3.949 1.539 3.033 1.539.892 1.563-2.804 1.488 1.983 1.487-.792 1.537 1.22 1.538-1.559 1.538 1.328 1.538-.304 1.563.254 1.538-3.669 1.538 3.192 1.539.245 1.539-2.619 1.563 2.635 2.975-.15 1.537.684 1.538-1.28 1.538 1.132 1.538-.388 1.563-1.455 1.538 2.067 1.538-.802 3.079.563 1.563-.943 1.488 1.761 1.487-1.019 1.537.02 1.538 1.162 1.538.973" stroke="#77ac30" class="F"/><path d="M12.258 382.055h16.869m3.079 0h23.023l1.513-25.978 1.537 25.978h1.537l1.538-10.391 1.538 10.391h1.563l1.538-6.062 1.539 6.062h6.129l1.488-6.062 1.537 6.062h1.537l1.538-5.511 1.538 5.511h15.332l1.538-7.347 1.538-1.978 1.563 9.326 1.538-12.541 1.539 8.753 1.539-6.753 1.538-2.928 1.563 13.47 1.488-3.031 1.488-10.147 1.537 13.177 1.537-3.006 1.538.025 1.538-7.51 1.563-.757 1.538 7.019 1.539.765 1.539.577 3.102-.196 1.513-2.557 1.513 5.639 1.537-4.882 1.537-.205 1.538 5.087h3.102l1.538-5.819 1.539.871 1.539-.068 1.538.661 1.563-3.726 1.488 8.082h3.025l1.537-5.428 1.538 2.903 1.538-8.911 1.563 2.19 1.538 5.114 1.539-4.276 1.539 3.834 1.538 2.109 1.563-6.112 1.488 3.382 3.025-9.589 1.537 8.965 1.538-5.788 1.538.696 1.563-9.557 1.538-1.053 1.539 10.824 3.078-8.624 1.563 1.864 1.488 4.166 1.488-1.954 1.537 5.532 1.537.057 1.538-7.237 1.538 3.094 1.563.419 1.538-11.624 1.539 9.759 1.539.632 1.538.234 1.563 5.171 1.513-6.678 1.513-2.67 1.537 11.198 1.537-9.507 1.538-2.325 1.538 9.448 1.563-2.078 1.538-3.743 1.539-1.664 1.539 4.002 1.538-16.525 1.563 19.408 1.488-3.469 1.488-2.679 1.537-1.964 1.537-3.892 1.538 8.757 1.538 3.486 1.563-2.115 1.538-3.672 1.539-2.459 1.539 5.171 1.538-1.152 1.563-1.374 1.488-2.301 3.025-.83 1.537 6.383 3.076-11.108 1.563 10.989 1.538-10.128 1.539-3.97 1.539 8.641 1.538.574 1.563.216 1.488-3.564 1.488 5.11 1.537-13.442 1.537 2.598 1.538 11.764 1.538-1.784 1.563-2.022 1.538 1.282 3.079-8.189 1.538 6.009 1.563-4.107 1.513 4.796 1.513-1.935 1.537-6.249 1.537 5.189 1.538 1.471 1.538.246 1.563-5.912 1.538-2.201 1.539 12.366 1.539-5.04 1.538-2.795 1.563 5.61 1.488-7.94 1.488 4.057 1.537 4.564 1.537-.191 1.538-.817 1.538-2.803 1.563-1.564 1.538 2.975 1.539.668 1.539-4.264 1.538.879 1.563-.259 1.488 3.273 1.488.971 1.537-1.639 1.537 2.302 1.538-5.772 1.538 2.446 1.563-.294 1.538 2.552 1.539-1.684 1.539 1.859 1.538-.197 1.563 2.273 1.488.513 1.487-5.704 1.537 8.989 1.538-5.555 1.538-3.226 1.538-1.091 1.563 1.12 1.538-.489 1.538-.66 1.539 2.132 1.539-1.087 1.563.449 1.513-1.225 1.512-1.986 1.537 7.723 1.538-1.469 1.538-.539 1.538-3.032 1.563-1.767 1.538 7.148 1.538-4.161 1.539-2.65 1.539 3.986 1.563 2.659 1.488-1.545 1.487-.465 1.537 1.351 1.538-2.958 1.538 2.367 1.538-6.659 1.563 4.68 1.538-2.616 1.538 2.184 1.539-1.18 1.539-4.356 1.563 2.925 1.488 3.478 1.487-1.102 1.537-1.86 1.538.202 1.538.91 1.538 2.847 1.563-5.562 1.538 7.228 1.538-3.869 1.539 3.73 1.539-4.27 1.563 2.885 1.488-3.597 1.487.397 1.537 2.752 1.538-3.258 1.538-1.054 1.538 4.175 1.563-5.89 1.538 5.197 1.538.715 1.539-2.367 1.539 1.774 1.563-.213 1.513-4.955 1.512 4.573 1.537-.879 1.538-1.041 1.538 3.47 1.538-.152 1.563-6.524 1.538 5.575 1.538.728 1.539-2.457 1.539.366 1.563-.744 1.488 3.369 4.562-1.676 1.538-1.573 1.538-1.768 1.563 2.648 1.538-1.542 1.538.252 1.539-.072 1.539.417 1.563-.201 1.488-1.546 1.487 3.816 1.537-1.611 1.538 2.356 1.538-.884 1.538-2.627 1.563.573 1.538-3.623 1.538 5.141 1.539 1.128 1.539-1.414 1.563 1.294 1.488.681 1.487-1.747 1.537-.69 1.538 1.533 1.538-1.322 1.538 1.033 1.563-.846 1.538 3.01 1.538-4.125 1.539-2.492 1.539 3.41 1.563-1.495 1.513-.435 1.512.359 1.537-.376 1.538 2.396 1.538-1.926 1.538 3.327 1.563-4.963 1.538.142 1.538 2.774 1.539-.056 1.539 1.848 1.563-1.779 1.488.864 1.487-2.038 1.537 3.28 1.538-.428 1.538-3.772 1.538.084 1.563 3.334 1.538-.67 1.538-1.439 1.539 1.779 1.539 1.548 1.563-2.14 1.488 1.264 1.487-.053 1.537 1.353 1.538-2.642 1.538-1.501 1.538 2.995 1.563 1.052 1.538-6.221 3.078 4.351 1.539-.582 1.563.502 1.488 1.346 3.024-.043 1.538 1.674 1.538-1.252" stroke="#4dbeee" class="F"/></g><g class="H K"><path d="M56.293 400.24V18.36M559.44 400.24V18.36"/><path d="M56.293 400.24H559.44M56.293 18.36H559.44"/></g></g><path d="M364.363 153.466H552.24V25.56H364.363z" fill="#fff" class="H K"/><path d="M370.123 36.587h28.8" stroke="#0072bd" class="D E J"/><defs><path d="M58.797 25.094l9.469-2.391Q65.281 11.031 57.547 4.906q-7.734-6.125-18.922-6.125-11.578 0-18.828 4.703-7.25 4.719-11.031 13.656-3.781 8.938-3.781 19.188 0 11.188 4.266 19.5 4.281 8.328 12.156 12.641 7.891 4.328 17.359 4.328 10.75 0 18.063-5.469 7.328-5.469 10.219-15.375l-9.328-2.203q-2.5 7.813-7.234 11.375-4.734 3.578-11.906 3.578-8.25 0-13.797-3.969-5.547-3.953-7.797-10.625-2.234-6.656-2.234-13.734 0-9.125 2.656-15.937 2.656-6.812 8.266-10.187 5.625-3.359 12.172-3.359 7.953 0 13.469 4.578 5.531 4.594 7.484 13.625z" id="X" class="B C"/><path d="M6.594 0v51.859h7.859v-7.281q2.438 3.813 6.484 6.125 4.063 2.328 9.234 2.328 5.766 0 9.453-2.391 3.688-2.391 5.203-6.687 6.156 9.078 16.016 9.078 7.719 0 11.859-4.281 4.156-4.266 4.156-13.156V0h-8.75v32.672q0 5.266-.859 7.578-.844 2.328-3.094 3.734-2.234 1.422-5.266 1.422-5.469 0-9.094-3.641-3.609-3.625-3.609-11.641V0h-8.781v33.688q0 5.859-2.156 8.781-2.141 2.938-7.031 2.938-3.703 0-6.859-1.953-3.141-1.953-4.562-5.719-1.422-3.75-1.422-10.828V0z" id="Y" class="B C"/><path d="M14.703 0H6.547v71.578h8.781V46.047q5.578 6.984 14.219 6.984 4.781 0 9.047-1.937 4.281-1.922 7.031-5.422 2.766-3.484 4.328-8.422 1.563-4.922 1.563-10.547 0-13.328-6.594-20.609-6.594-7.266-15.812-7.266-9.187 0-14.406 7.672zm-.109 26.313q0-9.312 2.547-13.469 4.156-6.781 11.234-6.781 5.75 0 9.953 5 4.203 5 4.203 14.922 0 10.156-4.031 14.984-4.031 4.828-9.734 4.828-5.766 0-9.969-5-4.203-5-4.203-14.484z" id="Z" class="B C"/></defs><g transform="matrix(.144 0 0 -.144 410.44275 41.62725)"><use xlink:href="#X"/><use x="72.217" xlink:href="#R"/><use x="127.832" xlink:href="#Y"/><use x="211.133" xlink:href="#Z"/><use x="266.748" xlink:href="#Q"/><use x="288.965" xlink:href="#S"/><use x="344.58" xlink:href="#N"/><use x="400.195" xlink:href="#P"/><use x="427.979" xlink:href="#R"/><use x="483.594" xlink:href="#M"/><use x="516.895" xlink:href="#Q"/><use x="539.111" xlink:href="#O"/><use x="589.111" xlink:href="#W"/></g><path d="M370.123 57.132h28.8" stroke="#d95319" class="D E J"/><defs><path d="M-.141 0l27.484 71.578h10.203L66.844 0H56.063l-8.359 21.688H17.781L9.906 0zm20.656 29.391h24.266l-7.469 19.828q-3.422 9.031-5.078 14.844-1.375-6.891-3.859-13.672z" id="a" class="B C"/><path d="M6.391 0v71.578h8.797V0z" id="b" class="B C"/><path d="M4.984-4.297l8.547-1.266q.531-3.953 2.969-5.766 3.281-2.437 8.938-2.437 6.109 0 9.422 2.438 3.328 2.438 4.5 6.828.688 2.688.625 11.281Q34.234 0 25.641 0 14.938 0 9.078 7.719q-5.859 7.719-5.859 18.5 0 7.422 2.688 13.688 2.688 6.281 7.781 9.703 5.109 3.422 12 3.422 9.172 0 15.141-7.422v6.25h8.094V7.031q0-12.109-2.469-17.156-2.453-5.062-7.812-7.984-5.344-2.937-13.156-2.937-9.266 0-14.984 4.172-5.719 4.172-5.516 12.578zm7.266 31.156q0-10.203 4.047-14.891 4.063-4.687 10.172-4.687 6.047 0 10.141 4.656 4.109 4.672 4.109 14.625 0 9.516-4.219 14.344-4.219 4.844-10.187 4.844-5.859 0-9.969-4.766-4.094-4.75-4.094-14.125z" id="c" class="B C"/><path d="M41.219 28.078v8.391l30.313.063V9.969q-6.984-5.578-14.406-8.391-7.422-2.797-15.234-2.797-10.547 0-19.172 4.516-8.609 4.516-13 13.063-4.391 8.547-4.391 19.094 0 10.453 4.359 19.5 4.375 9.063 12.578 13.453 8.203 4.391 18.891 4.391 7.766 0 14.031-2.516 6.281-2.5 9.844-7 3.578-4.484 5.422-11.719l-8.531-2.344q-1.625 5.469-4.016 8.594-2.391 3.125-6.844 5-4.437 1.891-9.844 1.891-6.5 0-11.234-1.984-4.734-1.969-7.641-5.203-2.906-3.219-4.516-7.078-2.734-6.641-2.734-14.406 0-9.562 3.297-16.016 3.297-6.437 9.594-9.562 6.297-3.125 13.375-3.125 6.156 0 12.016 2.359 5.859 2.375 8.875 5.063v13.328z" id="d" class="B C"/><path d="M6.203-19.969l-.984 8.25q2.891-.781 5.031-.781 2.938 0 4.688.984 1.766.969 2.891 2.719.828 1.328 2.688 6.547.234.734.781 2.156L1.609 51.859h9.469l10.797-30.031q2.094-5.719 3.766-12.016 1.516 6.063 3.609 11.813l11.078 30.234h8.797L29.391-.875q-3.172-8.547-4.922-11.766-2.344-4.359-5.375-6.375-3.031-2.031-7.234-2.031-2.531 0-5.656 1.078z" id="e" class="B C"/></defs><g transform="matrix(.144 0 0 -.144 410.44275 62.172)"><use xlink:href="#a"/><use x="66.699" xlink:href="#b"/><use x="88.916" xlink:href="#c"/><use x="144.531" xlink:href="#V"/><use x="200.146" xlink:href="#Z"/><use x="255.762" xlink:href="#M"/><use x="289.063" xlink:href="#N"/><use x="344.678" xlink:href="#Q"/><use x="366.895" xlink:href="#O"/><use x="416.895" xlink:href="#AS"/><use x="444.678" xlink:href="#d"/><use x="522.461" xlink:href="#V"/><use x="578.076" xlink:href="#R"/><use x="633.691" xlink:href="#Y"/><use x="716.992" xlink:href="#V"/><use x="772.607" xlink:href="#P"/><use x="800.391" xlink:href="#M"/><use x="833.691" xlink:href="#e"/></g><path d="M370.123 77.846h28.8" stroke="#edb120" class="D E J"/><defs><path d="M7.719 0v71.578h27q7.125 0 10.891-.672 5.266-.891 8.828-3.359 3.578-2.453 5.75-6.906 2.172-4.437 2.172-9.766 0-9.125-5.812-15.453-5.812-6.312-21-6.312H17.188V0zm9.469 37.547h18.5q9.188 0 13.047 3.422 3.859 3.422 3.859 9.625 0 4.484-2.281 7.672-2.266 3.203-5.969 4.234-2.406.641-8.844.641H17.188z" id="f" class="B C"/><path d="M7.719 0v71.578h24.656q8.344 0 12.75-1.016 6.141-1.422 10.484-5.125 5.672-4.797 8.469-12.25 2.813-7.437 2.813-17 0-8.156-1.906-14.453-1.891-6.297-4.875-10.437-2.984-4.125-6.531-6.5-3.531-2.359-8.531-3.578Q40.047 0 33.547 0zm9.469 8.453h15.281q7.078 0 11.109 1.313 4.031 1.313 6.422 3.719 3.375 3.359 5.25 9.047 1.875 5.688 1.875 13.797 0 11.234-3.687 17.266-3.687 6.031-8.953 8.078-3.812 1.469-12.25 1.469H17.188z" id="g" class="B C"/><path d="M7.906 0v71.578h51.766v-8.437H17.391V41.219h39.594v-8.406H17.391V8.453h43.938V0z" id="h" class="B C"/></defs><g transform="matrix(.144 0 0 -.144 410.44275 82.8855)"><use xlink:href="#a"/><use x="66.699" xlink:href="#S"/><use x="122.314" xlink:href="#N"/><use x="177.93" xlink:href="#b"/><use x="200.146" xlink:href="#e"/><use x="250.146" xlink:href="#W"/><use x="300.146" xlink:href="#Q"/><use x="322.363" xlink:href="#W"/><use x="372.363" xlink:href="#AS"/><use x="400.146" xlink:href="#R"/><use x="455.762" xlink:href="#T"/><use x="483.545" xlink:href="#AS"/><use x="511.328" xlink:href="#f"/><use x="578.027" xlink:href="#g"/><use x="650.244" xlink:href="#h"/><use x="716.943" xlink:href="#W"/></g><path d="M370.123 98.384h28.8" stroke="#7e2f8e" class="D E J"/><g transform="matrix(.144 0 0 -.144 410.44275 103.4235)"><use xlink:href="#f"/><use x="66.699" xlink:href="#M"/><use x="100" xlink:href="#R"/><use x="155.615" xlink:href="#Z"/><use x="211.23" xlink:href="#N"/><use x="266.846" xlink:href="#Z"/><use x="322.461" xlink:href="#Q"/><use x="344.678" xlink:href="#b"/><use x="366.895" xlink:href="#Q"/><use x="389.111" xlink:href="#P"/><use x="416.895" xlink:href="#e"/></g><path d="M370.123 119.097h28.8" stroke="#77ac30" class="D E J"/><g transform="matrix(.144 0 0 -.144 410.44275 124.137)"><use xlink:href="#g"/><use x="72.217" xlink:href="#Q"/><use x="94.434" xlink:href="#T"/><use x="122.201" xlink:href="#T"/><use x="149.984" xlink:href="#V"/><use x="205.6" xlink:href="#M"/><use x="238.9" xlink:href="#V"/><use x="294.516" xlink:href="#S"/><use x="350.131" xlink:href="#P"/><use x="377.914" xlink:href="#Q"/><use x="400.131" xlink:href="#N"/><use x="455.746" xlink:href="#b"/><use x="477.963" xlink:href="#AS"/><use x="505.746" xlink:href="#d"/><use x="583.529" xlink:href="#V"/><use x="639.145" xlink:href="#R"/><use x="694.76" xlink:href="#Y"/><use x="778.061" xlink:href="#V"/><use x="833.676" xlink:href="#P"/><use x="861.459" xlink:href="#M"/><use x="894.76" xlink:href="#e"/></g><path d="M370.123 139.635h28.8" stroke="#4dbeee" class="D E J"/><defs><path d="M7.625 0v71.578h9.703l37.609-56.203v56.203h9.078V0h-9.719L16.703 56.25V0z" id="i" class="B C"/><path d="M40.578 0v7.625q-6.062-8.797-16.453-8.797-4.594 0-8.578 1.75Q11.578 2.344 9.641 5q-1.922 2.672-2.703 6.531-.547 2.578-.547 8.203v32.125h8.797V23.094q0-6.875.531-9.281.828-3.453 3.516-5.437 2.688-1.984 6.641-1.984 3.953 0 7.422 2.031 3.469 2.031 4.906 5.516 1.453 3.5 1.453 10.141v27.781h8.781V0z" id="j" class="B C"/><path d="M25.922 0v63.141H2.344v8.438h56.734v-8.437H35.406V0z" id="k" class="B C"/><path d="M6.594 0v71.578h8.781V45.906q6.156 7.125 15.531 7.125 5.766 0 10.016-2.281 4.25-2.266 6.078-6.266 1.828-4 1.828-11.625V0h-8.781v32.859q0 6.594-2.859 9.594-2.859 3-8.078 3-3.906 0-7.359-2.031-3.437-2.016-4.906-5.484-1.469-3.469-1.469-9.562V0z" id="l" class="B C"/></defs><g transform="matrix(.144 0 0 -.144 410.44275 144.675)"><use xlink:href="#i"/><use x="72.217" xlink:href="#j"/><use x="127.832" xlink:href="#Y"/><use x="211.133" xlink:href="#Z"/><use x="266.748" xlink:href="#V"/><use x="322.363" xlink:href="#M"/><use x="355.664" xlink:href="#AS"/><use x="383.432" xlink:href="#k"/><use x="444.516" xlink:href="#l"/><use x="500.131" xlink:href="#V"/><use x="555.746" xlink:href="#R"/><use x="611.361" xlink:href="#M"/><use x="644.662" xlink:href="#e"/></g><defs><clipPath id="m"><path d="M56.293 18.36H559.44v381.88H56.293z" class="B C"/></clipPath></defs></svg>