<svg xmlns="http://www.w3.org/2000/svg" xmlns:xlink="http://www.w3.org/1999/xlink" height="576" viewBox="0 0 576 432" width="768" stroke-linecap="butt" stroke-linejoin="round" xmlns:v="https://vecta.io/nano"><style><![CDATA[.B{stroke-linecap:butt}.C{stroke-linejoin:round}.D{stroke-linecap:square}.E{fill:none}.F{clip-path:url(#p)}.G{stroke-width:.5}.H{stroke:#000}.I{stroke:#b2b2b2}.J{stroke-width:1.5}.K{stroke-linejoin:miter}]]></style><g fill="#fff"><path d="M0 432h576V0H0z"/><path d="M56.293 400.24H559.44V18.36H56.293z"/></g><path d="M108.209 400.24V18.36" class="D E F G I"/><defs><path d="M0 0v4" id="A" class="B C G H"/></defs><use x="108.209" xlink:href="#A" y="400.24" class="G H"/><defs><path d="M37.25 0h-8.781v56q-3.172-3.016-8.328-6.047-5.156-3.031-9.25-4.547v8.5q7.375 3.469 12.891 8.391 5.516 4.938 7.813 9.578h5.656z" id="B" class="B C"/><path d="M5.469 16.547l8.453.781q1.063-5.953 4.094-8.641Q21.047 6 25.781 6q4.047 0 7.094 1.859 3.063 1.859 5.016 4.953 1.953 3.109 3.266 8.375 1.328 5.281 1.328 10.75 0 .578-.047 1.75-2.641-4.187-7.203-6.812-4.562-2.609-9.891-2.609-8.891 0-15.047 6.438-6.141 6.453-6.141 17 0 10.891 6.422 17.531Q17 71.875 26.656 71.875q6.984 0 12.766-3.766 5.797-3.75 8.797-10.719 3-6.953 3-20.141 0-13.719-2.984-21.844-2.969-8.125-8.859-12.375-5.875-4.25-13.781-4.25-8.406 0-13.734 4.656-5.312 4.672-6.391 13.109zm35.984 31.594q0 7.578-4.031 12.016-4.016 4.438-9.687 4.438-5.859 0-10.203-4.781-4.344-4.781-4.344-12.406 0-6.828 4.125-11.109 4.125-4.266 10.172-4.266 6.109 0 10.031 4.266 3.938 4.281 3.938 11.844z" id="C" class="B C"/><path d="M4.156 18.75l9.219.781q1.031-6.734 4.766-10.141Q21.875 6 27.156 6q6.344 0 10.734 4.781 4.391 4.797 4.391 12.703 0 7.516-4.219 11.859Q33.844 39.703 27 39.703q-4.25 0-7.672-1.937-3.406-1.922-5.359-5l-8.25 1.078 6.922 36.766H48.25v-8.406H19.672l-3.844-19.234q6.438 4.5 13.516 4.5 9.375 0 15.813-6.5 6.453-6.5 6.453-16.703 0-9.719-5.656-16.797-6.891-8.687-18.797-8.687-9.766 0-15.953 5.469-6.172 5.469-7.047 14.5z" id="D" class="B C"/></defs><g transform="matrix(.12 0 0 -.12 94.86319 416.829375)"><use xlink:href="#B"/><use x="55.615" xlink:href="#C"/><use x="111.23" xlink:href="#C"/><use x="166.846" xlink:href="#D"/></g><g class="G"><path d="M200.302 400.24V18.36" class="D E F I"/><use x="200.302" xlink:href="#A" y="400.24" class="H"/></g><defs><path d="M50.344 8.453V0H3.031q-.094 3.172 1.016 6.109 1.813 4.828 5.781 9.516 3.984 4.688 11.516 10.844 11.672 9.563 15.766 15.156 4.109 5.594 4.109 10.578 0 5.219-3.75 8.797-3.734 3.594-9.734 3.594-6.344 0-10.156-3.812-3.812-3.797-3.859-10.531l-9.031.922q.922 10.109 6.969 15.406 6.063 5.297 16.281 5.297 10.297 0 16.297-5.719Q50.25 60.453 50.25 52q0-4.297-1.766-8.453-1.75-4.141-5.828-8.734-4.078-4.594-13.547-12.594-7.922-6.641-10.172-9.016-2.234-2.359-3.703-4.75z" id="E" class="B C"/><path d="M4.156 35.297q0 12.703 2.609 20.438 2.609 7.75 7.75 11.938 5.156 4.203 12.969 4.203 5.766 0 10.109-2.328 4.344-2.312 7.172-6.687 2.844-4.359 4.453-10.641 1.609-6.266 1.609-16.922 0-12.594-2.594-20.328Q45.656 7.234 40.5 3q-5.141-4.219-13.016-4.219-10.344 0-16.25 7.422-7.078 8.938-7.078 29.094zm9.031 0q0-17.625 4.125-23.469Q21.438 6 27.484 6q6.063 0 10.188 5.859 4.125 5.859 4.125 23.438 0 17.688-4.125 23.484-4.125 5.813-10.281 5.813-6.047 0-9.672-5.125-4.531-6.531-4.531-24.172z" id="F" class="B C"/></defs><g transform="matrix(.12 0 0 -.12 186.955605 416.829375)"><use xlink:href="#E"/><use x="55.615" xlink:href="#F"/><use x="111.23" xlink:href="#F"/><use x="166.846" xlink:href="#F"/></g><g class="G"><path d="M292.445 400.24V18.36" class="D E F I"/><use x="292.445" xlink:href="#A" y="400.24" class="H"/></g><g transform="matrix(.12 0 0 -.12 279.098455 416.829375)"><use xlink:href="#E"/><use x="55.615" xlink:href="#F"/><use x="111.23" xlink:href="#F"/><use x="166.846" xlink:href="#D"/></g><g class="G"><path d="M384.537 400.24V18.36" class="D E F I"/><use x="384.537" xlink:href="#A" y="400.24" class="H"/></g><g transform="matrix(.12 0 0 -.12 371.19087 416.829375)"><use xlink:href="#E"/><use x="55.615" xlink:href="#F"/><use x="111.23" xlink:href="#B"/><use x="166.846" xlink:href="#F"/></g><g class="G"><path d="M476.63 400.24V18.36" class="D E F I"/><use x="476.63" xlink:href="#A" y="400.24" class="H"/></g><g transform="matrix(.12 0 0 -.12 463.283285 416.829375)"><use xlink:href="#E"/><use x="55.615" xlink:href="#F"/><use x="111.23" xlink:href="#B"/><use x="166.846" xlink:href="#D"/></g><path d="M56.293 382.055H559.44" class="D E F G I"/><defs><path d="M0 0h-4" id="G" class="B C G H"/></defs><use x="56.293" xlink:href="#G" y="382.055" class="G H"/><defs><path d="M9.078 0v10.016h10.016V0z" id="H" class="B C"/></defs><g transform="matrix(.12 0 0 -.12 31.612813 385.157426)"><use xlink:href="#F"/><use x="55.615" xlink:href="#H"/><use x="83.398" xlink:href="#F"/></g><g class="G"><path d="M56.293 309.316H559.44" class="D E F I"/><use x="56.293" xlink:href="#G" y="309.316" class="H"/></g><g transform="matrix(.12 0 0 -.12 31.612813 312.418378)"><use xlink:href="#F"/><use x="55.615" xlink:href="#H"/><use x="83.398" xlink:href="#E"/></g><g class="G"><path d="M56.293 236.577H559.44" class="D E F I"/><use x="56.293" xlink:href="#G" y="236.577" class="H"/></g><defs><path d="M32.328 0v17.141H1.266v8.063l32.672 46.375h7.172V25.203h9.672v-8.062h-9.672V0zm0 25.203v32.266L9.906 25.203z" id="I" class="B C"/></defs><g transform="matrix(.12 0 0 -.12 31.612813 239.67933)"><use xlink:href="#F"/><use x="55.615" xlink:href="#H"/><use x="83.398" xlink:href="#I"/></g><g class="G"><path d="M56.293 163.838H559.44" class="D E F I"/><use x="56.293" xlink:href="#G" y="163.838" class="H"/></g><defs><path d="M49.75 54.047l-8.734-.672q-1.172 5.172-3.312 7.516-3.578 3.766-8.797 3.766-4.203 0-7.375-2.344-4.141-3.031-6.547-8.844-2.391-5.812-2.484-16.547 3.172 4.828 7.766 7.172 4.594 2.344 9.625 2.344 8.781 0 14.953-6.469 6.188-6.469 6.188-16.719 0-6.75-2.906-12.531-2.906-5.781-7.984-8.859-5.078-3.078-11.531-3.078-10.984 0-17.922 8.078Q3.766 14.938 3.766 33.5q0 20.75 7.656 30.172 6.688 8.203 18.016 8.203 8.453 0 13.844-4.734 5.406-4.734 6.469-13.094zM13.875 23.188q0-4.531 1.922-8.687 1.922-4.141 5.391-6.328Q24.656 6 28.469 6q5.563 0 9.563 4.484 4.016 4.5 4.016 12.219 0 7.422-3.969 11.688-3.953 4.281-9.953 4.281-5.953 0-10.109-4.281-4.141-4.266-4.141-11.203z" id="J" class="B C"/></defs><g transform="matrix(.12 0 0 -.12 31.612813 166.940283)"><use xlink:href="#F"/><use x="55.615" xlink:href="#H"/><use x="83.398" xlink:href="#J"/></g><g class="G"><path d="M56.293 91.099H559.44" class="D E F I"/><use x="56.293" xlink:href="#G" y="91.099" class="H"/></g><defs><path d="M17.672 38.813q-5.469 2.016-8.109 5.719-2.625 3.719-2.625 8.891 0 7.813 5.609 13.125 5.625 5.328 14.938 5.328 9.375 0 15.094-5.453 5.719-5.437 5.719-13.25 0-4.984-2.625-8.672-2.609-3.672-7.922-5.687 6.594-2.141 10.031-6.937 3.438-4.781 3.438-11.422 0-9.172-6.5-15.422-6.484-6.25-17.078-6.25-10.594 0-17.094 6.266-6.5 6.281-6.5 15.656 0 6.984 3.547 11.688 3.547 4.719 10.078 6.422zm-1.75 14.906q0-5.078 3.266-8.312 3.281-3.219 8.5-3.219 5.078 0 8.328 3.188 3.25 3.203 3.25 7.844 0 4.844-3.359 8.141-3.344 3.297-8.312 3.297-5.031 0-8.359-3.234-3.312-3.219-3.312-7.703zm-2.828-33.062q0-3.766 1.781-7.281 1.781-3.516 5.297-5.453Q23.688 6 27.734 6q6.297 0 10.391 4.047 4.109 4.063 4.109 10.313 0 6.344-4.219 10.5-4.219 4.156-10.578 4.156-6.203 0-10.281-4.109-4.062-4.094-4.062-10.25z" id="K" class="B C"/></defs><g transform="matrix(.12 0 0 -.12 31.612813 94.201235)"><use xlink:href="#F"/><use x="55.615" xlink:href="#H"/><use x="83.398" xlink:href="#K"/></g><g class="G"><path d="M56.293 18.36H559.44" class="D E F I"/><use x="56.293" xlink:href="#G" y="18.36" class="H"/></g><g transform="matrix(.12 0 0 -.12 31.612813 21.462187)"><use xlink:href="#B"/><use x="55.615" xlink:href="#H"/><use x="83.398" xlink:href="#F"/></g><defs><path d="M8.203 0v71.578H56.5v-8.437H17.672V40.969h33.594v-8.453H17.672V0z" id="L" class="B C"/><path d="M6.5 0v51.859h7.906V44q3.031 5.516 5.594 7.266 2.563 1.766 5.641 1.766 4.438 0 9.031-2.828l-3.031-8.156q-3.219 1.906-6.437 1.906-2.891 0-5.187-1.734-2.297-1.734-3.266-4.812-1.469-4.687-1.469-10.25V0z" id="M" class="B C"/><path d="M40.438 6.391Q35.547 2.25 31.031.531q-4.516-1.703-9.687-1.703-8.547 0-13.141 4.172-4.594 4.172-4.594 10.672 0 3.813 1.734 6.953 1.734 3.156 4.547 5.063 2.813 1.906 6.328 2.875 2.578.688 7.813 1.328 10.641 1.266 15.672 3.016.047 1.813.047 2.297 0 5.375-2.5 7.578-3.359 2.969-10 2.969-6.203 0-9.156-2.172-2.953-2.172-4.375-7.687l-8.594 1.172q1.172 5.516 3.859 8.906 2.688 3.391 7.766 5.219 5.078 1.844 11.766 1.844 6.641 0 10.781-1.562 4.156-1.562 6.109-3.937 1.953-2.359 2.734-5.984.438-2.234.438-8.094V21.734q0-12.266.563-15.516.563-3.234 2.234-6.219h-9.187q-1.359 2.734-1.75 6.391zm-.734 19.641q-4.797-1.953-14.359-3.328-5.422-.781-7.672-1.766-2.234-.969-3.469-2.844-1.219-1.875-1.219-4.172 0-3.516 2.656-5.859 2.672-2.344 7.797-2.344 5.078 0 9.031 2.219 3.953 2.219 5.813 6.078 1.422 2.984 1.422 8.781z" id="N" class="B C"/><path d="M40.438 19l8.641-1.125q-1.422-8.937-7.266-14-5.828-5.047-14.328-5.047-10.641 0-17.109 6.953-6.469 6.969-6.469 19.953 0 8.391 2.781 14.688 2.781 6.313 8.469 9.453 5.688 3.156 12.391 3.156 8.438 0 13.813-4.281 5.375-4.266 6.891-12.125l-8.547-1.328q-1.219 5.234-4.328 7.859-3.094 2.641-7.5 2.641-6.641 0-10.797-4.766-4.141-4.75-4.141-15.047 0-10.453 4-15.187 4.016-4.734 10.453-4.734 5.172 0 8.641 3.172Q39.5 12.406 40.438 19z" id="O" class="B C"/><path d="M25.781 7.859L27.047.094q-3.703-.781-6.641-.781-4.781 0-7.422 1.516-2.625 1.516-3.703 3.984-1.078 2.469-1.078 10.375v29.828H1.766v6.844h6.438v12.844l8.734 5.266V51.859h8.844v-6.844h-8.844V14.703q0-3.766.469-4.844.469-1.062 1.516-1.703 1.047-.641 3-.641 1.469 0 3.859.344z" id="P" class="B C"/><path d="M6.641 61.469v10.109h8.797V61.469zM6.641 0v51.859h8.797V0z" id="Q" class="B C"/><path d="M3.328 25.922q0 14.406 8 21.344 6.688 5.766 16.313 5.766 10.688 0 17.469-7.016 6.797-7 6.797-19.359 0-10-3-15.75-3-5.734-8.75-8.906-5.734-3.172-12.516-3.172-10.891 0-17.609 6.984-6.703 6.984-6.703 20.109zm9.031 0q0-9.953 4.344-14.906 4.344-4.953 10.938-4.953 6.547 0 10.891 4.969 4.344 4.984 4.344 15.188 0 9.625-4.375 14.578-4.375 4.953-10.859 4.953-6.594 0-10.937-4.937-4.344-4.922-4.344-14.891z" id="R" class="B C"/><path d="M6.594 0v51.859H14.5v-7.375q5.719 8.547 16.5 8.547 4.688 0 8.625-1.687 3.938-1.687 5.891-4.422 1.953-2.734 2.734-6.484.484-2.453.484-8.547V0h-8.797v31.547q0 5.375-1.031 8.031-1.016 2.656-3.625 4.234-2.609 1.594-6.125 1.594-5.625 0-9.703-3.562-4.078-3.562-4.078-13.516V0z" id="S" class="B C"/><path d="M8.688 0v45.016H.922v6.844h7.766v5.516q0 5.219.938 7.766 1.266 3.422 4.453 5.531 3.203 2.125 8.969 2.125 3.719 0 8.203-.875l-1.312-7.656q-2.734.484-5.187.484-4 0-5.656-1.719-1.656-1.703-1.656-6.391v-4.781h10.109v-6.844H17.438V0z" id="T" class="B C"/><path d="M6.594-19.875v71.734h8v-6.734q2.844 3.953 6.406 5.922 3.563 1.984 8.641 1.984 6.641 0 11.719-3.422 5.078-3.422 7.656-9.656 2.594-6.219 2.594-13.641 0-7.953-2.859-14.328-2.844-6.375-8.297-9.766Q35.016-1.172 29-1.172q-4.391 0-7.891 1.859-3.484 1.859-5.734 4.688v-25.25zm7.953 45.516q0-10.016 4.047-14.797 4.063-4.781 9.828-4.781 5.859 0 10.031 4.953 4.172 4.953 4.172 15.359 0 9.906-4.078 14.828-4.078 4.938-9.734 4.938-5.625 0-9.953-5.25-4.312-5.25-4.312-15.25z" id="U" class="B C"/><path d="M42.094 16.703l9.078-1.125q-2.141-7.953-7.953-12.359-5.812-4.391-14.844-4.391-11.375 0-18.047 7-6.672 7.016-6.672 19.656 0 13.094 6.734 20.313 6.75 7.234 17.484 7.234 10.406 0 17-7.078 6.594-7.078 6.594-19.922 0-.781-.047-2.344H12.75q.484-8.547 4.828-13.094 4.344-4.531 10.844-4.531 4.828 0 8.25 2.531 3.422 2.547 5.422 8.109zM13.234 30.906h28.953q-.578 6.547-3.312 9.813-4.203 5.078-10.891 5.078-6.062 0-10.187-4.047-4.125-4.047-4.562-10.844z" id="V" class="B C"/><path d="M3.078 15.484l8.688 1.359q.734-5.219 4.078-8 3.344-2.781 9.359-2.781 6.047 0 8.969 2.453 2.938 2.469 2.938 5.797 0 2.969-2.594 4.688-1.797 1.172-8.984 2.969-9.656 2.453-13.391 4.234-3.734 1.781-5.672 4.922-1.922 3.156-1.922 6.969 0 3.453 1.578 6.406 1.594 2.969 4.328 4.922 2.047 1.5 5.578 2.547 3.547 1.063 7.609 1.063 6.094 0 10.703-1.766 4.625-1.75 6.813-4.766 2.203-3 3.031-8.016l-8.594-1.172q-.578 4-3.391 6.234-2.812 2.25-7.937 2.25-6.047 0-8.641-2-2.594-2-2.594-4.687 0-1.703 1.078-3.078 1.078-1.406 3.375-2.344 1.313-.484 7.766-2.234 9.328-2.5 13-4.094 3.688-1.578 5.781-4.609 2.109-3.016 2.109-7.516 0-4.391-2.562-8.281-2.562-3.875-7.406-6-4.828-2.125-10.922-2.125-10.109 0-15.406 4.203-5.297 4.203-6.766 12.453z" id="W" class="B C"/></defs><g transform="matrix(0 -.14 -.14 0 23.830312 265.712344)"><use xlink:href="#L"/><use x="61.084" xlink:href="#M"/><use x="94.385" xlink:href="#N"/><use x="150" xlink:href="#O"/><use x="200" xlink:href="#P"/><use x="227.783" xlink:href="#Q"/><use x="250" xlink:href="#R"/><use x="305.615" xlink:href="#S"/><use x="361.23" xlink:href="#AS"/><use x="389.014" xlink:href="#R"/><use x="444.629" xlink:href="#T"/><use x="472.412" xlink:href="#AS"/><use x="500.195" xlink:href="#U"/><use x="555.811" xlink:href="#N"/><use x="611.426" xlink:href="#U"/><use x="667.041" xlink:href="#V"/><use x="722.656" xlink:href="#M"/><use x="755.957" xlink:href="#W"/></g><g class="D E"><g class="J"><path d="M49.075 382.055h1.539m30.687 0h10.77m3.025 0h66.07l1.538-27.977 1.563 27.977h10.69l1.538-6.573 1.539-1.334 1.539-7.906 1.538 4.792 1.563-22.042 1.488 20.302 1.488 12.761h1.537l1.537-97.577 1.538 77.371 1.538 13.935 1.563-13.389 1.538 19.659 1.539-9.326 1.539 9.326 1.538-21.394 1.563-5.218 1.513 15.246 1.513 8.335 1.537-19.7 1.537 13.16 1.538-.259 1.538.622 1.563-11.379 1.538-39.036 1.539 44.878 1.539-8.274 1.538 6.103 1.563 11.488 1.488-8.296 1.488.254 1.537-14.506 1.537-1.835 1.538 20.642 1.538-2.197 1.563 1.263 1.538 7.577 1.539-8.277 1.539 10.803h1.538l1.563-29.689 1.488 24.638 1.488-13.133 1.537 2.542 1.537 8.17 1.538-3.892 1.538 9.175 1.563 2.191h1.538l1.539-5.962 1.539-7.027 1.538-63.946 1.563 64.607 1.488 2.084 1.488 4.183 1.537 6.062 1.537-5.469 1.538-4.152 1.538-1.924 1.563 2.988 1.538-4.913 1.539 13.47 1.539-14.263h3.102l1.513 4.065 1.513-1.663 1.537.726 1.537 6.778 1.538-5.132 1.538-9.824 1.563 6.877 1.538 12.434 1.539-12.205 1.539 4.68 1.538.102 1.563-.371 1.488-10.278 1.488 8.039 1.537-7.378 1.537 9.617 1.538-12.664 1.538 3.672 1.563 5.571 1.538 8.774 1.539-2.718 1.539-13.762 3.102 9.643 1.488-3.634 1.488 7.457 1.537-7.014 1.537-.676 1.538 3.723 1.538-5.126 1.563 7.381 1.538-4.067 1.539 1.05 1.539-5.204 1.538 9.034 1.563.082 1.488 4.85 1.487-6.094 1.537-4.388 1.538 6.068 1.538-.33 1.538-3.907 1.563-.705 1.538-5.421 1.538 11.935 1.539-3.957 1.539-3.513 1.563 6.151 1.513-1.467 1.512 2.613 1.537-3.719 1.538 1.502 1.538-4.34 1.538 2.203 1.563 2.465 1.538-8.063 1.538-.016 1.539 6.846 1.539-13.513 1.563 10.837 1.488-1.473 1.487-1.738 1.537-2.641 1.538 6.154 1.538-1.071 1.538-.018 1.563 2.939 1.538-5.621 1.538-2.448 1.539 4.15 1.539-.854 1.563 4.076 1.488-8.078 1.487 2.538 1.537 4.656 1.538-9.3 1.538 7.714 1.538.857 1.563-5.761 1.538 2.37 1.538 3.668 1.539-1.816 1.539 1.445 1.563-2 1.488 1.179 1.487-.672 1.537-1.412 1.538-.466 1.538-3.689 1.538.688 1.563 4.737 1.538-5.307 1.538-2.616 1.539 6.019 1.539-3.384 1.563 3.465 1.513-9.129 1.512-2.903 1.537 8.699 1.538-17.419 1.538-41.403 1.538 49.305 1.563 9.433 1.538-5.993 1.538-12.832 1.539 7.161 1.539.25 1.563-13.576 1.488 17.913 1.487 5.676 1.537 2.814 1.538-5.935 1.538-8.031 1.538 3.987 1.563 7.163 1.538-8.668 1.538.714 1.539-3.181 1.539-12.185 1.563 18.155 1.488-7.199 1.487 7.116 1.537.622 1.538-2.365 1.538-13.363 1.538 11.739 1.563-2.682 1.538.907 1.538-4.042 1.539-.812 1.539-7.934 1.563 15.825 1.488-10.821 1.487 1.548 1.537 4.359 1.538-.344 1.538-14.959 1.538 13.729 1.563-.771 1.538 1.869 1.538-3.704 1.539-24.762 1.539 21.411 1.563 9.379 1.513-18.422 1.512 6.589 1.537 9.592 1.538-15.287 1.538 2.808 1.538 10.897 1.563-2.863 1.538-4.28 1.538-5.821 1.539-5.051 1.539 3.316 1.563 15.421 1.488-14.18 1.487-1.593 1.537 6.65 1.538-11.249 1.538.896 1.538 8.548 1.563 5.261 1.538-6.735 1.538-9.829 1.539-4.642 1.539 7.881 1.563 10.844 1.488-28.228 1.487 11.948 1.537 8.942 1.538-19.35 1.538-5.301 3.102 12.612 1.538-12.491 1.538-13.646 1.539 3.585 1.539-1.111 1.563-3.223 1.488-3.702 1.487 12.968 1.537 3.107 1.538-25.868 1.538.611" stroke="#0072bd" class="F"/><path d="M49.075 382.055h1.539m30.687 0h10.77m3.025 0h69.171l1.488-45.462 1.488 45.462h9.253l1.539-15.813 1.539 15.813h4.589l1.488-10.103 1.537 10.103 1.537-17.741 1.538 17.741h1.538l1.563-9.83 1.538 9.83h4.617l1.563-17.741 1.513 17.741 1.513-6.062 1.537-5.304 1.537-12.562 1.538 14.098 1.538 5.226 1.563 4.604h1.538l1.539-9.83 1.539 9.83h1.538l1.563-10.857 1.488 10.857h3.025l1.537-5.962 1.538 5.962h3.102l1.538-2.526 1.539 2.526 1.539-3.911 1.538 3.911 1.563-7.422 1.488-2.68 1.488 10.103h6.151l1.563-5.196 1.538 5.196 1.539-5.962 1.539 1.633 1.538-30.641 1.563 28.806 1.488-4.081 1.488-1.878 1.537 7.208 1.537-.554 1.538 5.469 1.538-17.319 1.563-12.633 1.538 26.584 1.539 3.368 1.539-7.131 1.538 3.566 1.563-17.828 1.513 14.596 1.513 6.798 1.537-7.422 1.537.889 1.538-6.117 1.538 9.432 1.563-6.107 1.538 1.978 1.539-4.857 1.539 9.696 1.538-14.192 1.563 16.7 1.488-4.518 1.488-5.515 1.537 6.164 1.537-6.522 1.538 5.845 1.538-3.847 1.563 3.586 1.538-7.398 1.539 4.466 1.539 3.534 1.538 1.843 1.563-5.061 1.488-1.186 1.488 3.153 1.537-2.858 1.537 2.471 1.538.189 1.538 4.037 1.563-5.55 1.538-2.663 1.539 6.92 1.539 1.511 1.538-.189 1.563-4.682 1.488 4.85 1.487-3.088 1.537 1.864 1.538-9.997 1.538 8.019 1.538 2.385 1.563-4.497 1.538.845 1.538-.503 1.539 2.284 1.539-5.667 1.563 7.916 1.513-3.074 3.049-.774 1.538 1.273 1.538-9.306 1.538 8.248 1.563 1.277 1.538-.579 1.538-4.206 1.539 3.334 1.539-4.409 1.563 5.354 1.488.041 1.487-3.384 1.537 3.871 1.538-2.68 1.538-3.548 1.538 3.077 1.563-1.469 1.538 1.395 1.538-3.345 1.539 3.984 1.539-5.001 1.563 3.423 1.488-4.409 1.487-5.367 1.537 5.769 1.538 2.643 1.538-.399 1.538-3.905 1.563 7.255 1.538-5.231 1.538 2.349 1.539 1.259 1.539-1.671 1.563-2.94 1.488 5.712 1.487-3.829 1.537-1.849 1.538.375 1.538 1.589 1.538-6.652 1.563 8.571 1.538-3.645 1.538.925 1.539-2.548 1.539 1.206 1.563-.057 1.513 2.199 1.512-.795 1.537-2.126 1.538 2.264 1.538 1.221 1.538-2.376 1.563.113 1.538-3.364 1.538.244 1.539-.389 1.539 2.243 1.563-.562 1.488 3.104 1.487-4.234 1.537-.737 1.538 1.276 1.538-4.64 1.538 4.795 1.563.475 1.538-1.443 1.538-1.79 1.539-.984 1.539-6.575 1.563 12.604 1.488-6.846 1.487-4.247 1.537 5.99 1.538.183 1.538-8.612 3.102 5.204 1.538-2.305 1.538.065 1.539-10.538 1.539-4.024 1.563 5.556 1.488-3.533 1.487 7.964 1.537-5.195 1.538-6.422 1.538 4.616 1.538 11.717 1.563-2.684 1.538-6.236 1.538-.437 1.539-17.915 1.539 14.225 1.563 4.137 1.513 5.212 1.512-20.866 1.537.473 1.538 5.641 1.538 11.2 1.538-13.89 1.563.248 1.538.444 1.538 3.732 1.539-12.563 1.539-2.339 1.563 17.756 1.488-3.614 1.487-13.332 1.537-.634 1.538 3.13 1.538 4.753 1.538-7.473 1.563-6.466 1.538 6.499 1.538 9.782 1.539-14.388 1.539-.463 1.563 10.22 1.488 3.303 1.487-17.629 1.537 3.758 1.538 7.105 1.538-4.268 1.538-8.599 1.563 11.733 1.538 2.057 1.538 3.902 1.539-14.342 1.539-1.332 1.563 11.011 1.488 4.857 1.487-12.62 1.537-9.086 1.538 18.869 1.538 1.292" stroke="#d95319" class="F"/><path d="M49.075 382.055h1.539m30.687 0h1.563L84.403 18.36l1.539 363.695h6.129m3.025 0h23.022l1.563-25.978 1.538 25.978h15.357l1.563-14.548 1.538 14.548h35.279l1.538-2.191 1.539 2.191h3.078l1.563-11.021 1.488 11.021h3.025l1.537-8.871 1.538 2.136 1.538 6.735h1.563l1.538-11.365 1.539-35.262 1.539 31.474 1.538 15.154h4.589l1.537-11.365 1.537 1.795 3.076 9.571h1.563l1.538-5.962 1.539 1.047 1.539 4.915 1.538-16.916 1.563 11.488 1.488-1.434 1.488-13.343 1.537-7.771 1.537 27.977 1.538-3.056 1.538-2.626 1.563-24.625 1.538 30.308 1.539-10.803 1.539 6.892 1.538-4.171 1.563 8.082h1.488l1.488-18.185 1.537 18.185 1.537-9.964 1.538 9.964 1.538-24.1 1.563 13.709 1.538 4.618 1.539-.189 1.539-7.027 1.538 5.995 1.563.83 1.488-14.326 1.488 8.367 1.537 7.208 1.537-3.289 1.538 2.431 1.538-2.886 1.563.102 1.538-11.648 1.539 6.35 1.539-.408 1.538 7.131 1.563-14.263 1.513 21.394 1.513-11.86 1.537 8.148 1.537-5 1.538-16.589 1.538 5.989 1.563-2.448 1.538-3.956 1.539-1.134 1.539 6.784 1.538 3.366 1.563-76.821 1.488 48.342 1.488-7.494 1.537.44 1.537 18.461 1.538-63.971 1.538 52.981 1.563-60.981 1.538 3.226 1.539 17.398 1.539 5.233 1.538 11.399 1.563-16.869 1.488 16.492 1.488-.237 1.537 6.754 1.537-4.841 1.538 21.962 1.538-6.499 1.563 6.935 1.538-7.166 1.539-17.873 1.539 5.483 1.538 3.995 1.563-36.216 1.488 17.009 1.487 14.935 1.537-42.501 1.538 43.916 1.538 7.73 1.538-18.379 1.563 3.813 1.538 9.675 1.538-.719 1.539-8.773 1.539 13.157 1.563-18.638 1.513 13.318 1.512 10.576 1.537-17.865 1.538 2.045 1.538-8.768 1.538-3.075 1.563 4.265 1.538-1.888 1.538 1.116 1.539 1.936 1.539 9.556 1.563-58.679 1.488 63.491 1.487-9.256 1.537 6.323 1.538-14.159 1.538 19.652 1.538 9.609 1.563-28.532 1.538 18.583 1.538-5.116 1.539 14.727 1.539 6.776 1.563-41.228 1.488 31.366 1.487 12.864 1.537-23.361 1.538 10.013 1.538-1.814 1.538-2.207 1.563-9.537 1.538 9.034 1.538-20.749 1.539 27.273 1.539 6.684 1.563-19.028 1.488-20.317 1.487 16.248 1.537 9.383 1.538-9.854 1.538 26.022 1.538-11.068 1.563 6.277 1.538-4.571 1.538 4.529 1.539-3.012 1.539-.606 1.563-5.952 1.513-6.781 1.512 15.635 1.537 3.1 1.538-11.893 1.538 21.315 1.538-14.24 1.563 7.182 1.538-6.716 1.538 3.287 1.539-4.953 1.539 5.075 1.563-18.225 1.488 8.836 1.487 4.523 1.537.316 1.538-6.186 1.538 6.693 1.538 3.758 1.563-3.898 1.538 5.045 1.538-7.216 1.539 2.496 1.539 6.139 1.563-14.998 1.488 18.022 1.487-13.493 1.537 1.109 1.538 5.254 1.538 9.665 1.538-6.546 1.563-3.693 1.538 5.104 1.538-9.088 1.539 7.391 1.539 4.299 1.563-21.262 1.488 16.8 1.487-4.359 1.537-11.254 1.538 9.815 1.538 7.59 1.538.125 1.563-6.965 1.538 1.212 1.538-1.634 1.539 13.835 1.539-5.761 1.563-25.529 1.513 21.091 1.512 10.383 1.537-7.761 1.538-1.522 1.538 11.971 1.538-9.928 1.563 6.635 1.538-1.813 1.538 2.633 1.539 5.209 1.539-7.328 1.563-23.639 1.488 21.412 1.487 6.139 1.537-2.01 1.538.309 1.538 3.766 1.538 2.289 1.563-.065 1.538.505 1.538-2.802 1.539 6.316 1.539-5.434 1.563-18.276 1.488 23.542 3.024 1.213 1.538.542 1.538.381 1.538 2.98 1.563-2.066 3.076 5.649 1.539.801 1.539-2.326 1.563-12.493 1.488 10.431 1.487-.163 1.537 2.628 1.538 2.318 1.538 2.034" stroke="#edb120" class="F"/><path d="M49.075 382.055h1.539M81.301 18.36h1.563l1.538 363.695L85.942 18.36h1.539l1.538 181.848L90.583 18.36h1.488m3.025 363.695l1.537-19.659 1.538 19.659 1.538-33.063 3.102 33.063h1.539l1.539-27.977 1.538-71.213 1.563 99.19 1.488-17.741 1.488 3.193 1.537-29.805 1.537 28.877 1.538 1.488 1.538-28.799 1.563 42.788 1.538-121.232 1.539 75.77 1.539-136.386 1.538 121.232 1.563 4.663 1.513-125.895 1.513 72.739 1.537 42.982 1.537 47.475 1.538 18.651 1.538-18.185 1.563-10.911 1.538-31.52 1.539 15.154 1.539-63.647 1.538 5.196 1.563 103.913 1.488-19.142 1.488-11.166 1.537-12.48 3.075 8.691 1.538 34.096 1.563-48.493 1.538 25.762 1.539-76.459 1.539 53.728 1.538-10.491 1.563 55.953 1.488-136.386 1.488 136.386 1.537-45.462h1.537l1.538 45.462 3.102-45.462 1.538 32.316 1.539-26.386 1.539 23.719 1.538-28.271 1.563-22.042 1.488 53.365 1.488-17.547 1.537 21.216 1.537.222 1.538-31.54 1.538 27.869 1.563-16.948 1.538-27.339 1.539 38.176 1.539 3.497 1.538 4.457 1.563-7.044 1.513-61.817 1.513-84.105 1.537 118.201 1.537-21.535 1.538 37.508 1.538-34.964 1.563 43.866 1.538-21.149 1.539 22.076 1.539-7.963 1.538-6.21 1.563 17.547 1.488-4.302 1.488.381 1.537 1.554 1.537-29.047 1.538 4.91 1.538-2.674 1.563 25.257 1.538 2.526 1.539-.325 1.539-1.549 1.538-37.021 1.563 19.463 1.488-58.863 1.488 35.359 1.537 25.42 1.537 17.759 1.538-33.707 1.538-10.202 1.563 30.172 1.538 2.309 1.539-6.909 1.539-20.513 1.538 45.795 1.563-26.495 1.488 1.129 1.488 5.549 1.537 20.478 1.537-61.269 1.538 48.007 1.538-23.092 1.563 20.511 1.538-4.635 1.539-.866 1.539-25.876 1.538-10.697 1.563 53.485 1.513-23.127 1.513-2.143 1.537-5.002 1.537-31.689 1.538 57.248 1.538-32.521 1.563 14.195 1.538 7.913 1.539 4.98 1.539-5.69 1.538-27.424 1.563 23.752 1.488-4.631 1.488 10.812 1.537-22.708 1.537 21.722 1.538 8.118 1.538-21.507 1.563 27.545 1.538-9.989 1.539-9.123 1.539 1.998 1.538 15.003 1.563-13.158 1.488 10.321 1.488 3.002 1.537-4.416 1.537-8.43 1.538 4.715 1.538-2.982 1.563 9.563 1.538-1.743 1.539-10.891 1.539 1.175 1.538 15.082 1.563-.756 1.488 2.263 1.487-3.745 1.537-11.241 1.538-5.29 1.538 20.735 1.538-3.338 1.563.85 1.538-14.632 1.538 19.504 3.079-12.542 1.563 7.604 1.513 5.72 1.512-12.127 1.537 2.534 1.538-3.421 1.538-5.307 1.538 6.607 1.563 10.335 1.538-13.438 1.538.574 1.539.734 1.539-6.644 1.563 13.571 1.488-7.669 1.487-9.527 1.537 5.664 3.076 5.849 1.538-1.227 1.563 13.103 1.538-9.861 1.538-2.72 1.539 8.566 1.539-1.431 1.563-.888 1.488-3.014 1.487.763 1.537 1.518 1.538-1.857 1.538-3.645 1.538 3.417 1.563-3.18 1.538 8.546 1.538 1.844 1.539-3.53 1.539-8.886 1.563 11.944 1.488-4.448 1.487-2.839 1.537 4.606 1.538-9.29 1.538-42.47 1.538 39.111 1.563 4.945 1.538-11.168 1.538 1.303 1.539 19.526 1.539-.464 1.563-3.727 1.513-8.553 1.512.342 1.537 4.748 1.538 2.365 1.538-28.817 1.538 9.007 1.563 25.077 1.538-5.791 1.538-14.745 1.539 18.735 1.539-13.99 1.563-36.608 1.488.31 1.487-33.667 1.537 77.504 1.538 5.293 1.538-1.758 1.538 1.112 1.563 2.1 1.538-6.886 1.538 6.916 1.539 1.303 1.539-3.908 1.563-18.743 1.488 15.354 1.487 9.559 1.537-4.973 1.538-8.621 1.538 7.881 1.538 1.078 1.563-.384 1.538 4.196 1.538-1.452 1.539-6.657 1.539 5.216 1.563.731 1.488-2.196 1.487-.417 1.537 2.066 1.538-4.561 1.538 3.382 1.538-2.436 1.563 1.798 1.538-1.103 1.538 2.598 1.539-3.187 1.539-4.663 1.563 5.839 1.513-3.549 1.512 1.675 1.537-7.25 1.538 3.677 1.538-4.897 1.538 4.036 1.563-.566 1.538 3.286 1.538-2.433 1.539-2.66 1.539-.375 1.563 6.2 1.488 1.089 1.487-6.444 1.537.13 1.538-4.834 1.538 4.426 1.538-2.255 1.563 2.7 1.538-5.62 1.538 4.803 1.539-3.924 1.539 6.797 1.563-3.335 1.488-3.446 1.487 4.659 1.537-2.329 1.538-3.288 1.538-.924 1.538 5.037 1.563 2.625 1.538-8.206 1.538 2.459 1.539.075 1.539 5.422 1.563.775 1.488 1.384 1.487-2.949 1.537 2.737 1.538-6.099 1.538 4.318" stroke="#7e2f8e" class="F"/><path d="M49.075 382.055h1.539m30.687 0h10.77M95.096 18.36l1.537 19.659 1.538-19.659 1.538 33.063 1.563-16.532 1.538 117.461 1.539-113.788 1.539 45.073 1.538 33.911 1.563-99.19 1.488 17.741 1.488-3.193 1.537 38.676 1.537-37.747 1.538-1.488 1.538 28.799 1.563 9.169 1.538 69.275 1.539-75.77 1.539 136.386 1.538-121.232 1.563-4.663 1.513 125.895 1.513-36.37 1.537-68.331 1.537-58.496 1.538-18.651 1.538 27.277 1.563 30.914 1.538 2.425 1.539 30.308 1.539 54.554 1.538-41.565 1.563-103.913 1.488 57.426 1.488 154.73 1.537-147.974 1.537-6.756 1.538-23.329 1.538-34.096 1.563 48.493 1.538-25.762 1.539 76.459 1.539-53.728 1.538 38.468 1.563 19.983 1.488 168.859 1.488-272.771 1.537 136.386 1.537-68.193 1.538-50.008 1.538 50.008 1.563 102.289 1.538 153.776 1.539 7.811 1.539-39.532 1.538 16.052 1.563 33.063 1.488-3.48 1.488-4.785 1.537-6.062 1.537-7.984 1.538-49.938 1.538 25.315 1.563 59.147 1.538-1.536 1.539-16.611 1.539-2.331 1.538-55.267 1.563 14.61 1.513 48.234 1.513-4.546 1.537 4.546 1.537-10.767 1.538-64.798 1.538 38.447 1.563-125.43 1.538 95.845 1.539 45.2 1.539-1.804 1.538 46.037h1.563l1.488-34.311 1.488-12.835 1.537-27.458 1.537 9.02 1.538 38.078 1.538-29.321 3.102 31.571 1.539-3.551 1.539 20.986 1.538-32.589 3.051 35.359 1.488-1.01 1.537-52.599 1.537 23.786 1.538-16.27 1.538 40.19 1.563-15.024 1.538-2.886 1.539 22.902 1.539 1.633 1.538-16.653 1.563 20.982 1.488-15.367 1.488 3.244 1.537-27.195 1.537 31.115 1.538-5.267 1.538-3.849 1.563-21.19 1.538 21.671 1.539 2.983 1.539 6.724 1.538-14.263 1.563 21.394 1.513-3.399 1.513-4.507 1.537-21.783 1.537 23.156 1.538-6.117 1.538-9.88 1.563-5.447 1.538 16.955 1.539-10.947 1.539 19.46 1.538-10.481 1.563 5.196 1.488 5.534 1.488-7.774 1.537 2.295 1.537 7.738 1.538-4.546 1.538-1.049 1.563.789 1.538 2.366 1.539-2.718 1.539.954 1.538 1.843 1.563-5.061 1.488 3.118 1.488 4.304 1.537-4.157 1.537-1.686 1.538-5.464 1.538 1.608 1.563 7.907 1.538-17.868 1.539 9.476 1.539 4.588 1.538 2.419 1.563-3.094 1.488 4.85 3.024-6.514 1.538 5.018 1.538 2.917 1.538-6.714 1.563 2.673 1.538-.376 1.538-5.527 1.539-8.548 1.539 14.582 1.563-4.461 1.513 4.847 1.512 2.637 1.537-4.821 1.538-1.684 1.538 4.644 1.538-2.746 1.563-6.102 1.538 9.198 1.538-6.604 1.539 5.224 1.539 1.946 1.563-5.253 1.488 2.402 1.487 3.338 1.537.645 1.538-4.649 1.538.715 1.538-3.939 1.563 7.102 1.538-6.524 1.538 4.404 1.539-4.238 1.539 4.078 1.563 1.659 1.488-4.55 1.487.436 1.537 5.045 1.538-1.758 1.538-.832 1.538 1.671 1.563-2.09 1.538 1.945 1.538.384 1.539-2.58 1.539 2.322 1.563-1.545 1.488 2.548 1.487-4.468 1.537 2.633 1.538-.01 1.538-.501 1.538-2.581 1.563-.419 1.538 2.753 1.538-1.682 1.539 1.362 1.539.912 1.563-.942 1.513 1.415 1.512-8.005 1.537 3.381 1.538 2.515 1.538-.039 1.538 1.335 3.102-.508 1.538-2.39 1.539 3.203 1.539-4.27 1.563 2.764 1.488-2.091 1.487.149 1.537 2.704 1.538-2.881 1.538.251 1.538 1.139 1.563-3.45 1.538-1.033 1.538 2.045 1.539 3.184 1.539-1.97 1.563-5.739 1.488 5.029 1.487-1.475 1.537 1.377 1.538-5.151 1.538 1.371 1.538 5.116 1.563-.293 1.538-3.58 1.538-.849 1.539 1.856 1.539-4.874 1.563 6.998 1.488-1.384 1.487-1.029 1.537-2.035 1.538-.308 1.538-4.941 1.538 5.632 1.563-5.923 1.538 3.765 1.538-.472 1.539-4.165 1.539 5.301 1.563-1.283 1.513.689 1.512-7.183 1.537 6.157 1.538-2.266 1.538-13.633 1.538 12.118 1.563-3.037 1.538-.779 1.538-2.295 1.539 1.45 1.539 2.691 1.563 4.086 1.488-4.652 1.487 3.214 1.537-10.254 1.538 7.463 1.538-1.033 1.538-9.478 1.563 5.304 1.538 2.787 1.538 1.825 1.539-.851 1.539 2.685 1.563 2.462 1.488-.907 1.487-1.368 1.537-10.507 1.538-.915 1.538 5.73 1.538 5.268 1.563-19.692 1.538 8.158 1.538 7.124 1.539-2.475 1.539 7.865 1.563 2.073 1.488-1.856 1.487-.502 1.537-8.093 1.538 5.845 1.538-12.328" stroke="#77ac30" class="F"/><path d="M49.075 382.055L50.614 18.36m30.687 363.695h10.77m3.025 0h39.943l1.538-9.092 1.563-5.455 1.538 14.548 1.539-45.462 1.539 45.462h3.102l1.488-38.284 1.488-22.332 1.537 39.222 1.537 21.394h10.795l1.563-51.956 1.488 51.956h9.202l1.538-8.764 1.539-7.049 1.539 7.906 1.538-14.136h1.563l1.488 2.9 1.488-31.371 1.537 41.421 1.537 9.092 1.538-26.94 1.538 8.129 1.563 18.812h1.538l1.539-9.326 1.539-5.828 1.538-16.937 1.563 32.091 1.513-11.365 1.513 5.304 1.537-5.304 1.537-22.133 1.538 18.754 1.538-3.671 1.563 4.691 1.538-4.162 1.539-6.687 1.539-16.86 1.538 16.06 1.563-50.622 1.488 34.823 1.488 7.498 1.537 15.024 1.537.764 1.538 11.774 1.538-16.618 1.563 22.731 1.538-5.051 1.539-2.151 1.539-20.173 1.538-4.954 1.563 2.639 1.488 19.587 1.488 4.041 1.537-13.492 1.537-60.161 1.538 62.666 1.538-9.243 1.563 15.9 1.538-12.7 1.539-18.644 1.539 11.428 1.538 19.817 1.563-26.495 1.488 1.129 1.488 17.673 1.537 8.355 1.537-1.109 1.538-6.381 1.538 2.886 1.563-11.24 1.538 2.1 1.539-24.92 1.539 34.23 1.538 3.566 1.563-17.828 1.513 8.131 1.513-3.325 1.537 5.163 1.537-7.578 1.538-11.817 1.538 25.077 3.102-5.494 1.539 1.282 1.539-.471 1.538-4.709 1.563 11.876 1.488-9.939 1.488 7.79 1.537-2.935 1.537-18.295 1.538 26.952 1.538-7.169 1.563-8.442 1.538 2.903 1.539 4.051 1.539-1.342 1.538-9.16 1.563 9.278 1.488-11.276 1.488 7.973 1.537-13.249 1.537 18.646 1.538-6.123 1.538 2.948 1.563-3.719 1.538 1.84 1.539 6.566 1.539-5.092 1.538-5.638 1.563 3.757 1.488-4.086 1.487-2.9 1.537 11.181 1.538-8.441 1.538 7.359 1.538-.953 1.563 1.741 1.538-2.978 1.538 9.197 1.539-8.548 1.539-.083 1.563 3.693 1.513-18.949 1.512 13.43 1.537-5.692 1.538 12.05 1.538-8.858 1.538-1.27 1.563-1.127 1.538 2.12 1.538-5.627 1.539-3.311 1.539-3.61 1.563 11.324 1.488-7.595 1.487 11.831 1.537-16.202 1.538 7.335 1.538 2.974 1.538-.879 1.563 4.898 1.538-9.931 1.538 4.457 1.539 5.079 1.539-5.416 1.563 5.697 1.488 1.724 1.487 3.25 1.537-13.351 1.538 10.112 1.538-3.95 1.538-5.763 1.563 6.166 1.538.848 1.538-3.548 1.539-2.94 1.539 6.117 1.563-.443 1.488-3.79 1.487 5.902 1.537-16.682 1.538 17.085 1.538 4.558 1.538-13.649 1.563 7.399 3.076-1.948 1.539-3.664 1.539 4.346 1.563.887 1.513 2.773 1.512.936 1.537-5.861 1.538 3.559 1.538 5.27 1.538-6.092 1.563 1.819 1.538-3.789 1.538 5.196 1.539-2.235 1.539 1.905 1.563 3.15 1.488-2.202 1.487 4.163 1.537-17.463 1.538 8.581 1.538 2.706 1.538-4.411 1.563 5.578 1.538-.261 1.538 3.85 1.539-4.834 1.539.957 1.563 1.338 1.488-6.264 1.487 10.11 1.537-11.783 1.538 11.161 1.538-.92 1.538-8.113 1.563 2.178 1.538 3.265 1.538-.655 1.539-3.718 1.539 4.056 1.563 2.198 1.488-4.368 1.487.877 1.537-4.941 1.538 7.421 1.538.015 1.538-7.89 1.563 7.999 1.538-.258 1.538 1.855 1.539-2.678 1.539-.99 1.563 4.567 1.513-5.362 1.512 4.951 1.537-2.826 1.538 3.531 1.538 1.166 1.538-5.862 1.563 2.647 1.538 1.915 1.538-2.574 1.539-1.42 3.103 8.042 1.488-5.585 1.487 3.316 1.537-5.704 1.538 6.176 1.538-1.261 1.538-1.508 1.563.466 1.538 4.621 1.538-2.682 1.539-1.173 1.539 1.302 1.563 4.027 1.488-5.271 1.487 3.011 1.537-2.245 1.538 2.718 1.538.305 1.538-2.765 1.563 2.794 1.538 3.322 1.538-3.534 1.539-1.309 1.539 3.364 1.563-.788 1.488-3.256 1.487 5.15 1.537-2.388 1.538.331 1.538 2.675" stroke="#4dbeee" class="F"/></g><g class="H K"><path d="M56.293 400.24V18.36M559.44 400.24V18.36"/><path d="M56.293 400.24H559.44M56.293 18.36H559.44"/></g></g><path d="M235.467 153.986H552.24V25.56H235.467z" fill="#fff" class="H K"/><path d="M241.227 36.587h28.8" stroke="#0072bd" class="D E J"/><defs><path d="M7.422 0v71.578h14.266l16.938-50.672q2.344-7.094 3.422-10.609 1.219 3.906 3.797 11.484l17.141 49.797h12.75V0h-9.125v59.906L45.797 0H37.25L16.547 60.938V0z" id="X" class="B C"/><path d="M6.594 0v71.578h8.781V45.906q6.156 7.125 15.531 7.125 5.766 0 10.016-2.281 4.25-2.266 6.078-6.266 1.828-4 1.828-11.625V0h-8.781v32.859q0 6.594-2.859 9.594-2.859 3-8.078 3-3.906 0-7.359-2.031-3.437-2.016-4.906-5.484-1.469-3.469-1.469-9.562V0z" id="Y" class="B C"/><path d="M7.328 0v71.578h9.469V8.453h35.25V0z" id="Z" class="B C"/><path d="M4.984-4.297l8.547-1.266q.531-3.953 2.969-5.766 3.281-2.437 8.938-2.437 6.109 0 9.422 2.438 3.328 2.438 4.5 6.828.688 2.688.625 11.281Q34.234 0 25.641 0 14.938 0 9.078 7.719q-5.859 7.719-5.859 18.5 0 7.422 2.688 13.688 2.688 6.281 7.781 9.703 5.109 3.422 12 3.422 9.172 0 15.141-7.422v6.25h8.094V7.031q0-12.109-2.469-17.156-2.453-5.062-7.812-7.984-5.344-2.937-13.156-2.937-9.266 0-14.984 4.172-5.719 4.172-5.516 12.578zm7.266 31.156q0-10.203 4.047-14.891 4.063-4.687 10.172-4.687 6.047 0 10.141 4.656 4.109 4.672 4.109 14.625 0 9.516-4.219 14.344-4.219 4.844-10.187 4.844-5.859 0-9.969-4.766-4.094-4.75-4.094-14.125z" id="a" class="B C"/></defs><g transform="matrix(.144 0 0 -.144 281.547 41.62725)"><use xlink:href="#X"/><use x="83.301" xlink:href="#N"/><use x="138.916" xlink:href="#O"/><use x="188.916" xlink:href="#Y"/><use x="244.531" xlink:href="#Q"/><use x="266.748" xlink:href="#S"/><use x="322.363" xlink:href="#V"/><use x="377.979" xlink:href="#AS"/><use x="405.762" xlink:href="#Z"/><use x="461.377" xlink:href="#V"/><use x="516.992" xlink:href="#N"/><use x="572.607" xlink:href="#M"/><use x="605.908" xlink:href="#S"/><use x="661.523" xlink:href="#Q"/><use x="683.74" xlink:href="#S"/><use x="739.355" xlink:href="#a"/></g><path d="M241.227 57.301h28.8" stroke="#d95319" class="D E J"/><defs><path d="M58.797 25.094l9.469-2.391Q65.281 11.031 57.547 4.906q-7.734-6.125-18.922-6.125-11.578 0-18.828 4.703-7.25 4.719-11.031 13.656-3.781 8.938-3.781 19.188 0 11.188 4.266 19.5 4.281 8.328 12.156 12.641 7.891 4.328 17.359 4.328 10.75 0 18.063-5.469 7.328-5.469 10.219-15.375l-9.328-2.203q-2.5 7.813-7.234 11.375-4.734 3.578-11.906 3.578-8.25 0-13.797-3.969-5.547-3.953-7.797-10.625-2.234-6.656-2.234-13.734 0-9.125 2.656-15.937 2.656-6.812 8.266-10.187 5.625-3.359 12.172-3.359 7.953 0 13.469 4.578 5.531 4.594 7.484 13.625z" id="b" class="B C"/><path d="M6.594 0v51.859h7.859v-7.281q2.438 3.813 6.484 6.125 4.063 2.328 9.234 2.328 5.766 0 9.453-2.391 3.688-2.391 5.203-6.687 6.156 9.078 16.016 9.078 7.719 0 11.859-4.281 4.156-4.266 4.156-13.156V0h-8.75v32.672q0 5.266-.859 7.578-.844 2.328-3.094 3.734-2.234 1.422-5.266 1.422-5.469 0-9.094-3.641-3.609-3.625-3.609-11.641V0h-8.781v33.688q0 5.859-2.156 8.781-2.141 2.938-7.031 2.938-3.703 0-6.859-1.953-3.141-1.953-4.562-5.719-1.422-3.75-1.422-10.828V0z" id="c" class="B C"/><path d="M40.578 0v7.625q-6.062-8.797-16.453-8.797-4.594 0-8.578 1.75Q11.578 2.344 9.641 5q-1.922 2.672-2.703 6.531-.547 2.578-.547 8.203v32.125h8.797V23.094q0-6.875.531-9.281.828-3.453 3.516-5.437 2.688-1.984 6.641-1.984 3.953 0 7.422 2.031 3.469 2.031 4.906 5.516 1.453 3.5 1.453 10.141v27.781h8.781V0z" id="d" class="B C"/><path d="M28.172 0L.438 71.578h10.25l18.609-52q2.25-6.25 3.766-11.719 1.656 5.859 3.859 11.719l19.328 52h9.672L37.891 0z" id="e" class="B C"/><path d="M40.234 0v6.547q-4.937-7.719-14.5-7.719-6.203 0-11.406 3.422-5.203 3.422-8.062 9.547-2.844 6.125-2.844 14.078 0 7.766 2.578 14.094 2.594 6.328 7.766 9.688 5.188 3.375 11.578 3.375 4.688 0 8.344-1.984 3.672-1.969 5.969-5.141v25.672h8.734V0zM12.453 25.875q0-9.953 4.188-14.891 4.203-4.922 9.922-4.922 5.766 0 9.781 4.703 4.031 4.719 4.031 14.375 0 10.656-4.109 15.625-4.094 4.984-10.094 4.984-5.859 0-9.797-4.781-3.922-4.781-3.922-15.094z" id="f" class="B C"/><path d="M7.719 0v71.578h27q7.125 0 10.891-.672 5.266-.891 8.828-3.359 3.578-2.453 5.75-6.906 2.172-4.437 2.172-9.766 0-9.125-5.812-15.453-5.812-6.312-21-6.312H17.188V0zm9.469 37.547h18.5q9.188 0 13.047 3.422 3.859 3.422 3.859 9.625 0 4.484-2.281 7.672-2.266 3.203-5.969 4.234-2.406.641-8.844.641H17.188z" id="g" class="B C"/><path d="M7.859 0v71.578h31.734q9.578 0 14.547-1.937 4.984-1.922 7.969-6.812 2.984-4.875 2.984-10.781 0-7.609-4.937-12.844-4.937-5.219-15.234-6.641 3.766-1.797 5.719-3.562 4.141-3.797 7.859-9.516L70.953 0H59.031l-9.469 14.891q-4.156 6.453-6.844 9.859-2.672 3.422-4.797 4.781-2.125 1.375-4.328 1.922-1.609.328-5.266.328h-11V0zm9.469 39.984h20.375q6.484 0 10.141 1.344 3.672 1.344 5.578 4.297 1.906 2.953 1.906 6.422 0 5.078-3.687 8.344-3.687 3.281-11.656 3.281H17.328z" id="h" class="B C"/></defs><g transform="matrix(.144 0 0 -.144 281.547 62.34075)"><use xlink:href="#b"/><use x="72.217" xlink:href="#R"/><use x="127.832" xlink:href="#c"/><use x="211.133" xlink:href="#U"/><use x="266.748" xlink:href="#d"/><use x="322.363" xlink:href="#P"/><use x="350.146" xlink:href="#V"/><use x="405.762" xlink:href="#M"/><use x="439.063" xlink:href="#AS"/><use x="466.846" xlink:href="#e"/><use x="533.529" xlink:href="#Q"/><use x="555.746" xlink:href="#W"/><use x="605.746" xlink:href="#Q"/><use x="627.963" xlink:href="#R"/><use x="683.578" xlink:href="#S"/><use x="739.193" xlink:href="#AS"/><use x="766.977" xlink:href="#N"/><use x="822.592" xlink:href="#S"/><use x="878.207" xlink:href="#f"/><use x="933.822" xlink:href="#AS"/><use x="961.605" xlink:href="#g"/><use x="1028.305" xlink:href="#N"/><use x="1083.92" xlink:href="#P"/><use x="1111.703" xlink:href="#P"/><use x="1139.486" xlink:href="#V"/><use x="1195.102" xlink:href="#M"/><use x="1228.402" xlink:href="#S"/><use x="1284.018" xlink:href="#AS"/><use x="1311.801" xlink:href="#h"/><use x="1384.018" xlink:href="#V"/><use x="1439.633" xlink:href="#O"/><use x="1489.633" xlink:href="#R"/><use x="1545.248" xlink:href="#a"/><use x="1600.863" xlink:href="#S"/><use x="1656.479" xlink:href="#Q"/><use x="1678.695" xlink:href="#P"/><use x="1706.479" xlink:href="#Q"/><use x="1728.695" xlink:href="#R"/><use x="1784.311" xlink:href="#S"/></g><path d="M241.227 78.014h28.8" stroke="#edb120" class="D E J"/><defs><path d="M9.328 0v71.578h9.469V0z" id="i" class="B C"/><path d="M25.922 0v63.141H2.344v8.438h56.734v-8.437H35.406V0z" id="j" class="B C"/><path d="M6.203-19.969l-.984 8.25q2.891-.781 5.031-.781 2.938 0 4.688.984 1.766.969 2.891 2.719.828 1.328 2.688 6.547.234.734.781 2.156L1.609 51.859h9.469l10.797-30.031q2.094-5.719 3.766-12.016 1.516 6.063 3.609 11.813l11.078 30.234h8.797L29.391-.875q-3.172-8.547-4.922-11.766-2.344-4.359-5.375-6.375-3.031-2.031-7.234-2.031-2.531 0-5.656 1.078z" id="k" class="B C"/></defs><g transform="matrix(.144 0 0 -.144 281.547 83.05425)"><use xlink:href="#i"/><use x="27.783" xlink:href="#S"/><use x="83.398" xlink:href="#T"/><use x="111.182" xlink:href="#R"/><use x="166.797" xlink:href="#M"/><use x="200.098" xlink:href="#c"/><use x="283.398" xlink:href="#N"/><use x="339.014" xlink:href="#P"/><use x="366.797" xlink:href="#Q"/><use x="389.014" xlink:href="#R"/><use x="444.629" xlink:href="#S"/><use x="500.244" xlink:href="#AS"/><use x="528.012" xlink:href="#j"/><use x="589.096" xlink:href="#Y"/><use x="644.711" xlink:href="#V"/><use x="700.326" xlink:href="#R"/><use x="755.941" xlink:href="#M"/><use x="789.242" xlink:href="#k"/></g><path d="M241.227 98.728h28.8" stroke="#7e2f8e" class="D E J"/><defs><path d="M-.141 0l27.484 71.578h10.203L66.844 0H56.063l-8.359 21.688H17.781L9.906 0zm20.656 29.391h24.266l-7.469 19.828q-3.422 9.031-5.078 14.844-1.375-6.891-3.859-13.672z" id="l" class="B C"/><path d="M6.391 0v71.578h8.797V0z" id="m" class="B C"/></defs><g transform="matrix(.144 0 0 -.144 281.547 103.76775)"><use xlink:href="#l"/><use x="66.699" xlink:href="#M"/><use x="100" xlink:href="#P"/><use x="127.783" xlink:href="#Q"/><use x="150" xlink:href="#T"/><use x="177.783" xlink:href="#Q"/><use x="200" xlink:href="#O"/><use x="250" xlink:href="#Q"/><use x="272.217" xlink:href="#N"/><use x="327.832" xlink:href="#m"/><use x="350.049" xlink:href="#AS"/><use x="377.832" xlink:href="#i"/><use x="405.615" xlink:href="#S"/><use x="461.23" xlink:href="#P"/><use x="489.014" xlink:href="#V"/><use x="544.629" xlink:href="#m"/><use x="566.846" xlink:href="#m"/><use x="589.063" xlink:href="#Q"/><use x="611.279" xlink:href="#a"/><use x="666.895" xlink:href="#V"/><use x="722.51" xlink:href="#S"/><use x="778.125" xlink:href="#O"/><use x="828.125" xlink:href="#V"/></g><path d="M241.227 119.441h28.8" stroke="#77ac30" class="D E J"/><g transform="matrix(.144 0 0 -.144 281.547 124.48125)"><use xlink:href="#b"/><use x="72.217" xlink:href="#R"/><use x="127.832" xlink:href="#c"/><use x="211.133" xlink:href="#U"/><use x="266.748" xlink:href="#d"/><use x="322.363" xlink:href="#P"/><use x="350.146" xlink:href="#N"/><use x="405.762" xlink:href="#P"/><use x="433.545" xlink:href="#Q"/><use x="455.762" xlink:href="#R"/><use x="511.377" xlink:href="#S"/><use x="566.992" xlink:href="#AS"/><use x="594.775" xlink:href="#N"/><use x="650.391" xlink:href="#S"/><use x="706.006" xlink:href="#f"/><use x="761.621" xlink:href="#AS"/><use x="789.404" xlink:href="#Z"/><use x="845.02" xlink:href="#N"/><use x="900.635" xlink:href="#S"/><use x="956.25" xlink:href="#a"/><use x="1011.865" xlink:href="#d"/><use x="1067.48" xlink:href="#N"/><use x="1123.096" xlink:href="#a"/><use x="1178.711" xlink:href="#V"/></g><path d="M241.227 140.155h28.8" stroke="#4dbeee" class="D E J"/><defs><path d="M7.719 0v71.578h24.656q8.344 0 12.75-1.016 6.141-1.422 10.484-5.125 5.672-4.797 8.469-12.25 2.813-7.437 2.813-17 0-8.156-1.906-14.453-1.891-6.297-4.875-10.437-2.984-4.125-6.531-6.5-3.531-2.359-8.531-3.578Q40.047 0 33.547 0zm9.469 8.453h15.281q7.078 0 11.109 1.313 4.031 1.313 6.422 3.719 3.375 3.359 5.25 9.047 1.875 5.688 1.875 13.797 0 11.234-3.687 17.266-3.687 6.031-8.953 8.078-3.812 1.469-12.25 1.469H17.188z" id="n" class="B C"/><path d="M4.5 23l8.922.781q.641-5.375 2.953-8.812 2.328-3.437 7.203-5.562 4.891-2.125 11-2.125 5.406 0 9.563 1.609 4.156 1.609 6.172 4.406 2.031 2.813 2.031 6.141 0 3.359-1.953 5.875-1.953 2.516-6.437 4.234-2.891 1.125-12.75 3.484-9.859 2.375-13.812 4.469-5.141 2.688-7.656 6.656-2.5 3.984-2.5 8.922 0 5.422 3.063 10.125 3.078 4.719 8.984 7.156 5.922 2.438 13.141 2.438 7.953 0 14.031-2.562 6.094-2.562 9.359-7.547 3.266-4.969 3.516-11.266l-9.078-.687q-.734 6.781-4.969 10.25-4.219 3.469-12.469 3.469-8.594 0-12.531-3.156-3.922-3.141-3.922-7.578 0-3.859 2.781-6.359 2.734-2.484 14.281-5.094 11.547-2.609 15.844-4.562 6.25-2.891 9.219-7.312 2.984-4.406 2.984-10.172 0-5.719-3.266-10.781-3.266-5.047-9.406-7.859-6.125-2.797-13.781-2.797-9.719 0-16.297 2.828-6.562 2.828-10.297 8.516Q4.688 15.828 4.5 23z" id="o" class="B C"/></defs><g transform="matrix(.144 0 0 -.144 281.547 145.19475)"><use xlink:href="#n"/><use x="72.217" xlink:href="#N"/><use x="127.832" xlink:href="#P"/><use x="155.615" xlink:href="#N"/><use x="211.23" xlink:href="#AS"/><use x="239.014" xlink:href="#o"/><use x="305.713" xlink:href="#P"/><use x="333.496" xlink:href="#M"/><use x="366.797" xlink:href="#d"/><use x="422.412" xlink:href="#O"/><use x="472.412" xlink:href="#P"/><use x="500.195" xlink:href="#d"/><use x="555.811" xlink:href="#M"/><use x="589.111" xlink:href="#V"/><use x="644.727" xlink:href="#W"/><use x="694.727" xlink:href="#AS"/><use x="722.51" xlink:href="#N"/><use x="778.125" xlink:href="#S"/><use x="833.74" xlink:href="#f"/><use x="889.355" xlink:href="#AS"/><use x="917.061" xlink:href="#l"/><use x="983.76" xlink:href="#m"/><use x="1005.977" xlink:href="#a"/><use x="1061.592" xlink:href="#R"/><use x="1117.207" xlink:href="#M"/><use x="1150.508" xlink:href="#Q"/><use x="1172.725" xlink:href="#P"/><use x="1200.508" xlink:href="#Y"/><use x="1256.123" xlink:href="#c"/><use x="1339.424" xlink:href="#W"/></g><defs><clipPath id="p"><path d="M56.293 18.36H559.44v381.88H56.293z" class="B C"/></clipPath></defs></svg>