<?xml version="1.0" encoding="utf-8" standalone="no"?>
<!DOCTYPE svg PUBLIC "-//W3C//DTD SVG 1.1//EN"
  "http://www.w3.org/Graphics/SVG/1.1/DTD/svg11.dtd">
<!-- Created with matplotlib (https://matplotlib.org/) -->
<svg height="458.777799pt" version="1.1" viewBox="0 0 576 458.777799" width="576pt" xmlns="http://www.w3.org/2000/svg" xmlns:xlink="http://www.w3.org/1999/xlink">
 <metadata>
  <rdf:RDF xmlns:cc="http://creativecommons.org/ns#" xmlns:dc="http://purl.org/dc/elements/1.1/" xmlns:rdf="http://www.w3.org/1999/02/22-rdf-syntax-ns#">
   <cc:Work>
    <dc:type rdf:resource="http://purl.org/dc/dcmitype/StillImage"/>
    <dc:date>2021-11-05T01:21:24.652822</dc:date>
    <dc:format>image/svg+xml</dc:format>
    <dc:creator>
     <cc:Agent>
      <dc:title>Matplotlib v3.3.4, https://matplotlib.org/</dc:title>
     </cc:Agent>
    </dc:creator>
   </cc:Work>
  </rdf:RDF>
 </metadata>
 <defs>
  <style type="text/css">*{stroke-linecap:butt;stroke-linejoin:round;}</style>
 </defs>
 <g id="figure_1">
  <g id="patch_1">
   <path d="M 0 458.777799 
L 576 458.777799 
L 576 0 
L 0 0 
z
" style="fill:#ffffff;"/>
  </g>
  <g id="axes_1">
   <g id="PatchCollection_1">
    <path clip-path="url(#p06c2295eb2)" d="M 0 458.777799 
L 65.6926 86.216549 
L 239.420764 458.777799 
z
" style="fill:#1f77b4;stroke:#000000;"/>
    <path clip-path="url(#p06c2295eb2)" d="M 65.6926 86.216549 
L 387.457142 -0 
L 154.78861 277.283559 
z
" style="fill:#1f77b4;stroke:#000000;"/>
    <path clip-path="url(#p06c2295eb2)" d="M 387.457142 -0 
L 576 224.696628 
L 268.133727 142.204109 
z
" style="fill:#1f77b4;stroke:#000000;"/>
    <path clip-path="url(#p06c2295eb2)" d="M 576 224.696628 
L 466.846157 458.777799 
L 418.111631 182.390567 
z
" style="fill:#1f77b4;stroke:#000000;"/>
    <path clip-path="url(#p06c2295eb2)" d="M 466.846157 458.777799 
L 239.420764 458.777799 
L 441.85279 317.033369 
z
" style="fill:#1f77b4;stroke:#000000;"/>
    <path clip-path="url(#p06c2295eb2)" d="M 239.420764 458.777799 
L 154.78861 277.283559 
L 343.23747 386.084559 
z
" style="fill:#1f77b4;stroke:#000000;"/>
    <path clip-path="url(#p06c2295eb2)" d="M 154.78861 277.283559 
L 268.133727 142.204109 
L 251.434089 333.081852 
z
" style="fill:#1f77b4;stroke:#000000;"/>
    <path clip-path="url(#p06c2295eb2)" d="M 268.133727 142.204109 
L 418.111631 182.390567 
L 259.569364 240.095233 
z
" style="fill:#1f77b4;stroke:#000000;"/>
    <path clip-path="url(#p06c2295eb2)" d="M 418.111631 182.390567 
L 441.85279 317.033369 
L 336.803666 211.984246 
z
" style="fill:#1f77b4;stroke:#000000;"/>
    <path clip-path="url(#p06c2295eb2)" d="M 441.85279 317.033369 
L 343.23747 386.084559 
L 387.978636 263.159216 
z
" style="fill:#1f77b4;stroke:#000000;"/>
    <path clip-path="url(#p06c2295eb2)" d="M 343.23747 386.084559 
L 251.434089 333.081852 
L 366.182854 323.042636 
z
" style="fill:#1f77b4;stroke:#000000;"/>
    <path clip-path="url(#p06c2295eb2)" d="M 251.434089 333.081852 
L 259.569364 240.095233 
L 310.282677 327.933268 
z
" style="fill:#1f77b4;stroke:#000000;"/>
   </g>
  </g>
 </g>
 <defs>
  <clipPath id="p06c2295eb2">
   <rect height="458.777799" width="576" x="0" y="0"/>
  </clipPath>
 </defs>
</svg>
