<svg xmlns="http://www.w3.org/2000/svg" xmlns:xlink="http://www.w3.org/1999/xlink" height="576" viewBox="0 0 1152 432" width="1536" stroke-linecap="butt" stroke-linejoin="round" xmlns:v="https://vecta.io/nano"><style><![CDATA[.B{stroke-linecap:butt}.C{stroke-linejoin:round}.D{stroke-linecap:square}.E{fill:none}.F{stroke-width:.5}.G{stroke:#000}.H{clip-path:url(#o)}.I{stroke:#b2b2b2}.J{stroke-width:1.5}.K{stroke-linejoin:miter}]]></style><g transform="translate(288)"><g fill="#fff"><path d="M0 432h576V0H0z"/><path d="M56.293 399.888h479.353V18.36H56.293z"/></g><path d="M79.477 399.888V18.36" class="D E F H I"/><defs><path d="M0 0v4" id="A" class="B C F G"/></defs><use x="79.477" xlink:href="#A" y="399.888" class="F G"/><defs><path d="M2.875 20.313l8.547 1.172q.344-8.203 3.078-11.234 2.734-3.016 7.578-3.016 3.563 0 6.141 1.625 2.594 1.641 3.563 4.438.984 2.813.984 8.969v49.313h9.469V22.797q0-8.984-2.172-13.922-2.172-4.922-6.891-7.516-4.703-2.578-11.047-2.578-9.422 0-14.437 5.422-5 5.422-4.812 16.109z" id="B" class="B C"/><path d="M40.578 0v7.625q-6.062-8.797-16.453-8.797-4.594 0-8.578 1.75Q11.578 2.344 9.641 5q-1.922 2.672-2.703 6.531-.547 2.578-.547 8.203v32.125h8.797V23.094q0-6.875.531-9.281.828-3.453 3.516-5.437 2.688-1.984 6.641-1.984 3.953 0 7.422 2.031 3.469 2.031 4.906 5.516 1.453 3.5 1.453 10.141v27.781h8.781V0z" id="C" class="B C"/><path d="M6.594 0v51.859H14.5v-7.375q5.719 8.547 16.5 8.547 4.688 0 8.625-1.687 3.938-1.687 5.891-4.422 1.953-2.734 2.734-6.484.484-2.453.484-8.547V0h-8.797v31.547q0 5.375-1.031 8.031-1.016 2.656-3.625 4.234-2.609 1.594-6.125 1.594-5.625 0-9.703-3.562-4.078-3.562-4.078-13.516V0z" id="D" class="B C"/><path d="M42.094 16.703l9.078-1.125q-2.141-7.953-7.953-12.359-5.812-4.391-14.844-4.391-11.375 0-18.047 7-6.672 7.016-6.672 19.656 0 13.094 6.734 20.313 6.75 7.234 17.484 7.234 10.406 0 17-7.078 6.594-7.078 6.594-19.922 0-.781-.047-2.344H12.75q.484-8.547 4.828-13.094 4.344-4.531 10.844-4.531 4.828 0 8.25 2.531 3.422 2.547 5.422 8.109zM13.234 30.906h28.953q-.578 6.547-3.312 9.813-4.203 5.078-10.891 5.078-6.062 0-10.187-4.047-4.125-4.047-4.562-10.844z" id="E" class="B C"/><path d="M50.344 8.453V0H3.031q-.094 3.172 1.016 6.109 1.813 4.828 5.781 9.516 3.984 4.688 11.516 10.844 11.672 9.563 15.766 15.156 4.109 5.594 4.109 10.578 0 5.219-3.75 8.797-3.734 3.594-9.734 3.594-6.344 0-10.156-3.812-3.812-3.797-3.859-10.531l-9.031.922q.922 10.109 6.969 15.406 6.063 5.297 16.281 5.297 10.297 0 16.297-5.719Q50.25 60.453 50.25 52q0-4.297-1.766-8.453-1.75-4.141-5.828-8.734-4.078-4.594-13.547-12.594-7.922-6.641-10.172-9.016-2.234-2.359-3.703-4.75z" id="F" class="B C"/><path d="M4.156 35.297q0 12.703 2.609 20.438 2.609 7.75 7.75 11.938 5.156 4.203 12.969 4.203 5.766 0 10.109-2.328 4.344-2.312 7.172-6.687 2.844-4.359 4.453-10.641 1.609-6.266 1.609-16.922 0-12.594-2.594-20.328Q45.656 7.234 40.5 3q-5.141-4.219-13.016-4.219-10.344 0-16.25 7.422-7.078 8.938-7.078 29.094zm9.031 0q0-17.625 4.125-23.469Q21.438 6 27.484 6q6.063 0 10.188 5.859 4.125 5.859 4.125 23.438 0 17.688-4.125 23.484-4.125 5.813-10.281 5.813-6.047 0-9.672-5.125-4.531-6.531-4.531-24.172z" id="G" class="B C"/><path d="M37.25 0h-8.781v56q-3.172-3.016-8.328-6.047-5.156-3.031-9.25-4.547v8.5q7.375 3.469 12.891 8.391 5.516 4.938 7.813 9.578h5.656z" id="H" class="B C"/><path d="M17.672 38.813q-5.469 2.016-8.109 5.719-2.625 3.719-2.625 8.891 0 7.813 5.609 13.125 5.625 5.328 14.938 5.328 9.375 0 15.094-5.453 5.719-5.437 5.719-13.25 0-4.984-2.625-8.672-2.609-3.672-7.922-5.687 6.594-2.141 10.031-6.937 3.438-4.781 3.438-11.422 0-9.172-6.5-15.422-6.484-6.25-17.078-6.25-10.594 0-17.094 6.266-6.5 6.281-6.5 15.656 0 6.984 3.547 11.688 3.547 4.719 10.078 6.422zm-1.75 14.906q0-5.078 3.266-8.312 3.281-3.219 8.5-3.219 5.078 0 8.328 3.188 3.25 3.203 3.25 7.844 0 4.844-3.359 8.141-3.344 3.297-8.312 3.297-5.031 0-8.359-3.234-3.312-3.219-3.312-7.703zm-2.828-33.062q0-3.766 1.781-7.281 1.781-3.516 5.297-5.453Q23.688 6 27.734 6q6.297 0 10.391 4.047 4.109 4.063 4.109 10.313 0 6.344-4.219 10.5-4.219 4.156-10.578 4.156-6.203 0-10.281-4.109-4.062-4.094-4.062-10.25z" id="I" class="B C"/></defs><g transform="matrix(.12 0 0 -.12 51.454102 416.47781)"><use xlink:href="#B"/><use x="50" xlink:href="#C"/><use x="105.615" xlink:href="#D"/><use x="161.23" xlink:href="#E"/><use x="216.846" xlink:href="#Y"/><use x="244.629" xlink:href="#F"/><use x="300.244" xlink:href="#G"/><use x="355.859" xlink:href="#H"/><use x="411.475" xlink:href="#I"/></g><g class="F"><path d="M171.31 399.888V18.36" class="D E H I"/><use x="171.31" xlink:href="#A" y="399.888" class="G"/></g><defs><path d="M4.5 23l8.922.781q.641-5.375 2.953-8.812 2.328-3.437 7.203-5.562 4.891-2.125 11-2.125 5.406 0 9.563 1.609 4.156 1.609 6.172 4.406 2.031 2.813 2.031 6.141 0 3.359-1.953 5.875-1.953 2.516-6.437 4.234-2.891 1.125-12.75 3.484-9.859 2.375-13.812 4.469-5.141 2.688-7.656 6.656-2.5 3.984-2.5 8.922 0 5.422 3.063 10.125 3.078 4.719 8.984 7.156 5.922 2.438 13.141 2.438 7.953 0 14.031-2.562 6.094-2.562 9.359-7.547 3.266-4.969 3.516-11.266l-9.078-.687q-.734 6.781-4.969 10.25-4.219 3.469-12.469 3.469-8.594 0-12.531-3.156-3.922-3.141-3.922-7.578 0-3.859 2.781-6.359 2.734-2.484 14.281-5.094 11.547-2.609 15.844-4.562 6.25-2.891 9.219-7.312 2.984-4.406 2.984-10.172 0-5.719-3.266-10.781-3.266-5.047-9.406-7.859-6.125-2.797-13.781-2.797-9.719 0-16.297 2.828-6.562 2.828-10.297 8.516Q4.688 15.828 4.5 23z" id="J" class="B C"/><path d="M6.594-19.875v71.734h8v-6.734q2.844 3.953 6.406 5.922 3.563 1.984 8.641 1.984 6.641 0 11.719-3.422 5.078-3.422 7.656-9.656 2.594-6.219 2.594-13.641 0-7.953-2.859-14.328-2.844-6.375-8.297-9.766Q35.016-1.172 29-1.172q-4.391 0-7.891 1.859-3.484 1.859-5.734 4.688v-25.25zm7.953 45.516q0-10.016 4.047-14.797 4.063-4.781 9.828-4.781 5.859 0 10.031 4.953 4.172 4.953 4.172 15.359 0 9.906-4.078 14.828-4.078 4.938-9.734 4.938-5.625 0-9.953-5.25-4.312-5.25-4.312-15.25z" id="K" class="B C"/><path d="M25.781 7.859L27.047.094q-3.703-.781-6.641-.781-4.781 0-7.422 1.516-2.625 1.516-3.703 3.984-1.078 2.469-1.078 10.375v29.828H1.766v6.844h6.438v12.844l8.734 5.266V51.859h8.844v-6.844h-8.844V14.703q0-3.766.469-4.844.469-1.062 1.516-1.703 1.047-.641 3-.641 1.469 0 3.859.344z" id="L" class="B C"/></defs><g transform="matrix(.12 0 0 -.12 143.95438 416.62406)"><use xlink:href="#J"/><use x="66.699" xlink:href="#E"/><use x="122.314" xlink:href="#K"/><use x="177.93" xlink:href="#L"/><use x="205.713" xlink:href="#Y"/><use x="233.496" xlink:href="#F"/><use x="289.111" xlink:href="#G"/><use x="344.727" xlink:href="#H"/><use x="400.342" xlink:href="#I"/></g><g class="F"><path d="M262.186 399.888V18.36" class="D E H I"/><use x="262.186" xlink:href="#A" y="399.888" class="G"/></g><defs><path d="M7.719 0v71.578h24.656q8.344 0 12.75-1.016 6.141-1.422 10.484-5.125 5.672-4.797 8.469-12.25 2.813-7.437 2.813-17 0-8.156-1.906-14.453-1.891-6.297-4.875-10.437-2.984-4.125-6.531-6.5-3.531-2.359-8.531-3.578Q40.047 0 33.547 0zm9.469 8.453h15.281q7.078 0 11.109 1.313 4.031 1.313 6.422 3.719 3.375 3.359 5.25 9.047 1.875 5.688 1.875 13.797 0 11.234-3.687 17.266-3.687 6.031-8.953 8.078-3.812 1.469-12.25 1.469H17.188z" id="M" class="B C"/><path d="M40.438 19l8.641-1.125q-1.422-8.937-7.266-14-5.828-5.047-14.328-5.047-10.641 0-17.109 6.953-6.469 6.969-6.469 19.953 0 8.391 2.781 14.688 2.781 6.313 8.469 9.453 5.688 3.156 12.391 3.156 8.438 0 13.813-4.281 5.375-4.266 6.891-12.125l-8.547-1.328q-1.219 5.234-4.328 7.859-3.094 2.641-7.5 2.641-6.641 0-10.797-4.766-4.141-4.75-4.141-15.047 0-10.453 4-15.187 4.016-4.734 10.453-4.734 5.172 0 8.641 3.172Q39.5 12.406 40.438 19z" id="N" class="B C"/></defs><g transform="matrix(.12 0 0 -.12 236.50306 416.47781)"><use xlink:href="#M"/><use x="72.217" xlink:href="#E"/><use x="127.832" xlink:href="#N"/><use x="177.832" xlink:href="#Y"/><use x="205.615" xlink:href="#F"/><use x="261.23" xlink:href="#G"/><use x="316.846" xlink:href="#H"/><use x="372.461" xlink:href="#I"/></g><g class="F"><path d="M352.022 399.888V18.36" class="D E H I"/><use x="352.022" xlink:href="#A" y="399.888" class="G"/></g><defs><path d="M7.422 0v71.578h14.266l16.938-50.672q2.344-7.094 3.422-10.609 1.219 3.906 3.797 11.484l17.141 49.797h12.75V0h-9.125v59.906L45.797 0H37.25L16.547 60.938V0z" id="O" class="B C"/><path d="M40.438 6.391Q35.547 2.25 31.031.531q-4.516-1.703-9.687-1.703-8.547 0-13.141 4.172-4.594 4.172-4.594 10.672 0 3.813 1.734 6.953 1.734 3.156 4.547 5.063 2.813 1.906 6.328 2.875 2.578.688 7.813 1.328 10.641 1.266 15.672 3.016.047 1.813.047 2.297 0 5.375-2.5 7.578-3.359 2.969-10 2.969-6.203 0-9.156-2.172-2.953-2.172-4.375-7.687l-8.594 1.172q1.172 5.516 3.859 8.906 2.688 3.391 7.766 5.219 5.078 1.844 11.766 1.844 6.641 0 10.781-1.562 4.156-1.562 6.109-3.937 1.953-2.359 2.734-5.984.438-2.234.438-8.094V21.734q0-12.266.563-15.516.563-3.234 2.234-6.219h-9.187q-1.359 2.734-1.75 6.391zm-.734 19.641q-4.797-1.953-14.359-3.328-5.422-.781-7.672-1.766-2.234-.969-3.469-2.844-1.219-1.875-1.219-4.172 0-3.516 2.656-5.859 2.672-2.344 7.797-2.344 5.078 0 9.031 2.219 3.953 2.219 5.813 6.078 1.422 2.984 1.422 8.781z" id="P" class="B C"/><path d="M6.5 0v51.859h7.906V44q3.031 5.516 5.594 7.266 2.563 1.766 5.641 1.766 4.438 0 9.031-2.828l-3.031-8.156q-3.219 1.906-6.437 1.906-2.891 0-5.187-1.734-2.297-1.734-3.266-4.812-1.469-4.687-1.469-10.25V0z" id="Q" class="B C"/><path d="M5.469 16.547l8.453.781q1.063-5.953 4.094-8.641Q21.047 6 25.781 6q4.047 0 7.094 1.859 3.063 1.859 5.016 4.953 1.953 3.109 3.266 8.375 1.328 5.281 1.328 10.75 0 .578-.047 1.75-2.641-4.187-7.203-6.812-4.562-2.609-9.891-2.609-8.891 0-15.047 6.438-6.141 6.453-6.141 17 0 10.891 6.422 17.531Q17 71.875 26.656 71.875q6.984 0 12.766-3.766 5.797-3.75 8.797-10.719 3-6.953 3-20.141 0-13.719-2.984-21.844-2.969-8.125-8.859-12.375-5.875-4.25-13.781-4.25-8.406 0-13.734 4.656-5.312 4.672-6.391 13.109zm35.984 31.594q0 7.578-4.031 12.016-4.016 4.438-9.687 4.438-5.859 0-10.203-4.781-4.344-4.781-4.344-12.406 0-6.828 4.125-11.109 4.125-4.266 10.172-4.266 6.109 0 10.031 4.266 3.938 4.281 3.938 11.844z" id="R" class="B C"/></defs><g transform="matrix(.12 0 0 -.12 326.67698 416.47781)"><use xlink:href="#O"/><use x="83.301" xlink:href="#P"/><use x="138.916" xlink:href="#Q"/><use x="172.217" xlink:href="#Y"/><use x="200" xlink:href="#F"/><use x="255.615" xlink:href="#G"/><use x="311.23" xlink:href="#H"/><use x="366.846" xlink:href="#R"/></g><g class="F"><path d="M443.813 399.888V18.36" class="D E H I"/><use x="443.813" xlink:href="#A" y="399.888" class="G"/></g><g transform="matrix(.12 0 0 -.12 415.79066 416.47781)"><use xlink:href="#B"/><use x="50" xlink:href="#C"/><use x="105.615" xlink:href="#D"/><use x="161.23" xlink:href="#E"/><use x="216.846" xlink:href="#Y"/><use x="244.629" xlink:href="#F"/><use x="300.244" xlink:href="#G"/><use x="355.859" xlink:href="#H"/><use x="411.475" xlink:href="#R"/></g><g class="F"><path d="M535.646 399.888V18.36" class="D E H I"/><use x="535.646" xlink:href="#A" y="399.888" class="G"/></g><g transform="matrix(.12 0 0 -.12 508.29094 416.62406)"><use xlink:href="#J"/><use x="66.699" xlink:href="#E"/><use x="122.314" xlink:href="#K"/><use x="177.93" xlink:href="#L"/><use x="205.713" xlink:href="#Y"/><use x="233.496" xlink:href="#F"/><use x="289.111" xlink:href="#G"/><use x="344.727" xlink:href="#H"/><use x="400.342" xlink:href="#R"/></g><path d="M56.293 399.888h479.353" class="D E F H I"/><defs><path d="M0 0h-4" id="S" class="B C F G"/></defs><use x="56.293" xlink:href="#S" y="399.888" class="F G"/><defs><path d="M9.078 0v10.016h10.016V0z" id="T" class="B C"/></defs><g transform="matrix(.12 0 0 -.12 31.612813 402.99063)"><use xlink:href="#G"/><use x="55.615" xlink:href="#T"/><use x="83.398" xlink:href="#G"/></g><g class="F"><path d="M56.293 323.583h479.353" class="D E H I"/><use x="56.293" xlink:href="#S" y="323.583" class="G"/></g><g transform="matrix(.12 0 0 -.12 31.612813 326.68494)"><use xlink:href="#G"/><use x="55.615" xlink:href="#T"/><use x="83.398" xlink:href="#F"/></g><g class="F"><path d="M56.293 247.277h479.353" class="D E H I"/><use x="56.293" xlink:href="#S" y="247.277" class="G"/></g><defs><path d="M32.328 0v17.141H1.266v8.063l32.672 46.375h7.172V25.203h9.672v-8.062h-9.672V0zm0 25.203v32.266L9.906 25.203z" id="U" class="B C"/></defs><g transform="matrix(.12 0 0 -.12 31.612813 250.37925)"><use xlink:href="#G"/><use x="55.615" xlink:href="#T"/><use x="83.398" xlink:href="#U"/></g><g class="F"><path d="M56.293 170.971h479.353" class="D E H I"/><use x="56.293" xlink:href="#S" y="170.971" class="G"/></g><defs><path d="M49.75 54.047l-8.734-.672q-1.172 5.172-3.312 7.516-3.578 3.766-8.797 3.766-4.203 0-7.375-2.344-4.141-3.031-6.547-8.844-2.391-5.812-2.484-16.547 3.172 4.828 7.766 7.172 4.594 2.344 9.625 2.344 8.781 0 14.953-6.469 6.188-6.469 6.188-16.719 0-6.75-2.906-12.531-2.906-5.781-7.984-8.859-5.078-3.078-11.531-3.078-10.984 0-17.922 8.078Q3.766 14.938 3.766 33.5q0 20.75 7.656 30.172 6.688 8.203 18.016 8.203 8.453 0 13.844-4.734 5.406-4.734 6.469-13.094zM13.875 23.188q0-4.531 1.922-8.687 1.922-4.141 5.391-6.328Q24.656 6 28.469 6q5.563 0 9.563 4.484 4.016 4.5 4.016 12.219 0 7.422-3.969 11.688-3.953 4.281-9.953 4.281-5.953 0-10.109-4.281-4.141-4.266-4.141-11.203z" id="V" class="B C"/></defs><g transform="matrix(.12 0 0 -.12 31.612813 174.07356)"><use xlink:href="#G"/><use x="55.615" xlink:href="#T"/><use x="83.398" xlink:href="#V"/></g><g class="F"><path d="M56.293 94.666h479.353" class="D E H I"/><use x="56.293" xlink:href="#S" y="94.666" class="G"/></g><g transform="matrix(.12 0 0 -.12 31.612813 97.767875)"><use xlink:href="#G"/><use x="55.615" xlink:href="#T"/><use x="83.398" xlink:href="#I"/></g><g class="F"><path d="M56.293 18.36h479.353" class="D E H I"/><use x="56.293" xlink:href="#S" y="18.36" class="G"/></g><g transform="matrix(.12 0 0 -.12 31.612813 21.462188)"><use xlink:href="#H"/><use x="55.615" xlink:href="#T"/><use x="83.398" xlink:href="#G"/></g><defs><path d="M7.625 0v71.578h9.703l37.609-56.203v56.203h9.078V0h-9.719L16.703 56.25V0z" id="W" class="B C"/><path d="M3.328 25.922q0 14.406 8 21.344 6.688 5.766 16.313 5.766 10.688 0 17.469-7.016 6.797-7 6.797-19.359 0-10-3-15.75-3-5.734-8.75-8.906-5.734-3.172-12.516-3.172-10.891 0-17.609 6.984-6.703 6.984-6.703 20.109zm9.031 0q0-9.953 4.344-14.906 4.344-4.953 10.938-4.953 6.547 0 10.891 4.969 4.344 4.984 4.344 15.188 0 9.625-4.375 14.578-4.375 4.953-10.859 4.953-6.594 0-10.937-4.937-4.344-4.922-4.344-14.891z" id="X" class="B C"/><path d="M6.594 0v51.859h7.859v-7.281q2.438 3.813 6.484 6.125 4.063 2.328 9.234 2.328 5.766 0 9.453-2.391 3.688-2.391 5.203-6.687 6.156 9.078 16.016 9.078 7.719 0 11.859-4.281 4.156-4.266 4.156-13.156V0h-8.75v32.672q0 5.266-.859 7.578-.844 2.328-3.094 3.734-2.234 1.422-5.266 1.422-5.469 0-9.094-3.641-3.609-3.625-3.609-11.641V0h-8.781v33.688q0 5.859-2.156 8.781-2.141 2.938-7.031 2.938-3.703 0-6.859-1.953-3.141-1.953-4.562-5.719-1.422-3.75-1.422-10.828V0z" id="Y" class="B C"/><path d="M6.391 0v71.578h8.797V0z" id="Z" class="B C"/><path d="M6.641 61.469v10.109h8.797V61.469zM6.641 0v51.859h8.797V0z" id="a" class="B C"/><path d="M1.953 0v7.125l33.016 37.891q-5.625-.281-9.922-.281H3.906v7.125h42.391v-5.812L18.219 13.141l-5.422-6.016q5.906.438 11.078.438h23.984V0z" id="b" class="B C"/><path d="M40.234 0v6.547q-4.937-7.719-14.5-7.719-6.203 0-11.406 3.422-5.203 3.422-8.062 9.547-2.844 6.125-2.844 14.078 0 7.766 2.578 14.094 2.594 6.328 7.766 9.688 5.188 3.375 11.578 3.375 4.688 0 8.344-1.984 3.672-1.969 5.969-5.141v25.672h8.734V0zM12.453 25.875q0-9.953 4.188-14.891 4.203-4.922 9.922-4.922 5.766 0 9.781 4.703 4.031 4.719 4.031 14.375 0 10.656-4.109 15.625-4.094 4.984-10.094 4.984-5.859 0-9.797-4.781-3.922-4.781-3.922-15.094z" id="c" class="B C"/><path d="M20.219 0l-19 71.578h9.719l10.891-46.922q1.75-7.375 3.031-14.641 2.734 11.469 3.219 13.234l13.625 48.328h11.422l10.25-36.219q3.859-13.484 5.578-25.344 1.359 6.781 3.563 15.578l11.219 45.984h9.531L73.641 0H64.5L49.422 54.547q-1.906 6.828-2.25 8.391-1.125-4.922-2.109-8.391L29.891 0z" id="d" class="B C"/><path d="M6.641 0v71.578h8.797V30.766l20.797 21.094h11.375L27.781 32.625 49.609 0H38.766L21.625 26.516l-6.187-5.953V0z" id="e" class="B C"/><path d="M6.203-19.969l-.984 8.25q2.891-.781 5.031-.781 2.938 0 4.688.984 1.766.969 2.891 2.719.828 1.328 2.688 6.547.234.734.781 2.156L1.609 51.859h9.469l10.797-30.031q2.094-5.719 3.766-12.016 1.516 6.063 3.609 11.813l11.078 30.234h8.797L29.391-.875q-3.172-8.547-4.922-11.766-2.344-4.359-5.375-6.375-3.031-2.031-7.234-2.031-2.531 0-5.656 1.078z" id="f" class="B C"/><path d="M-.141 0l27.484 71.578h10.203L66.844 0H56.063l-8.359 21.688H17.781L9.906 0zm20.656 29.391h24.266l-7.469 19.828q-3.422 9.031-5.078 14.844-1.375-6.891-3.859-13.672z" id="g" class="B C"/><path d="M21 0L1.266 51.859h9.281l11.141-31.062Q23.484 15.766 25 10.359q1.172 4.094 3.266 9.859l11.531 31.641h9.031L29.203 0z" id="h" class="B C"/></defs><g transform="matrix(0 -.144 -.144 0 23.582062 295.93372)"><use xlink:href="#W"/><use x="72.217" xlink:href="#X"/><use x="127.832" xlink:href="#Q"/><use x="161.133" xlink:href="#Y"/><use x="244.434" xlink:href="#P"/><use x="300.049" xlink:href="#Z"/><use x="322.266" xlink:href="#a"/><use x="344.482" xlink:href="#b"/><use x="394.482" xlink:href="#E"/><use x="450.098" xlink:href="#c"/><use x="505.713" xlink:href="#Y"/><use x="533.496" xlink:href="#d"/><use x="627.865" xlink:href="#E"/><use x="683.48" xlink:href="#E"/><use x="739.096" xlink:href="#e"/><use x="789.096" xlink:href="#Z"/><use x="811.313" xlink:href="#f"/><use x="861.313" xlink:href="#Y"/><use x="889.018" xlink:href="#g"/><use x="955.717" xlink:href="#N"/><use x="1005.717" xlink:href="#L"/><use x="1033.5" xlink:href="#a"/><use x="1055.717" xlink:href="#h"/><use x="1105.717" xlink:href="#a"/><use x="1127.934" xlink:href="#L"/><use x="1155.717" xlink:href="#f"/></g><g class="D E"><g class="J"><path d="M59.786 338.571l6.987 54.504 6.987-27.252 6.987 27.252 6.987-6.813 6.987 13.626 6.987-6.813 6.987 6.813 6.987-13.626h6.987l6.987 6.813 6.987 6.813 6.987-6.813 6.987-6.813 6.987 6.813 6.987-6.813h6.987l6.987-6.813 6.987-68.13 6.987-47.691 6.987 40.878 6.987 40.878 6.987-102.195 6.987 68.13 6.987 47.691 6.987-6.813 6.987-13.626h6.987l6.987-95.382 6.987 88.569 6.987-136.26 6.987 20.439 6.987 115.821 6.987-136.26 6.987-54.504 6.987 27.252 6.987-27.252 6.987-61.317 6.987-61.317 6.987 20.439 6.987 354.276 6.987 6.813h6.987l6.987-54.504 6.987 34.065 6.987 20.439 6.987-47.691 6.987 13.626 6.987-115.821 6.987 68.13 6.987-40.878 6.987-122.634 6.987 74.943 6.987-20.439 6.987-27.252 6.987 95.382 6.987-27.252 6.987-40.878 6.987 88.569 6.987-68.13 6.987 34.065 6.987-20.439 6.987 6.813 6.987-27.252 6.987 102.195 6.987-177.138 6.987 81.756 6.987 13.626" stroke="#0072bd" class="H"/><path d="M59.786 295.835l6.987 104.053 6.987-46.246 6.987 34.684h6.987l6.987 11.561 6.987-46.246 6.987 46.246 6.987-11.561 6.987-34.684 6.987 46.246 6.987-11.561 6.987 11.561 6.987-11.561 6.987-11.561 6.987 23.123 6.987-23.123 6.987-57.807 6.987-23.123 6.987-34.684 6.987-69.369 6.987 46.246 6.987-11.561 6.987 34.684 6.987 80.93 6.987-23.123 6.987-34.684 6.987 46.246 6.987-115.615 6.987 46.246 6.987-104.053 6.987 11.561 6.987 173.422 6.987-138.738 6.987-184.983 6.987 127.176 6.987-57.807 6.987-46.246 6.987 80.93 6.987-69.369 6.987 346.844h6.987 6.987l6.987-11.561 6.987-46.246 6.987 57.807 6.987-34.684 6.987 11.561 6.987-57.807h6.987l6.987-23.123 6.987-80.93 6.987 46.246h6.987l6.987 11.561h6.987l6.987-11.561 6.987-11.561 6.987 115.615 6.987-46.246 6.987-57.807 6.987 34.684 6.987-57.807 6.987 69.369 6.987-34.684h6.987 6.987l6.987-11.561" stroke="#d95319" class="H"/><path d="M59.786 358.604l6.987 38.438 6.987-4.271 6.987-1.424 6.987 4.271 6.987 4.271 6.987-8.542 6.987 8.542 6.987-2.847 6.987-15.66 6.987 15.66h6.987l6.987 2.847 6.987-4.271 6.987-1.424 6.987 2.847 6.987-7.118 6.987-18.507 6.987-32.743 6.987-76.875 6.987-34.167 6.987 69.757 6.987 14.236 6.987 8.542 6.987 37.014 6.987 9.965 6.987-39.861 6.987 19.931 6.987-51.25 6.987 14.236 6.987-93.958 6.987-69.757 6.987 135.243 6.987-62.639 6.987-200.73 6.987 129.549 6.987-78.299 6.987 103.924 6.987-35.59 6.987 62.639 6.987 199.306h6.987 6.987l6.987-17.083 6.987-9.965 6.987 27.049 6.987-4.271 6.987-1.424 6.987-15.66 6.987-8.542 6.987 5.694 6.987-37.014 6.987-1.424 6.987-1.424 6.987 14.236 6.987 27.049 6.987-12.813 6.987 4.271 6.987-4.271 6.987 12.813 6.987-64.063 6.987 35.59 6.987-2.847 6.987 35.59 6.987-27.049 6.987-19.931 6.987 17.083 6.987-64.063" stroke="#edb120" class="H"/></g><g class="G K"><path d="M56.293 399.888V18.36m479.353 381.528V18.36"/><path d="M56.293 399.888h479.353M56.293 18.36h479.353"/></g></g><path d="M374.186 90.988h154.26V25.56h-154.26z" fill="#fff" class="G K"/><path d="M379.946 36.587h28.8" stroke="#0072bd" class="D E J"/><defs><path d="M16.156 0L.297 51.859h9.078l8.25-29.937 3.078-11.125q.203.828 2.688 10.688l8.25 30.375h9.031l7.766-30.078 2.594-9.922L54 21.875l8.891 29.984h8.547L55.219 0h-9.125l-8.25 31.063-2 8.828L25.344 0z" id="i" class="B C"/><path d="M54.688 71.578h9.469V30.219q0-10.781-2.437-17.141-2.437-6.344-8.812-10.328-6.375-3.969-16.719-3.969-10.062 0-16.469 3.469-6.391 3.469-9.125 10.031-2.734 6.563-2.734 17.938v41.359h9.469V30.281q0-9.328 1.734-13.75 1.734-4.422 5.953-6.812 4.234-2.391 10.344-2.391 10.438 0 14.875 4.734 4.453 4.734 4.453 18.219z" id="j" class="B C"/><path d="M3.078 15.484l8.688 1.359q.734-5.219 4.078-8 3.344-2.781 9.359-2.781 6.047 0 8.969 2.453 2.938 2.469 2.938 5.797 0 2.969-2.594 4.688-1.797 1.172-8.984 2.969-9.656 2.453-13.391 4.234-3.734 1.781-5.672 4.922-1.922 3.156-1.922 6.969 0 3.453 1.578 6.406 1.594 2.969 4.328 4.922 2.047 1.5 5.578 2.547 3.547 1.063 7.609 1.063 6.094 0 10.703-1.766 4.625-1.75 6.813-4.766 2.203-3 3.031-8.016l-8.594-1.172q-.578 4-3.391 6.234-2.812 2.25-7.937 2.25-6.047 0-8.641-2-2.594-2-2.594-4.687 0-1.703 1.078-3.078 1.078-1.406 3.375-2.344 1.313-.484 7.766-2.234 9.328-2.5 13-4.094 3.688-1.578 5.781-4.609 2.109-3.016 2.109-7.516 0-4.391-2.562-8.281-2.562-3.875-7.406-6-4.828-2.125-10.922-2.125-10.109 0-15.406 4.203-5.297 4.203-6.766 12.453z" id="k" class="B C"/></defs><g transform="matrix(.144 0 0 -.144 420.26625 41.62725)"><use xlink:href="#W"/><use x="72.217" xlink:href="#E"/><use x="127.832" xlink:href="#i"/><use x="200.049" xlink:href="#Y"/><use x="227.832" xlink:href="#j"/><use x="300.049" xlink:href="#k"/><use x="350.049" xlink:href="#E"/><use x="405.664" xlink:href="#Q"/><use x="438.965" xlink:href="#k"/></g><path d="M379.946 56.957h28.8" stroke="#d95319" class="D E J"/><defs><path d="M25.922 0v63.141H2.344v8.438h56.734v-8.437H35.406V0z" id="l" class="B C"/><path d="M6.594 0v71.578h8.781V45.906q6.156 7.125 15.531 7.125 5.766 0 10.016-2.281 4.25-2.266 6.078-6.266 1.828-4 1.828-11.625V0h-8.781v32.859q0 6.594-2.859 9.594-2.859 3-8.078 3-3.906 0-7.359-2.031-3.437-2.016-4.906-5.484-1.469-3.469-1.469-9.562V0z" id="m" class="B C"/></defs><g transform="matrix(.144 0 0 -.144 420.26625 61.9965)"><use xlink:href="#W"/><use x="72.217" xlink:href="#E"/><use x="127.832" xlink:href="#i"/><use x="200.049" xlink:href="#Y"/><use x="227.816" xlink:href="#l"/><use x="288.9" xlink:href="#m"/><use x="344.516" xlink:href="#Q"/><use x="377.816" xlink:href="#E"/><use x="433.432" xlink:href="#P"/><use x="489.047" xlink:href="#c"/><use x="544.662" xlink:href="#k"/></g><path d="M379.946 77.326h28.8" stroke="#edb120" class="D E J"/><defs><path d="M58.797 25.094l9.469-2.391Q65.281 11.031 57.547 4.906q-7.734-6.125-18.922-6.125-11.578 0-18.828 4.703-7.25 4.719-11.031 13.656-3.781 8.938-3.781 19.188 0 11.188 4.266 19.5 4.281 8.328 12.156 12.641 7.891 4.328 17.359 4.328 10.75 0 18.063-5.469 7.328-5.469 10.219-15.375l-9.328-2.203q-2.5 7.813-7.234 11.375-4.734 3.578-11.906 3.578-8.25 0-13.797-3.969-5.547-3.953-7.797-10.625-2.234-6.656-2.234-13.734 0-9.125 2.656-15.937 2.656-6.812 8.266-10.187 5.625-3.359 12.172-3.359 7.953 0 13.469 4.578 5.531 4.594 7.484 13.625z" id="n" class="B C"/></defs><g transform="matrix(.144 0 0 -.144 420.26625 82.36575)"><use xlink:href="#W"/><use x="72.217" xlink:href="#E"/><use x="127.832" xlink:href="#i"/><use x="200.049" xlink:href="#Y"/><use x="227.832" xlink:href="#n"/><use x="300.049" xlink:href="#X"/><use x="355.664" xlink:href="#Y"/><use x="438.965" xlink:href="#Y"/><use x="522.266" xlink:href="#E"/><use x="577.881" xlink:href="#D"/><use x="633.496" xlink:href="#L"/><use x="661.279" xlink:href="#k"/></g></g><defs><clipPath id="o"><path d="M56.293 18.36h479.353v381.528H56.293z" class="B C"/></clipPath></defs></svg>