<svg xmlns="http://www.w3.org/2000/svg" xmlns:xlink="http://www.w3.org/1999/xlink" height="576" viewBox="0 0 1152 432" width="1536" stroke-linecap="butt" stroke-linejoin="round" xmlns:v="https://vecta.io/nano"><style><![CDATA[.B{clip-path:url(#V)}.C{stroke-linecap:butt}.D{stroke-linejoin:round}.E{stroke-width:.5}.F{stroke:#000}.G{stroke-linecap:square}.H{fill:none}.I{stroke:#b2b2b2}]]></style><g transform="translate(288)"><g fill="#fff"><path d="M0 432h576V0H0z"/><path d="M62.93 381.74h490.153V18.36H62.93z"/></g><path d="M62.93 381.74V18.36" class="B E G H I"/><defs><path d="M0 0v4" id="A" class="C D E F"/></defs><use x="62.93" xlink:href="#A" y="381.74" class="E F"/><defs><path d="M4.156 35.297q0 12.703 2.609 20.438 2.609 7.75 7.75 11.938 5.156 4.203 12.969 4.203 5.766 0 10.109-2.328 4.344-2.312 7.172-6.687 2.844-4.359 4.453-10.641 1.609-6.266 1.609-16.922 0-12.594-2.594-20.328Q45.656 7.234 40.5 3q-5.141-4.219-13.016-4.219-10.344 0-16.25 7.422-7.078 8.938-7.078 29.094zm9.031 0q0-17.625 4.125-23.469Q21.438 6 27.484 6q6.063 0 10.188 5.859 4.125 5.859 4.125 23.438 0 17.688-4.125 23.484-4.125 5.813-10.281 5.813-6.047 0-9.672-5.125-4.531-6.531-4.531-24.172z" id="B" class="C D"/></defs><use xlink:href="#B" transform="matrix(.12 0 0 -.12 59.59375 398.32938)"/><g class="E"><path d="M160.961 381.74V18.36" class="B G H I"/><use x="160.961" xlink:href="#A" y="381.74" class="F"/></g><defs><path d="M50.344 8.453V0H3.031q-.094 3.172 1.016 6.109 1.813 4.828 5.781 9.516 3.984 4.688 11.516 10.844 11.672 9.563 15.766 15.156 4.109 5.594 4.109 10.578 0 5.219-3.75 8.797-3.734 3.594-9.734 3.594-6.344 0-10.156-3.812-3.812-3.797-3.859-10.531l-9.031.922q.922 10.109 6.969 15.406 6.063 5.297 16.281 5.297 10.297 0 16.297-5.719Q50.25 60.453 50.25 52q0-4.297-1.766-8.453-1.75-4.141-5.828-8.734-4.078-4.594-13.547-12.594-7.922-6.641-10.172-9.016-2.234-2.359-3.703-4.75z" id="C" class="C D"/></defs><g transform="matrix(.12 0 0 -.12 154.28788 398.32938)"><use xlink:href="#C"/><use x="55.615" xlink:href="#B"/></g><g class="E"><path d="M258.992 381.74V18.36" class="B G H I"/><use x="258.992" xlink:href="#A" y="381.74" class="F"/></g><defs><path d="M32.328 0v17.141H1.266v8.063l32.672 46.375h7.172V25.203h9.672v-8.062h-9.672V0zm0 25.203v32.266L9.906 25.203z" id="D" class="C D"/></defs><g transform="matrix(.12 0 0 -.12 252.31856 398.32938)"><use xlink:href="#D"/><use x="55.615" xlink:href="#B"/></g><g class="E"><path d="M357.022 381.74V18.36" class="B G H I"/><use x="357.022" xlink:href="#A" y="381.74" class="F"/></g><defs><path d="M49.75 54.047l-8.734-.672q-1.172 5.172-3.312 7.516-3.578 3.766-8.797 3.766-4.203 0-7.375-2.344-4.141-3.031-6.547-8.844-2.391-5.812-2.484-16.547 3.172 4.828 7.766 7.172 4.594 2.344 9.625 2.344 8.781 0 14.953-6.469 6.188-6.469 6.188-16.719 0-6.75-2.906-12.531-2.906-5.781-7.984-8.859-5.078-3.078-11.531-3.078-10.984 0-17.922 8.078Q3.766 14.938 3.766 33.5q0 20.75 7.656 30.172 6.688 8.203 18.016 8.203 8.453 0 13.844-4.734 5.406-4.734 6.469-13.094zM13.875 23.188q0-4.531 1.922-8.687 1.922-4.141 5.391-6.328Q24.656 6 28.469 6q5.563 0 9.563 4.484 4.016 4.5 4.016 12.219 0 7.422-3.969 11.688-3.953 4.281-9.953 4.281-5.953 0-10.109-4.281-4.141-4.266-4.141-11.203z" id="E" class="C D"/></defs><g transform="matrix(.12 0 0 -.12 350.34925 398.32938)"><use xlink:href="#E"/><use x="55.615" xlink:href="#B"/></g><g class="E"><path d="M455.053 381.74V18.36" class="B G H I"/><use x="455.053" xlink:href="#A" y="381.74" class="F"/></g><defs><path d="M17.672 38.813q-5.469 2.016-8.109 5.719-2.625 3.719-2.625 8.891 0 7.813 5.609 13.125 5.625 5.328 14.938 5.328 9.375 0 15.094-5.453 5.719-5.437 5.719-13.25 0-4.984-2.625-8.672-2.609-3.672-7.922-5.687 6.594-2.141 10.031-6.937 3.438-4.781 3.438-11.422 0-9.172-6.5-15.422-6.484-6.25-17.078-6.25-10.594 0-17.094 6.266-6.5 6.281-6.5 15.656 0 6.984 3.547 11.688 3.547 4.719 10.078 6.422zm-1.75 14.906q0-5.078 3.266-8.312 3.281-3.219 8.5-3.219 5.078 0 8.328 3.188 3.25 3.203 3.25 7.844 0 4.844-3.359 8.141-3.344 3.297-8.312 3.297-5.031 0-8.359-3.234-3.312-3.219-3.312-7.703zm-2.828-33.062q0-3.766 1.781-7.281 1.781-3.516 5.297-5.453Q23.688 6 27.734 6q6.297 0 10.391 4.047 4.109 4.063 4.109 10.313 0 6.344-4.219 10.5-4.219 4.156-10.578 4.156-6.203 0-10.281-4.109-4.062-4.094-4.062-10.25z" id="F" class="C D"/></defs><g transform="matrix(.12 0 0 -.12 448.37994 398.32938)"><use xlink:href="#F"/><use x="55.615" xlink:href="#B"/></g><g class="E"><path d="M553.084 381.74V18.36" class="B G H I"/><use x="553.084" xlink:href="#A" y="381.74" class="F"/></g><defs><path d="M37.25 0h-8.781v56q-3.172-3.016-8.328-6.047-5.156-3.031-9.25-4.547v8.5q7.375 3.469 12.891 8.391 5.516 4.938 7.813 9.578h5.656z" id="G" class="C D"/></defs><g transform="matrix(.12 0 0 -.12 543.07406 398.32938)"><use xlink:href="#G"/><use x="55.615" xlink:href="#B"/><use x="111.23" xlink:href="#B"/></g><defs><path d="M-.141 0l27.484 71.578h10.203L66.844 0H56.063l-8.359 21.688H17.781L9.906 0zm20.656 29.391h24.266l-7.469 19.828q-3.422 9.031-5.078 14.844-1.375-6.891-3.859-13.672z" id="H" class="C D"/><path d="M4.984-4.297l8.547-1.266q.531-3.953 2.969-5.766 3.281-2.437 8.938-2.437 6.109 0 9.422 2.438 3.328 2.438 4.5 6.828.688 2.688.625 11.281Q34.234 0 25.641 0 14.938 0 9.078 7.719q-5.859 7.719-5.859 18.5 0 7.422 2.688 13.688 2.688 6.281 7.781 9.703 5.109 3.422 12 3.422 9.172 0 15.141-7.422v6.25h8.094V7.031q0-12.109-2.469-17.156-2.453-5.062-7.812-7.984-5.344-2.937-13.156-2.937-9.266 0-14.984 4.172-5.719 4.172-5.516 12.578zm7.266 31.156q0-10.203 4.047-14.891 4.063-4.687 10.172-4.687 6.047 0 10.141 4.656 4.109 4.672 4.109 14.625 0 9.516-4.219 14.344-4.219 4.844-10.187 4.844-5.859 0-9.969-4.766-4.094-4.75-4.094-14.125z" id="I" class="C D"/><path d="M42.094 16.703l9.078-1.125q-2.141-7.953-7.953-12.359-5.812-4.391-14.844-4.391-11.375 0-18.047 7-6.672 7.016-6.672 19.656 0 13.094 6.734 20.313 6.75 7.234 17.484 7.234 10.406 0 17-7.078 6.594-7.078 6.594-19.922 0-.781-.047-2.344H12.75q.484-8.547 4.828-13.094 4.344-4.531 10.844-4.531 4.828 0 8.25 2.531 3.422 2.547 5.422 8.109zM13.234 30.906h28.953q-.578 6.547-3.312 9.813-4.203 5.078-10.891 5.078-6.062 0-10.187-4.047-4.125-4.047-4.562-10.844z" id="J" class="C D"/></defs><g transform="matrix(.144 0 0 -.144 295.19666 416.02162)"><use xlink:href="#H"/><use x="66.699" xlink:href="#I"/><use x="122.314" xlink:href="#J"/></g><path d="M62.93 381.74h490.153" class="B E G H I"/><defs><path d="M0 0h-4" id="K" class="C D E F"/></defs><use x="62.93" xlink:href="#K" y="381.74" class="E F"/><defs><path d="M9.078 0v10.016h10.016V0z" id="L" class="C D"/></defs><g transform="matrix(.12 0 0 -.12 31.577187 384.84219)"><use xlink:href="#B"/><use x="55.615" xlink:href="#L"/><use x="83.398" xlink:href="#B"/><use x="139.014" xlink:href="#B"/></g><g class="E"><path d="M62.93 329.829h490.153" class="B G H I"/><use x="62.93" xlink:href="#K" y="329.829" class="F"/></g><g transform="matrix(.12 0 0 -.12 31.577187 332.93076)"><use xlink:href="#B"/><use x="55.615" xlink:href="#L"/><use x="83.398" xlink:href="#B"/><use x="139.014" xlink:href="#C"/></g><g class="E"><path d="M62.93 277.917h490.153" class="B G H I"/><use x="62.93" xlink:href="#K" y="277.917" class="F"/></g><g transform="matrix(.12 0 0 -.12 31.577187 281.01933)"><use xlink:href="#B"/><use x="55.615" xlink:href="#L"/><use x="83.398" xlink:href="#B"/><use x="139.014" xlink:href="#D"/></g><g class="E"><path d="M62.93 226.006h490.153" class="B G H I"/><use x="62.93" xlink:href="#K" y="226.006" class="F"/></g><g transform="matrix(.12 0 0 -.12 31.577187 229.1079)"><use xlink:href="#B"/><use x="55.615" xlink:href="#L"/><use x="83.398" xlink:href="#B"/><use x="139.014" xlink:href="#E"/></g><g class="E"><path d="M62.93 174.094h490.153" class="B G H I"/><use x="62.93" xlink:href="#K" y="174.094" class="F"/></g><g transform="matrix(.12 0 0 -.12 31.577187 177.19647)"><use xlink:href="#B"/><use x="55.615" xlink:href="#L"/><use x="83.398" xlink:href="#B"/><use x="139.014" xlink:href="#F"/></g><g class="E"><path d="M62.93 122.183h490.153" class="B G H I"/><use x="62.93" xlink:href="#K" y="122.183" class="F"/></g><g transform="matrix(.12 0 0 -.12 31.577187 125.28504)"><use xlink:href="#B"/><use x="55.615" xlink:href="#L"/><use x="83.398" xlink:href="#G"/><use x="139.014" xlink:href="#B"/></g><g class="E"><path d="M62.93 70.271h490.153" class="B G H I"/><use x="62.93" xlink:href="#K" y="70.271" class="F"/></g><g transform="matrix(.12 0 0 -.12 31.577187 73.373616)"><use xlink:href="#B"/><use x="55.615" xlink:href="#L"/><use x="83.398" xlink:href="#G"/><use x="139.014" xlink:href="#C"/></g><g class="E"><path d="M62.93 18.36h490.153" class="B G H I"/><use x="62.93" xlink:href="#K" y="18.36" class="F"/></g><g transform="matrix(.12 0 0 -.12 31.577187 21.462188)"><use xlink:href="#B"/><use x="55.615" xlink:href="#L"/><use x="83.398" xlink:href="#G"/><use x="139.014" xlink:href="#D"/></g><defs><path d="M7.719 0v71.578h27q7.125 0 10.891-.672 5.266-.891 8.828-3.359 3.578-2.453 5.75-6.906 2.172-4.437 2.172-9.766 0-9.125-5.812-15.453-5.812-6.312-21-6.312H17.188V0zm9.469 37.547h18.5q9.188 0 13.047 3.422 3.859 3.422 3.859 9.625 0 4.484-2.281 7.672-2.266 3.203-5.969 4.234-2.406.641-8.844.641H17.188z" id="M" class="C D"/><path d="M6.5 0v51.859h7.906V44q3.031 5.516 5.594 7.266 2.563 1.766 5.641 1.766 4.438 0 9.031-2.828l-3.031-8.156q-3.219 1.906-6.437 1.906-2.891 0-5.187-1.734-2.297-1.734-3.266-4.812-1.469-4.687-1.469-10.25V0z" id="N" class="C D"/><path d="M3.328 25.922q0 14.406 8 21.344 6.688 5.766 16.313 5.766 10.688 0 17.469-7.016 6.797-7 6.797-19.359 0-10-3-15.75-3-5.734-8.75-8.906-5.734-3.172-12.516-3.172-10.891 0-17.609 6.984-6.703 6.984-6.703 20.109zm9.031 0q0-9.953 4.344-14.906 4.344-4.953 10.938-4.953 6.547 0 10.891 4.969 4.344 4.984 4.344 15.188 0 9.625-4.375 14.578-4.375 4.953-10.859 4.953-6.594 0-10.937-4.937-4.344-4.922-4.344-14.891z" id="O" class="C D"/><path d="M14.703 0H6.547v71.578h8.781V46.047q5.578 6.984 14.219 6.984 4.781 0 9.047-1.937 4.281-1.922 7.031-5.422 2.766-3.484 4.328-8.422 1.563-4.922 1.563-10.547 0-13.328-6.594-20.609-6.594-7.266-15.812-7.266-9.187 0-14.406 7.672zm-.109 26.313q0-9.312 2.547-13.469 4.156-6.781 11.234-6.781 5.75 0 9.953 5 4.203 5 4.203 14.922 0 10.156-4.031 14.984-4.031 4.828-9.734 4.828-5.766 0-9.969-5-4.203-5-4.203-14.484z" id="P" class="C D"/><path d="M40.438 6.391Q35.547 2.25 31.031.531q-4.516-1.703-9.687-1.703-8.547 0-13.141 4.172-4.594 4.172-4.594 10.672 0 3.813 1.734 6.953 1.734 3.156 4.547 5.063 2.813 1.906 6.328 2.875 2.578.688 7.813 1.328 10.641 1.266 15.672 3.016.047 1.813.047 2.297 0 5.375-2.5 7.578-3.359 2.969-10 2.969-6.203 0-9.156-2.172-2.953-2.172-4.375-7.687l-8.594 1.172q1.172 5.516 3.859 8.906 2.688 3.391 7.766 5.219 5.078 1.844 11.766 1.844 6.641 0 10.781-1.562 4.156-1.562 6.109-3.937 1.953-2.359 2.734-5.984.438-2.234.438-8.094V21.734q0-12.266.563-15.516.563-3.234 2.234-6.219h-9.187q-1.359 2.734-1.75 6.391zm-.734 19.641q-4.797-1.953-14.359-3.328-5.422-.781-7.672-1.766-2.234-.969-3.469-2.844-1.219-1.875-1.219-4.172 0-3.516 2.656-5.859 2.672-2.344 7.797-2.344 5.078 0 9.031 2.219 3.953 2.219 5.813 6.078 1.422 2.984 1.422 8.781z" id="Q" class="C D"/><path d="M6.641 61.469v10.109h8.797V61.469zM6.641 0v51.859h8.797V0z" id="R" class="C D"/><path d="M6.391 0v71.578h8.797V0z" id="S" class="C D"/><path d="M25.781 7.859L27.047.094q-3.703-.781-6.641-.781-4.781 0-7.422 1.516-2.625 1.516-3.703 3.984-1.078 2.469-1.078 10.375v29.828H1.766v6.844h6.438v12.844l8.734 5.266V51.859h8.844v-6.844h-8.844V14.703q0-3.766.469-4.844.469-1.062 1.516-1.703 1.047-.641 3-.641 1.469 0 3.859.344z" id="T" class="C D"/><path d="M6.203-19.969l-.984 8.25q2.891-.781 5.031-.781 2.938 0 4.688.984 1.766.969 2.891 2.719.828 1.328 2.688 6.547.234.734.781 2.156L1.609 51.859h9.469l10.797-30.031q2.094-5.719 3.766-12.016 1.516 6.063 3.609 11.813l11.078 30.234h8.797L29.391-.875q-3.172-8.547-4.922-11.766-2.344-4.359-5.375-6.375-3.031-2.031-7.234-2.031-2.531 0-5.656 1.078z" id="U" class="C D"/></defs><g transform="matrix(0 -.144 -.144 0 23.546437 233.665)"><use xlink:href="#M"/><use x="66.699" xlink:href="#N"/><use x="100" xlink:href="#O"/><use x="155.615" xlink:href="#P"/><use x="211.23" xlink:href="#Q"/><use x="266.846" xlink:href="#P"/><use x="322.461" xlink:href="#R"/><use x="344.678" xlink:href="#S"/><use x="366.895" xlink:href="#R"/><use x="389.111" xlink:href="#T"/><use x="416.895" xlink:href="#U"/></g><g fill="#0072bd"><path d="M62.93 381.74h4.902v-28.01H62.93z" class="B"/><path d="M67.832 381.74h4.902v-9.337h-4.902z" class="B"/><path d="M72.733 381.74h4.902v-9.337h-4.902z" class="B"/><path d="M77.635 381.74h4.902v-9.337h-4.902z" class="B"/><path d="M82.536 381.74h4.902 0-4.902z" class="B"/><path d="M87.438 381.74h4.902v-9.337h-4.902z" class="B"/><path d="M92.34 381.74h4.902 0-4.902z" class="B"/><path d="M97.241 381.74h4.902 0-4.902z" class="B"/><path d="M102.143 381.74h4.902 0-4.902z" class="B"/><path d="M107.044 381.74h4.902 0-4.902z" class="B"/><path d="M111.946 381.74h4.902 0-4.902z" class="B"/><path d="M116.847 381.74h4.902v-9.337h-4.902z" class="B"/><path d="M121.749 381.74h4.902 0-4.902z" class="B"/><path d="M126.65 381.74h4.902v-28.01h-4.902z" class="B"/><path d="M131.552 381.74h4.902 0-4.902z" class="B"/><path d="M136.453 381.74h4.902v-74.693h-4.902z" class="B"/><path d="M141.355 381.74h4.902V223.018h-4.902z" class="B"/><path d="M146.256 381.74h4.902V148.325h-4.902z" class="B"/><path d="M151.158 381.74h4.902V26.95h-4.902z" class="B"/><path d="M156.059 381.74h4.902V185.672h-4.902z" class="B"/><path d="M160.961 381.74h4.902V166.998h-4.902z" class="B"/><path d="M165.863 381.74h4.902V166.998h-4.902z" class="B"/><path d="M170.764 381.74h4.902v-93.366h-4.902z" class="B"/><path d="M175.666 381.74h4.902V260.364h-4.902z" class="B"/><path d="M180.567 381.74h4.902v-65.356h-4.902z" class="B"/><path d="M185.469 381.74h4.902v-46.683h-4.902z" class="B"/><path d="M190.37 381.74h4.902v-37.346h-4.902z" class="B"/><path d="M195.272 381.74h4.902v-37.346h-4.902z" class="B"/><path d="M200.173 381.74h4.902v-18.673h-4.902z" class="B"/><path d="M205.075 381.74h4.902v-9.337h-4.902z" class="B"/><path d="M209.976 381.74h4.902v-65.356h-4.902z" class="B"/><path d="M214.878 381.74h4.902 0-4.902z" class="B"/><path d="M219.779 381.74h4.902v-9.337h-4.902z" class="B"/><path d="M224.681 381.74h4.902 0-4.902z" class="B"/><path d="M229.582 381.74h4.902v-37.346h-4.902z" class="B"/><path d="M234.484 381.74h4.902 0-4.902z" class="B"/><path d="M239.386 381.74h4.902v-18.673h-4.902z" class="B"/><path d="M244.287 381.74h4.902v-9.337h-4.902z" class="B"/><path d="M249.189 381.74h4.902 0-4.902z" class="B"/><path d="M254.09 381.74h4.902v-9.337h-4.902z" class="B"/><path d="M258.992 381.74h4.902 0-4.902z" class="B"/><path d="M263.893 381.74h4.902 0-4.902z" class="B"/><path d="M268.795 381.74h4.902 0-4.902z" class="B"/><path d="M273.696 381.74h4.902v-9.337h-4.902z" class="B"/><path d="M278.598 381.74h4.902 0-4.902z" class="B"/><path d="M283.499 381.74h4.902v-9.337h-4.902z" class="B"/><path d="M288.401 381.74h4.902 0-4.902z" class="B"/><path d="M293.302 381.74h4.902v-9.337h-4.902z" class="B"/><path d="M298.204 381.74h4.902 0-4.902z" class="B"/><path d="M303.106 381.74h4.902 0-4.902z" class="B"/><path d="M308.007 381.74h4.902v-9.337h-4.902z" class="B"/><path d="M312.909 381.74h4.902 0-4.902z" class="B"/><path d="M317.81 381.74h4.902 0-4.902z" class="B"/><path d="M322.712 381.74h4.902 0-4.902z" class="B"/><path d="M327.613 381.74h4.902 0-4.902z" class="B"/><path d="M332.515 381.74h4.902 0-4.902z" class="B"/><path d="M337.416 381.74h4.902 0-4.902z" class="B"/><path d="M342.318 381.74h4.902 0-4.902z" class="B"/><path d="M347.219 381.74h4.902v-18.673h-4.902z" class="B"/><path d="M352.121 381.74h4.902 0-4.902z" class="B"/><path d="M357.022 381.74h4.902 0-4.902z" class="B"/><path d="M361.924 381.74h4.902 0-4.902z" class="B"/><path d="M366.825 381.74h4.902 0-4.902z" class="B"/><path d="M371.727 381.74h4.902 0-4.902z" class="B"/><path d="M376.629 381.74h4.902 0-4.902z" class="B"/><path d="M381.53 381.74h4.902 0-4.902z" class="B"/><path d="M386.432 381.74h4.902 0-4.902z" class="B"/><path d="M391.333 381.74h4.902 0-4.902z" class="B"/><path d="M396.235 381.74h4.902 0-4.902z" class="B"/><path d="M401.136 381.74h4.902v-9.337h-4.902z" class="B"/><path d="M406.038 381.74h4.902 0-4.902z" class="B"/><path d="M410.939 381.74h4.902 0-4.902z" class="B"/><path d="M415.841 381.74h4.902 0-4.902z" class="B"/><path d="M420.742 381.74h4.902 0-4.902z" class="B"/><path d="M425.644 381.74h4.902 0-4.902z" class="B"/><path d="M430.545 381.74h4.902 0-4.902z" class="B"/><path d="M435.447 381.74h4.902 0-4.902z" class="B"/><path d="M440.348 381.74h4.902 0-4.902z" class="B"/><path d="M445.25 381.74h4.902 0-4.902z" class="B"/><path d="M450.152 381.74h4.902 0-4.902z" class="B"/><path d="M455.053 381.74h4.902 0-4.902z" class="B"/><path d="M459.955 381.74h4.902 0-4.902z" class="B"/><path d="M464.856 381.74h4.902 0-4.902z" class="B"/><path d="M469.758 381.74h4.902 0-4.902z" class="B"/><path d="M474.659 381.74h4.902v-9.337h-4.902z" class="B"/><path d="M479.561 381.74h4.902 0-4.902z" class="B"/><path d="M484.462 381.74h4.902v-9.337h-4.902z" class="B"/><path d="M489.364 381.74h4.902 0-4.902z" class="B"/><path d="M494.265 381.74h4.902V176.335h-4.902z" class="B"/><path d="M499.167 381.74h4.902 0-4.902z" class="B"/><path d="M504.068 381.74h4.902 0-4.902z" class="B"/><path d="M508.97 381.74h4.902 0-4.902z" class="B"/><path d="M513.871 381.74h4.902 0-4.902z" class="B"/><path d="M518.773 381.74h4.902v-9.337h-4.902z" class="B"/><path d="M523.675 381.74h4.902 0-4.902z" class="B"/><path d="M528.576 381.74h4.902 0-4.902z" class="B"/><path d="M533.478 381.74h4.902 0-4.902z" class="B"/><path d="M538.379 381.74h4.902v-9.337h-4.902z" class="B"/><path d="M543.281 381.74h4.902v-28.01h-4.902z" class="B"/></g><g stroke-linejoin="miter" class="F G H"><path d="M62.93 381.74V18.36m490.154 363.38V18.36"/><path d="M62.93 381.74h490.153M62.93 18.36h490.153"/></g></g><defs><clipPath id="V"><path d="M62.93 18.36h490.153v363.38H62.93z" class="C D"/></clipPath></defs></svg>