<svg xmlns="http://www.w3.org/2000/svg" xmlns:xlink="http://www.w3.org/1999/xlink" height="192" viewBox="0 0 1152 144" width="1536" stroke-linecap="butt" stroke-linejoin="round" xmlns:v="https://vecta.io/nano"><style><![CDATA[.B{stroke-linecap:butt}.C{stroke-linejoin:round}.D{clip-path:url(#Z)}.E{stroke:#000}.F{stroke-width:.5}.G{stroke-linecap:square}.H{fill:none}.I{stroke:#b2b2b2}.J{stroke-linejoin:miter}]]></style><g transform="translate(288)"><g fill="#fff"><path d="M0 144h576V0H0z"/><path d="M16.56 93.74h371.259V16.56H16.56z"/></g><path d="M16.56 93.74V16.56" class="D F G H I"/><defs><path id="A" d="M0 0v4" class="B C E F"/></defs><use y="93.74" xlink:href="#A" x="16.56" class="E F"/><defs><path id="B" d="M4.156 35.297q0 12.703 2.609 20.438 2.609 7.75 7.75 11.938 5.156 4.203 12.969 4.203 5.766 0 10.109-2.328 4.344-2.312 7.172-6.687 2.844-4.359 4.453-10.641 1.609-6.266 1.609-16.922 0-12.594-2.594-20.328Q45.656 7.234 40.5 3q-5.141-4.219-13.016-4.219-10.344 0-16.25 7.422-7.078 8.938-7.078 29.094zm9.031 0q0-17.625 4.125-23.469Q21.438 6 27.484 6q6.063 0 10.188 5.859 4.125 5.859 4.125 23.438 0 17.688-4.125 23.484-4.125 5.813-10.281 5.813-6.047 0-9.672-5.125-4.531-6.531-4.531-24.172z" class="B C"/></defs><use xlink:href="#B" transform="matrix(.12 0 0 -.12 13.223437 110.32938)"/><g class="F"><path d="M86.543 93.74V16.56" class="D G H I"/><use y="93.74" xlink:href="#A" x="86.543" class="E"/></g><defs><path id="C" d="M50.344 8.453V0H3.031q-.094 3.172 1.016 6.109 1.813 4.828 5.781 9.516 3.984 4.688 11.516 10.844 11.672 9.563 15.766 15.156 4.109 5.594 4.109 10.578 0 5.219-3.75 8.797-3.734 3.594-9.734 3.594-6.344 0-10.156-3.812-3.812-3.797-3.859-10.531l-9.031.922q.922 10.109 6.969 15.406 6.063 5.297 16.281 5.297 10.297 0 16.297-5.719Q50.25 60.453 50.25 52q0-4.297-1.766-8.453-1.75-4.141-5.828-8.734-4.078-4.594-13.547-12.594-7.922-6.641-10.172-9.016-2.234-2.359-3.703-4.75z" class="B C"/></defs><g transform="matrix(.12 0 0 -.12 76.533159 110.32938)"><use xlink:href="#C"/><use xlink:href="#B" x="55.615"/><use xlink:href="#B" x="111.23"/></g><g class="F"><path d="M156.526 93.74V16.56" class="D G H I"/><use y="93.74" xlink:href="#A" x="156.526" class="E"/></g><defs><path id="D" d="M32.328 0v17.141H1.266v8.063l32.672 46.375h7.172V25.203h9.672v-8.062h-9.672V0zm0 25.203v32.266L9.906 25.203z" class="B C"/></defs><g transform="matrix(.12 0 0 -.12 146.516 110.32938)"><use xlink:href="#D"/><use xlink:href="#B" x="55.615"/><use xlink:href="#B" x="111.23"/></g><g class="F"><path d="M226.509 93.74V16.56" class="D G H I"/><use y="93.74" xlink:href="#A" x="226.509" class="E"/></g><defs><path id="E" d="M49.75 54.047l-8.734-.672q-1.172 5.172-3.312 7.516-3.578 3.766-8.797 3.766-4.203 0-7.375-2.344-4.141-3.031-6.547-8.844-2.391-5.812-2.484-16.547 3.172 4.828 7.766 7.172 4.594 2.344 9.625 2.344 8.781 0 14.953-6.469 6.188-6.469 6.188-16.719 0-6.75-2.906-12.531-2.906-5.781-7.984-8.859-5.078-3.078-11.531-3.078-10.984 0-17.922 8.078Q3.766 14.938 3.766 33.5q0 20.75 7.656 30.172 6.688 8.203 18.016 8.203 8.453 0 13.844-4.734 5.406-4.734 6.469-13.094zM13.875 23.188q0-4.531 1.922-8.687 1.922-4.141 5.391-6.328Q24.656 6 28.469 6q5.563 0 9.563 4.484 4.016 4.5 4.016 12.219 0 7.422-3.969 11.688-3.953 4.281-9.953 4.281-5.953 0-10.109-4.281-4.141-4.266-4.141-11.203z" class="B C"/></defs><g transform="matrix(.12 0 0 -.12 216.49885 110.32938)"><use xlink:href="#E"/><use xlink:href="#B" x="55.615"/><use xlink:href="#B" x="111.23"/></g><g class="F"><path d="M296.491 93.74V16.56" class="D G H I"/><use y="93.74" xlink:href="#A" x="296.491" class="E"/></g><defs><path id="F" d="M17.672 38.813q-5.469 2.016-8.109 5.719-2.625 3.719-2.625 8.891 0 7.813 5.609 13.125 5.625 5.328 14.938 5.328 9.375 0 15.094-5.453 5.719-5.437 5.719-13.25 0-4.984-2.625-8.672-2.609-3.672-7.922-5.687 6.594-2.141 10.031-6.937 3.438-4.781 3.438-11.422 0-9.172-6.5-15.422-6.484-6.25-17.078-6.25-10.594 0-17.094 6.266-6.5 6.281-6.5 15.656 0 6.984 3.547 11.688 3.547 4.719 10.078 6.422zm-1.75 14.906q0-5.078 3.266-8.312 3.281-3.219 8.5-3.219 5.078 0 8.328 3.188 3.25 3.203 3.25 7.844 0 4.844-3.359 8.141-3.344 3.297-8.312 3.297-5.031 0-8.359-3.234-3.312-3.219-3.312-7.703zm-2.828-33.062q0-3.766 1.781-7.281 1.781-3.516 5.297-5.453Q23.688 6 27.734 6q6.297 0 10.391 4.047 4.109 4.063 4.109 10.313 0 6.344-4.219 10.5-4.219 4.156-10.578 4.156-6.203 0-10.281-4.109-4.062-4.094-4.062-10.25z" class="B C"/></defs><g transform="matrix(.12 0 0 -.12 286.4817 110.32938)"><use xlink:href="#F"/><use xlink:href="#B" x="55.615"/><use xlink:href="#B" x="111.23"/></g><g class="F"><path d="M366.474 93.74V16.56" class="D G H I"/><use y="93.74" xlink:href="#A" x="366.474" class="E"/></g><defs><path id="G" d="M37.25 0h-8.781v56q-3.172-3.016-8.328-6.047-5.156-3.031-9.25-4.547v8.5q7.375 3.469 12.891 8.391 5.516 4.938 7.813 9.578h5.656z" class="B C"/></defs><g transform="matrix(.12 0 0 -.12 353.12798 110.32938)"><use xlink:href="#G"/><use xlink:href="#B" x="55.615"/><use xlink:href="#B" x="111.23"/><use xlink:href="#B" x="166.846"/></g><defs><path id="H" d="M7.625 0v71.578h9.703l37.609-56.203v56.203h9.078V0h-9.719L16.703 56.25V0z" class="B C"/><path id="I" d="M40.578 0v7.625q-6.062-8.797-16.453-8.797-4.594 0-8.578 1.75Q11.578 2.344 9.641 5q-1.922 2.672-2.703 6.531-.547 2.578-.547 8.203v32.125h8.797V23.094q0-6.875.531-9.281.828-3.453 3.516-5.437 2.688-1.984 6.641-1.984 3.953 0 7.422 2.031 3.469 2.031 4.906 5.516 1.453 3.5 1.453 10.141v27.781h8.781V0z" class="B C"/><path id="J" d="M6.594 0v51.859h7.859v-7.281q2.438 3.813 6.484 6.125 4.063 2.328 9.234 2.328 5.766 0 9.453-2.391 3.688-2.391 5.203-6.687 6.156 9.078 16.016 9.078 7.719 0 11.859-4.281 4.156-4.266 4.156-13.156V0h-8.75v32.672q0 5.266-.859 7.578-.844 2.328-3.094 3.734-2.234 1.422-5.266 1.422-5.469 0-9.094-3.641-3.609-3.625-3.609-11.641V0h-8.781v33.688q0 5.859-2.156 8.781-2.141 2.938-7.031 2.938-3.703 0-6.859-1.953-3.141-1.953-4.562-5.719-1.422-3.75-1.422-10.828V0z" class="B C"/><path id="K" d="M14.703 0H6.547v71.578h8.781V46.047q5.578 6.984 14.219 6.984 4.781 0 9.047-1.937 4.281-1.922 7.031-5.422 2.766-3.484 4.328-8.422 1.563-4.922 1.563-10.547 0-13.328-6.594-20.609-6.594-7.266-15.812-7.266-9.187 0-14.406 7.672zm-.109 26.313q0-9.312 2.547-13.469 4.156-6.781 11.234-6.781 5.75 0 9.953 5 4.203 5 4.203 14.922 0 10.156-4.031 14.984-4.031 4.828-9.734 4.828-5.766 0-9.969-5-4.203-5-4.203-14.484z" class="B C"/><path id="L" d="M42.094 16.703l9.078-1.125q-2.141-7.953-7.953-12.359-5.812-4.391-14.844-4.391-11.375 0-18.047 7-6.672 7.016-6.672 19.656 0 13.094 6.734 20.313 6.75 7.234 17.484 7.234 10.406 0 17-7.078 6.594-7.078 6.594-19.922 0-.781-.047-2.344H12.75q.484-8.547 4.828-13.094 4.344-4.531 10.844-4.531 4.828 0 8.25 2.531 3.422 2.547 5.422 8.109zM13.234 30.906h28.953q-.578 6.547-3.312 9.813-4.203 5.078-10.891 5.078-6.062 0-10.187-4.047-4.125-4.047-4.562-10.844z" class="B C"/><path id="M" d="M6.5 0v51.859h7.906V44q3.031 5.516 5.594 7.266 2.563 1.766 5.641 1.766 4.438 0 9.031-2.828l-3.031-8.156q-3.219 1.906-6.437 1.906-2.891 0-5.187-1.734-2.297-1.734-3.266-4.812-1.469-4.687-1.469-10.25V0z" class="B C"/><path id="N" d="M3.328 25.922q0 14.406 8 21.344 6.688 5.766 16.313 5.766 10.688 0 17.469-7.016 6.797-7 6.797-19.359 0-10-3-15.75-3-5.734-8.75-8.906-5.734-3.172-12.516-3.172-10.891 0-17.609 6.984-6.703 6.984-6.703 20.109zm9.031 0q0-9.953 4.344-14.906 4.344-4.953 10.938-4.953 6.547 0 10.891 4.969 4.344 4.984 4.344 15.188 0 9.625-4.375 14.578-4.375 4.953-10.859 4.953-6.594 0-10.937-4.937-4.344-4.922-4.344-14.891z" class="B C"/><path id="O" d="M8.688 0v45.016H.922v6.844h7.766v5.516q0 5.219.938 7.766 1.266 3.422 4.453 5.531 3.203 2.125 8.969 2.125 3.719 0 8.203-.875l-1.312-7.656q-2.734.484-5.187.484-4 0-5.656-1.719-1.656-1.703-1.656-6.391v-4.781h10.109v-6.844H17.438V0z" class="B C"/><path id="P" d="M3.078 15.484l8.688 1.359q.734-5.219 4.078-8 3.344-2.781 9.359-2.781 6.047 0 8.969 2.453 2.938 2.469 2.938 5.797 0 2.969-2.594 4.688-1.797 1.172-8.984 2.969-9.656 2.453-13.391 4.234-3.734 1.781-5.672 4.922-1.922 3.156-1.922 6.969 0 3.453 1.578 6.406 1.594 2.969 4.328 4.922 2.047 1.5 5.578 2.547 3.547 1.063 7.609 1.063 6.094 0 10.703-1.766 4.625-1.75 6.813-4.766 2.203-3 3.031-8.016l-8.594-1.172q-.578 4-3.391 6.234-2.812 2.25-7.937 2.25-6.047 0-8.641-2-2.594-2-2.594-4.687 0-1.703 1.078-3.078 1.078-1.406 3.375-2.344 1.313-.484 7.766-2.234 9.328-2.5 13-4.094 3.688-1.578 5.781-4.609 2.109-3.016 2.109-7.516 0-4.391-2.562-8.281-2.562-3.875-7.406-6-4.828-2.125-10.922-2.125-10.109 0-15.406 4.203-5.297 4.203-6.766 12.453z" class="B C"/></defs><g transform="matrix(.144 0 0 -.144 148.97362 128.02162)"><use xlink:href="#H"/><use xlink:href="#I" x="72.217"/><use xlink:href="#J" x="127.832"/><use xlink:href="#K" x="211.133"/><use xlink:href="#L" x="266.748"/><use xlink:href="#M" x="322.363"/><use xlink:href="#As" x="355.664"/><use xlink:href="#N" x="383.447"/><use xlink:href="#O" x="439.063"/><use xlink:href="#As" x="466.846"/><use xlink:href="#I" x="494.629"/><use xlink:href="#P" x="550.244"/><use xlink:href="#L" x="600.244"/><use xlink:href="#M" x="655.859"/><use xlink:href="#P" x="689.16"/></g><path d="M16.56 93.74h266.285V16.56H16.56z" fill="#2ca02c" class="D"/><path d="M282.845 93.74h59.835V16.56h-59.835z" fill="#d62728" class="D"/><path d="M342.68 93.74h45.139V16.56H342.68z" fill="#1f77b4" class="D"/><g class="E G H J"><path d="M16.56 93.74V16.56m371.259 77.18V16.56"/><path d="M16.56 93.74h371.259M16.56 16.56h371.259"/></g><g transform="translate(0 -.14)"><path d="M409.869 82.796H560.14V17.2H409.869z" fill="#fff" class="E J"/><path d="M415.629 33.267h28.8v-10.08h-28.8z" fill="#2ca02c"/><defs><path id="Q" d="M16.156 0L.297 51.859h9.078l8.25-29.937 3.078-11.125q.203.828 2.688 10.688l8.25 30.375h9.031l7.766-30.078 2.594-9.922L54 21.875l8.891 29.984h8.547L55.219 0h-9.125l-8.25 31.063-2 8.828L25.344 0z" class="B C"/><path id="R" d="M40.438 19l8.641-1.125q-1.422-8.937-7.266-14-5.828-5.047-14.328-5.047-10.641 0-17.109 6.953-6.469 6.969-6.469 19.953 0 8.391 2.781 14.688 2.781 6.313 8.469 9.453 5.688 3.156 12.391 3.156 8.438 0 13.813-4.281 5.375-4.266 6.891-12.125l-8.547-1.328q-1.219 5.234-4.328 7.859-3.094 2.641-7.5 2.641-6.641 0-10.797-4.766-4.141-4.75-4.141-15.047 0-10.453 4-15.187 4.016-4.734 10.453-4.734 5.172 0 8.641 3.172Q39.5 12.406 40.438 19z" class="B C"/></defs><g transform="matrix(.144 0 0 -.144 455.94936 33.26695)"><use xlink:href="#H"/><use xlink:href="#L" x="72.217"/><use xlink:href="#Q" x="127.832"/><use xlink:href="#R" x="200.049"/><use xlink:href="#N" x="250.049"/><use xlink:href="#J" x="305.664"/><use xlink:href="#L" x="388.965"/><use xlink:href="#M" x="444.58"/></g><path d="M415.629 53.636h28.8v-10.08h-28.8z" fill="#d62728"/><defs><path id="S" d="M7.422 0v71.578h14.266l16.938-50.672q2.344-7.094 3.422-10.609 1.219 3.906 3.797 11.484l17.141 49.797h12.75V0h-9.125v59.906L45.797 0H37.25L16.547 60.938V0z" class="B C"/><path id="T" d="M6.594 0v51.859H14.5v-7.375q5.719 8.547 16.5 8.547 4.688 0 8.625-1.687 3.938-1.687 5.891-4.422 1.953-2.734 2.734-6.484.484-2.453.484-8.547V0h-8.797v31.547q0 5.375-1.031 8.031-1.016 2.656-3.625 4.234-2.609 1.594-6.125 1.594-5.625 0-9.703-3.562-4.078-3.562-4.078-13.516V0z" class="B C"/><path id="U" d="M4.984-4.297l8.547-1.266q.531-3.953 2.969-5.766 3.281-2.437 8.938-2.437 6.109 0 9.422 2.438 3.328 2.438 4.5 6.828.688 2.688.625 11.281Q34.234 0 25.641 0 14.938 0 9.078 7.719q-5.859 7.719-5.859 18.5 0 7.422 2.688 13.688 2.688 6.281 7.781 9.703 5.109 3.422 12 3.422 9.172 0 15.141-7.422v6.25h8.094V7.031q0-12.109-2.469-17.156-2.453-5.062-7.812-7.984-5.344-2.937-13.156-2.937-9.266 0-14.984 4.172-5.719 4.172-5.516 12.578zm7.266 31.156q0-10.203 4.047-14.891 4.063-4.687 10.172-4.687 6.047 0 10.141 4.656 4.109 4.672 4.109 14.625 0 9.516-4.219 14.344-4.219 4.844-10.187 4.844-5.859 0-9.969-4.766-4.094-4.75-4.094-14.125z" class="B C"/><path id="V" d="M6.391 0v71.578h8.797V0z" class="B C"/><path id="W" d="M28.172 0L.438 71.578h10.25l18.609-52q2.25-6.25 3.766-11.719 1.656 5.859 3.859 11.719l19.328 52h9.672L37.891 0z" class="B C"/><path id="X" d="M6.641 61.469v10.109h8.797V61.469zM6.641 0v51.859h8.797V0z" class="B C"/><path id="Y" d="M25.781 7.859L27.047.094q-3.703-.781-6.641-.781-4.781 0-7.422 1.516-2.625 1.516-3.703 3.984-1.078 2.469-1.078 10.375v29.828H1.766v6.844h6.438v12.844l8.734 5.266V51.859h8.844v-6.844h-8.844V14.703q0-3.766.469-4.844.469-1.062 1.516-1.703 1.047-.641 3-.641 1.469 0 3.859.344z" class="B C"/></defs><g transform="matrix(.144 0 0 -.144 455.94936 53.6362)"><use xlink:href="#S"/><use xlink:href="#L" x="83.301"/><use xlink:href="#T" x="138.916"/><use xlink:href="#U" x="194.531"/><use xlink:href="#L" x="250.146"/><use xlink:href="#V" x="305.762"/><use xlink:href="#L" x="327.979"/><use xlink:href="#As" x="383.594"/><use xlink:href="#W" x="411.377"/><use xlink:href="#X" x="478.061"/><use xlink:href="#R" x="500.277"/><use xlink:href="#Y" x="550.277"/><use xlink:href="#X" x="578.061"/><use xlink:href="#J" x="600.277"/></g><path d="M415.629 74.174h28.8v-10.08h-28.8z" fill="#1f77b4"/><g transform="matrix(.144 0 0 -.144 455.94936 74.1742)"><use xlink:href="#S"/><use xlink:href="#L" x="83.301"/><use xlink:href="#J" x="138.916"/><use xlink:href="#K" x="222.217"/><use xlink:href="#L" x="277.832"/><use xlink:href="#M" x="333.447"/></g></g></g><defs><clipPath id="Z"><path d="M16.56 16.56h371.259v77.18H16.56z" class="B C"/></clipPath></defs></svg>