<svg xmlns="http://www.w3.org/2000/svg" xmlns:xlink="http://www.w3.org/1999/xlink" height="576" viewBox="0 0 576 432" width="768" stroke-linecap="butt" stroke-linejoin="round" xmlns:v="https://vecta.io/nano"><style><![CDATA[.B{stroke-linecap:butt}.C{stroke-linejoin:round}.D{stroke-width:.5}.E{stroke:#000}.F{stroke-linecap:square}.G{fill:none}.H{clip-path:url(#Z)}.I{stroke:#b2b2b2}.J{stroke-width:1.5}.K{stroke-linejoin:miter}]]></style><g fill="#fff"><path d="M0 432h576V0H0z"/><path d="M59.133 381.74h493.95V22.407H59.133z"/></g><path d="M59.133 381.74V22.407" class="D F G H I"/><defs><path d="M0 0v4" id="A" class="B C D E"/></defs><use x="59.133" xlink:href="#A" y="381.74" class="D E"/><defs><path d="M4.156 35.297q0 12.703 2.609 20.438 2.609 7.75 7.75 11.938 5.156 4.203 12.969 4.203 5.766 0 10.109-2.328 4.344-2.312 7.172-6.687 2.844-4.359 4.453-10.641 1.609-6.266 1.609-16.922 0-12.594-2.594-20.328Q45.656 7.234 40.5 3q-5.141-4.219-13.016-4.219-10.344 0-16.25 7.422-7.078 8.938-7.078 29.094zm9.031 0q0-17.625 4.125-23.469Q21.438 6 27.484 6q6.063 0 10.188 5.859 4.125 5.859 4.125 23.438 0 17.688-4.125 23.484-4.125 5.813-10.281 5.813-6.047 0-9.672-5.125-4.531-6.531-4.531-24.172z" id="B" class="B C"/></defs><use xlink:href="#B" transform="matrix(.12 0 0 -.12 55.796886 398.329375)"/><g class="D"><path d="M157.924 381.74V22.407" class="F G H I"/><use x="157.924" xlink:href="#A" y="381.74" class="E"/></g><defs><path d="M4.156 18.75l9.219.781q1.031-6.734 4.766-10.141Q21.875 6 27.156 6q6.344 0 10.734 4.781 4.391 4.797 4.391 12.703 0 7.516-4.219 11.859Q33.844 39.703 27 39.703q-4.25 0-7.672-1.937-3.406-1.922-5.359-5l-8.25 1.078 6.922 36.766H48.25v-8.406H19.672l-3.844-19.234q6.438 4.5 13.516 4.5 9.375 0 15.813-6.5 6.453-6.5 6.453-16.703 0-9.719-5.656-16.797-6.891-8.687-18.797-8.687-9.766 0-15.953 5.469-6.172 5.469-7.047 14.5z" id="C" class="B C"/></defs><g transform="matrix(.12 0 0 -.12 151.250384 398.329375)"><use xlink:href="#C"/><use x="55.615" xlink:href="#B"/></g><g class="D"><path d="M256.714 381.74V22.407" class="F G H I"/><use x="256.714" xlink:href="#A" y="381.74" class="E"/></g><defs><path d="M37.25 0h-8.781v56q-3.172-3.016-8.328-6.047-5.156-3.031-9.25-4.547v8.5q7.375 3.469 12.891 8.391 5.516 4.938 7.813 9.578h5.656z" id="D" class="B C"/></defs><g transform="matrix(.12 0 0 -.12 246.703882 398.329375)"><use xlink:href="#D"/><use x="55.615" xlink:href="#B"/><use x="111.23" xlink:href="#B"/></g><g class="D"><path d="M355.504 381.74V22.407" class="F G H I"/><use x="355.504" xlink:href="#A" y="381.74" class="E"/></g><g transform="matrix(.12 0 0 -.12 345.493942 398.329375)"><use xlink:href="#D"/><use x="55.615" xlink:href="#C"/><use x="111.23" xlink:href="#B"/></g><g class="D"><path d="M454.294 381.74V22.407" class="F G H I"/><use x="454.294" xlink:href="#A" y="381.74" class="E"/></g><defs><path d="M50.344 8.453V0H3.031q-.094 3.172 1.016 6.109 1.813 4.828 5.781 9.516 3.984 4.688 11.516 10.844 11.672 9.563 15.766 15.156 4.109 5.594 4.109 10.578 0 5.219-3.75 8.797-3.734 3.594-9.734 3.594-6.344 0-10.156-3.812-3.812-3.797-3.859-10.531l-9.031.922q.922 10.109 6.969 15.406 6.063 5.297 16.281 5.297 10.297 0 16.297-5.719Q50.25 60.453 50.25 52q0-4.297-1.766-8.453-1.75-4.141-5.828-8.734-4.078-4.594-13.547-12.594-7.922-6.641-10.172-9.016-2.234-2.359-3.703-4.75z" id="E" class="B C"/></defs><g transform="matrix(.12 0 0 -.12 444.284002 398.329375)"><use xlink:href="#E"/><use x="55.615" xlink:href="#B"/><use x="111.23" xlink:href="#B"/></g><g class="D"><path d="M553.084 381.74V22.407" class="F G H I"/><use x="553.084" xlink:href="#A" y="381.74" class="E"/></g><g transform="matrix(.12 0 0 -.12 543.074062 398.329375)"><use xlink:href="#E"/><use x="55.615" xlink:href="#C"/><use x="111.23" xlink:href="#B"/></g><defs><path d="M7.859 0v71.578h31.734q9.578 0 14.547-1.937 4.984-1.922 7.969-6.812 2.984-4.875 2.984-10.781 0-7.609-4.937-12.844-4.937-5.219-15.234-6.641 3.766-1.797 5.719-3.562 4.141-3.797 7.859-9.516L70.953 0H59.031l-9.469 14.891q-4.156 6.453-6.844 9.859-2.672 3.422-4.797 4.781-2.125 1.375-4.328 1.922-1.609.328-5.266.328h-11V0zm9.469 39.984h20.375q6.484 0 10.141 1.344 3.672 1.344 5.578 4.297 1.906 2.953 1.906 6.422 0 5.078-3.687 8.344-3.687 3.281-11.656 3.281H17.328z" id="F" class="B C"/><path d="M40.438 6.391Q35.547 2.25 31.031.531q-4.516-1.703-9.687-1.703-8.547 0-13.141 4.172-4.594 4.172-4.594 10.672 0 3.813 1.734 6.953 1.734 3.156 4.547 5.063 2.813 1.906 6.328 2.875 2.578.688 7.813 1.328 10.641 1.266 15.672 3.016.047 1.813.047 2.297 0 5.375-2.5 7.578-3.359 2.969-10 2.969-6.203 0-9.156-2.172-2.953-2.172-4.375-7.687l-8.594 1.172q1.172 5.516 3.859 8.906 2.688 3.391 7.766 5.219 5.078 1.844 11.766 1.844 6.641 0 10.781-1.562 4.156-1.562 6.109-3.937 1.953-2.359 2.734-5.984.438-2.234.438-8.094V21.734q0-12.266.563-15.516.563-3.234 2.234-6.219h-9.187q-1.359 2.734-1.75 6.391zm-.734 19.641q-4.797-1.953-14.359-3.328-5.422-.781-7.672-1.766-2.234-.969-3.469-2.844-1.219-1.875-1.219-4.172 0-3.516 2.656-5.859 2.672-2.344 7.797-2.344 5.078 0 9.031 2.219 3.953 2.219 5.813 6.078 1.422 2.984 1.422 8.781z" id="G" class="B C"/><path d="M6.594 0v51.859H14.5v-7.375q5.719 8.547 16.5 8.547 4.688 0 8.625-1.687 3.938-1.687 5.891-4.422 1.953-2.734 2.734-6.484.484-2.453.484-8.547V0h-8.797v31.547q0 5.375-1.031 8.031-1.016 2.656-3.625 4.234-2.609 1.594-6.125 1.594-5.625 0-9.703-3.562-4.078-3.562-4.078-13.516V0z" id="H" class="B C"/><path d="M6.641 0v71.578h8.797V30.766l20.797 21.094h11.375L27.781 32.625 49.609 0H38.766L21.625 26.516l-6.187-5.953V0z" id="I" class="B C"/></defs><g transform="matrix(.144 0 0 -.144 289.301099 416.021625)"><use xlink:href="#F"/><use x="72.217" xlink:href="#G"/><use x="127.832" xlink:href="#H"/><use x="183.447" xlink:href="#I"/></g><path d="M59.133 381.74h493.95" class="D F G H I"/><defs><path d="M0 0h-4" id="J" class="B C D E"/></defs><use x="59.133" xlink:href="#J" y="381.74" class="D E"/><g transform="matrix(.12 0 0 -.12 32.293449 386.735)"><use xlink:href="#D" y=".994"/><use xlink:href="#B" x="55.615" y=".994"/><use transform="matrix(.7 0 0 .7 112.972813 70.6875)" xlink:href="#B"/></g><g class="D"><path d="M59.133 261.962h493.95" class="F G H I"/><use x="59.133" xlink:href="#J" y="261.962" class="E"/></g><g transform="matrix(.12 0 0 -.12 32.293449 266.957208)"><use xlink:href="#D" y=".994"/><use xlink:href="#B" x="55.615" y=".994"/><use transform="matrix(.7 0 0 .7 112.972813 70.6875)" xlink:href="#D"/></g><g class="D"><path d="M59.133 142.184h493.95" class="F G H I"/><use x="59.133" xlink:href="#J" y="142.184" class="E"/></g><g transform="matrix(.12 0 0 -.12 32.293449 147.179417)"><use xlink:href="#D" y=".994"/><use xlink:href="#B" x="55.615" y=".994"/><use transform="matrix(.7 0 0 .7 112.972813 70.6875)" xlink:href="#E"/></g><g class="D"><path d="M59.133 22.407h493.95" class="F G H I"/><use x="59.133" xlink:href="#J" y="22.407" class="E"/></g><defs><path d="M4.203 18.891l8.781 1.172q1.516-7.469 5.156-10.766Q21.781 6 27 6q6.203 0 10.469 4.297 4.281 4.297 4.281 10.656 0 6.047-3.953 9.969-3.953 3.938-10.062 3.938-2.484 0-6.203-.969l.984 7.719q.875-.109 1.406-.109 5.625 0 10.109 2.922 4.5 2.938 4.5 9.047 0 4.828-3.281 8-3.266 3.188-8.437 3.188-5.125 0-8.547-3.234-3.422-3.219-4.391-9.656l-8.797 1.563q1.609 8.828 7.313 13.688 5.719 4.859 14.219 4.859 5.859 0 10.781-2.516 4.938-2.516 7.547-6.859 2.625-4.344 2.625-9.234 0-4.625-2.5-8.437-2.484-3.812-7.359-6.062 6.344-1.453 9.859-6.078 3.516-4.609 3.516-11.547 0-9.375-6.844-15.891-6.828-6.516-17.281-6.516-9.422 0-15.656 5.609-6.219 5.625-7.094 14.547z" id="K" class="B C"/></defs><g transform="matrix(.12 0 0 -.12 32.293449 27.401625)"><use xlink:href="#D" y=".994"/><use xlink:href="#B" x="55.615" y=".994"/><use transform="matrix(.7 0 0 .7 112.972813 70.6875)" xlink:href="#K"/></g><defs><path d="M0 0h-2" id="L" class="B C D E"/></defs><g class="D E"><use x="59.133" xlink:href="#L" y="345.683"/><use x="59.133" xlink:href="#L" y="324.591"/><use x="59.133" xlink:href="#L" y="309.627"/><use x="59.133" xlink:href="#L" y="298.019"/><use x="59.133" xlink:href="#L" y="288.535"/><use x="59.133" xlink:href="#L" y="280.516"/><use x="59.133" xlink:href="#L" y="273.57"/><use x="59.133" xlink:href="#L" y="267.443"/><use x="59.133" xlink:href="#L" y="225.906"/><use x="59.133" xlink:href="#L" y="204.814"/><use x="59.133" xlink:href="#L" y="189.849"/><use x="59.133" xlink:href="#L" y="178.241"/><use x="59.133" xlink:href="#L" y="168.757"/><use x="59.133" xlink:href="#L" y="160.738"/><use x="59.133" xlink:href="#L" y="153.792"/><use x="59.133" xlink:href="#L" y="147.665"/><use x="59.133" xlink:href="#L" y="106.128"/><use x="59.133" xlink:href="#L" y="85.036"/><use x="59.133" xlink:href="#L" y="70.071"/><use x="59.133" xlink:href="#L" y="58.463"/><use x="59.133" xlink:href="#L" y="48.979"/><use x="59.133" xlink:href="#L" y="40.96"/><use x="59.133" xlink:href="#L" y="34.014"/><use x="59.133" xlink:href="#L" y="27.887"/></g><defs><path d="M8.203 0v71.578H56.5v-8.437H17.672V40.969h33.594v-8.453H17.672V0z" id="M" class="B C"/><path d="M6.5 0v51.859h7.906V44q3.031 5.516 5.594 7.266 2.563 1.766 5.641 1.766 4.438 0 9.031-2.828l-3.031-8.156q-3.219 1.906-6.437 1.906-2.891 0-5.187-1.734-2.297-1.734-3.266-4.812-1.469-4.687-1.469-10.25V0z" id="N" class="B C"/><path d="M42.094 16.703l9.078-1.125q-2.141-7.953-7.953-12.359-5.812-4.391-14.844-4.391-11.375 0-18.047 7-6.672 7.016-6.672 19.656 0 13.094 6.734 20.313 6.75 7.234 17.484 7.234 10.406 0 17-7.078 6.594-7.078 6.594-19.922 0-.781-.047-2.344H12.75q.484-8.547 4.828-13.094 4.344-4.531 10.844-4.531 4.828 0 8.25 2.531 3.422 2.547 5.422 8.109zM13.234 30.906h28.953q-.578 6.547-3.312 9.813-4.203 5.078-10.891 5.078-6.062 0-10.187-4.047-4.125-4.047-4.562-10.844z" id="O" class="B C"/><path d="M39.656-19.875V5.516q-2.062-2.875-5.75-4.781-3.687-1.906-7.828-1.906-9.234 0-15.906 7.375-6.656 7.375-6.656 20.219 0 7.813 2.703 14 2.719 6.203 7.859 9.406 5.156 3.203 11.313 3.203 9.625 0 15.141-8.109v6.938h7.906v-71.734zM12.547 26.078q0-10.016 4.203-15.016 4.203-5 10.063-5 5.609 0 9.656 4.75 4.063 4.766 4.063 14.484 0 10.344-4.281 15.563-4.266 5.234-10.031 5.234-5.703 0-9.687-4.859-3.984-4.859-3.984-15.156z" id="P" class="B C"/><path d="M40.578 0v7.625q-6.062-8.797-16.453-8.797-4.594 0-8.578 1.75Q11.578 2.344 9.641 5q-1.922 2.672-2.703 6.531-.547 2.578-.547 8.203v32.125h8.797V23.094q0-6.875.531-9.281.828-3.453 3.516-5.437 2.688-1.984 6.641-1.984 3.953 0 7.422 2.031 3.469 2.031 4.906 5.516 1.453 3.5 1.453 10.141v27.781h8.781V0z" id="Q" class="B C"/><path d="M40.438 19l8.641-1.125q-1.422-8.937-7.266-14-5.828-5.047-14.328-5.047-10.641 0-17.109 6.953-6.469 6.969-6.469 19.953 0 8.391 2.781 14.688 2.781 6.313 8.469 9.453 5.688 3.156 12.391 3.156 8.438 0 13.813-4.281 5.375-4.266 6.891-12.125l-8.547-1.328q-1.219 5.234-4.328 7.859-3.094 2.641-7.5 2.641-6.641 0-10.797-4.766-4.141-4.75-4.141-15.047 0-10.453 4-15.187 4.016-4.734 10.453-4.734 5.172 0 8.641 3.172Q39.5 12.406 40.438 19z" id="R" class="B C"/><path d="M6.203-19.969l-.984 8.25q2.891-.781 5.031-.781 2.938 0 4.688.984 1.766.969 2.891 2.719.828 1.328 2.688 6.547.234.734.781 2.156L1.609 51.859h9.469l10.797-30.031q2.094-5.719 3.766-12.016 1.516 6.063 3.609 11.813l11.078 30.234h8.797L29.391-.875q-3.172-8.547-4.922-11.766-2.344-4.359-5.375-6.375-3.031-2.031-7.234-2.031-2.531 0-5.656 1.078z" id="S" class="B C"/></defs><g transform="matrix(0 -.144 -.144 0 24.262699 236.087687)"><use xlink:href="#M"/><use x="61.084" xlink:href="#N"/><use x="94.385" xlink:href="#O"/><use x="150" xlink:href="#P"/><use x="205.615" xlink:href="#Q"/><use x="261.23" xlink:href="#O"/><use x="316.846" xlink:href="#H"/><use x="372.461" xlink:href="#R"/><use x="422.461" xlink:href="#S"/></g><g class="F G"><g class="J"><path d="M59.133 82.996l1.976 9.086 1.976 1.205 1.976 14.426 1.976 11.34 1.976 3.446 1.976 14.728 1.976 10.439 1.976 2.365 3.952 6.43h1.976l3.952 1.387 1.976 2.891 1.976.748 1.976 3.913 1.976 11.811 1.976 2.081h3.952l1.976 1.073h1.976l1.976 5.722 1.976 1.224 1.976 6.593 1.976 1.425h1.976l1.976 2.973 1.976 1.553 1.976 3.252 1.976 5.295 1.976 3.855h1.976l1.976 2.04h1.976l3.952 4.337 1.976 2.312 1.976 4.958 1.976 2.668h1.976l1.976 2.813 1.976 6.127 1.976 3.357 1.976 11.608h5.927l1.976 4.526h7.903l1.976 4.958h5.927l1.976 5.481 1.976 6.127h13.831l1.976 6.946h5.927l1.976 8.019h5.927l1.976 9.484h7.903l1.976 11.608h23.71l1.976 14.965h23.71l1.976 21.092h73.105l1.976 36.057h158.064" stroke="#0072bd" class="H"/><path d="M59.133 79.921l1.976 22.204 1.976 6.127 1.976 14.965 1.976 2.214 1.976 3.107 1.976 5.481 1.976.447 1.976 4.69 1.976 1.493 1.976 1.02 1.976 3.736 1.976 8.389 1.976 4.055L86.795 160l1.976.738 1.976 2.279 1.976 4.034 1.976 6.232 1.976 11.608 1.976 3.673 1.976 11.291 1.976 4.958h1.976l3.952 3.589 3.952 3.855 1.976 4.164 1.976 2.214h1.976l1.976 7.27h1.976l1.976 2.668h3.952l1.976 5.786h7.903l1.976 6.511h3.952l1.976 3.589h3.952l1.976 3.855h5.927l1.976 4.164h1.976l1.976 4.526h5.927l1.976 4.958h5.927l1.976 5.481h11.855l1.976 6.127h3.952l1.976 6.946h23.71l1.976 8.019h13.831l1.976 9.484h29.637l1.976 11.608h31.613l1.976 14.965H347.6l1.976 21.092h69.153l1.976 36.057h124.475" stroke="#d95319" class="H"/></g><g class="E K"><path d="M59.133 381.74V22.407M553.084 381.74V22.407"/><path d="M59.133 381.74h493.95M59.133 22.407h493.95"/></g></g><path d="M396.398 74.665h149.485V29.607H396.398z" fill="#fff" class="E K"/><path d="M402.158 40.634h28.8" stroke="#0072bd" class="F G J"/><defs><path d="M7.328 0v71.578h9.469V8.453h35.25V0z" id="T" class="B C"/><path d="M6.641 61.469v10.109h8.797V61.469zM6.641 0v51.859h8.797V0z" id="U" class="B C"/><path d="M3.078 15.484l8.688 1.359q.734-5.219 4.078-8 3.344-2.781 9.359-2.781 6.047 0 8.969 2.453 2.938 2.469 2.938 5.797 0 2.969-2.594 4.688-1.797 1.172-8.984 2.969-9.656 2.453-13.391 4.234-3.734 1.781-5.672 4.922-1.922 3.156-1.922 6.969 0 3.453 1.578 6.406 1.594 2.969 4.328 4.922 2.047 1.5 5.578 2.547 3.547 1.063 7.609 1.063 6.094 0 10.703-1.766 4.625-1.75 6.813-4.766 2.203-3 3.031-8.016l-8.594-1.172q-.578 4-3.391 6.234-2.812 2.25-7.937 2.25-6.047 0-8.641-2-2.594-2-2.594-4.687 0-1.703 1.078-3.078 1.078-1.406 3.375-2.344 1.313-.484 7.766-2.234 9.328-2.5 13-4.094 3.688-1.578 5.781-4.609 2.109-3.016 2.109-7.516 0-4.391-2.562-8.281-2.562-3.875-7.406-6-4.828-2.125-10.922-2.125-10.109 0-15.406 4.203-5.297 4.203-6.766 12.453z" id="V" class="B C"/><path d="M41.219 28.078v8.391l30.313.063V9.969q-6.984-5.578-14.406-8.391-7.422-2.797-15.234-2.797-10.547 0-19.172 4.516-8.609 4.516-13 13.063-4.391 8.547-4.391 19.094 0 10.453 4.359 19.5 4.375 9.063 12.578 13.453 8.203 4.391 18.891 4.391 7.766 0 14.031-2.516 6.281-2.5 9.844-7 3.578-4.484 5.422-11.719l-8.531-2.344q-1.625 5.469-4.016 8.594-2.391 3.125-6.844 5-4.437 1.891-9.844 1.891-6.5 0-11.234-1.984-4.734-1.969-7.641-5.203-2.906-3.219-4.516-7.078-2.734-6.641-2.734-14.406 0-9.562 3.297-16.016 3.297-6.437 9.594-9.562 6.297-3.125 13.375-3.125 6.156 0 12.016 2.359 5.859 2.375 8.875 5.063v13.328z" id="W" class="B C"/><path d="M21 0L1.266 51.859h9.281l11.141-31.062Q23.484 15.766 25 10.359q1.172 4.094 3.266 9.859l11.531 31.641h9.031L29.203 0z" id="X" class="B C"/></defs><g transform="matrix(.144 0 0 -.144 442.47825 45.673875)"><use xlink:href="#T"/><use x="55.615" xlink:href="#U"/><use x="77.832" xlink:href="#I"/><use x="127.832" xlink:href="#O"/><use x="183.447" xlink:href="#V"/><use x="233.447" xlink:href="#BZ"/><use x="261.23" xlink:href="#W"/><use x="339.014" xlink:href="#U"/><use x="361.23" xlink:href="#X"/><use x="411.23" xlink:href="#O"/><use x="466.846" xlink:href="#H"/></g><path d="M402.158 61.003h28.8" stroke="#d95319" class="F G J"/><defs><path d="M40.234 0v6.547q-4.937-7.719-14.5-7.719-6.203 0-11.406 3.422-5.203 3.422-8.062 9.547-2.844 6.125-2.844 14.078 0 7.766 2.578 14.094 2.594 6.328 7.766 9.688 5.188 3.375 11.578 3.375 4.688 0 8.344-1.984 3.672-1.969 5.969-5.141v25.672h8.734V0zM12.453 25.875q0-9.953 4.188-14.891 4.203-4.922 9.922-4.922 5.766 0 9.781 4.703 4.031 4.719 4.031 14.375 0 10.656-4.109 15.625-4.094 4.984-10.094 4.984-5.859 0-9.797-4.781-3.922-4.781-3.922-15.094z" id="Y" class="B C"/></defs><g transform="matrix(.144 0 0 -.144 442.47825 66.043125)"><use xlink:href="#T"/><use x="55.615" xlink:href="#U"/><use x="77.832" xlink:href="#I"/><use x="127.832" xlink:href="#O"/><use x="183.447" xlink:href="#V"/><use x="233.447" xlink:href="#BZ"/><use x="261.23" xlink:href="#F"/><use x="333.447" xlink:href="#O"/><use x="389.063" xlink:href="#R"/><use x="439.063" xlink:href="#O"/><use x="494.678" xlink:href="#U"/><use x="516.895" xlink:href="#X"/><use x="566.895" xlink:href="#O"/><use x="622.51" xlink:href="#Y"/></g><defs><clipPath id="Z"><path d="M59.133 22.407h493.95V381.74H59.133z" class="B C"/></clipPath></defs></svg>