<svg xmlns="http://www.w3.org/2000/svg" xmlns:xlink="http://www.w3.org/1999/xlink" height="576" viewBox="0 0 720 432" width="960" stroke-linecap="butt" stroke-linejoin="round" xmlns:v="https://vecta.io/nano"><style><![CDATA[.B{stroke-linecap:butt}.C{stroke-linejoin:round}.D{stroke:#000}.E{stroke-width:.5}.F{stroke-linecap:square}.G{fill:none}.H{stroke:#b2b2b2}.I{clip-path:url(#c)}.J{clip-path:url(#b)}.K{stroke-linejoin:miter}]]></style><g fill="#fff"><path d="M0 432h720V0H0z"/><path d="M60.786 381.74h464.592V16.56H60.786z"/></g><path d="M60.786 381.74V16.56" class="E F G H J"/><defs><path d="M0 0v4" id="A" class="B C D E"/></defs><use x="60.786" xlink:href="#A" y="381.74" class="D E"/><defs><path d="M4.156 35.297q0 12.703 2.609 20.438 2.609 7.75 7.75 11.938 5.156 4.203 12.969 4.203 5.766 0 10.109-2.328 4.344-2.312 7.172-6.687 2.844-4.359 4.453-10.641 1.609-6.266 1.609-16.922 0-12.594-2.594-20.328Q45.656 7.234 40.5 3q-5.141-4.219-13.016-4.219-10.344 0-16.25 7.422-7.078 8.938-7.078 29.094zm9.031 0q0-17.625 4.125-23.469Q21.438 6 27.484 6q6.063 0 10.188 5.859 4.125 5.859 4.125 23.438 0 17.688-4.125 23.484-4.125 5.813-10.281 5.813-6.047 0-9.672-5.125-4.531-6.531-4.531-24.172z" id="B" class="B C"/></defs><use xlink:href="#B" transform="matrix(.12 0 0 -.12 57.449769 398.329375)"/><g class="E"><path d="M135.121 381.74V16.56" class="F G H J"/><use x="135.121" xlink:href="#A" y="381.74" class="D"/></g><defs><path d="M50.344 8.453V0H3.031q-.094 3.172 1.016 6.109 1.813 4.828 5.781 9.516 3.984 4.688 11.516 10.844 11.672 9.563 15.766 15.156 4.109 5.594 4.109 10.578 0 5.219-3.75 8.797-3.734 3.594-9.734 3.594-6.344 0-10.156-3.812-3.812-3.797-3.859-10.531l-9.031.922q.922 10.109 6.969 15.406 6.063 5.297 16.281 5.297 10.297 0 16.297-5.719Q50.25 60.453 50.25 52q0-4.297-1.766-8.453-1.75-4.141-5.828-8.734-4.078-4.594-13.547-12.594-7.922-6.641-10.172-9.016-2.234-2.359-3.703-4.75z" id="C" class="B C"/></defs><g transform="matrix(.12 0 0 -.12 128.447946 398.329375)"><use xlink:href="#C"/><use x="55.615" xlink:href="#B"/></g><g class="E"><path d="M209.456 381.74V16.56" class="F G H J"/><use x="209.456" xlink:href="#A" y="381.74" class="D"/></g><defs><path d="M32.328 0v17.141H1.266v8.063l32.672 46.375h7.172V25.203h9.672v-8.062h-9.672V0zm0 25.203v32.266L9.906 25.203z" id="D" class="B C"/></defs><g transform="matrix(.12 0 0 -.12 202.782687 398.329375)"><use xlink:href="#D"/><use x="55.615" xlink:href="#B"/></g><g class="E"><path d="M283.791 381.74V16.56" class="F G H J"/><use x="283.791" xlink:href="#A" y="381.74" class="D"/></g><defs><path d="M49.75 54.047l-8.734-.672q-1.172 5.172-3.312 7.516-3.578 3.766-8.797 3.766-4.203 0-7.375-2.344-4.141-3.031-6.547-8.844-2.391-5.812-2.484-16.547 3.172 4.828 7.766 7.172 4.594 2.344 9.625 2.344 8.781 0 14.953-6.469 6.188-6.469 6.188-16.719 0-6.75-2.906-12.531-2.906-5.781-7.984-8.859-5.078-3.078-11.531-3.078-10.984 0-17.922 8.078Q3.766 14.938 3.766 33.5q0 20.75 7.656 30.172 6.688 8.203 18.016 8.203 8.453 0 13.844-4.734 5.406-4.734 6.469-13.094zM13.875 23.188q0-4.531 1.922-8.687 1.922-4.141 5.391-6.328Q24.656 6 28.469 6q5.563 0 9.563 4.484 4.016 4.5 4.016 12.219 0 7.422-3.969 11.688-3.953 4.281-9.953 4.281-5.953 0-10.109-4.281-4.141-4.266-4.141-11.203z" id="E" class="B C"/></defs><g transform="matrix(.12 0 0 -.12 277.117427 398.329375)"><use xlink:href="#E"/><use x="55.615" xlink:href="#B"/></g><g class="E"><path d="M358.125 381.74V16.56" class="F G H J"/><use x="358.125" xlink:href="#A" y="381.74" class="D"/></g><defs><path d="M17.672 38.813q-5.469 2.016-8.109 5.719-2.625 3.719-2.625 8.891 0 7.813 5.609 13.125 5.625 5.328 14.938 5.328 9.375 0 15.094-5.453 5.719-5.437 5.719-13.25 0-4.984-2.625-8.672-2.609-3.672-7.922-5.687 6.594-2.141 10.031-6.937 3.438-4.781 3.438-11.422 0-9.172-6.5-15.422-6.484-6.25-17.078-6.25-10.594 0-17.094 6.266-6.5 6.281-6.5 15.656 0 6.984 3.547 11.688 3.547 4.719 10.078 6.422zm-1.75 14.906q0-5.078 3.266-8.312 3.281-3.219 8.5-3.219 5.078 0 8.328 3.188 3.25 3.203 3.25 7.844 0 4.844-3.359 8.141-3.344 3.297-8.312 3.297-5.031 0-8.359-3.234-3.312-3.219-3.312-7.703zm-2.828-33.062q0-3.766 1.781-7.281 1.781-3.516 5.297-5.453Q23.688 6 27.734 6q6.297 0 10.391 4.047 4.109 4.063 4.109 10.313 0 6.344-4.219 10.5-4.219 4.156-10.578 4.156-6.203 0-10.281-4.109-4.062-4.094-4.062-10.25z" id="F" class="B C"/></defs><g transform="matrix(.12 0 0 -.12 351.452167 398.329375)"><use xlink:href="#F"/><use x="55.615" xlink:href="#B"/></g><g class="E"><path d="M432.46 381.74V16.56" class="F G H J"/><use x="432.46" xlink:href="#A" y="381.74" class="D"/></g><defs><path d="M37.25 0h-8.781v56q-3.172-3.016-8.328-6.047-5.156-3.031-9.25-4.547v8.5q7.375 3.469 12.891 8.391 5.516 4.938 7.813 9.578h5.656z" id="G" class="B C"/></defs><g transform="matrix(.12 0 0 -.12 422.450345 398.329375)"><use xlink:href="#G"/><use x="55.615" xlink:href="#B"/><use x="111.23" xlink:href="#B"/></g><g class="E"><path d="M506.795 381.74V16.56" class="F G H J"/><use x="506.795" xlink:href="#A" y="381.74" class="D"/></g><g transform="matrix(.12 0 0 -.12 496.785085 398.329375)"><use xlink:href="#G"/><use x="55.615" xlink:href="#C"/><use x="111.23" xlink:href="#B"/></g><defs><path d="M7.859 0v71.578h31.734q9.578 0 14.547-1.937 4.984-1.922 7.969-6.812 2.984-4.875 2.984-10.781 0-7.609-4.937-12.844-4.937-5.219-15.234-6.641 3.766-1.797 5.719-3.562 4.141-3.797 7.859-9.516L70.953 0H59.031l-9.469 14.891q-4.156 6.453-6.844 9.859-2.672 3.422-4.797 4.781-2.125 1.375-4.328 1.922-1.609.328-5.266.328h-11V0zm9.469 39.984h20.375q6.484 0 10.141 1.344 3.672 1.344 5.578 4.297 1.906 2.953 1.906 6.422 0 5.078-3.687 8.344-3.687 3.281-11.656 3.281H17.328z" id="H" class="B C"/><path d="M40.438 6.391Q35.547 2.25 31.031.531q-4.516-1.703-9.687-1.703-8.547 0-13.141 4.172-4.594 4.172-4.594 10.672 0 3.813 1.734 6.953 1.734 3.156 4.547 5.063 2.813 1.906 6.328 2.875 2.578.688 7.813 1.328 10.641 1.266 15.672 3.016.047 1.813.047 2.297 0 5.375-2.5 7.578-3.359 2.969-10 2.969-6.203 0-9.156-2.172-2.953-2.172-4.375-7.687l-8.594 1.172q1.172 5.516 3.859 8.906 2.688 3.391 7.766 5.219 5.078 1.844 11.766 1.844 6.641 0 10.781-1.562 4.156-1.562 6.109-3.937 1.953-2.359 2.734-5.984.438-2.234.438-8.094V21.734q0-12.266.563-15.516.563-3.234 2.234-6.219h-9.187q-1.359 2.734-1.75 6.391zm-.734 19.641q-4.797-1.953-14.359-3.328-5.422-.781-7.672-1.766-2.234-.969-3.469-2.844-1.219-1.875-1.219-4.172 0-3.516 2.656-5.859 2.672-2.344 7.797-2.344 5.078 0 9.031 2.219 3.953 2.219 5.813 6.078 1.422 2.984 1.422 8.781z" id="I" class="B C"/><path d="M6.594 0v51.859H14.5v-7.375q5.719 8.547 16.5 8.547 4.688 0 8.625-1.687 3.938-1.687 5.891-4.422 1.953-2.734 2.734-6.484.484-2.453.484-8.547V0h-8.797v31.547q0 5.375-1.031 8.031-1.016 2.656-3.625 4.234-2.609 1.594-6.125 1.594-5.625 0-9.703-3.562-4.078-3.562-4.078-13.516V0z" id="J" class="B C"/><path d="M6.641 0v71.578h8.797V30.766l20.797 21.094h11.375L27.781 32.625 49.609 0H38.766L21.625 26.516l-6.187-5.953V0z" id="K" class="B C"/></defs><g transform="matrix(.144 0 0 -.144 276.274894 416.021625)"><use xlink:href="#H"/><use x="72.217" xlink:href="#I"/><use x="127.832" xlink:href="#J"/><use x="183.447" xlink:href="#K"/></g><path d="M60.786 351.308h464.592" class="E F G H J"/><defs><path d="M0 0h-4" id="L" class="B C D E"/></defs><use x="60.786" xlink:href="#L" y="351.308" class="D E"/><defs><path d="M3.172 21.484v8.844h27v-8.844z" id="M" class="B C"/></defs><g transform="matrix(.12 0 0 -.12 31.066331 356.303333)"><use xlink:href="#G" y=".994"/><use xlink:href="#B" x="55.615" y=".994"/><use transform="matrix(.7 0 0 .7 112.972813 70.6875)" xlink:href="#M"/><use transform="matrix(.7 0 0 .7 136.283359 70.6875)" xlink:href="#G"/></g><g class="E"><path d="M60.786 199.15h464.592" class="F G H J"/><use x="60.786" xlink:href="#L" y="199.15" class="D"/></g><g transform="matrix(.12 0 0 -.12 33.946331 204.145)"><use xlink:href="#G" y=".994"/><use xlink:href="#B" x="55.615" y=".994"/><use transform="matrix(.7 0 0 .7 112.972813 70.6875)" xlink:href="#B"/></g><g class="E"><path d="M60.786 46.992h464.592" class="F G H J"/><use x="60.786" xlink:href="#L" y="46.992" class="D"/></g><g transform="matrix(.12 0 0 -.12 33.946331 51.986667)"><use xlink:href="#G" y=".994"/><use xlink:href="#B" x="55.615" y=".994"/><use transform="matrix(.7 0 0 .7 112.972813 70.6875)" xlink:href="#G"/></g><defs><path d="M0 0h-2" id="N" class="B C D E"/></defs><g class="D E"><use x="60.786" xlink:href="#N" y="374.878"/><use x="60.786" xlink:href="#N" y="366.054"/><use x="60.786" xlink:href="#N" y="358.271"/><use x="60.786" xlink:href="#N" y="305.504"/><use x="60.786" xlink:href="#N" y="278.71"/><use x="60.786" xlink:href="#N" y="259.7"/><use x="60.786" xlink:href="#N" y="244.954"/><use x="60.786" xlink:href="#N" y="232.906"/><use x="60.786" xlink:href="#N" y="222.72"/><use x="60.786" xlink:href="#N" y="213.896"/><use x="60.786" xlink:href="#N" y="206.112"/><use x="60.786" xlink:href="#N" y="153.346"/><use x="60.786" xlink:href="#N" y="126.552"/><use x="60.786" xlink:href="#N" y="107.542"/><use x="60.786" xlink:href="#N" y="92.796"/><use x="60.786" xlink:href="#N" y="80.748"/><use x="60.786" xlink:href="#N" y="70.561"/><use x="60.786" xlink:href="#N" y="61.737"/><use x="60.786" xlink:href="#N" y="53.954"/></g><defs><path d="M7.328 0v71.578h9.469V8.453h35.25V0z" id="O" class="B C"/><path d="M6.641 61.469v10.109h8.797V61.469zM6.641 0v51.859h8.797V0z" id="P" class="B C"/><path d="M42.094 16.703l9.078-1.125q-2.141-7.953-7.953-12.359-5.812-4.391-14.844-4.391-11.375 0-18.047 7-6.672 7.016-6.672 19.656 0 13.094 6.734 20.313 6.75 7.234 17.484 7.234 10.406 0 17-7.078 6.594-7.078 6.594-19.922 0-.781-.047-2.344H12.75q.484-8.547 4.828-13.094 4.344-4.531 10.844-4.531 4.828 0 8.25 2.531 3.422 2.547 5.422 8.109zM13.234 30.906h28.953q-.578 6.547-3.312 9.813-4.203 5.078-10.891 5.078-6.062 0-10.187-4.047-4.125-4.047-4.562-10.844z" id="Q" class="B C"/><path d="M6.5 0v51.859h7.906V44q3.031 5.516 5.594 7.266 2.563 1.766 5.641 1.766 4.438 0 9.031-2.828l-3.031-8.156q-3.219 1.906-6.437 1.906-2.891 0-5.187-1.734-2.297-1.734-3.266-4.812-1.469-4.687-1.469-10.25V0z" id="R" class="B C"/><path d="M25.781 7.859L27.047.094q-3.703-.781-6.641-.781-4.781 0-7.422 1.516-2.625 1.516-3.703 3.984-1.078 2.469-1.078 10.375v29.828H1.766v6.844h6.438v12.844l8.734 5.266V51.859h8.844v-6.844h-8.844V14.703q0-3.766.469-4.844.469-1.062 1.516-1.703 1.047-.641 3-.641 1.469 0 3.859.344z" id="S" class="B C"/><path d="M3.328 25.922q0 14.406 8 21.344 6.688 5.766 16.313 5.766 10.688 0 17.469-7.016 6.797-7 6.797-19.359 0-10-3-15.75-3-5.734-8.75-8.906-5.734-3.172-12.516-3.172-10.891 0-17.609 6.984-6.703 6.984-6.703 20.109zm9.031 0q0-9.953 4.344-14.906 4.344-4.953 10.938-4.953 6.547 0 10.891 4.969 4.344 4.984 4.344 15.188 0 9.625-4.375 14.578-4.375 4.953-10.859 4.953-6.594 0-10.937-4.937-4.344-4.922-4.344-14.891z" id="T" class="B C"/></defs><g transform="matrix(0 -.144 -.144 0 23.204331 228.362875)"><use xlink:href="#O"/><use x="55.615" xlink:href="#P"/><use x="77.832" xlink:href="#K"/><use x="127.832" xlink:href="#Q"/><use x="183.447" xlink:href="#Az"/><use x="211.23" xlink:href="#R"/><use x="244.531" xlink:href="#I"/><use x="300.146" xlink:href="#S"/><use x="327.93" xlink:href="#P"/><use x="350.146" xlink:href="#T"/></g><g class="F G"><path d="M60.786 29.654l3.717 2.592 3.717 5.51 3.717 6.463 3.717 2.773 3.717 6.962 3.717 16.607h3.717l3.717 29.868 3.717.638 3.717 6.475h3.717l3.717 19.01h3.717l3.717 1.862 3.717 5.922 3.717 5.6 3.717.581 3.717.782 3.717 3.224 3.717 2.526h3.717l3.717 1.401 3.717.891 3.717 1.309 3.717 2.698h3.717 3.717 3.717 3.717l3.717 10.187 3.717 1.862 3.717 2.698 3.717 4.265h3.717l3.717 3.224 3.717 3.074 3.717.755 3.717.73 3.717.799 3.717.242 3.717 2.183 3.717 1.041 3.717 2.819 3.717.888 3.717 6.48 3.717 1.014 3.717 1.684 3.717 1.862h3.717 3.717 3.717 3.717 3.717 3.717 3.717 3.717 3.717 3.717 3.717 3.717l3.717 3.479 3.717.094 3.717 4.21 3.717 1.041 3.717.432 3.717 1.845 3.717 4.653 3.717 3.256 3.717 3.224 3.717 2.843 3.717 1.716h3.717 3.717 3.717l3.717 1.213 3.717 1.191 3.717 1.089 3.717.285 3.717.945 3.717 5.464 3.717 3.074 3.717 5.75h3.717 3.717 3.717 3.717 3.717 3.717 3.717 3.717l3.717 2.853 3.717 1.153 3.717 3.777 3.717 2.698 3.717 2.349 3.717 1.916h3.717l3.717 6.48 3.717 1.009h3.717l3.717 1.747 3.717 1.327 3.717 1.485h3.717 3.717 3.717l3.717.467 3.717 6.495h3.717l3.717 5.086 3.717 6.962 3.717 5.289 3.717 2.494 3.717 6.962h3.717l3.717 12.048h3.717 3.717l3.717 1.092 3.717 9.094h3.717l3.717 16.607 3.717 6.962 3.717 6.298 3.717 5.75" stroke="#0072bd" stroke-width="1.5" class="J"/><g class="D K"><path d="M60.786 381.74V16.56m464.592 365.18V16.56"/><path d="M60.786 381.74h464.592M60.786 16.56h464.592"/></g></g><path d="M545.538 381.74h154.864V16.56H545.538z" fill="#fff"/><g class="E"><path d="M545.538 381.74V16.56" class="F G H I"/><use x="545.538" xlink:href="#A" y="381.74" class="D"/></g><use xlink:href="#B" transform="matrix(.12 0 0 -.12 542.201895 398.329375)"/><g class="E"><path d="M571.349 381.74V16.56" class="F G H I"/><use x="571.349" xlink:href="#A" y="381.74" class="D"/></g><defs><path d="M4.156 18.75l9.219.781q1.031-6.734 4.766-10.141Q21.875 6 27.156 6q6.344 0 10.734 4.781 4.391 4.797 4.391 12.703 0 7.516-4.219 11.859Q33.844 39.703 27 39.703q-4.25 0-7.672-1.937-3.406-1.922-5.359-5l-8.25 1.078 6.922 36.766H48.25v-8.406H19.672l-3.844-19.234q6.438 4.5 13.516 4.5 9.375 0 15.813-6.5 6.453-6.5 6.453-16.703 0-9.719-5.656-16.797-6.891-8.687-18.797-8.687-9.766 0-15.953 5.469-6.172 5.469-7.047 14.5z" id="U" class="B C"/></defs><use xlink:href="#U" transform="matrix(.12 0 0 -.12 568.012569 398.329375)"/><g class="E"><path d="M597.16 381.74V16.56" class="F G H I"/><use x="597.16" xlink:href="#A" y="381.74" class="D"/></g><g transform="matrix(.12 0 0 -.12 590.48668 398.329375)"><use xlink:href="#G"/><use x="55.615" xlink:href="#B"/></g><g class="E"><path d="M622.97 381.74V16.56" class="F G H I"/><use x="622.97" xlink:href="#A" y="381.74" class="D"/></g><g transform="matrix(.12 0 0 -.12 616.297354 398.329375)"><use xlink:href="#G"/><use x="55.615" xlink:href="#U"/></g><g class="E"><path d="M648.781 381.74V16.56" class="F G H I"/><use x="648.781" xlink:href="#A" y="381.74" class="D"/></g><g transform="matrix(.12 0 0 -.12 642.108028 398.329375)"><use xlink:href="#C"/><use x="55.615" xlink:href="#B"/></g><g class="E"><path d="M674.592 381.74V16.56" class="F G H I"/><use x="674.592" xlink:href="#A" y="381.74" class="D"/></g><g transform="matrix(.12 0 0 -.12 667.918701 398.329375)"><use xlink:href="#C"/><use x="55.615" xlink:href="#U"/></g><g class="E"><path d="M700.403 381.74V16.56" class="F G H I"/><use x="700.403" xlink:href="#A" y="381.74" class="D"/></g><defs><path d="M4.203 18.891l8.781 1.172q1.516-7.469 5.156-10.766Q21.781 6 27 6q6.203 0 10.469 4.297 4.281 4.297 4.281 10.656 0 6.047-3.953 9.969-3.953 3.938-10.062 3.938-2.484 0-6.203-.969l.984 7.719q.875-.109 1.406-.109 5.625 0 10.109 2.922 4.5 2.938 4.5 9.047 0 4.828-3.281 8-3.266 3.188-8.437 3.188-5.125 0-8.547-3.234-3.422-3.219-4.391-9.656l-8.797 1.563q1.609 8.828 7.313 13.688 5.719 4.859 14.219 4.859 5.859 0 10.781-2.516 4.938-2.516 7.547-6.859 2.625-4.344 2.625-9.234 0-4.625-2.5-8.437-2.484-3.812-7.359-6.062 6.344-1.453 9.859-6.078 3.516-4.609 3.516-11.547 0-9.375-6.844-15.891-6.828-6.516-17.281-6.516-9.422 0-15.656 5.609-6.219 5.625-7.094 14.547z" id="V" class="B C"/></defs><g transform="matrix(.12 0 0 -.12 693.729375 398.329375)"><use xlink:href="#V"/><use x="55.615" xlink:href="#B"/></g><defs><path d="M8.203 0v71.578H56.5v-8.437H17.672V40.969h33.594v-8.453H17.672V0z" id="W" class="B C"/><path d="M39.656-19.875V5.516q-2.062-2.875-5.75-4.781-3.687-1.906-7.828-1.906-9.234 0-15.906 7.375-6.656 7.375-6.656 20.219 0 7.813 2.703 14 2.719 6.203 7.859 9.406 5.156 3.203 11.313 3.203 9.625 0 15.141-8.109v6.938h7.906v-71.734zM12.547 26.078q0-10.016 4.203-15.016 4.203-5 10.063-5 5.609 0 9.656 4.75 4.063 4.766 4.063 14.484 0 10.344-4.281 15.563-4.266 5.234-10.031 5.234-5.703 0-9.687-4.859-3.984-4.859-3.984-15.156z" id="X" class="B C"/><path d="M40.578 0v7.625q-6.062-8.797-16.453-8.797-4.594 0-8.578 1.75Q11.578 2.344 9.641 5q-1.922 2.672-2.703 6.531-.547 2.578-.547 8.203v32.125h8.797V23.094q0-6.875.531-9.281.828-3.453 3.516-5.437 2.688-1.984 6.641-1.984 3.953 0 7.422 2.031 3.469 2.031 4.906 5.516 1.453 3.5 1.453 10.141v27.781h8.781V0z" id="Y" class="B C"/><path d="M40.438 19l8.641-1.125q-1.422-8.937-7.266-14-5.828-5.047-14.328-5.047-10.641 0-17.109 6.953-6.469 6.969-6.469 19.953 0 8.391 2.781 14.688 2.781 6.313 8.469 9.453 5.688 3.156 12.391 3.156 8.438 0 13.813-4.281 5.375-4.266 6.891-12.125l-8.547-1.328q-1.219 5.234-4.328 7.859-3.094 2.641-7.5 2.641-6.641 0-10.797-4.766-4.141-4.75-4.141-15.047 0-10.453 4-15.187 4.016-4.734 10.453-4.734 5.172 0 8.641 3.172Q39.5 12.406 40.438 19z" id="Z" class="B C"/><path d="M6.203-19.969l-.984 8.25q2.891-.781 5.031-.781 2.938 0 4.688.984 1.766.969 2.891 2.719.828 1.328 2.688 6.547.234.734.781 2.156L1.609 51.859h9.469l10.797-30.031q2.094-5.719 3.766-12.016 1.516 6.063 3.609 11.813l11.078 30.234h8.797L29.391-.875q-3.172-8.547-4.922-11.766-2.344-4.359-5.375-6.375-3.031-2.031-7.234-2.031-2.531 0-5.656 1.078z" id="a" class="B C"/></defs><g transform="matrix(.144 0 0 -.144 588.956104 416.021625)"><use xlink:href="#W"/><use x="61.084" xlink:href="#R"/><use x="94.385" xlink:href="#Q"/><use x="150" xlink:href="#X"/><use x="205.615" xlink:href="#Y"/><use x="261.23" xlink:href="#Q"/><use x="316.846" xlink:href="#J"/><use x="372.461" xlink:href="#Z"/><use x="422.461" xlink:href="#a"/></g><g class="E"><path d="M545.538 351.308h154.864" class="F G H I"/><use x="545.538" xlink:href="#L" y="351.308" class="D"/><path d="M545.538 199.15h154.864" class="F G H I"/><use x="545.538" xlink:href="#L" y="199.15" class="D"/><path d="M545.538 46.992h154.864" class="F G H I"/><g class="D"><use x="545.538" xlink:href="#L" y="46.992"/><use x="545.538" xlink:href="#N" y="374.878"/><use x="545.538" xlink:href="#N" y="366.054"/><use x="545.538" xlink:href="#N" y="358.271"/><use x="545.538" xlink:href="#N" y="305.504"/><use x="545.538" xlink:href="#N" y="278.71"/><use x="545.538" xlink:href="#N" y="259.7"/><use x="545.538" xlink:href="#N" y="244.954"/><use x="545.538" xlink:href="#N" y="232.906"/><use x="545.538" xlink:href="#N" y="222.72"/><use x="545.538" xlink:href="#N" y="213.896"/><use x="545.538" xlink:href="#N" y="206.112"/><use x="545.538" xlink:href="#N" y="153.346"/><use x="545.538" xlink:href="#N" y="126.552"/><use x="545.538" xlink:href="#N" y="107.542"/><use x="545.538" xlink:href="#N" y="92.796"/><use x="545.538" xlink:href="#N" y="80.748"/><use x="545.538" xlink:href="#N" y="70.561"/><use x="545.538" xlink:href="#N" y="61.737"/><use x="545.538" xlink:href="#N" y="53.954"/></g></g><g fill="#0072bd"><path d="M545.538 366.524h20.649v-33.475h-20.649z" class="I"/><path d="M545.538 333.049h41.297v-33.475h-41.297z" class="I"/><path d="M545.538 299.575h82.594V266.1h-82.594z" class="I"/><path d="M545.538 266.1h92.918v-33.475h-92.918z" class="I"/><path d="M545.538 232.625h98.081V199.15h-98.081z" class="I"/><path d="M545.538 199.15H695.24v-33.475H545.538z" class="I"/><path d="M545.538 165.675h87.756V132.2h-87.756z" class="I"/><path d="M545.538 132.2h36.135V98.726h-36.135z" class="I"/><path d="M545.538 98.726h10.324V65.251h-10.324z" class="I"/><path d="M545.538 65.251h25.811V31.776h-25.811z" class="I"/></g><g class="D F G K"><path d="M545.538 381.74V16.56m154.865 365.18V16.56"/><path d="M545.538 381.74h154.864M545.538 16.56h154.864"/></g><defs><clipPath id="b"><path d="M60.786 16.56h464.592v365.18H60.786z" class="B C"/></clipPath><clipPath id="c"><path d="M545.538 16.56h154.864v365.18H545.538z" class="B C"/></clipPath></defs></svg>