<svg xmlns="http://www.w3.org/2000/svg" xmlns:xlink="http://www.w3.org/1999/xlink" height="576" viewBox="0 0 432 432" width="576" stroke-linecap="butt" stroke-linejoin="round" xmlns:v="https://vecta.io/nano"><style><![CDATA[.B{stroke-linecap:butt}.C{stroke-linejoin:round}.D{stroke-width:.5}.E{stroke:#000}.F{clip-path:url(#b)}.G{stroke-linecap:square}.H{fill:none}.I{stroke:#b2b2b2}]]></style><g fill="#fff"><path d="M0 432h432V0H0z"/><path d="M59.133 373.647h350.07V22.407H59.133z"/></g><path d="M64.393 373.647V22.407" class="D F G H I"/><defs><path d="M0 0v4" id="A" class="B C D E"/></defs><use x="64.393" xlink:href="#A" y="373.647" class="D E"/><defs><path d="M37.25 0h-8.781v56q-3.172-3.016-8.328-6.047-5.156-3.031-9.25-4.547v8.5q7.375 3.469 12.891 8.391 5.516 4.938 7.813 9.578h5.656z" id="B" class="B C"/><path d="M4.156 35.297q0 12.703 2.609 20.438 2.609 7.75 7.75 11.938 5.156 4.203 12.969 4.203 5.766 0 10.109-2.328 4.344-2.312 7.172-6.687 2.844-4.359 4.453-10.641 1.609-6.266 1.609-16.922 0-12.594-2.594-20.328Q45.656 7.234 40.5 3q-5.141-4.219-13.016-4.219-10.344 0-16.25 7.422-7.078 8.938-7.078 29.094zm9.031 0q0-17.625 4.125-23.469Q21.438 6 27.484 6q6.063 0 10.188 5.859 4.125 5.859 4.125 23.438 0 17.688-4.125 23.484-4.125 5.813-10.281 5.813-6.047 0-9.672-5.125-4.531-6.531-4.531-24.172z" id="C" class="B C"/></defs><g transform="matrix(.12 0 0 -.12 54.972672 394.02175)"><use xlink:href="#B" y=".994"/><use xlink:href="#C" x="55.615" y=".994"/><use transform="matrix(.7 0 0 .7 112.972813 70.6875)" xlink:href="#C"/></g><g class="D"><path d="M179.33 373.647V22.407" class="F G H I"/><use x="179.33" xlink:href="#A" y="373.647" class="E"/></g><g transform="matrix(.12 0 0 -.12 169.90954 394.02175)"><use xlink:href="#B" y=".994"/><use xlink:href="#C" x="55.615" y=".994"/><use transform="matrix(.7 0 0 .7 112.972813 70.6875)" xlink:href="#B"/></g><g class="D"><path d="M294.266 373.647V22.407" class="F G H I"/><use x="294.266" xlink:href="#A" y="373.647" class="E"/></g><defs><path d="M50.344 8.453V0H3.031q-.094 3.172 1.016 6.109 1.813 4.828 5.781 9.516 3.984 4.688 11.516 10.844 11.672 9.563 15.766 15.156 4.109 5.594 4.109 10.578 0 5.219-3.75 8.797-3.734 3.594-9.734 3.594-6.344 0-10.156-3.812-3.812-3.797-3.859-10.531l-9.031.922q.922 10.109 6.969 15.406 6.063 5.297 16.281 5.297 10.297 0 16.297-5.719Q50.25 60.453 50.25 52q0-4.297-1.766-8.453-1.75-4.141-5.828-8.734-4.078-4.594-13.547-12.594-7.922-6.641-10.172-9.016-2.234-2.359-3.703-4.75z" id="D" class="B C"/></defs><g transform="matrix(.12 0 0 -.12 284.846408 394.02175)"><use xlink:href="#B" y=".994"/><use xlink:href="#C" x="55.615" y=".994"/><use transform="matrix(.7 0 0 .7 112.972813 70.6875)" xlink:href="#D"/></g><g class="D"><path d="M409.203 373.647V22.407" class="F G H I"/><use x="409.203" xlink:href="#A" y="373.647" class="E"/></g><defs><path d="M4.203 18.891l8.781 1.172q1.516-7.469 5.156-10.766Q21.781 6 27 6q6.203 0 10.469 4.297 4.281 4.297 4.281 10.656 0 6.047-3.953 9.969-3.953 3.938-10.062 3.938-2.484 0-6.203-.969l.984 7.719q.875-.109 1.406-.109 5.625 0 10.109 2.922 4.5 2.938 4.5 9.047 0 4.828-3.281 8-3.266 3.188-8.437 3.188-5.125 0-8.547-3.234-3.422-3.219-4.391-9.656l-8.797 1.563q1.609 8.828 7.313 13.688 5.719 4.859 14.219 4.859 5.859 0 10.781-2.516 4.938-2.516 7.547-6.859 2.625-4.344 2.625-9.234 0-4.625-2.5-8.437-2.484-3.812-7.359-6.062 6.344-1.453 9.859-6.078 3.516-4.609 3.516-11.547 0-9.375-6.844-15.891-6.828-6.516-17.281-6.516-9.422 0-15.656 5.609-6.219 5.625-7.094 14.547z" id="E" class="B C"/></defs><g transform="matrix(.12 0 0 -.12 399.783276 394.02175)"><use xlink:href="#B" y=".994"/><use xlink:href="#C" x="55.615" y=".994"/><use transform="matrix(.7 0 0 .7 112.972813 70.6875)" xlink:href="#E"/></g><defs><path d="M0 0v2" id="F" class="B C D E"/></defs><g class="D E"><use x="59.133" xlink:href="#F" y="373.647"/><use x="98.992" xlink:href="#F" y="373.647"/><use x="119.231" xlink:href="#F" y="373.647"/><use x="133.592" xlink:href="#F" y="373.647"/><use x="144.73" xlink:href="#F" y="373.647"/><use x="153.831" xlink:href="#F" y="373.647"/><use x="161.526" xlink:href="#F" y="373.647"/><use x="168.191" xlink:href="#F" y="373.647"/><use x="174.07" xlink:href="#F" y="373.647"/><use x="213.929" xlink:href="#F" y="373.647"/><use x="234.168" xlink:href="#F" y="373.647"/><use x="248.528" xlink:href="#F" y="373.647"/><use x="259.667" xlink:href="#F" y="373.647"/><use x="268.768" xlink:href="#F" y="373.647"/><use x="276.462" xlink:href="#F" y="373.647"/><use x="283.128" xlink:href="#F" y="373.647"/><use x="289.007" xlink:href="#F" y="373.647"/><use x="328.866" xlink:href="#F" y="373.647"/><use x="349.105" xlink:href="#F" y="373.647"/><use x="363.465" xlink:href="#F" y="373.647"/><use x="374.604" xlink:href="#F" y="373.647"/><use x="383.705" xlink:href="#F" y="373.647"/><use x="391.399" xlink:href="#F" y="373.647"/><use x="398.065" xlink:href="#F" y="373.647"/><use x="403.944" xlink:href="#F" y="373.647"/></g><defs><path d="M7.625 0v71.578h9.703l37.609-56.203v56.203h9.078V0h-9.719L16.703 56.25V0z" id="G" class="B C"/><path d="M40.578 0v7.625q-6.062-8.797-16.453-8.797-4.594 0-8.578 1.75Q11.578 2.344 9.641 5q-1.922 2.672-2.703 6.531-.547 2.578-.547 8.203v32.125h8.797V23.094q0-6.875.531-9.281.828-3.453 3.516-5.437 2.688-1.984 6.641-1.984 3.953 0 7.422 2.031 3.469 2.031 4.906 5.516 1.453 3.5 1.453 10.141v27.781h8.781V0z" id="H" class="B C"/><path d="M6.594 0v51.859h7.859v-7.281q2.438 3.813 6.484 6.125 4.063 2.328 9.234 2.328 5.766 0 9.453-2.391 3.688-2.391 5.203-6.687 6.156 9.078 16.016 9.078 7.719 0 11.859-4.281 4.156-4.266 4.156-13.156V0h-8.75v32.672q0 5.266-.859 7.578-.844 2.328-3.094 3.734-2.234 1.422-5.266 1.422-5.469 0-9.094-3.641-3.609-3.625-3.609-11.641V0h-8.781v33.688q0 5.859-2.156 8.781-2.141 2.938-7.031 2.938-3.703 0-6.859-1.953-3.141-1.953-4.562-5.719-1.422-3.75-1.422-10.828V0z" id="I" class="B C"/><path d="M14.703 0H6.547v71.578h8.781V46.047q5.578 6.984 14.219 6.984 4.781 0 9.047-1.937 4.281-1.922 7.031-5.422 2.766-3.484 4.328-8.422 1.563-4.922 1.563-10.547 0-13.328-6.594-20.609-6.594-7.266-15.812-7.266-9.187 0-14.406 7.672zm-.109 26.313q0-9.312 2.547-13.469 4.156-6.781 11.234-6.781 5.75 0 9.953 5 4.203 5 4.203 14.922 0 10.156-4.031 14.984-4.031 4.828-9.734 4.828-5.766 0-9.969-5-4.203-5-4.203-14.484z" id="J" class="B C"/><path d="M42.094 16.703l9.078-1.125q-2.141-7.953-7.953-12.359-5.812-4.391-14.844-4.391-11.375 0-18.047 7-6.672 7.016-6.672 19.656 0 13.094 6.734 20.313 6.75 7.234 17.484 7.234 10.406 0 17-7.078 6.594-7.078 6.594-19.922 0-.781-.047-2.344H12.75q.484-8.547 4.828-13.094 4.344-4.531 10.844-4.531 4.828 0 8.25 2.531 3.422 2.547 5.422 8.109zM13.234 30.906h28.953q-.578 6.547-3.312 9.813-4.203 5.078-10.891 5.078-6.062 0-10.187-4.047-4.125-4.047-4.562-10.844z" id="K" class="B C"/><path d="M6.5 0v51.859h7.906V44q3.031 5.516 5.594 7.266 2.563 1.766 5.641 1.766 4.438 0 9.031-2.828l-3.031-8.156q-3.219 1.906-6.437 1.906-2.891 0-5.187-1.734-2.297-1.734-3.266-4.812-1.469-4.687-1.469-10.25V0z" id="L" class="B C"/><path d="M3.328 25.922q0 14.406 8 21.344 6.688 5.766 16.313 5.766 10.688 0 17.469-7.016 6.797-7 6.797-19.359 0-10-3-15.75-3-5.734-8.75-8.906-5.734-3.172-12.516-3.172-10.891 0-17.609 6.984-6.703 6.984-6.703 20.109zm9.031 0q0-9.953 4.344-14.906 4.344-4.953 10.938-4.953 6.547 0 10.891 4.969 4.344 4.984 4.344 15.188 0 9.625-4.375 14.578-4.375 4.953-10.859 4.953-6.594 0-10.937-4.937-4.344-4.922-4.344-14.891z" id="M" class="B C"/><path d="M8.688 0v45.016H.922v6.844h7.766v5.516q0 5.219.938 7.766 1.266 3.422 4.453 5.531 3.203 2.125 8.969 2.125 3.719 0 8.203-.875l-1.312-7.656q-2.734.484-5.187.484-4 0-5.656-1.719-1.656-1.703-1.656-6.391v-4.781h10.109v-6.844H17.438V0z" id="N" class="B C"/><path d="M7.328 0v71.578h9.469V8.453h35.25V0z" id="O" class="B C"/><path d="M6.641 61.469v10.109h8.797V61.469zM6.641 0v51.859h8.797V0z" id="P" class="B C"/><path d="M6.641 0v71.578h8.797V30.766l20.797 21.094h11.375L27.781 32.625 49.609 0H38.766L21.625 26.516l-6.187-5.953V0z" id="Q" class="B C"/><path d="M3.078 15.484l8.688 1.359q.734-5.219 4.078-8 3.344-2.781 9.359-2.781 6.047 0 8.969 2.453 2.938 2.469 2.938 5.797 0 2.969-2.594 4.688-1.797 1.172-8.984 2.969-9.656 2.453-13.391 4.234-3.734 1.781-5.672 4.922-1.922 3.156-1.922 6.969 0 3.453 1.578 6.406 1.594 2.969 4.328 4.922 2.047 1.5 5.578 2.547 3.547 1.063 7.609 1.063 6.094 0 10.703-1.766 4.625-1.75 6.813-4.766 2.203-3 3.031-8.016l-8.594-1.172q-.578 4-3.391 6.234-2.812 2.25-7.937 2.25-6.047 0-8.641-2-2.594-2-2.594-4.687 0-1.703 1.078-3.078 1.078-1.406 3.375-2.344 1.313-.484 7.766-2.234 9.328-2.5 13-4.094 3.688-1.578 5.781-4.609 2.109-3.016 2.109-7.516 0-4.391-2.562-8.281-2.562-3.875-7.406-6-4.828-2.125-10.922-2.125-10.109 0-15.406 4.203-5.297 4.203-6.766 12.453z" id="R" class="B C"/><path d="M7.859 0v71.578h31.734q9.578 0 14.547-1.937 4.984-1.922 7.969-6.812 2.984-4.875 2.984-10.781 0-7.609-4.937-12.844-4.937-5.219-15.234-6.641 3.766-1.797 5.719-3.562 4.141-3.797 7.859-9.516L70.953 0H59.031l-9.469 14.891q-4.156 6.453-6.844 9.859-2.672 3.422-4.797 4.781-2.125 1.375-4.328 1.922-1.609.328-5.266.328h-11V0zm9.469 39.984h20.375q6.484 0 10.141 1.344 3.672 1.344 5.578 4.297 1.906 2.953 1.906 6.422 0 5.078-3.687 8.344-3.687 3.281-11.656 3.281H17.328z" id="S" class="B C"/><path d="M40.438 19l8.641-1.125q-1.422-8.937-7.266-14-5.828-5.047-14.328-5.047-10.641 0-17.109 6.953-6.469 6.969-6.469 19.953 0 8.391 2.781 14.688 2.781 6.313 8.469 9.453 5.688 3.156 12.391 3.156 8.438 0 13.813-4.281 5.375-4.266 6.891-12.125l-8.547-1.328q-1.219 5.234-4.328 7.859-3.094 2.641-7.5 2.641-6.641 0-10.797-4.766-4.141-4.75-4.141-15.047 0-10.453 4-15.187 4.016-4.734 10.453-4.734 5.172 0 8.641 3.172Q39.5 12.406 40.438 19z" id="T" class="B C"/><path d="M21 0L1.266 51.859h9.281l11.141-31.062Q23.484 15.766 25 10.359q1.172 4.094 3.266 9.859l11.531 31.641h9.031L29.203 0z" id="U" class="B C"/><path d="M40.234 0v6.547q-4.937-7.719-14.5-7.719-6.203 0-11.406 3.422-5.203 3.422-8.062 9.547-2.844 6.125-2.844 14.078 0 7.766 2.578 14.094 2.594 6.328 7.766 9.688 5.188 3.375 11.578 3.375 4.688 0 8.344-1.984 3.672-1.969 5.969-5.141v25.672h8.734V0zM12.453 25.875q0-9.953 4.188-14.891 4.203-4.922 9.922-4.922 5.766 0 9.781 4.703 4.031 4.719 4.031 14.375 0 10.656-4.109 15.625-4.094 4.984-10.094 4.984-5.859 0-9.797-4.781-3.922-4.781-3.922-15.094z" id="V" class="B C"/></defs><g transform="matrix(.144 0 0 -.144 149.734862 411.714)"><use xlink:href="#G"/><use x="72.217" xlink:href="#H"/><use x="127.832" xlink:href="#I"/><use x="211.133" xlink:href="#J"/><use x="266.748" xlink:href="#K"/><use x="322.363" xlink:href="#L"/><use x="355.664" xlink:href="#Ag"/><use x="383.447" xlink:href="#M"/><use x="439.063" xlink:href="#N"/><use x="466.846" xlink:href="#Ag"/><use x="494.629" xlink:href="#O"/><use x="550.244" xlink:href="#P"/><use x="572.461" xlink:href="#Q"/><use x="622.461" xlink:href="#K"/><use x="678.076" xlink:href="#R"/><use x="728.076" xlink:href="#Ag"/><use x="755.859" xlink:href="#S"/><use x="828.076" xlink:href="#K"/><use x="883.691" xlink:href="#T"/><use x="933.691" xlink:href="#K"/><use x="989.307" xlink:href="#P"/><use x="1011.523" xlink:href="#U"/><use x="1061.523" xlink:href="#K"/><use x="1117.139" xlink:href="#V"/></g><path d="M59.133 368.37h350.07" class="D F G H I"/><defs><path d="M0 0h-4" id="W" class="B C D E"/></defs><use x="59.133" xlink:href="#W" y="368.37" class="D E"/><g transform="matrix(.12 0 0 -.12 32.293449 373.364946)"><use xlink:href="#B" y=".994"/><use xlink:href="#C" x="55.615" y=".994"/><use transform="matrix(.7 0 0 .7 112.972813 70.6875)" xlink:href="#C"/></g><g class="D"><path d="M59.133 253.049h350.07" class="F G H I"/><use x="59.133" xlink:href="#W" y="253.049" class="E"/></g><g transform="matrix(.12 0 0 -.12 32.293449 258.043839)"><use xlink:href="#B" y=".994"/><use xlink:href="#C" x="55.615" y=".994"/><use transform="matrix(.7 0 0 .7 112.972813 70.6875)" xlink:href="#B"/></g><g class="D"><path d="M59.133 137.728h350.07" class="F G H I"/><use x="59.133" xlink:href="#W" y="137.728" class="E"/></g><g transform="matrix(.12 0 0 -.12 32.293449 142.722732)"><use xlink:href="#B" y=".994"/><use xlink:href="#C" x="55.615" y=".994"/><use transform="matrix(.7 0 0 .7 112.972813 70.6875)" xlink:href="#D"/></g><g class="D"><path d="M59.133 22.407h350.07" class="F G H I"/><use x="59.133" xlink:href="#W" y="22.407" class="E"/></g><g transform="matrix(.12 0 0 -.12 32.293449 27.401625)"><use xlink:href="#B" y=".994"/><use xlink:href="#C" x="55.615" y=".994"/><use transform="matrix(.7 0 0 .7 112.972813 70.6875)" xlink:href="#E"/></g><defs><path d="M0 0h-2" id="X" class="B C D E"/></defs><g class="D E"><use x="59.133" xlink:href="#X" y="373.647"/><use x="59.133" xlink:href="#X" y="333.655"/><use x="59.133" xlink:href="#X" y="313.348"/><use x="59.133" xlink:href="#X" y="298.94"/><use x="59.133" xlink:href="#X" y="287.764"/><use x="59.133" xlink:href="#X" y="278.633"/><use x="59.133" xlink:href="#X" y="270.912"/><use x="59.133" xlink:href="#X" y="264.225"/><use x="59.133" xlink:href="#X" y="258.326"/><use x="59.133" xlink:href="#X" y="218.334"/><use x="59.133" xlink:href="#X" y="198.027"/><use x="59.133" xlink:href="#X" y="183.619"/><use x="59.133" xlink:href="#X" y="172.443"/><use x="59.133" xlink:href="#X" y="163.312"/><use x="59.133" xlink:href="#X" y="155.591"/><use x="59.133" xlink:href="#X" y="148.904"/><use x="59.133" xlink:href="#X" y="143.005"/><use x="59.133" xlink:href="#X" y="103.013"/><use x="59.133" xlink:href="#X" y="82.706"/><use x="59.133" xlink:href="#X" y="68.298"/><use x="59.133" xlink:href="#X" y="57.122"/><use x="59.133" xlink:href="#X" y="47.99"/><use x="59.133" xlink:href="#X" y="40.27"/><use x="59.133" xlink:href="#X" y="33.582"/><use x="59.133" xlink:href="#X" y="27.683"/></g><defs><path d="M41.219 28.078v8.391l30.313.063V9.969q-6.984-5.578-14.406-8.391-7.422-2.797-15.234-2.797-10.547 0-19.172 4.516-8.609 4.516-13 13.063-4.391 8.547-4.391 19.094 0 10.453 4.359 19.5 4.375 9.063 12.578 13.453 8.203 4.391 18.891 4.391 7.766 0 14.031-2.516 6.281-2.5 9.844-7 3.578-4.484 5.422-11.719l-8.531-2.344q-1.625 5.469-4.016 8.594-2.391 3.125-6.844 5-4.437 1.891-9.844 1.891-6.5 0-11.234-1.984-4.734-1.969-7.641-5.203-2.906-3.219-4.516-7.078-2.734-6.641-2.734-14.406 0-9.562 3.297-16.016 3.297-6.437 9.594-9.562 6.297-3.125 13.375-3.125 6.156 0 12.016 2.359 5.859 2.375 8.875 5.063v13.328z" id="Y" class="B C"/><path d="M6.594 0v51.859H14.5v-7.375q5.719 8.547 16.5 8.547 4.688 0 8.625-1.687 3.938-1.687 5.891-4.422 1.953-2.734 2.734-6.484.484-2.453.484-8.547V0h-8.797v31.547q0 5.375-1.031 8.031-1.016 2.656-3.625 4.234-2.609 1.594-6.125 1.594-5.625 0-9.703-3.562-4.078-3.562-4.078-13.516V0z" id="Z" class="B C"/></defs><g transform="matrix(0 -.144 -.144 0 24.431449 271.252937)"><use xlink:href="#G"/><use x="72.217" xlink:href="#H"/><use x="127.832" xlink:href="#I"/><use x="211.133" xlink:href="#J"/><use x="266.748" xlink:href="#K"/><use x="322.363" xlink:href="#L"/><use x="355.664" xlink:href="#Ag"/><use x="383.447" xlink:href="#M"/><use x="439.063" xlink:href="#N"/><use x="466.846" xlink:href="#Ag"/><use x="494.629" xlink:href="#O"/><use x="550.244" xlink:href="#P"/><use x="572.461" xlink:href="#Q"/><use x="622.461" xlink:href="#K"/><use x="678.076" xlink:href="#R"/><use x="728.076" xlink:href="#Ag"/><use x="755.859" xlink:href="#Y"/><use x="833.643" xlink:href="#P"/><use x="855.859" xlink:href="#U"/><use x="905.859" xlink:href="#K"/><use x="961.475" xlink:href="#Z"/></g><defs><path d="M0 1.5a1.5 1.5 0 0 0 1.061-.439A1.5 1.5 0 0 0 1.5 0a1.5 1.5 0 0 0-.439-1.061A1.5 1.5 0 0 0 0-1.5a1.5 1.5 0 0 0-1.061.439A1.5 1.5 0 0 0-1.5 0a1.5 1.5 0 0 0 .439 1.061A1.5 1.5 0 0 0 0 1.5z" id="a" class="B C"/></defs><g fill="#0072bd" class="F"><use x="328.364" xlink:href="#a" y="95.149"/><use x="213.929" xlink:href="#a" y="173.455"/><use x="196.125" xlink:href="#a" y="287.764"/><use x="289.559" xlink:href="#a" y="193.253"/><use x="279.906" xlink:href="#a" y="194.794"/><use x="293.765" xlink:href="#a" y="158.538"/><use x="161.526" xlink:href="#a" y="153.489"/><use x="119.231" xlink:href="#a" y="333.655"/><use x="216.364" xlink:href="#a" y="174.487"/><use x="64.393" xlink:href="#a" y="368.37"/><use x="232.476" xlink:href="#a" y="223.611"/><use x="205.817" xlink:href="#a" y="264.225"/><use x="161.526" xlink:href="#a" y="243.918"/><use x="174.07" xlink:href="#a" y="264.225"/><use x="119.231" xlink:href="#a" y="368.37"/><use x="64.393" xlink:href="#a" y="368.37"/><use x="119.231" xlink:href="#a" y="333.655"/><use x="133.592" xlink:href="#a" y="333.655"/><use x="208.67" xlink:href="#a" y="223.611"/><use x="353.711" xlink:href="#a" y="85.099"/><use x="133.592" xlink:href="#a" y="298.94"/><use x="98.992" xlink:href="#a" y="298.94"/><use x="144.73" xlink:href="#a" y="368.37"/><use x="161.526" xlink:href="#a" y="298.94"/><use x="188.43" xlink:href="#a" y="194.794"/><use x="179.33" xlink:href="#a" y="198.027"/><use x="199.569" xlink:href="#a" y="278.633"/><use x="196.125" xlink:href="#a" y="333.655"/><use x="144.73" xlink:href="#a" y="368.37"/><use x="218.687" xlink:href="#a" y="198.027"/><use x="98.992" xlink:href="#a" y="368.37"/><use x="188.43" xlink:href="#a" y="207.158"/><use x="192.426" xlink:href="#a" y="313.348"/><use x="196.125" xlink:href="#a" y="232.742"/><use x="247.265" xlink:href="#a" y="187.523"/><use x="98.992" xlink:href="#a" y="368.37"/><use x="228.909" xlink:href="#a" y="226.473"/><use x="133.592" xlink:href="#a" y="313.348"/><use x="205.817" xlink:href="#a" y="152.136"/><use x="119.231" xlink:href="#a" y="368.37"/><use x="161.526" xlink:href="#a" y="368.37"/><use x="133.592" xlink:href="#a" y="368.37"/><use x="64.393" xlink:href="#a" y="270.912"/><use x="220.905" xlink:href="#a" y="264.225"/><use x="309.247" xlink:href="#a" y="107.736"/><use x="133.592" xlink:href="#a" y="287.764"/><use x="205.817" xlink:href="#a" y="270.912"/><use x="119.231" xlink:href="#a" y="287.764"/><use x="292.746" xlink:href="#a" y="147.667"/><use x="153.831" xlink:href="#a" y="368.37"/><use x="98.992" xlink:href="#a" y="368.37"/><use x="230.724" xlink:href="#a" y="157.043"/><use x="133.592" xlink:href="#a" y="333.655"/><use x="326.042" xlink:href="#a" y="93.881"/><use x="299.024" xlink:href="#a" y="154.18"/><use x="273.525" xlink:href="#a" y="170.479"/><use x="277.171" xlink:href="#a" y="191.758"/><use x="192.426" xlink:href="#a" y="201.482"/><use x="202.79" xlink:href="#a" y="191.758"/><use x="223.03" xlink:href="#a" y="155.591"/><use x="119.231" xlink:href="#a" y="298.94"/><use x="144.73" xlink:href="#a" y="248.275"/><use x="153.831" xlink:href="#a" y="333.655"/><use x="253.286" xlink:href="#a" y="232.742"/><use x="179.33" xlink:href="#a" y="313.348"/><use x="98.992" xlink:href="#a" y="211.334"/><use x="119.231" xlink:href="#a" y="278.633"/><use x="230.724" xlink:href="#a" y="253.049"/><use x="98.992" xlink:href="#a" y="333.655"/><use x="311.77" xlink:href="#a" y="175.542"/><use x="306.197" xlink:href="#a" y="123.07"/><use x="179.33" xlink:href="#a" y="368.37"/><use x="276.462" xlink:href="#a" y="154.18"/><use x="153.831" xlink:href="#a" y="368.37"/><use x="275.016" xlink:href="#a" y="179.997"/><use x="174.07" xlink:href="#a" y="298.94"/><use x="168.191" xlink:href="#a" y="243.918"/><use x="208.67" xlink:href="#a" y="287.764"/><use x="211.369" xlink:href="#a" y="239.909"/><use x="269.593" xlink:href="#a" y="253.049"/><use x="153.831" xlink:href="#a" y="333.655"/><use x="296.224" xlink:href="#a" y="121.961"/><use x="211.369" xlink:href="#a" y="223.611"/><use x="184.087" xlink:href="#a" y="368.37"/><use x="98.992" xlink:href="#a" y="368.37"/><use x="188.43" xlink:href="#a" y="368.37"/><use x="289.559" xlink:href="#a" y="133.412"/><use x="184.087" xlink:href="#a" y="278.633"/><use x="199.569" xlink:href="#a" y="188.895"/><use x="153.831" xlink:href="#a" y="368.37"/><use x="174.07" xlink:href="#a" y="333.655"/><use x="64.393" xlink:href="#a" y="368.37"/><use x="133.592" xlink:href="#a" y="333.655"/><use x="168.191" xlink:href="#a" y="270.912"/><use x="64.393" xlink:href="#a" y="368.37"/><use x="184.087" xlink:href="#a" y="173.455"/><use x="174.07" xlink:href="#a" y="368.37"/><use x="98.992" xlink:href="#a" y="333.655"/><use x="133.592" xlink:href="#a" y="188.895"/><use x="248.528" xlink:href="#a" y="229.509"/><use x="64.393" xlink:href="#a" y="368.37"/><use x="64.393" xlink:href="#a" y="298.94"/><use x="64.393" xlink:href="#a" y="270.912"/><use x="133.592" xlink:href="#a" y="298.94"/><use x="98.992" xlink:href="#a" y="333.655"/><use x="64.393" xlink:href="#a" y="239.909"/><use x="144.73" xlink:href="#a" y="264.225"/><use x="161.526" xlink:href="#a" y="287.764"/><use x="98.992" xlink:href="#a" y="298.94"/><use x="64.393" xlink:href="#a" y="368.37"/><use x="202.79" xlink:href="#a" y="215.89"/><use x="144.73" xlink:href="#a" y="248.275"/><use x="98.992" xlink:href="#a" y="368.37"/><use x="64.393" xlink:href="#a" y="368.37"/><use x="64.393" xlink:href="#a" y="333.655"/><use x="64.393" xlink:href="#a" y="298.94"/><use x="161.526" xlink:href="#a" y="253.049"/><use x="98.992" xlink:href="#a" y="298.94"/><use x="98.992" xlink:href="#a" y="313.348"/><use x="119.231" xlink:href="#a" y="258.326"/><use x="64.393" xlink:href="#a" y="253.049"/><use x="119.231" xlink:href="#a" y="333.655"/><use x="133.592" xlink:href="#a" y="333.655"/><use x="196.125" xlink:href="#a" y="258.326"/><use x="179.33" xlink:href="#a" y="313.348"/><use x="98.992" xlink:href="#a" y="207.158"/></g><g stroke-linejoin="miter" class="E G H"><path d="M59.133 373.647V22.407m350.07 351.24V22.407"/><path d="M59.133 373.647h350.07M59.133 22.407h350.07"/></g><defs><clipPath id="b"><path d="M59.133 22.407h350.07v351.24H59.133z" class="B C"/></clipPath></defs></svg>