<svg xmlns="http://www.w3.org/2000/svg" xmlns:xlink="http://www.w3.org/1999/xlink" height="576" viewBox="0 0 576 432" width="768" stroke-linecap="butt" stroke-linejoin="round" xmlns:v="https://vecta.io/nano"><style><![CDATA[.B{stroke-linecap:butt}.C{stroke-linejoin:round}.D{stroke-width:.5}.E{stroke:#000}.F{clip-path:url(#l)}.G{stroke-linecap:square}.H{fill:none}.I{stroke:#b2b2b2}]]></style><g fill="#fff"><path d="M0 432h576V0H0z"/><path d="M47.51 324.978h511.93V18.36H47.51z"/></g><path d="M104.391 324.978V18.36" class="D F G H I"/><defs><path d="M0 0v4" id="A" class="B C D E"/></defs><use x="104.391" xlink:href="#A" y="324.978" class="D E"/><defs><path d="M7.328 0v71.578h9.469V8.453h35.25V0z" id="B" class="B C"/><path d="M6.641 61.469v10.109h8.797V61.469zM6.641 0v51.859h8.797V0z" id="C" class="B C"/><path d="M6.641 0v71.578h8.797V30.766l20.797 21.094h11.375L27.781 32.625 49.609 0H38.766L21.625 26.516l-6.187-5.953V0z" id="D" class="B C"/><path d="M42.094 16.703l9.078-1.125q-2.141-7.953-7.953-12.359-5.812-4.391-14.844-4.391-11.375 0-18.047 7-6.672 7.016-6.672 19.656 0 13.094 6.734 20.313 6.75 7.234 17.484 7.234 10.406 0 17-7.078 6.594-7.078 6.594-19.922 0-.781-.047-2.344H12.75q.484-8.547 4.828-13.094 4.344-4.531 10.844-4.531 4.828 0 8.25 2.531 3.422 2.547 5.422 8.109zM13.234 30.906h28.953q-.578 6.547-3.312 9.813-4.203 5.078-10.891 5.078-6.062 0-10.187-4.047-4.125-4.047-4.562-10.844z" id="E" class="B C"/></defs><g transform="matrix(0 -.12 -.12 0 107.493299 354.99)"><use xlink:href="#B"/><use x="55.615" xlink:href="#C"/><use x="77.832" xlink:href="#D"/><use x="127.832" xlink:href="#E"/></g><g class="D"><path d="M161.272 324.978V18.36" class="F G H I"/><use x="161.272" xlink:href="#A" y="324.978" class="E"/></g><defs><path d="M41.219 28.078v8.391l30.313.063V9.969q-6.984-5.578-14.406-8.391-7.422-2.797-15.234-2.797-10.547 0-19.172 4.516-8.609 4.516-13 13.063-4.391 8.547-4.391 19.094 0 10.453 4.359 19.5 4.375 9.063 12.578 13.453 8.203 4.391 18.891 4.391 7.766 0 14.031-2.516 6.281-2.5 9.844-7 3.578-4.484 5.422-11.719l-8.531-2.344q-1.625 5.469-4.016 8.594-2.391 3.125-6.844 5-4.437 1.891-9.844 1.891-6.5 0-11.234-1.984-4.734-1.969-7.641-5.203-2.906-3.219-4.516-7.078-2.734-6.641-2.734-14.406 0-9.562 3.297-16.016 3.297-6.437 9.594-9.562 6.297-3.125 13.375-3.125 6.156 0 12.016 2.359 5.859 2.375 8.875 5.063v13.328z" id="F" class="B C"/><path d="M40.438 6.391Q35.547 2.25 31.031.531q-4.516-1.703-9.687-1.703-8.547 0-13.141 4.172-4.594 4.172-4.594 10.672 0 3.813 1.734 6.953 1.734 3.156 4.547 5.063 2.813 1.906 6.328 2.875 2.578.688 7.813 1.328 10.641 1.266 15.672 3.016.047 1.813.047 2.297 0 5.375-2.5 7.578-3.359 2.969-10 2.969-6.203 0-9.156-2.172-2.953-2.172-4.375-7.687l-8.594 1.172q1.172 5.516 3.859 8.906 2.688 3.391 7.766 5.219 5.078 1.844 11.766 1.844 6.641 0 10.781-1.562 4.156-1.562 6.109-3.937 1.953-2.359 2.734-5.984.438-2.234.438-8.094V21.734q0-12.266.563-15.516.563-3.234 2.234-6.219h-9.187q-1.359 2.734-1.75 6.391zm-.734 19.641q-4.797-1.953-14.359-3.328-5.422-.781-7.672-1.766-2.234-.969-3.469-2.844-1.219-1.875-1.219-4.172 0-3.516 2.656-5.859 2.672-2.344 7.797-2.344 5.078 0 9.031 2.219 3.953 2.219 5.813 6.078 1.422 2.984 1.422 8.781z" id="G" class="B C"/><path d="M3.078 15.484l8.688 1.359q.734-5.219 4.078-8 3.344-2.781 9.359-2.781 6.047 0 8.969 2.453 2.938 2.469 2.938 5.797 0 2.969-2.594 4.688-1.797 1.172-8.984 2.969-9.656 2.453-13.391 4.234-3.734 1.781-5.672 4.922-1.922 3.156-1.922 6.969 0 3.453 1.578 6.406 1.594 2.969 4.328 4.922 2.047 1.5 5.578 2.547 3.547 1.063 7.609 1.063 6.094 0 10.703-1.766 4.625-1.75 6.813-4.766 2.203-3 3.031-8.016l-8.594-1.172q-.578 4-3.391 6.234-2.812 2.25-7.937 2.25-6.047 0-8.641-2-2.594-2-2.594-4.687 0-1.703 1.078-3.078 1.078-1.406 3.375-2.344 1.313-.484 7.766-2.234 9.328-2.5 13-4.094 3.688-1.578 5.781-4.609 2.109-3.016 2.109-7.516 0-4.391-2.562-8.281-2.562-3.875-7.406-6-4.828-2.125-10.922-2.125-10.109 0-15.406 4.203-5.297 4.203-6.766 12.453z" id="H" class="B C"/></defs><g transform="matrix(0 -.12 -.12 0 164.37441 354.984375)"><use xlink:href="#F"/><use x="77.783" xlink:href="#G"/><use x="133.398" xlink:href="#H"/></g><g class="D"><path d="M218.153 324.978V18.36" class="F G H I"/><use x="218.153" xlink:href="#A" y="324.978" class="E"/></g><defs><path d="M8.016 0v71.578h9.469V42.188h37.203v29.391h9.469V0h-9.469v33.734H17.484V0z" id="I" class="B C"/><path d="M25.781 7.859L27.047.094q-3.703-.781-6.641-.781-4.781 0-7.422 1.516-2.625 1.516-3.703 3.984-1.078 2.469-1.078 10.375v29.828H1.766v6.844h6.438v12.844l8.734 5.266V51.859h8.844v-6.844h-8.844V14.703q0-3.766.469-4.844.469-1.062 1.516-1.703 1.047-.641 3-.641 1.469 0 3.859.344z" id="J" class="B C"/><path d="M6.391 0v71.578h8.797V0z" id="K" class="B C"/><path d="M6.5 0v51.859h7.906V44q3.031 5.516 5.594 7.266 2.563 1.766 5.641 1.766 4.438 0 9.031-2.828l-3.031-8.156q-3.219 1.906-6.437 1.906-2.891 0-5.187-1.734-2.297-1.734-3.266-4.812-1.469-4.687-1.469-10.25V0z" id="L" class="B C"/><path d="M-.141 0l27.484 71.578h10.203L66.844 0H56.063l-8.359 21.688H17.781L9.906 0zm20.656 29.391h24.266l-7.469 19.828q-3.422 9.031-5.078 14.844-1.375-6.891-3.859-13.672z" id="M" class="B C"/><path d="M6.594-19.875v71.734h8v-6.734q2.844 3.953 6.406 5.922 3.563 1.984 8.641 1.984 6.641 0 11.719-3.422 5.078-3.422 7.656-9.656 2.594-6.219 2.594-13.641 0-7.953-2.859-14.328-2.844-6.375-8.297-9.766Q35.016-1.172 29-1.172q-4.391 0-7.891 1.859-3.484 1.859-5.734 4.688v-25.25zm7.953 45.516q0-10.016 4.047-14.797 4.063-4.781 9.828-4.781 5.859 0 10.031 4.953 4.172 4.953 4.172 15.359 0 9.906-4.078 14.828-4.078 4.938-9.734 4.938-5.625 0-9.953-5.25-4.312-5.25-4.312-15.25z" id="N" class="B C"/><path d="M3.328 25.922q0 14.406 8 21.344 6.688 5.766 16.313 5.766 10.688 0 17.469-7.016 6.797-7 6.797-19.359 0-10-3-15.75-3-5.734-8.75-8.906-5.734-3.172-12.516-3.172-10.891 0-17.609 6.984-6.703 6.984-6.703 20.109zm9.031 0q0-9.953 4.344-14.906 4.344-4.953 10.938-4.953 6.547 0 10.891 4.969 4.344 4.984 4.344 15.188 0 9.625-4.375 14.578-4.375 4.953-10.859 4.953-6.594 0-10.937-4.937-4.344-4.922-4.344-14.891z" id="O" class="B C"/><path d="M21 0L1.266 51.859h9.281l11.141-31.062Q23.484 15.766 25 10.359q1.172 4.094 3.266 9.859l11.531 31.641h9.031L29.203 0z" id="P" class="B C"/></defs><g transform="matrix(0 -.12 -.12 0 221.255521 414.995625)"><use xlink:href="#I"/><use x="72.217" xlink:href="#C"/><use x="94.434" xlink:href="#J"/><use x="122.217" xlink:href="#K"/><use x="144.434" xlink:href="#E"/><use x="200.049" xlink:href="#L"/><use x="233.35" xlink:href="#d"/><use x="261.055" xlink:href="#M"/><use x="327.754" xlink:href="#N"/><use x="383.369" xlink:href="#N"/><use x="438.984" xlink:href="#L"/><use x="472.285" xlink:href="#O"/><use x="527.9" xlink:href="#P"/><use x="577.9" xlink:href="#E"/><use x="633.516" xlink:href="#H"/></g><g class="D"><path d="M275.034 324.978V18.36" class="F G H I"/><use x="275.034" xlink:href="#A" y="324.978" class="E"/></g><defs><path d="M7.422 0v71.578h14.266l16.938-50.672q2.344-7.094 3.422-10.609 1.219 3.906 3.797 11.484l17.141 49.797h12.75V0h-9.125v59.906L45.797 0H37.25L16.547 60.938V0z" id="Q" class="B C"/><path d="M6.594 0v51.859H14.5v-7.375q5.719 8.547 16.5 8.547 4.688 0 8.625-1.687 3.938-1.687 5.891-4.422 1.953-2.734 2.734-6.484.484-2.453.484-8.547V0h-8.797v31.547q0 5.375-1.031 8.031-1.016 2.656-3.625 4.234-2.609 1.594-6.125 1.594-5.625 0-9.703-3.562-4.078-3.562-4.078-13.516V0z" id="R" class="B C"/><path d="M25.047 11.578v19.625H5.563v8.203h19.484v19.484h8.297V39.406h19.484v-8.203H33.344V11.578z" id="S" class="B C"/><path d="M37.25 0h-8.781v56q-3.172-3.016-8.328-6.047-5.156-3.031-9.25-4.547v8.5q7.375 3.469 12.891 8.391 5.516 4.938 7.813 9.578h5.656z" id="T" class="B C"/></defs><g transform="matrix(0 -.12 -.12 0 278.136632 386.008125)"><use xlink:href="#Q"/><use x="83.301" xlink:href="#G"/><use x="138.916" xlink:href="#H"/><use x="188.916" xlink:href="#O"/><use x="244.531" xlink:href="#R"/><use x="300.146" xlink:href="#d"/><use x="327.93" xlink:href="#S"/><use x="386.328" xlink:href="#T"/></g><g class="D"><path d="M331.916 324.978V18.36" class="F G H I"/><use x="331.916" xlink:href="#A" y="324.978" class="E"/></g><defs><path d="M7.859 0v71.578h31.734q9.578 0 14.547-1.937 4.984-1.922 7.969-6.812 2.984-4.875 2.984-10.781 0-7.609-4.937-12.844-4.937-5.219-15.234-6.641 3.766-1.797 5.719-3.562 4.141-3.797 7.859-9.516L70.953 0H59.031l-9.469 14.891q-4.156 6.453-6.844 9.859-2.672 3.422-4.797 4.781-2.125 1.375-4.328 1.922-1.609.328-5.266.328h-11V0zm9.469 39.984h20.375q6.484 0 10.141 1.344 3.672 1.344 5.578 4.297 1.906 2.953 1.906 6.422 0 5.078-3.687 8.344-3.687 3.281-11.656 3.281H17.328z" id="U" class="B C"/><path d="M40.438 19l8.641-1.125q-1.422-8.937-7.266-14-5.828-5.047-14.328-5.047-10.641 0-17.109 6.953-6.469 6.969-6.469 19.953 0 8.391 2.781 14.688 2.781 6.313 8.469 9.453 5.688 3.156 12.391 3.156 8.438 0 13.813-4.281 5.375-4.266 6.891-12.125l-8.547-1.328q-1.219 5.234-4.328 7.859-3.094 2.641-7.5 2.641-6.641 0-10.797-4.766-4.141-4.75-4.141-15.047 0-10.453 4-15.187 4.016-4.734 10.453-4.734 5.172 0 8.641 3.172Q39.5 12.406 40.438 19z" id="V" class="B C"/><path d="M16.156 0L.297 51.859h9.078l8.25-29.937 3.078-11.125q.203.828 2.688 10.688l8.25 30.375h9.031l7.766-30.078 2.594-9.922L54 21.875l8.891 29.984h8.547L55.219 0h-9.125l-8.25 31.063-2 8.828L25.344 0z" id="W" class="B C"/><path d="M4.5 23l8.922.781q.641-5.375 2.953-8.812 2.328-3.437 7.203-5.562 4.891-2.125 11-2.125 5.406 0 9.563 1.609 4.156 1.609 6.172 4.406 2.031 2.813 2.031 6.141 0 3.359-1.953 5.875-1.953 2.516-6.437 4.234-2.891 1.125-12.75 3.484-9.859 2.375-13.812 4.469-5.141 2.688-7.656 6.656-2.5 3.984-2.5 8.922 0 5.422 3.063 10.125 3.078 4.719 8.984 7.156 5.922 2.438 13.141 2.438 7.953 0 14.031-2.562 6.094-2.562 9.359-7.547 3.266-4.969 3.516-11.266l-9.078-.687q-.734 6.781-4.969 10.25-4.219 3.469-12.469 3.469-8.594 0-12.531-3.156-3.922-3.141-3.922-7.578 0-3.859 2.781-6.359 2.734-2.484 14.281-5.094 11.547-2.609 15.844-4.562 6.25-2.891 9.219-7.312 2.984-4.406 2.984-10.172 0-5.719-3.266-10.781-3.266-5.047-9.406-7.859-6.125-2.797-13.781-2.797-9.719 0-16.297 2.828-6.562 2.828-10.297 8.516Q4.688 15.828 4.5 23z" id="X" class="B C"/><path d="M40.578 0v7.625q-6.062-8.797-16.453-8.797-4.594 0-8.578 1.75Q11.578 2.344 9.641 5q-1.922 2.672-2.703 6.531-.547 2.578-.547 8.203v32.125h8.797V23.094q0-6.875.531-9.281.828-3.453 3.516-5.437 2.688-1.984 6.641-1.984 3.953 0 7.422 2.031 3.469 2.031 4.906 5.516 1.453 3.5 1.453 10.141v27.781h8.781V0z" id="Y" class="B C"/></defs><g transform="matrix(0 -.12 -.12 0 335.017743 418.34625)"><use xlink:href="#U"/><use x="72.217" xlink:href="#O"/><use x="127.832" xlink:href="#V"/><use x="177.832" xlink:href="#D"/><use x="227.832" xlink:href="#W"/><use x="300.049" xlink:href="#E"/><use x="355.664" xlink:href="#K"/><use x="377.881" xlink:href="#K"/><use x="400.098" xlink:href="#d"/><use x="427.881" xlink:href="#X"/><use x="494.58" xlink:href="#G"/><use x="550.195" xlink:href="#K"/><use x="572.412" xlink:href="#Y"/><use x="628.027" xlink:href="#J"/><use x="655.811" xlink:href="#E"/></g><g class="D"><path d="M388.797 324.978V18.36" class="F G H I"/><use x="388.797" xlink:href="#A" y="324.978" class="E"/></g><defs><path d="M6.594 0v71.578h8.781V45.906q6.156 7.125 15.531 7.125 5.766 0 10.016-2.281 4.25-2.266 6.078-6.266 1.828-4 1.828-11.625V0h-8.781v32.859q0 6.594-2.859 9.594-2.859 3-8.078 3-3.906 0-7.359-2.031-3.437-2.016-4.906-5.484-1.469-3.469-1.469-9.562V0z" id="Z" class="B C"/><path d="M6.594 0v51.859h7.859v-7.281q2.438 3.813 6.484 6.125 4.063 2.328 9.234 2.328 5.766 0 9.453-2.391 3.688-2.391 5.203-6.687 6.156 9.078 16.016 9.078 7.719 0 11.859-4.281 4.156-4.266 4.156-13.156V0h-8.75v32.672q0 5.266-.859 7.578-.844 2.328-3.094 3.734-2.234 1.422-5.266 1.422-5.469 0-9.094-3.641-3.609-3.625-3.609-11.641V0h-8.781v33.688q0 5.859-2.156 8.781-2.141 2.938-7.031 2.938-3.703 0-6.859-1.953-3.141-1.953-4.562-5.719-1.422-3.75-1.422-10.828V0z" id="a" class="B C"/></defs><g transform="matrix(0 -.12 -.12 0 391.898854 373.663125)"><use xlink:href="#X"/><use x="66.699" xlink:href="#Z"/><use x="122.314" xlink:href="#K"/><use x="144.531" xlink:href="#O"/><use x="200.146" xlink:href="#a"/><use x="283.447" xlink:href="#O"/></g><g class="D"><path d="M445.678 324.978V18.36" class="F G H I"/><use x="445.678" xlink:href="#A" y="324.978" class="E"/></g><defs><path d="M6.203-19.969l-.984 8.25q2.891-.781 5.031-.781 2.938 0 4.688.984 1.766.969 2.891 2.719.828 1.328 2.688 6.547.234.734.781 2.156L1.609 51.859h9.469l10.797-30.031q2.094-5.719 3.766-12.016 1.516 6.063 3.609 11.813l11.078 30.234h8.797L29.391-.875q-3.172-8.547-4.922-11.766-2.344-4.359-5.375-6.375-3.031-2.031-7.234-2.031-2.531 0-5.656 1.078z" id="b" class="B C"/><path d="M7.625 0v71.578h9.703l37.609-56.203v56.203h9.078V0h-9.719L16.703 56.25V0z" id="c" class="B C"/><path d="M1.953 0v7.125l33.016 37.891q-5.625-.281-9.922-.281H3.906v7.125h42.391v-5.812L18.219 13.141l-5.422-6.016q5.906.438 11.078.438h23.984V0z" id="d" class="B C"/></defs><g transform="matrix(0 -.12 -.12 0 448.782778 400.340625)"><use xlink:href="#X"/><use x="66.699" xlink:href="#R"/><use x="122.314" xlink:href="#E"/><use x="177.93" xlink:href="#G"/><use x="233.545" xlink:href="#D"/><use x="283.545" xlink:href="#b"/><use x="333.545" xlink:href="#d"/><use x="361.328" xlink:href="#c"/><use x="433.545" xlink:href="#G"/><use x="489.16" xlink:href="#d"/><use x="539.16" xlink:href="#C"/></g><g class="D"><path d="M502.559 324.978V18.36" class="F G H I"/><use x="502.559" xlink:href="#A" y="324.978" class="E"/></g><defs><path d="M3.172 21.484v8.844h27v-8.844z" id="e" class="B C"/><path d="M8.203 0v71.578H56.5v-8.437H17.672V40.969h33.594v-8.453H17.672V0z" id="f" class="B C"/></defs><g transform="matrix(0 -.12 -.12 0 505.661076 395.653125)"><use xlink:href="#M"/><use x="66.699" xlink:href="#R"/><use x="122.314" xlink:href="#J"/><use x="150.098" xlink:href="#C"/><use x="172.314" xlink:href="#e"/><use x="205.615" xlink:href="#f"/><use x="266.699" xlink:href="#G"/><use x="322.314" xlink:href="#H"/><use x="372.314" xlink:href="#V"/><use x="422.314" xlink:href="#C"/><use x="444.531" xlink:href="#H"/><use x="494.531" xlink:href="#J"/></g><path d="M47.51 324.978h511.93" class="D F G H I"/><defs><path d="M0 0h-4" id="g" class="B C D E"/></defs><use x="47.51" xlink:href="#g" y="324.978" class="D E"/><defs><path d="M4.156 35.297q0 12.703 2.609 20.438 2.609 7.75 7.75 11.938 5.156 4.203 12.969 4.203 5.766 0 10.109-2.328 4.344-2.312 7.172-6.687 2.844-4.359 4.453-10.641 1.609-6.266 1.609-16.922 0-12.594-2.594-20.328Q45.656 7.234 40.5 3q-5.141-4.219-13.016-4.219-10.344 0-16.25 7.422-7.078 8.938-7.078 29.094zm9.031 0q0-17.625 4.125-23.469Q21.438 6 27.484 6q6.063 0 10.188 5.859 4.125 5.859 4.125 23.438 0 17.688-4.125 23.484-4.125 5.813-10.281 5.813-6.047 0-9.672-5.125-4.531-6.531-4.531-24.172z" id="h" class="B C"/></defs><use xlink:href="#h" transform="matrix(.12 0 0 -.12 32.836875 328.079687)"/><g class="D"><path d="M47.51 273.875h511.93" class="F G H I"/><use x="47.51" xlink:href="#g" y="273.875" class="E"/></g><defs><path d="M4.156 18.75l9.219.781q1.031-6.734 4.766-10.141Q21.875 6 27.156 6q6.344 0 10.734 4.781 4.391 4.797 4.391 12.703 0 7.516-4.219 11.859Q33.844 39.703 27 39.703q-4.25 0-7.672-1.937-3.406-1.922-5.359-5l-8.25 1.078 6.922 36.766H48.25v-8.406H19.672l-3.844-19.234q6.438 4.5 13.516 4.5 9.375 0 15.813-6.5 6.453-6.5 6.453-16.703 0-9.719-5.656-16.797-6.891-8.687-18.797-8.687-9.766 0-15.953 5.469-6.172 5.469-7.047 14.5z" id="i" class="B C"/></defs><g transform="matrix(.12 0 0 -.12 19.490625 276.976771)"><use xlink:href="#i"/><use x="55.615" xlink:href="#h"/><use x="111.23" xlink:href="#h"/></g><g class="D"><path d="M47.51 222.772h511.93" class="F G H I"/><use x="47.51" xlink:href="#g" y="222.772" class="E"/></g><g transform="matrix(.12 0 0 -.12 12.8175 225.873854)"><use xlink:href="#T"/><use x="55.615" xlink:href="#h"/><use x="111.23" xlink:href="#h"/><use x="166.846" xlink:href="#h"/></g><g class="D"><path d="M47.51 171.669h511.93" class="F G H I"/><use x="47.51" xlink:href="#g" y="171.669" class="E"/></g><g transform="matrix(.12 0 0 -.12 12.8175 174.770938)"><use xlink:href="#T"/><use x="55.615" xlink:href="#i"/><use x="111.23" xlink:href="#h"/><use x="166.846" xlink:href="#h"/></g><g class="D"><path d="M47.51 120.566h511.93" class="F G H I"/><use x="47.51" xlink:href="#g" y="120.566" class="E"/></g><defs><path d="M50.344 8.453V0H3.031q-.094 3.172 1.016 6.109 1.813 4.828 5.781 9.516 3.984 4.688 11.516 10.844 11.672 9.563 15.766 15.156 4.109 5.594 4.109 10.578 0 5.219-3.75 8.797-3.734 3.594-9.734 3.594-6.344 0-10.156-3.812-3.812-3.797-3.859-10.531l-9.031.922q.922 10.109 6.969 15.406 6.063 5.297 16.281 5.297 10.297 0 16.297-5.719Q50.25 60.453 50.25 52q0-4.297-1.766-8.453-1.75-4.141-5.828-8.734-4.078-4.594-13.547-12.594-7.922-6.641-10.172-9.016-2.234-2.359-3.703-4.75z" id="j" class="B C"/></defs><g transform="matrix(.12 0 0 -.12 12.8175 123.668021)"><use xlink:href="#j"/><use x="55.615" xlink:href="#h"/><use x="111.23" xlink:href="#h"/><use x="166.846" xlink:href="#h"/></g><g class="D"><path d="M47.51 69.463h511.93" class="F G H I"/><use x="47.51" xlink:href="#g" y="69.463" class="E"/></g><g transform="matrix(.12 0 0 -.12 12.8175 72.565104)"><use xlink:href="#j"/><use x="55.615" xlink:href="#i"/><use x="111.23" xlink:href="#h"/><use x="166.846" xlink:href="#h"/></g><g class="D"><path d="M47.51 18.36h511.93" class="F G H I"/><use x="47.51" xlink:href="#g" y="18.36" class="E"/></g><defs><path d="M4.203 18.891l8.781 1.172q1.516-7.469 5.156-10.766Q21.781 6 27 6q6.203 0 10.469 4.297 4.281 4.297 4.281 10.656 0 6.047-3.953 9.969-3.953 3.938-10.062 3.938-2.484 0-6.203-.969l.984 7.719q.875-.109 1.406-.109 5.625 0 10.109 2.922 4.5 2.938 4.5 9.047 0 4.828-3.281 8-3.266 3.188-8.437 3.188-5.125 0-8.547-3.234-3.422-3.219-4.391-9.656l-8.797 1.563q1.609 8.828 7.313 13.688 5.719 4.859 14.219 4.859 5.859 0 10.781-2.516 4.938-2.516 7.547-6.859 2.625-4.344 2.625-9.234 0-4.625-2.5-8.437-2.484-3.812-7.359-6.062 6.344-1.453 9.859-6.078 3.516-4.609 3.516-11.547 0-9.375-6.844-15.891-6.828-6.516-17.281-6.516-9.422 0-15.656 5.609-6.219 5.625-7.094 14.547z" id="k" class="B C"/></defs><g transform="matrix(.12 0 0 -.12 12.8175 21.462188)"><use xlink:href="#k"/><use x="55.615" xlink:href="#h"/><use x="111.23" xlink:href="#h"/><use x="166.846" xlink:href="#h"/></g><path d="M81.639 324.978h45.505V19.689H81.639zm56.881 0h45.505v-35.363H138.52zm56.881 0h45.505v-11.345h-45.505zm56.881 0h45.505v-9.301h-45.505zm56.881 0h45.505v-3.271h-45.505zm56.881 0h45.505v-2.657h-45.505zm56.881 0h45.505v-2.453h-45.505zm56.881 0h45.505v-1.329h-45.505z" class="F" fill="#0072bd"/><g stroke-linejoin="miter" class="E G H"><path d="M47.51 324.978V18.36m511.93 306.618V18.36"/><path d="M47.51 324.978h511.93M47.51 18.36h511.93"/></g><defs><clipPath id="l"><path d="M47.51 18.36h511.93v306.617H47.51z" class="B C"/></clipPath></defs></svg>